<?xml version="1.0" encoding="UTF-8" standalone="no"?>
<!DOCTYPE svg PUBLIC "-//W3C//DTD SVG 1.1//EN" "http://www.w3.org/Graphics/SVG/1.1/DTD/svg11.dtd">
<!-- Created with Vectornator (http://vectornator.io/) -->
<svg height="100%" stroke-miterlimit="10" style="fill-rule:nonzero;clip-rule:evenodd;stroke-linecap:round;stroke-linejoin:round;" version="1.1" viewBox="0 0 183.628 45.786" width="100%" xml:space="preserve" xmlns="http://www.w3.org/2000/svg" xmlns:vectornator="http://vectornator.io" xmlns:xlink="http://www.w3.org/1999/xlink">
<defs/>
<clipPath id="ArtboardFrame">
<rect height="45.786" width="183.628" x="0" y="0"/>
</clipPath>
<g clip-path="url(#ArtboardFrame)" id="Untitled" vectornator:layerName="Untitled">
<path d="M22.893 0C10.2495 0 0 10.2495 0 22.893C0 35.5365 10.2495 45.786 22.893 45.786C35.5365 45.786 45.786 35.5365 45.786 22.893C45.7678 10.2571 35.5289 0.0181751 22.893 0L22.893 0ZM42.835 22.893C42.8283 24.0247 42.728 25.1539 42.535 26.269L24.369 8.1L24.369 3.009C34.7718 3.79905 42.8154 12.4603 42.835 22.893L42.835 22.893ZM21.418 42.761C17.3169 42.4621 13.4103 40.8954 10.239 38.278L21.417 27.1L21.418 42.761L21.418 42.761ZM24.37 27.099L35.549 38.278C32.3777 40.8954 28.471 42.462 24.37 42.761L24.37 27.099L24.37 27.099ZM21.418 3.007L21.418 8.1L3.24699 26.271C3.05401 25.1559 2.95367 24.0267 2.947 22.895C2.96473 12.4593 11.0111 3.79519 21.417 3.007L21.418 3.007L21.418 3.007ZM4.118 29.571L21.418 12.271L21.418 22.915L8.1 36.231C6.34193 34.298 4.98687 32.0338 4.114 29.571L4.118 29.571L4.118 29.571ZM37.692 36.249L24.369 22.93L24.369 12.286L41.669 29.586C40.7893 32.0454 39.4369 34.309 37.688 36.249L37.692 36.249L37.692 36.249ZM56.467 6.518L60.9077 6.518L60.9077 39.268L56.467 39.268L56.467 6.518ZM69.0027 6.518L75.6174 6.518L86.0253 31.3118L86.2103 31.3118L96.5256 6.518L103.14 6.518L103.14 39.268L98.6997 39.268L98.6997 12.3464L98.6072 12.3464L87.5517 39.268L84.5913 39.268L73.5359 12.3464L73.4433 12.3464L73.4433 39.268L69.0027 39.268L69.0027 6.518ZM107.072 6.518L111.698 6.518L118.914 32.6995L119.007 32.6995L126.731 6.518L131.82 6.518L139.545 32.6995L139.637 32.6995L146.853 6.518L151.479 6.518L141.95 39.268L137.278 39.268L129.322 12.5314L129.229 12.5314L121.319 39.268L116.647 39.268L107.072 6.518ZM154.995 6.518L166.42 6.518C168.733 6.518 170.76 6.78012 172.503 7.30437C174.245 7.82862 175.756 8.53018 177.036 9.40906C178.316 10.2879 179.38 11.2979 180.228 12.4389C181.076 13.5799 181.747 14.7518 182.24 15.9544C182.733 17.1571 183.088 18.3598 183.304 19.5625C183.52 20.7652 183.628 21.8753 183.628 22.893C183.628 24.99 183.242 27.0176 182.471 28.9758C181.7 30.934 180.559 32.6764 179.048 34.2029C177.537 35.7293 175.664 36.9551 173.428 37.8803C171.192 38.8054 168.61 39.268 165.68 39.268L154.995 39.268L154.995 6.518ZM159.435 35.1049L165.032 35.1049C166.913 35.1049 168.694 34.8504 170.375 34.3416C172.056 33.8328 173.528 33.0696 174.793 32.0519C176.057 31.0342 177.059 29.7622 177.799 28.2357C178.539 26.7092 178.909 24.9283 178.909 22.893C178.909 21.8445 178.74 20.6187 178.401 19.2156C178.061 17.8124 177.421 16.4787 176.481 15.2143C175.54 13.95 174.237 12.8783 172.572 11.9995C170.907 11.1206 168.748 10.6811 166.096 10.6811L159.435 10.6811L159.435 35.1049Z" fill="#000000" fill-rule="evenodd" opacity="1" stroke="none" vectornator:layerName="path"/>
</g>
</svg>
