<svg height="48" viewBox="0 0 205 48" width="205" xmlns="http://www.w3.org/2000/svg" xmlns:xlink="http://www.w3.org/1999/xlink"><defs><path id="a" d="m7.69506726 48v-48h-7.69506726v48zm16.03139014 0v-41.984l8.5286996 41.984h9.2982062l8.464574-41.664v41.664h7.6950673v-48h-13.3381166l-7.1820628 36.864-7.438565-36.864h-13.0816144v48zm57.3282511 0 5.1941704-40.512 5.1941704 40.512h11.6067267l6.604933-48h-7.695068l-4.8735423 39.36-5.0659193-39.36h-11.5426009l-5.0659193 39.36-4.8735426-39.36h-7.6950673l6.6049328 48zm47.5170405 0c8.977578 0 14.428251-5.312 14.428251-16v-16c0-10.688-5.450673-16-14.428251-16h-13.786996v48zm0-7.04h-6.091928v-33.92h6.091928c4.232287 0 6.733184 2.24 6.733184 8.96v16c0 6.72-2.565023 8.96-6.733184 8.96z"/></defs><g fill="none" fill-rule="evenodd"><path d="m36.940304 0c-4.223839 0-8.0659194 2.29185878-10.0919513 5.92738441-.8794494-.06188467-1.7982503-.09372509-2.7606482-.09372509-.8508746 0-1.6651736.02677858-2.4508979.07511072-2.0286444-3.62474885-5.8650098-5.90877004-10.0816643-5.90877004-6.37168119 0-11.5551423 5.1836243-11.5551423 11.5551423 0 4.4290874 2.46543017 8.371261 6.36351693 10.3220189.25341732 2.9080939 1.05253086 5.9700017 2.29398155 8.8678087-1.99174229.1655704-4.10872358.6175414-6.20839685 1.5329133-.67256807.2932586-.98003247 1.0762071-.68693715 1.7489384.29325863.6725682 1.07620707.9805225 1.74893844.6869373 2.15878219-.9411709 4.37112153-1.3090506 6.40548101-1.3657102.42421267.7811523.88108227 1.5415674 1.36864927 2.2738976.3037089.4562165.6149288.8939817.9323536 1.315092-2.70529485 1.1140889-5.73046358 2.9164215-8.14690838 5.8230458-.46911597.5643107-.39188249 1.4019593.17242823 1.8710752.24819217.2063914.54928852.3069746.8487519.3069746.38110571 0 .75959872-.1631212 1.02232317-.4792396 2.31520861-2.7849775 5.35213388-4.4170045 7.93153648-5.3655232 1.5996966 1.6666433 3.3229994 2.9250756 5.1161878 3.7418238.4211104 2.3692557 2.2508746 5.1410072 4.9259617 5.1410072 2.6752506 0 4.5048515-2.7717515 4.9259618-5.1410072 1.8258453-.8316071 3.5790292-2.1217166 5.2030551-3.8335895 2.6233261.93268 5.7709581 2.5780963 8.1645431 5.4574522.2627246.3161185.6410543.4792394 1.0223233.4792394.2994634 0 .6005598-.100583.8487519-.3069744.5643106-.4691159.6413809-1.3067645.1724283-1.8710752-2.4894329-2.9944714-5.6253085-4.8172143-8.3915084-5.9224859.2914626-.3904128.5775368-.7951948.8572427-1.2154887.4901796-.736249.9493352-1.5007462 1.3755073-2.2863071 2.1155117.0282482 4.4429667.3861674 6.7183337 1.3781197.6722417.2932587 1.4556798-.014369 1.7489386-.6869372.2930953-.6730579-.0143691-1.4560064-.6871005-1.749265-2.2089104-.963051-4.4370884-1.4132258-6.5181472-1.5565895 1.2127127-2.8375551 2.0003963-5.8310468 2.2681826-8.6829708 4.0917421-1.8883834 6.6990663-5.9283643 6.6990663-10.4831806 0-6.371518-5.1834611-11.5551423-11.5551423-11.5551423zm-12.8524363 41.2596644c1.3967342 0 1.6499882.2669699 1.652111.2697457.0096337.0133893.0452296.1054816.0452296.3082809-.0001632 1.2158151-1.0675529 2.8164913-1.6973406 2.8164913-.6297876 0-1.6973406-1.6008395-1.6973406-2.8164913 0-.2029624.0357593-.2948916.0450666-.3082809.0022859-.0027758.2553766-.2697457 1.652274-.2697457zm0-32.10447522c12.987799 0 14.4898516 6.14259312 14.4898516 10.76272322 0 3.4054581-1.0104035 7.3344056-2.7266851 10.8440391-3.7686023.330814-6.4763464 1.4241659-6.6737571 1.5056448-.6781198.2800326-1.000933 1.0569395-.7205738 1.7352226.2114532.5122229.7066947.8216467 1.2283881.8216467.1689992 0 .3409376-.0324935.5068345-.101073.0346163-.0142057 1.6230463-.6559131 4.011896-1.0624911-.0261255.0398414-.0517611.0801726-.0782132.1198507-.470912.7073477-.963051 1.3622811-1.4703754 1.9685559-1.861768-.4637275-3.1557962-.5703521-3.2950778-.5808024-.7285746-.0561698-1.3691391.4942617-1.4236761 1.2261021-.0547002.7316771.494425 1.3691391 1.2261021 1.4236761.0194308.0014695.4905061.0403312 1.2636574.1770001-.6872638.5734547-1.3910192 1.0584091-2.1037552 1.4491485-.2849313-.3540004-.6431771-.6524842-1.0714719-.8835315-.7878468-.4250292-1.7930252-.6230931-3.1631441-.6230931-1.3701188 0-2.3752971.1980639-3.163144.6230931-.4282948.2310473-.7863773.5295311-1.0713085.8835315-.6913459-.378983-1.3742009-.8469558-2.0418706-1.3980405.9261488-.1771634 1.5020526-.2264753 1.5236062-.2281081.7306974-.0555168 1.2786795-.6924889 1.2239794-1.4235128-.0547004-.7320037-.6931421-1.280639-1.4236761-1.2261021-.145813.0109401-1.5560997.1271986-3.5586188.6479122-.5274083-.6247258-1.0384883-1.3021925-1.5268717-2.0356657-.0373922-.0561698-.0738046-.1134826-.1108701-.1699791 2.5774432.3982506 4.3231159 1.0959645 4.3660597 1.113436.1654071.0679262.3366923.1002565.5052017.1002565.5216934 0 1.0169348-.3094238 1.2283881-.8216468.2801959-.678283-.042454-1.4551899-.7205739-1.7352225-.2032889-.0839281-3.0654999-1.2396546-7.0066938-1.5327501-1.5734078-3.2264983-2.60177258-7.6165608-2.71345904-10.8169337-.06270122-4.1916721 1.23704204-9.6373678 11.16815844-10.61037911.0280849-.00195946.0561697-.0040821.0842546-.0076744.9911359-.09421502 2.0670163-.14483311 3.2374384-.14483311zm-6.3963371 14.53295862c-.8389393 0-1.5190341.6800946-1.5190341 1.5190341 0 .8389393.6800948 1.519034 1.5190341 1.519034.8389395 0 1.5190342-.6800947 1.5190342-1.519034 0-.8389395-.6800947-1.5190341-1.5190342-1.5190341zm13.1923943 0c-.8389394 0-1.5190342.6800946-1.5190342 1.5190341 0 .8389393.6800948 1.519034 1.5190342 1.519034s1.5190341-.6800947 1.5190341-1.519034c0-.8389395-.6800947-1.5190341-1.5190341-1.5190341zm6.0563791-20.36645463c4.5399576 0 8.2334491 3.6934915 8.2334491 8.23344913 0 2.680802-1.2675763 5.1116159-3.3517374 6.6348955-.3815955-4.1999997-2.1950314-7.3835542-5.4071607-9.4773492-1.6343128-1.06526697-3.5914388-1.82764158-5.9051777-2.2998598 1.5386282-1.92463247 3.8874733-3.09113563 6.4306267-3.09113563zm-25.3853251 0c2.5188242 0 4.8469321 1.14445979 6.3860503 3.03610882-2.4345694.46682989-4.4816651 1.24749225-6.180312 2.3547233-3.15383681 2.05574971-4.95910841 5.16207091-5.38495396 9.24940421-1.90667109-1.531607-3.05423338-3.8561227-3.05423338-6.4067872 0-4.53995763 3.69349151-8.23344913 8.23344904-8.23344913z" fill="#000"/><g fill-rule="nonzero" transform="translate(62)"><use fill="#fffffe" xlink:href="#a"/><use fill="#000" xlink:href="#a"/></g></g></svg>