<?xml version="1.0" encoding="UTF-8"?>
<svg width="1001px" height="1231px" viewBox="0 0 1001 1231" version="1.1" xmlns="http://www.w3.org/2000/svg" xmlns:xlink="http://www.w3.org/1999/xlink">
    <title>customer</title>
    <g id="Page-1" stroke="none" stroke-width="1" fill="none" fill-rule="evenodd">
        <g id="customer" transform="translate(0.3799, 0.66)">
            <path d="M941.982043,1126.14107 L16.0116232,1126.14107 L16.0116232,462.991983 C16.0116232,340.195426 64.7881083,222.427463 151.619657,135.598455 C238.451205,48.7694468 356.220595,0 479.017152,0 L479.017152,0 C601.806668,0 719.565618,48.7849834 806.388377,135.612823 C893.211136,222.440663 941.982043,340.202467 941.982043,462.991983 L941.982043,1126.14107 Z" id="Path" fill="#E9CF81"></path>
            <path d="M16.0116232,1124.17688 C16.0116232,1124.17688 44.8106213,942.401833 92.5335142,737.964167 C140.256407,533.5265 206.916741,306.439762 282.598774,215.843479 C295.860401,199.981001 309.853517,192.611926 320.52784,189.225402 C326.338686,187.229218 332.455411,186.2709 338.598331,186.394268 C352.632085,186.638098 364.796479,192.679656 374.481937,199.831994 C382.210046,205.762313 389.256467,212.531602 395.49193,220.015676 C427.108516,256.346303 472.447296,389.490871 511.162036,518.625795 C549.876776,647.76072 581.967475,772.818269 587.182721,793.083227 C588.198679,773.847772 593.034634,693.383968 612.920302,613.990305 C632.80597,534.596642 667.646526,456.286666 728.68523,441.358869 C733.021545,440.398331 737.422161,439.755443 741.852035,439.435324 C751.682058,438.566043 761.587314,439.214819 771.219969,441.358869 C843.203918,458.386311 884.817522,596.217828 908.97021,746.714944 C933.122897,897.21206 939.814668,1060.37478 941.982043,1128.06461 L479.017152,1126.14107 L16.0116232,1124.17688 Z" id="Path" fill="#193311"></path>
            <path d="M265.896439,280.200976 L175.137602,280.200976 C158.367536,302.281111 143.683569,322.952452 131.01797,341.618971 C118.352371,360.28549 107.705141,376.933641 99.0356398,390.980942 C72.7426693,433.529226 52.9789166,465.74184 39.4328216,494.540838 C25.8867265,523.339837 18.3550977,548.725219 16.5670131,577.619039 C15.4641071,594.445331 16.0950639,611.340446 18.4499203,628.037605 C22.4210478,657.121043 32.0237073,685.151423 46.7206207,710.560416 C79.1770645,765.909761 130.570949,795.616347 175.584623,811.519463 C204.681595,821.851813 235.088578,828.035357 265.909985,829.887968 L265.909985,751.456077 C250.415038,749.902321 235.102517,746.881545 220.178368,742.434378 C200.219317,736.496992 181.1578,727.879893 163.515052,716.818712 C155.67472,712.053789 148.116894,706.838844 140.879527,701.200065 C132.423825,694.498931 124.890263,686.710303 118.474286,678.036242 C112.433157,669.81336 107.454003,660.860895 103.654858,651.391073 C100.203779,642.765989 97.6437959,633.810588 96.0148606,624.664628 C93.5423619,610.869226 93.0860653,596.78791 94.6602511,582.861378 C96.21421,568.91195 99.6641583,555.239764 104.914645,542.223093 C113.394501,521.091185 123.377973,498.52339 135.149529,474.912547 C146.921086,451.301703 160.494273,426.661356 176.140013,401.424981 C191.13554,377.218109 206.442628,355.043151 221.573616,334.85947 C236.704604,314.675788 251.605308,296.496929 265.896439,280.200976 Z" id="Path" fill="#F4ECE5"></path>
            <path d="M745.875225,507.558636 C750.988371,528.67406 753.144729,550.397209 752.282528,572.105779 C751.49286,593.904482 746.956402,615.404546 738.871894,635.664057 C733.415319,649.111341 726.205039,661.778295 717.428425,673.335747 C708.662674,684.905154 698.258415,695.136009 686.543329,703.706092 C674.15893,712.909514 659.717031,718.954095 644.469157,721.316016 C630.042566,723.59176 614.965762,722.846725 598.507257,720.882541 C587.535403,719.448635 576.388011,720.208371 565.712161,723.117646 C555.586155,725.944898 546.249705,731.072064 538.430325,738.099628 C531.328332,744.714901 525.908616,752.930391 522.622032,762.06267 C519.287415,771.176595 517.173929,780.69184 516.336644,790.360462 C516.025084,793.503156 515.591609,809.324995 515.293595,824.334069 C514.995581,839.343142 514.887212,853.580088 515.212318,853.580088 L466.446376,853.580088 C466.446376,853.580088 466.012901,844.924133 465.958717,832.841016 C465.800232,819.056804 466.383557,805.274048 467.706163,791.552519 C468.885048,779.789117 471.041819,768.144364 474.154104,756.739054 C478.315105,741.766172 484.606085,727.468906 492.834169,714.285592 C498.137731,705.758336 504.566827,697.985099 511.947709,691.175954 C519.311169,684.326414 527.821128,678.824285 537.089262,674.92064 C547.736493,670.558798 558.966205,669.271919 570.331379,669.190642 C581.696553,669.109365 593.170095,670.220145 604.345624,670.65362 C615.781305,671.186852 627.226012,669.813487 638.210861,666.589792 C649.191471,663.36162 659.353223,657.818846 668.012271,650.334478 C695.104461,626.628811 701.633679,593.034496 699.290204,558.099116 C696.94673,523.163737 685.744109,486.873749 677.291346,457.858013 C673.132695,443.580429 668.472838,427.988873 663.271137,411.218808 C658.069437,394.448742 652.312346,376.513712 645.98632,357.535633 L670.843404,348.568118 L695.754673,339.492234 C702.193584,357.454356 708.46091,376.012507 714.556653,395.166685 C720.652396,414.320863 726.522371,434.062039 732.166577,454.390213 C734.659058,463.420943 737.043171,472.365881 739.318915,481.225027 C741.594659,490.084173 743.780096,498.862043 745.875225,507.558636 Z" id="Path" fill="#BAB653"></path>
            <path d="M697.827226,541.599973 C696.084295,533.580684 694.345879,525.561396 692.611979,517.542108 C690.878079,509.52282 689.139664,501.521593 687.396733,493.538427 C687.193541,492.712116 687.017442,492.048357 686.868435,491.465875 L686.475598,489.894528 C686.177584,488.729564 685.771201,487.185309 685.120989,484.909565 C684.470776,482.633821 683.766379,479.748503 682.601415,475.928504 C677.96865,459.862835 673.796453,445.869719 670.775674,435.899793 C667.754895,425.929867 665.89908,419.969585 665.89908,419.969585 C663.189861,411.476184 660.263904,401.953279 656.945111,391.522785 C653.626318,381.092292 649.982418,369.713572 646.013412,357.508541 L670.870497,348.541026 L695.754673,339.492234 C700.644814,352.631947 705.006656,364.836978 708.853747,375.890592 C712.700838,386.944205 716.033178,396.859947 718.864311,405.461717 C719.46034,407.263348 725.081969,424.42625 731.516364,447.156598 C737.950759,469.886945 745.19792,497.940908 749.126288,521.511114 C750.033876,527.051467 750.846642,532.916926 751.44267,539.202314 C752.038698,545.487702 752.445081,552.220111 752.512812,559.521456 C752.512812,564.181313 752.512812,568.461879 752.30962,572.281878 C752.106429,576.101877 751.903237,579.461308 751.659408,582.26535 L724.770409,561.946207 L697.827226,541.599973 Z" id="Path" fill="#666538"></path>
            <path d="M931.903748,604.331939 C925.198696,593.11653 914.045266,585.277122 901.221843,582.766556 C874.545747,577.629503 847.959503,592.068681 837.744842,617.241367 C834.046645,614.771463 830.10708,612.683675 825.986831,611.010164 C810.320889,604.431162 792.623869,604.667291 777.139039,611.661932 C761.654208,618.656574 749.778019,631.778937 744.358062,647.882634 C743.762034,649.602989 743.247283,651.350435 742.786715,653.111427 C731.036499,648.80377 718.423332,647.382175 706.009067,648.966322 C687.54574,651.201428 671.58844,659.356177 660.697379,670.734897 C649.806319,682.113617 643.981498,696.689215 645.796675,711.806657 C647.611851,726.924099 656.769012,739.684521 670.071277,748.110192 C683.373542,756.535863 700.820913,760.64033 719.28424,758.405224 C737.747568,756.170118 753.704868,748.001823 764.595928,736.623103 C767.224346,733.886161 769.58742,730.906239 771.653444,727.723319 C775.275438,730.115913 779.122787,732.148475 783.140533,733.791969 C798.809776,740.374933 816.511937,740.139303 832.000412,733.141607 C847.488886,726.143911 859.366115,713.015565 864.782847,696.905953 C866.789667,691.129258 867.988548,685.102942 868.34547,678.998015 C869.239513,679.228298 870.133555,679.445036 871.054689,679.634681 C899.089507,685.020228 926.774726,668.796156 935.777932,641.705615 C939.857988,629.263412 938.449164,615.672698 931.903748,604.331939 Z" id="Path" fill="#BAB653"></path>
            <path d="M683.874748,705.426446 C683.483148,705.42425 683.104621,705.285297 682.804606,705.03361 C682.492574,704.77564 682.28152,704.415888 682.208578,704.017652 C682.052033,703.106701 682.654935,702.238522 683.563188,702.067015 C696.364248,699.791271 709.165307,697.176874 721.885091,694.250918 C734.604874,691.324961 747.229835,688.046806 759.73288,684.538368 C789.700616,675.951804 819.106941,665.514821 847.782498,653.287526 C876.612423,640.989668 904.660412,626.934007 931.768288,611.199809 C932.580815,610.738471 933.613259,611.016204 934.08467,611.822929 C934.326212,612.231346 934.389901,612.720929 934.260769,613.177539 C934.14564,613.611257 933.863057,613.981539 933.475095,614.207042 C906.22728,630.001623 878.039478,644.115881 849.069377,656.470859 C820.276158,668.754244 790.747469,679.236544 760.654015,687.857161 C748.137423,691.446876 735.444732,694.725031 722.724949,697.67808 C710.005165,700.631129 697.082191,703.259071 684.226946,705.534815 L683.928932,705.534815 L683.874748,705.426446 Z" id="Path" fill="#666538"></path>
            <path d="M555.742235,424.453343 L555.742235,424.453343 L555.742235,424.521073 L555.742235,424.60235 C544.607345,449.567803 551.800321,474.817724 568.028543,491.045946 C584.256765,507.274168 609.506686,514.467144 634.472139,503.318708 L634.472139,503.318708 L634.472139,503.318708 L634.472139,503.318708 C644.279512,528.758275 667.307874,541.57288 690.21432,541.57288 C713.120767,541.57288 736.10849,528.758275 745.875225,503.264524 L745.875225,503.264524 L745.875225,503.264524 L745.956502,503.264524 C770.908409,514.41296 796.171876,507.206437 812.332367,490.991762 C828.492859,474.777086 835.767112,449.513618 824.618676,424.548165 L824.618676,424.466889 L824.618676,424.399158 L824.618676,424.399158 C850.166611,414.632424 862.927032,391.685339 862.927032,368.738254 C862.927032,345.791169 850.180157,322.85763 824.67286,313.131533 L824.67286,313.131533 L824.67286,313.063803 L824.67286,313.063803 C835.821296,288.09835 828.614774,262.848429 812.386552,246.620207 C796.15833,230.391985 770.908409,223.199008 746.010686,234.347445 L745.929409,234.347445 L745.929409,234.347445 L745.929409,234.347445 C736.162675,208.813055 713.21559,196.039088 690.268505,196.039088 C667.32142,196.039088 644.360789,208.813055 634.594054,234.347445 L634.594054,234.347445 L634.594054,234.347445 L634.594054,234.347445 C609.628601,223.199008 584.37868,230.391985 568.150458,246.620207 C551.922236,262.848429 544.729259,288.09835 555.86415,313.063803 L555.86415,313.063803 L555.86415,313.131533 L555.86415,313.131533 C530.32976,322.898268 517.555793,345.845353 517.555793,368.805984 C517.555793,391.766615 530.207846,414.700154 555.742235,424.453343 Z" id="Path" fill="#DEB8FC"></path>
            <path d="M625.843277,382.108249 C630.697987,412.824341 656.574204,435.833727 687.647194,437.064899 C718.720184,438.296072 746.335777,417.406135 753.605516,387.170438 C760.875255,356.934741 745.774437,325.774257 717.538046,312.745341 C689.301654,299.716425 655.793833,308.447772 637.506465,333.599683 C627.323149,347.57506 623.126087,365.031131 625.843277,382.108249 Z" id="Path" fill="#F4ECE5"></path>
            <path d="M890.357875,659.51873 C888.705251,665.126813 884.248586,680.555816 880.062843,700.27893 C875.877099,720.002045 872.002916,744.005725 871.488164,766.803803 C871.352704,772.479617 871.217243,778.683728 871.488164,785.68706 C871.743413,793.617384 872.480779,801.524842 873.696178,809.365634 C874.712135,815.921944 875.606177,819.850311 876.635681,824.334069 C877.665184,828.817826 878.884332,833.816335 880.52341,842.689028 C882.162487,851.56172 883.232629,859.282994 883.99121,866.137318 C884.749792,872.991642 885.142628,878.802917 885.34582,883.286674 C885.138113,890.935703 884.718184,898.787923 884.086033,906.843334 C883.453882,914.898745 882.577901,923.116709 881.45809,931.497227 C876.302938,969.592913 866.447585,1006.90311 852.117249,1042.57521 C840.382711,1071.77958 825.971469,1099.8357 809.067758,1126.3849 L789.642658,1126.3849 C797.431663,1109.56065 806.846199,1088.55065 816.734848,1064.69598 C826.623498,1040.84131 837.135267,1014.12841 847.010371,985.911891 C850.871008,974.858277 854.92129,962.802252 858.199445,949.337434 C861.836698,934.581335 864.023492,919.505156 864.728663,904.32376 C865.202776,894.231919 864.972493,884.668376 864.552564,876.92001 C864.132635,869.171643 863.523061,863.238454 863.197954,860.447958 C862.092008,850.282898 860.45977,840.182014 858.307814,830.185982 C856.601006,822.315701 855.083843,816.951447 854.528453,814.838256 C851.670227,804.00138 849.990512,787.867981 851.819234,762.699336 C853.647957,737.530692 858.822566,703.353894 869.821995,656.416674 L880.117027,657.960929 L890.357875,659.51873 Z" id="Path" fill="#F4ECE5"></path>
            <path d="M859.418594,888.081992 L853.255121,888.258091 L847.078101,888.420644 C847.043492,888.424514 847.008881,888.4134 846.982996,888.390103 C846.957111,888.366807 846.942425,888.333553 846.94264,888.29873 C846.925308,888.22785 846.967233,888.155978 847.037463,888.136176 C851.594993,886.598401 855.773696,884.109648 859.296679,880.834831 C862.382406,877.994661 864.595457,874.334433 865.67689,870.282423 C866.56667,866.389589 866.346084,862.325176 865.040223,858.551505 C864.37017,856.425087 863.427657,854.394359 862.236182,852.509946 C858.80729,847.343536 853.702895,843.516436 847.782498,841.67307 C841.195199,839.591306 834.156821,839.394231 827.463356,841.104134 C833.869251,839.656049 839.597663,836.085339 843.71867,830.971655 C851.271155,821.783158 851.62813,808.642021 844.58562,799.057055 C838.162452,789.893318 826.42609,786.123288 815.867898,789.832165 C810.35845,791.686342 805.531431,795.149717 802.010243,799.774998 C804.935723,794.018722 806.018764,787.501559 805.112299,781.108479 C804.270208,774.906475 801.4147,769.152626 796.984642,764.73125 C792.405952,760.329333 786.529493,757.521745 780.228122,756.725508 C774.091443,755.828727 767.835244,757.128903 762.564014,760.3965 C756.171599,764.786361 751.934681,771.675658 750.900826,779.361033 C749.593079,788.076235 751.672575,796.961355 756.712101,804.191025 C756.80294,804.301139 756.80294,804.460203 756.712101,804.570316 C756.604117,804.6669 756.440795,804.6669 756.33281,804.570316 C751.063246,800.721658 744.476888,799.132352 738.032036,800.154289 C731.846872,800.850109 726.317734,804.331502 723.017028,809.60841 C719.716322,814.885318 719.005191,821.380374 721.085871,827.246479 C723.057083,833.926644 727.78217,839.44992 734.076576,842.431652 C734.076576,842.431652 734.076576,842.431652 734.076576,842.431652 L734.076576,842.431652 C726.125835,840.765725 717.838985,842.335352 711.048215,846.793494 C704.844103,850.857323 700.590629,857.047888 699.696587,863.56356 C699.068286,869.565335 700.727553,875.5832 704.342898,880.414902 C708.234974,885.866875 713.829536,889.869799 720.246013,891.793622 L713.906441,891.956175 L707.566868,892.118728 C699.171013,892.342003 691.208332,895.893888 685.433002,901.991905 C679.657673,908.089922 676.543521,916.233767 676.776594,924.629357 L676.776594,924.629357 C676.989224,933.03476 680.538344,941.009951 686.640485,946.794404 C692.742626,952.578857 700.896007,955.696916 709.300768,955.460269 L735.390547,954.755872 L761.480327,954.065021 L763.647702,1040.12336 L765.815077,1126.1817 L813.565062,1126.1817 L811.262226,1039.4867 L808.95939,952.791688 L835.049169,952.100837 L861.138948,951.409986 C869.534803,951.186712 877.497484,947.634827 883.272814,941.53681 C889.048144,935.438793 892.162295,927.294948 891.929222,918.899358 L891.929222,918.899358 C891.705947,910.503503 888.154062,902.540823 882.056045,896.765493 C875.958029,890.990163 867.814183,887.876011 859.418594,888.109084 L859.418594,888.081992 Z" id="Path" fill="#666538"></path>
            <path d="M849.570583,889.084403 L815.475061,889.084403 C814.785028,889.091214 814.159894,888.678602 813.894906,888.041441 C813.629919,887.40428 813.778098,886.670056 814.269459,886.185539 C814.592837,885.872726 815.025145,885.697879 815.475061,885.697879 L849.570583,885.697879 C850.505745,885.697879 851.263845,886.455979 851.263845,887.391141 C851.262551,887.839457 851.082094,888.268654 850.762639,888.583198 C850.449858,888.905243 850.019518,889.086182 849.570583,889.084403 Z" id="Path" fill="#2B3D0A"></path>
            <path d="M808.918751,952.75105 L783.492731,952.75105 C787.899727,958.657147 792.293177,964.56776 796.673081,970.482888 C801.052986,976.398016 805.446436,982.308629 809.853432,988.214727 C809.70894,982.308629 809.555418,976.398016 809.392865,970.482888 C809.230312,964.56776 809.072274,958.657147 808.918751,952.75105 Z" id="Path" fill="#353519"></path>
            <path d="M741.513382,842.78385 L730.568138,842.78385 C729.88002,842.793114 729.25586,842.381706 728.993085,841.745671 C728.73031,841.109635 728.882083,840.377654 729.376081,839.898532 C729.687953,839.575156 730.118889,839.393967 730.568138,839.397326 L741.513382,839.397326 C742.200945,839.396074 742.821002,839.810714 743.082493,840.446613 C743.343984,841.082511 743.194985,841.813399 742.705439,842.296191 C742.386219,842.606962 741.958889,842.781779 741.513382,842.78385 L741.513382,842.78385 Z" id="Path" fill="#2B3D0A"></path>
            <path d="M799.775137,804.8006 C799.608709,804.821284 799.44036,804.821284 799.273932,804.8006 C799.103159,804.746922 798.942814,804.664459 798.799818,804.55677 C798.426107,804.303845 798.175522,803.905856 798.108968,803.459536 C798.027381,803.018373 798.130196,802.563049 798.393436,802.199749 L800.140882,799.73436 L801.888328,797.255425 C802.147099,796.888562 802.54196,796.640555 802.984796,796.566749 C803.427631,796.492943 803.881583,796.599481 804.245349,796.862588 C804.613551,797.114711 804.863038,797.506063 804.936199,797.946276 C805.012249,798.391607 804.910069,798.848981 804.651731,799.219608 L802.904285,801.684998 L801.156839,804.150387 C801.000659,804.382889 800.785655,804.569849 800.533719,804.692231 C800.292972,804.787784 800.033008,804.824922 799.775137,804.8006 L799.775137,804.8006 Z" id="Path" fill="#2B3D0A"></path>
            <path d="M399.162922,564.939894 L389.80257,565.183724 L380.442219,565.427554 C380.389705,565.435234 380.336376,565.420558 380.295185,565.387091 C380.253995,565.353624 380.228713,565.304428 380.225481,565.251455 C380.206953,565.144307 380.270686,565.040015 380.374488,565.007625 C387.29548,562.671999 393.640136,558.890141 398.986823,553.913373 C403.671788,549.613291 407.027951,544.061991 408.658735,537.915435 C410.009691,532.00546 409.681251,525.835475 407.710508,520.10232 C406.6764,516.903057 405.247562,513.845161 403.457034,510.999344 C398.232596,503.171884 390.474664,497.379741 381.485268,494.595023 C371.461522,491.41424 360.745732,491.113841 350.559533,493.728073 C360.258667,491.515897 368.926723,486.093588 375.159242,478.339709 C386.630622,464.400752 387.188329,444.457121 376.513851,429.898873 C366.757979,415.99717 348.950099,410.275185 332.922517,415.892211 C324.558674,418.712059 317.231353,423.972821 311.885432,430.996106 C316.320029,422.25504 317.965442,412.363654 316.599473,402.657676 C315.321987,393.250021 310.991258,384.521937 304.272526,377.814137 C297.334424,371.113637 288.415174,366.836959 278.846506,365.622652 C269.599087,364.277991 260.173163,366.224545 252.214883,371.122366 C242.732616,377.191017 236.433682,387.824702 234.523683,399.921364 C232.52253,413.121085 235.638186,426.58673 243.233822,437.565963 C243.381862,437.726717 243.381862,437.974144 243.233822,438.134899 C243.068652,438.271157 242.830056,438.271157 242.664886,438.134899 C234.677636,432.262581 224.675516,429.824228 214.881845,431.361851 C205.849401,432.605462 197.746891,437.56518 192.530788,445.043407 C187.396818,452.845958 186.353769,463.005529 189.15781,472.447157 C192.158784,482.582747 199.337534,490.958775 208.894471,495.475519 L208.894471,495.475519 C196.849075,492.966798 184.300462,495.349816 174.013276,502.099559 C164.490371,508.439132 157.974699,517.840122 156.62009,527.728771 C155.455126,536.330542 158.137253,545.514794 163.677605,553.303799 C169.601585,561.586674 178.120647,567.655373 187.884477,570.547978 L178.293842,570.751169 L168.676115,571.008545 C155.941065,571.345344 143.861742,576.728727 135.096835,585.973798 C126.331929,595.218868 121.59983,607.567881 121.942087,620.302785 L121.942087,620.302785 C122.658287,646.810742 144.714129,667.726809 171.22278,667.036813 L210.831562,665.980217 L250.440344,664.923622 C252.458712,815.881305 254.016513,931.158574 255.059563,1008.70997 C256.102612,1086.26136 256.644456,1126.14107 256.644456,1126.14107 L275.365159,1126.14107 L329.739185,1126.14107 C328.574221,1075.65477 327.355072,985.126217 326.122377,894.597664 C324.889683,804.069111 323.68408,713.527011 322.519116,663.040715 L362.114352,661.984119 L401.723134,660.927524 C418.874512,660.470187 434.479053,650.897438 442.658676,635.81524 C450.838299,620.733041 450.350326,602.432738 441.37857,587.807878 C432.406815,573.183018 416.3143,564.455464 399.162922,564.912802 L399.162922,564.939894 Z" id="Path" fill="#666538"></path>
            <path d="M222.657303,496.003817 L206.063337,496.003817 C205.128174,496.003817 204.370075,495.245718 204.370075,494.310555 C204.362675,493.859246 204.538694,493.424245 204.857861,493.105079 C205.177027,492.785912 205.612028,492.609893 206.063337,492.617293 L222.657303,492.617293 C223.108612,492.609893 223.543613,492.785912 223.862779,493.105079 C224.181946,493.424245 224.357965,493.859246 224.350565,494.310555 C224.350565,495.245718 223.592466,496.003817 222.657303,496.003817 L222.657303,496.003817 Z" id="Path" fill="#2B3D0A"></path>
            <path d="M383.517182,566.30805 L331.757553,566.30805 C331.308304,566.31141 330.877368,566.130221 330.565497,565.806845 C330.243451,565.494063 330.062512,565.063723 330.064278,564.614788 C330.064278,563.679625 330.82239,562.921526 331.757553,562.921526 L383.517182,562.921526 C384.452345,562.921526 385.210457,563.679625 385.210457,564.614788 C385.212223,565.063723 385.031284,565.494063 384.709239,565.806845 C384.397367,566.130221 383.966431,566.31141 383.517182,566.30805 Z" id="Path" fill="#2B3D0A"></path>
            <path d="M949.757502,828.452082 L973.530899,828.452082 C969.683808,832.51591 965.254234,837.446689 960.540193,843.244417 C955.826152,849.042146 950.787005,855.693279 945.747858,863.224908 C942.103958,868.643346 937.525378,875.578946 932.892613,883.909795 C927.632757,893.273543 923.208635,903.082764 919.671625,913.223545 C915.225864,926.043997 912.360033,939.358735 911.137585,952.872965 C910.223177,963.933089 909.947282,975.036739 910.311273,986.128628 C910.467287,999.364412 911.827506,1012.55854 914.375101,1025.54776 C916.834611,1037.67583 918.16331,1050.00598 918.344107,1062.3796 C918.504439,1074.83034 917.666413,1087.2739 915.83808,1099.59072 C914.460832,1108.91667 912.533931,1118.15313 910.067443,1127.25185 L887.418372,1127.25185 C890.636307,1117.66645 893.175699,1107.86648 895.017732,1097.92455 C897.424505,1084.8677 898.531662,1071.6045 898.322979,1058.32931 C898.126224,1046.67977 896.72809,1035.08161 894.150782,1023.71904 C891.411625,1011.00896 889.936946,998.059009 889.748301,985.058487 C889.382818,974.418846 889.640635,963.766933 890.520428,953.157433 C891.791336,938.894737 894.704983,924.826505 899.203475,911.232269 C902.535623,901.213702 906.666914,891.478895 911.557514,882.12171 C915.716165,874.156606 919.563256,868.020225 922.137014,863.956397 C926.581371,856.935053 931.39238,850.152615 936.550059,843.637254 C941.237008,837.771795 945.734312,832.705555 949.757502,828.452082 Z" id="Path" fill="#F4ECE5"></path>
            <path d="M996.477984,873.668947 L953.238848,844.734488 L909.986167,815.800029 C909.303555,815.323725 908.964132,814.491078 909.119217,813.673292 C909.255704,812.797207 909.812243,812.043349 910.609287,811.654924 L932.567507,801.1567 L954.512181,790.658476 C959.564444,788.191193 965.149176,787.013745 970.767495,787.231314 C976.132033,787.446563 981.333932,789.133665 985.803661,792.107909 L985.803661,792.107909 C989.913605,794.867808 993.251797,798.630268 995.502665,803.039607 C997.860005,807.655379 999.107721,812.757562 999.146564,817.940312 L999.580039,844.666757 L1000,871.379657 C1000.00439,872.295548 999.545756,873.151665 998.78082,873.655401 C998.082269,874.111071 997.181847,874.116368 996.477984,873.668947 Z" id="Path" fill="#F98638"></path>
            <path d="M110.305991,826.867189 C107.732134,837.470469 106.647061,848.380466 107.08202,859.282994 C107.497227,870.212797 109.788273,880.989879 113.855068,891.14341 C116.622668,897.886299 120.266291,904.235313 124.691944,910.026666 C129.090126,915.823471 134.305422,920.952073 140.175131,925.252477 C146.385346,929.858201 153.624793,932.880449 161.266401,934.057439 C168.915996,935.043981 176.66509,934.971048 184.294762,933.840701 C189.788664,933.126549 195.369773,933.513358 200.712629,934.978573 C205.786403,936.392562 210.464336,938.96102 214.380639,942.48311 C217.941083,945.800193 220.657919,949.919568 222.305105,954.498496 C223.980717,959.065421 225.042085,963.834743 225.461345,968.681258 C225.610352,970.252605 225.840636,978.163524 225.976097,985.708699 C226.111558,993.253874 226.192834,1000.36557 225.976097,1000.36557 L250.359068,1000.36557 C250.359068,1000.36557 250.575805,996.030824 250.602897,989.975719 C250.679514,983.056132 250.381062,976.137478 249.708855,969.250194 C249.119006,963.355188 248.040643,957.519345 246.484885,951.802823 C244.391313,944.298377 241.23469,937.132113 237.110987,930.521908 C234.45812,926.245185 231.236267,922.348885 227.533898,918.939997 C223.841621,915.51568 219.577851,912.764861 214.936029,910.81234 C209.61956,908.788586 203.961533,907.813382 198.274332,907.940567 C192.584972,907.940567 186.827882,908.455319 181.219799,908.672057 C175.482028,908.921483 169.74247,908.221202 164.232995,906.599504 C158.744299,904.981536 153.664207,902.210577 149.332291,898.471847 C135.786196,886.605468 132.480949,869.754125 133.645913,852.252571 C134.810877,834.751016 140.41896,816.545064 144.68598,801.996558 C146.754017,794.835189 149.097492,787.041669 151.716404,778.615998 C154.317254,770.217419 157.202572,761.222812 160.372358,751.713453 L147.909951,747.21615 L135.447543,742.718846 C132.223573,751.749576 129.062817,761.051228 125.965277,770.623802 C122.867736,780.196376 119.928234,790.08954 117.146769,800.303296 C115.900528,804.818661 114.703956,809.302419 113.557054,813.754568 C112.410151,818.206718 111.326463,822.577592 110.305991,826.867189 Z" id="Path" fill="#BAB653"></path>
            <path d="M134.377402,843.935268 C135.280475,839.916593 136.15194,835.893403 136.991798,831.865698 C137.858748,827.801869 138.739244,823.819317 139.606195,819.796127 C139.714563,819.389744 139.79584,819.051092 139.877116,818.766624 C139.958393,818.482156 140.012577,818.22478 140.066762,817.98095 C140.215769,817.384922 140.41896,816.626341 140.73052,815.474923 C141.042081,814.323504 141.448463,812.887618 141.990307,810.977619 C144.30669,802.849962 146.406334,795.914361 147.923497,790.915852 C149.44066,785.917343 150.361794,782.923656 150.361794,782.923656 C151.716404,778.670182 153.192928,773.901957 154.859098,768.659618 C156.525267,763.417279 158.340444,757.727919 160.277536,751.61863 L147.815128,747.121327 L135.352721,742.624023 C132.914424,749.207426 130.719956,755.33026 128.796411,760.870613 C126.872865,766.410966 125.193149,771.382383 123.770809,775.690041 C123.472795,776.59763 120.655208,785.172308 117.431237,796.591666 C113.843363,808.849105 110.908761,821.288379 108.639821,833.856974 C108.1928,836.566193 107.786417,839.573426 107.474857,842.729666 C107.163297,845.885906 106.973652,849.258884 106.946559,852.889237 C106.946559,855.219165 106.946559,857.372995 107.054928,859.282994 C107.163297,861.192993 107.244573,862.886255 107.366488,864.281503 L120.844853,854.108386 L134.377402,843.935268 Z" id="Path" fill="#666538"></path>
            <path d="M152.989736,908.65851 C146.898511,902.522512 138.882625,898.667617 130.286481,897.740358 C124.0838,896.968957 117.786581,897.688772 111.917976,899.840003 C111.687693,898.94596 111.430317,898.065464 111.132303,897.130784 C108.412783,889.05915 102.458993,882.482044 94.6970874,878.974927 C86.9351817,875.467809 78.0643726,875.346611 70.2095496,878.640364 C68.1416377,879.495217 66.1633152,880.55244 64.3034521,881.796604 C59.2176233,869.151591 45.8775457,861.89068 32.4972209,864.484694 C26.0495434,865.699564 20.4427199,869.644422 17.1214292,875.302821 C13.8001385,880.961221 13.0891884,887.779793 15.1717653,894.001636 C19.6701494,907.595471 33.5522782,915.745063 47.614663,913.047445 C48.0752302,912.952623 48.5222514,912.817162 48.9692725,912.695247 C49.1541504,915.766341 49.7603697,918.797437 50.7709031,921.7034 C53.4719968,929.76824 59.4036341,936.34757 67.1464362,939.867026 C74.8892384,943.386481 83.7465227,943.529388 91.5988337,940.26155 C93.6166626,939.435123 95.5493101,938.414359 97.3694701,937.213679 C98.4015089,938.813961 99.5855018,940.310963 100.905001,941.68389 C113.59388,954.092367 133.02651,956.452043 148.316334,947.440981 C154.981012,943.214599 159.573139,936.807296 160.507819,929.235029 C161.4425,921.662762 158.448813,914.34787 152.989736,908.65851 Z" id="Path" fill="#BAB653"></path>
            <path d="M141.367187,926.878008 L141.231726,926.878008 L141.082719,926.878008 C134.621232,925.740136 128.159744,924.426165 121.738895,922.936095 C115.318046,921.446024 108.937835,919.806947 102.652447,918.005316 C87.5324024,913.680334 72.6975778,908.414175 58.2348015,902.237661 C43.6823325,896.012335 29.5229697,888.905511 15.835524,880.956746 C15.4475627,880.731243 15.1649791,880.360961 15.0498505,879.927243 C14.8800696,879.264703 15.1221876,878.564791 15.6650677,878.14878 C16.2079479,877.732768 16.9467429,877.681002 17.542332,878.017243 C44.6060257,893.737273 73.5059568,906.057962 103.587128,914.700069 C109.818332,916.488153 116.144358,918.113685 122.551661,919.590209 C128.958964,921.066734 135.325629,922.367159 141.719385,923.491485 C142.162312,923.575927 142.555452,923.828314 142.816619,924.195882 C143.069427,924.563694 143.166792,925.016445 143.087541,925.455668 C142.926087,926.246663 142.228668,926.81367 141.421371,926.810278 L141.367187,926.878008 Z" id="Path" fill="#666538"></path>
            <path d="M225.02787,671.642485 C263.065305,645.525614 274.647216,622.294061 268.063814,612.784702 C261.480412,603.275343 236.71815,607.461087 202.067239,636.178808 C222.711488,594.443289 220.259645,569.071453 208.460996,566.213227 C196.662347,563.355001 175.530439,583.023931 158.84165,631.369945 C156.132431,579.691592 140.893074,554.983515 128.701588,555.051106 C116.510102,555.118976 107.298758,579.948968 116.591379,627.3603 C90.4609617,589.322866 67.2158625,577.740954 57.733596,584.297264 C48.2513295,590.853574 52.4099806,615.642928 81.1277022,650.280293 C39.3921833,629.636044 14.0203472,632.101434 11.1621212,643.900083 C8.30389513,655.698731 27.9728252,676.817094 76.3188384,693.505883 C24.6404858,696.215102 -0.0675916131,711.454459 0,723.65949 C0.0678693375,735.864522 24.8978616,745.048774 72.3091943,735.769699 C34.2853055,761.886571 22.7033942,785.118124 29.2867964,794.641028 C35.8701986,804.163933 60.6324603,799.951098 95.2698254,771.233376 C74.6255765,812.968895 77.0909658,838.354277 88.8896146,841.198957 C100.688263,844.043637 121.806626,824.388253 138.508961,776.04224 C141.21818,827.720592 156.443991,852.42867 168.649022,852.374574 C180.854054,852.320301 190.038306,827.463217 180.759231,780.051884 C206.889649,818.089319 230.107656,829.67123 239.63056,823.074282 C249.153465,816.477334 244.954176,791.742164 216.236454,757.091253 C257.971973,777.735502 283.343809,775.270112 286.202035,763.48501 C289.060261,751.699907 269.377785,730.595091 221.018226,713.906302 C272.710125,711.197083 297.418202,695.957726 297.35061,683.752694 C297.282741,671.547663 272.439203,662.36341 225.02787,671.642485 Z" id="Path" fill="#F98638"></path>
            <path d="M178.293842,710.059211 C175.636785,725.902282 162.159174,737.662738 146.102212,738.149371 C130.045249,738.636005 115.880187,727.713308 112.268585,712.060219 C108.656983,696.40713 116.604534,680.382439 131.251523,673.784819 C145.898511,667.187199 163.166308,671.853835 172.496113,684.931204 C177.702986,692.198595 179.790284,701.24518 178.293842,710.059211 L178.293842,710.059211 Z" id="Path" fill="#DEB8FC"></path>
            <polygon id="Path" fill="#666538" points="941.982043 1228.19735 479.003606 1228.19735 16.0116232 1228.19735 16.0116232 1177.15566 16.0116232 1126.11397 479.003606 1126.11397 941.982043 1126.11397 941.982043 1177.15566"></polygon>
            <path d="M146.338604,863.942851 L105.470035,995.082597 L64.6014662,1126.22234 L230.649499,1126.22234 L189.780931,995.082597 L148.898816,863.942851 C148.723476,863.385106 148.210082,863.002792 147.625483,862.994624 C147.035872,862.994624 146.515484,863.380392 146.338604,863.942851 L146.338604,863.942851 Z" id="Path" fill="#666538"></path>
            <path d="M187.044619,1126.14107 C199.642488,1105.45618 203.530217,1083.47087 200.265608,1063.99158 C197.000999,1044.5123 186.62469,1027.53904 170.640298,1016.86472 C158.480747,1009.04233 144.625361,1004.24427 130.232297,1002.8716 C114.735564,1001.36799 98.3176968,1003.84692 84.1755736,1012.86862 C72.7782197,1020.14834 64.1612971,1031.05071 59.7113259,1043.82145 C57.2684089,1050.50885 55.8969065,1057.54008 55.6474974,1064.65534 C51.2484248,1063.80868 46.7515575,1063.58976 42.2910476,1064.00513 C33.9066027,1064.5701 25.9695443,1067.99355 19.8045298,1073.70413 C13.2741821,1080.14044 9.33159663,1088.74858 8.72382408,1097.89746 C7.98993574,1107.85647 10.5506781,1117.78053 16.0116232,1126.14107 L187.044619,1126.14107 Z" id="Path" fill="#BAB653"></path>
            <path d="M772.235926,1126.14107 C764.210056,1122.02162 757.952509,1115.12869 754.626002,1106.74306 C751.440206,1099.01373 751.406171,1090.34448 754.53118,1082.59037 C757.082734,1076.68796 761.398089,1071.71962 766.885218,1068.36697 C772.646384,1064.80264 779.278447,1062.89504 786.052943,1062.85371 C783.611236,1056.56673 782.034516,1049.97732 781.365994,1043.26606 C780.295853,1032.5511 781.365994,1019.16755 789.778119,1007.63983 C798.908187,995.069051 814.16109,988.092812 829.590092,987.158131 C845.019095,986.223451 860.746111,991.22196 870.892136,1002.80387 C879.981566,1013.15309 882.216672,1026.02188 882.121849,1036.53365 C882.065896,1043.15178 881.113523,1049.73181 879.290715,1056.09421 C890.116839,1049.11533 903.205893,1046.55084 915.865172,1048.92832 C927.861557,1051.06916 938.514565,1057.89177 945.476936,1067.89286 C951.138489,1076.40663 953.850916,1086.54254 953.19821,1096.74604 C952.581521,1107.45751 948.68462,1117.71998 942.036228,1126.14107 L772.235926,1126.14107 L772.235926,1126.14107 Z" id="Path" fill="#BAB653"></path>
            <path d="M471.959637,490.124811 C412.194265,596.127521 352.433409,702.125714 292.677069,808.119393 L113.380955,1126.14107 L271.653529,1126.14107 C277.735726,1115.79185 285.985298,1101.32462 295.372742,1083.41668 C304.760186,1065.50875 315.285501,1044.13301 325.919186,1019.93968 C370.129099,919.140988 406.742349,815.178558 435.452911,708.921339 C458.264535,624.353067 468.96595,563.788476 472.352474,541.952171 C472.408377,541.497145 472.794841,541.155255 473.253289,541.155255 C473.711736,541.155255 474.098201,541.497145 474.154104,541.952171 C479.30162,588.455915 485.736015,631.017746 492.603886,669.177096 C499.471756,707.336446 506.759555,741.066222 513.600333,769.878767 C536.764156,867.329374 568.218188,945.381974 596.69208,1002.42458 C625.165972,1059.46719 650.673269,1095.51335 661.970712,1108.93753 C665.09986,1112.64916 667.985178,1115.99504 670.531844,1118.86681 C673.07851,1121.73859 675.245885,1124.16334 676.966239,1126.04624 L757.484228,1126.04624 L838.015764,1126.04624 L657.500501,808.173577 L476.985238,490.124811 C476.473637,489.218255 475.513389,488.657553 474.472437,488.657553 C473.431486,488.657553 472.471238,489.218255 471.959637,490.124811 Z" id="Path" fill="#F4ECE5"></path>
            <path d="M341.253366,1146.75822 L348.026413,1170.50453 L354.799461,1194.25083 C354.801149,1195.89364 354.40122,1197.51196 353.634496,1198.96487 C352.868602,1200.40274 351.761576,1201.6307 350.410526,1202.54104 L334.073935,1213.49983 L317.669614,1224.47217 C316.920584,1224.9639 316.588782,1225.89294 316.856848,1226.74791 C317.094678,1227.60591 317.876505,1228.19921 318.766848,1228.19736 L429.614544,1228.19736 C431.653721,1228.20071 433.607751,1227.38002 435.032982,1225.9216 C436.453879,1224.47456 437.255538,1222.53115 437.268087,1220.50316 L430.49504,1183.65779 L423.721992,1146.82595 L341.253366,1146.82595 L341.253366,1146.75822 Z" id="Path" fill="#F98638"></path>
            <path d="M810.733928,1124.78646 C810.603357,1124.79696 810.471663,1124.79696 810.341091,1124.78646 C810.209996,1124.75562 810.082771,1124.71018 809.961801,1124.651 C797.363932,1118.23015 785.027955,1111.33518 772.953869,1103.96611 C760.879783,1096.59703 749.139834,1088.81254 737.734022,1080.61264 C661.645606,1025.65613 607.44768,956.571049 568.827763,886.185539 C530.207846,815.800029 507.260761,744.005725 493.538566,683.861063 C493.423142,683.39886 493.501428,682.909568 493.755304,682.506453 C494.119408,681.923791 494.799508,681.618911 495.476743,681.734754 C496.153978,681.850597 496.694075,682.364195 496.843813,683.034751 C510.498277,742.894945 533.41827,814.242228 571.82145,884.289085 C610.224629,954.335943 664.124541,1023.19074 739.779482,1077.76796 C751.067895,1085.89562 762.713021,1093.63495 774.714861,1100.98597 C786.689609,1108.28731 798.989464,1115.15518 811.492509,1121.53539 C811.895739,1121.72979 812.199979,1122.0831 812.332367,1122.51071 C812.49282,1122.95547 812.458395,1123.44726 812.237545,1123.86532 C812.095776,1124.14825 811.874505,1124.38365 811.600878,1124.54263 C811.34033,1124.70326 811.040009,1124.78772 810.733928,1124.78646 Z" id="Path" fill="#F98638"></path>
            <path d="M140.987896,1126.39844 C140.304288,1126.39094 139.6889,1125.98245 139.416549,1125.35539 C139.224715,1124.92423 139.224715,1124.43195 139.416549,1124.00078 C139.589738,1123.58403 139.920934,1123.25284 140.337684,1123.07965 C153.981348,1117.47465 167.267976,1111.03717 180.122565,1103.80356 C192.874307,1096.66662 205.170716,1088.74498 216.940851,1080.08434 C226.423118,1073.05392 243.762119,1060.21222 268.754665,1028.74464 C293.74721,997.277064 326.393299,947.197151 366.489741,865.676751 C380.902786,836.390093 394.530157,806.371947 407.290579,775.852595 C420.051001,745.333242 431.958018,714.299139 442.903263,682.980567 C443.05148,682.560986 443.357701,682.21588 443.756667,682.018794 C444.178168,681.805142 444.670566,681.780523 445.111276,681.951064 C445.535532,682.091258 445.883374,682.399906 446.073049,682.804468 C446.28461,683.225792 446.313991,683.715479 446.154326,684.159077 C435.181989,715.545379 423.261425,746.633667 410.473911,777.207204 C397.686398,807.780741 384.018388,837.866618 369.57825,867.234552 C333.88429,939.800983 304.394441,987.672883 279.754094,1020.41379 C255.113747,1053.15471 235.255172,1070.60208 218.932127,1082.79356 C207.057499,1091.57993 194.647898,1099.61926 181.775188,1106.86497 C168.795549,1114.1645 155.382564,1120.66516 141.611017,1126.33071 L141.28591,1126.42553 L140.987896,1126.39844 Z" id="Path" fill="#F98638"></path>
            <path d="M513.600333,770.59671 C506.827285,741.716435 499.471756,707.905382 492.603886,669.651209 C485.736015,631.397037 479.30162,588.740383 474.16765,542.141816 C474.111291,541.679633 473.718896,541.33218 473.253289,541.33218 C472.787682,541.33218 472.395287,541.679633 472.338927,542.141816 C460.473293,618.859483 443.594845,694.717474 421.811993,769.228554 C396.530888,855.621761 364.47629,939.886811 325.946278,1021.24011 C317.18647,1039.69892 308.268624,1057.65201 299.19274,1075.09938 C290.116857,1092.54675 280.93712,1109.56065 271.653529,1126.14107 L676.532764,1126.14107 C674.338297,1123.89241 672.008369,1121.46766 669.570072,1118.88036 C667.131774,1116.29306 664.598655,1113.5432 661.970712,1110.63079 C645.403838,1092.22164 621.535618,1062.98917 595.188464,1010.45741 C568.841309,957.925658 540.042311,882.108164 513.600333,770.59671 Z" id="Path" fill="#353519"></path>
            <path d="M493.348921,726.531262 C495.882041,724.946369 498.550621,723.158285 501.314025,721.112824 C504.077428,719.067364 506.935654,716.818712 509.820973,714.339777 C513.63953,711.006928 517.25811,707.451674 520.657849,703.692546 C523.800543,700.2112 526.482669,696.919499 528.785506,693.763258 L536.357773,725.176653 C538.886377,735.66133 541.414982,746.146008 543.943586,756.630686 L518.653026,741.567428 L493.348921,726.531262 Z" id="Path" fill="#DEB8FC"></path>
            <path d="M422.380929,751.185155 C425.713268,750.887141 429.302983,750.453666 433.109436,749.830546 C436.915889,749.207426 440.925533,748.475936 445.124823,747.419341 C449.324112,746.362746 453.604678,745.184235 457.411131,743.924448 C461.217583,742.664662 464.712476,741.35069 467.909354,740.036719 C466.310915,750.647827 464.707961,761.249904 463.100491,771.84295 C461.493021,782.435997 459.885551,793.033558 458.278081,803.635635 L440.329505,777.396849 L422.380929,751.185155 Z" id="Path" fill="#F4ECE5"></path>
            <path d="M345.249464,738.275727 C348.48698,739.508421 351.900596,740.72757 355.503858,741.892534 C359.107119,743.057498 362.913572,744.19537 366.882577,745.251966 C371.285058,746.41693 375.538532,747.405795 379.629453,748.245653 C383.720374,749.085511 387.621649,749.749269 391.346825,750.304659 L373.167966,774.240609 L355.002652,798.190105 L350.126058,768.239689 L345.249464,738.275727 Z" id="Path" fill="#F98638"></path>
            <path d="M411.042847,607.325626 L408.889018,640.16136 C408.157529,651.106605 407.435071,662.05185 406.721643,672.997095 L428.896601,650.754407 L451.044466,628.498172 C446.980638,627.008102 442.713618,625.260656 438.22986,623.188103 C433.746103,621.115551 429.086246,618.704346 424.31802,615.927396 C421.888754,614.500541 419.572372,613.073686 417.368874,611.64683 C415.165376,610.219975 413.0567,608.779573 411.042847,607.325626 Z" id="Path" fill="#DEB8FC"></path>
            <path d="M480.90006,636.842567 C483.907293,646.442233 486.923556,656.046414 489.948851,665.655111 C492.974146,675.263808 495.990409,684.863474 498.997643,694.454109 L511.39232,667.145182 L523.786997,639.836254 C520.522388,639.958169 517.013949,640.025899 513.424234,639.971715 C509.834519,639.917531 506.000974,639.78207 502.031968,639.497602 C498.062962,639.213134 494.459701,638.847389 490.937716,638.400368 C487.415731,637.953347 484.0563,637.411503 480.90006,636.842567 Z" id="Path" fill="#F98638"></path>
            <polygon id="Path" fill="#AD4D4D" points="837.988671 1126.24944 823.995555 1126.14107 809.975347 1126.14107 809.975347 1055.11889 837.988671 1055.11889"></polygon>
            <polygon id="Path" fill="#AD4D4D" points="141.516194 1126.11397 127.495986 1126.11397 113.489323 1126.11397 113.489323 1091.43597 113.489323 1056.74442 127.495986 1056.74442 141.516194 1056.74442 141.516194 1091.43597"></polygon>
            <path d="M410.243628,753.271254 C393.319779,753.225893 376.501485,750.604029 360.366906,745.495795 C351.246612,742.678197 342.40811,739.018541 333.965566,734.564097 C333.142623,734.115219 332.839384,733.084204 333.288262,732.261261 C333.73714,731.438318 334.768155,731.135078 335.591098,731.583956 C349.891345,738.89447 365.198522,744.039471 381.011155,746.850405 C405.786962,751.442531 438.107945,751.767637 471.769991,736.514734 C497.434302,724.845051 519.282343,706.166455 534.799972,682.628368 C544.254252,668.520252 551.469318,653.034589 556.189256,636.720652 C535.860198,641.438188 514.881038,642.692999 494.134594,640.432282 C478.510248,638.703919 463.175196,634.961219 448.511346,629.297392 C437.772951,625.168087 427.461096,620.005354 417.721072,613.881936 C413.742167,611.430061 409.931724,608.714781 406.31526,605.754279 C405.978466,605.459389 405.765566,605.048106 405.719232,604.602861 C405.691408,604.155027 405.836916,603.713651 406.125615,603.370166 C406.413209,603.024184 406.828497,602.809211 407.277033,602.774138 C407.725784,602.738959 408.169878,602.885364 408.509728,603.180521 C408.821288,603.437897 424.141921,616.238956 450.421346,626.290159 C484.806678,639.47331 522.418474,641.74364 558.139894,632.792285 L559.494503,632.453632 L560.849113,632.128526 L560.51046,633.483135 L560.171808,634.837745 C555.850682,651.062952 549.07137,666.531112 540.069403,680.704823 C512.35243,725.801655 463.204209,753.268648 410.27072,753.244162 L410.243628,753.271254 Z" id="Path" fill="#666538"></path>
            <path d="M599.861866,935.235949 C599.031294,930.848868 597.876713,926.529379 596.407612,922.312974 C594.120822,915.846594 590.972324,909.718186 587.04726,904.093476 C586.397048,903.172342 585.692651,902.237661 585.028892,901.384257 C584.365134,900.530853 583.57946,899.541988 582.820879,898.675038 C577.692817,892.775258 571.711589,887.675233 565.075494,883.54405 C556.847623,878.33056 547.884227,874.380821 538.48451,871.826678 C536.466141,871.284834 534.664511,870.905544 533.242171,870.648168 C531.819831,870.390792 530.803874,870.255331 530.343307,870.187601 C525.704343,869.493286 521.008293,869.25735 516.323098,869.483204 C512.177993,869.672849 508.479909,870.160508 504.944378,870.566891 C502.05906,870.91909 496.952182,871.515118 490.599064,872.070508 C484.245945,872.625898 476.605947,873.127103 468.65439,873.289656 C466.189,873.289656 463.100491,873.357387 459.172123,873.438663 C455.243756,873.51994 450.597445,873.668947 444.935177,873.939869 C441.662713,874.058169 438.398394,874.343006 435.154897,874.793273 C432.117398,875.253795 429.147102,876.081657 426.309296,877.258662 C424.050424,878.195761 421.871373,879.314733 419.793625,880.604548 C418.019086,881.701781 416.664477,882.690646 415.824619,883.313767 C415.824619,883.313767 414.470009,884.289085 412.56001,886.022986 C410.103094,888.172765 407.81182,890.504793 405.705686,892.999225 C404.019375,895.046218 402.493186,897.220018 401.140652,899.50135 C399.718312,901.871917 398.431433,904.391491 397.185192,906.951702 C394.155272,913.35008 391.755329,920.028182 390.019308,926.891554 C388.288268,933.764498 387.168609,940.777099 386.673422,947.847363 L385.440728,965.457287 L384.194487,983.067211 L411.151216,999.322525 L438.094399,1015.51011 L495.109913,1012.0694 L552.166066,1008.37132 C552.707909,1013.30209 553.303938,1018.3006 553.95415,1023.36684 C554.604363,1028.43308 555.31779,1033.55802 556.094433,1038.74166 C557.530319,1048.38648 559.101666,1057.77844 560.808474,1066.91754 C562.515282,1076.05664 564.321428,1084.93836 566.226912,1093.56271 L597.112009,1088.61838 L628.024198,1083.6876 C624.06432,1072.53156 620.700144,1061.17294 617.945903,1049.65981 C615.534698,1039.55443 613.963351,1030.77656 612.879664,1023.61067 C611.525054,1014.76507 609.601509,999.119333 607.325765,982.471182 C605.050021,965.823032 602.422078,948.145378 599.861866,935.235949 Z" id="Path" fill="#DEB8FC"></path>
            <path d="M399.840227,1146.75822 L406.504905,1170.50453 L413.156038,1194.25083 C413.153901,1195.88994 412.763991,1197.50528 412.018166,1198.96487 C411.273647,1200.39661 410.190046,1201.62438 408.861926,1202.54104 L392.850442,1213.49983 L376.838957,1224.47217 C376.10747,1224.97723 375.789192,1225.89914 376.053284,1226.74791 C376.269344,1227.59749 377.032487,1228.19352 377.909099,1228.19735 L486.10176,1228.19735 C488.09526,1228.18994 489.999046,1227.36774 491.371191,1225.9216 C492.760386,1224.45828 493.5402,1222.52085 493.552112,1220.50316 L486.90098,1183.65779 L480.249847,1146.82595 L399.840227,1146.82595 L399.840227,1146.75822 Z" id="Path" fill="#F98638"></path>
            <path d="M666.562838,1154.68269 C666.562838,1154.68269 663.542059,1152.5695 659.789791,1149.94156 C656.037523,1147.31361 651.662134,1144.18447 649.034191,1142.15255 C648.612723,1141.94506 648.213336,1141.69544 647.842135,1141.40752 C647.454064,1141.1032 647.099831,1140.75805 646.78554,1140.37801 L647.666036,1141.09596 L649.020645,1142.15255 C650.053594,1142.66026 651.207195,1142.87128 652.352985,1142.76213 C653.402442,1142.66834 654.389957,1142.22467 655.157026,1141.50234 C655.534586,1141.14712 655.842404,1140.72445 656.064615,1140.2561 C656.65688,1139.01213 656.763163,1137.5918 656.362629,1136.27355 C656.112941,1135.47648 655.717976,1134.73248 655.197665,1134.07908 C654.357807,1133.02248 653.504403,1131.95234 652.664545,1130.85511 L650.18561,1127.49568 C649.69795,1126.85901 648.831,1125.65341 647.693128,1124.14979 C646.555256,1122.64617 645.309015,1120.88518 644.076321,1119.0971 C644.076321,1119.0971 642.816534,1117.28192 640.987811,1114.43724 C639.159088,1111.59256 636.774975,1107.66419 634.472139,1103.47845 C633.169305,1100.90918 632.095022,1098.23027 631.261715,1095.47271 C630.164481,1092.11328 629.067247,1088.11718 627.956468,1083.66051 L597.084917,1088.59129 L566.19982,1093.63044 C567.351238,1102.02902 568.313011,1108.97816 569.071592,1114.16632 C569.830174,1119.35447 570.426202,1122.76809 570.670032,1124.09561 C570.913861,1125.42312 571.225421,1126.52036 571.455705,1127.4144 C571.685989,1128.30844 571.848542,1128.89092 571.848542,1128.89092 C573.199217,1133.95516 575.131083,1138.84619 577.605632,1143.46652 C580.030383,1148.03156 583.02407,1152.73205 587.087899,1158.92262 C587.824965,1160.12296 588.677933,1161.24815 589.634565,1162.28205 C590.75155,1163.49884 592.145594,1164.4282 593.698393,1164.99127 C594.654581,1165.33435 595.652229,1165.54845 596.664988,1165.62793 C598.190852,1165.75847 599.7098,1165.30859 600.918462,1164.36815 C601.968784,1163.47572 602.704792,1162.26962 603.018107,1160.92744 C603.210445,1160.1709 603.29706,1159.39136 603.275482,1158.61106 C604.399808,1159.88439 605.659595,1161.22545 607.068389,1162.58006 C608.564138,1164.01477 610.133063,1165.37119 611.768884,1166.64389 C615.435676,1169.55137 619.357371,1172.12201 623.486256,1174.32453 C627.997106,1176.65446 632.765331,1178.2258 636.680153,1177.50786 C637.719597,1177.31139 638.7068,1176.90082 639.579017,1176.30226 C639.94936,1176.05262 640.290191,1175.76177 640.594974,1175.43531 C641.177082,1174.81341 641.636653,1174.08729 641.949584,1173.29502 C642.184406,1172.73774 642.357034,1172.15626 642.464335,1171.56112 C643.811618,1172.46034 645.240203,1173.23132 646.731355,1173.86396 C648.033589,1174.42494 649.397709,1174.82962 650.795184,1175.06956 C651.818059,1175.2571 652.86191,1175.30268 653.89724,1175.20502 C654.978135,1175.08705 656.000426,1174.65364 656.836742,1173.95878 C657.801418,1173.1201 658.482819,1172.00336 658.78738,1170.7619 C659.240335,1169.14254 659.105983,1167.41516 658.408089,1165.88531 C658.26561,1165.60123 658.107324,1165.32536 657.933976,1165.059 C659.35465,1166.03444 661.093726,1166.43167 662.797024,1166.16978 C664.482795,1165.91857 666.003999,1165.01946 667.036952,1163.66375 C668.007357,1162.37783 668.487632,1160.78812 668.391561,1159.17999 C668.336531,1157.51105 667.68812,1155.91644 666.562838,1154.68269 Z" id="Path" fill="#FFAA9F"></path>
            <path d="M437.146173,1015.26628 C424.223198,1006.8677 412.858024,999.864369 403.09129,994.053094 C393.324555,988.241819 385.169806,983.676785 378.708318,980.127708 C377.48917,979.463949 375.863638,978.515723 373.804632,977.581042 C371.398735,976.479487 368.883288,975.634951 366.300095,975.061468 C358.704087,973.510215 350.834135,973.977274 343.474925,976.416078 C335.683759,978.904784 328.678944,983.387866 323.155783,989.420329 C319.567489,993.398758 316.718706,997.98617 314.743658,1002.96642 C313.358215,1006.52765 312.288472,1010.20375 311.546779,1013.95231 C310.060864,1020.96558 309.785975,1028.18141 310.734013,1035.28741 C311.61321,1041.42888 312.948943,1047.49627 314.730111,1053.43917 C321.503159,1077.94406 328.276207,1101.51427 333.288262,1118.97518 C338.300317,1136.4361 341.61911,1147.81482 341.61911,1147.81482 L480.507223,1147.81482 L479.152613,1136.97794 L477.798004,1126.14107 C488.065921,1126.29971 498.307167,1125.05089 508.236079,1122.42944 C523.759904,1118.36561 541.518835,1109.77738 552.044151,1092.08618 C554.627615,1087.75635 556.644412,1083.11271 558.045071,1078.26917 C559.277664,1074.01579 560.085353,1069.65064 560.456276,1065.23782 C559.697695,1061.06563 558.952659,1056.85279 558.248262,1052.55868 C557.543865,1048.26457 556.893653,1043.91627 556.17571,1039.51379 C555.381006,1034.17663 554.645001,1028.91623 553.967696,1023.73259 C553.290392,1018.54895 552.689848,1013.42853 552.166066,1008.37132 L494.649346,1011.82557 L437.146173,1015.26628 Z" id="Path" fill="#BAB653"></path>
            <path d="M477.825096,1127.80724 C477.425174,1127.80571 477.037878,1127.66704 476.727862,1127.4144 C476.42253,1127.14725 476.217125,1126.78421 476.14538,1126.3849 L473.598714,1111.14554 L471.092687,1095.89264 C471.014961,1095.44961 471.122715,1094.9941 471.390701,1094.63285 C471.650297,1094.26611 472.045015,1094.01758 472.487935,1093.942 C472.930966,1093.86427 473.386471,1093.97203 473.747721,1094.24001 C474.112295,1094.50166 474.360206,1094.8954 474.438572,1095.33725 L476.931054,1110.59015 L479.437081,1125.84305 C479.514807,1126.28608 479.407053,1126.74159 479.139067,1127.10284 C478.879471,1127.46958 478.484753,1127.71811 478.041833,1127.79369 L477.770912,1127.79369 L477.825096,1127.80724 Z" id="Path" fill="#2B3D0A"></path>
            <path d="M377.990375,1229.89061 L377.787184,1229.89061 L377.570446,1229.89061 C376.755511,1229.66565 376.031024,1229.19212 375.497894,1228.536 C374.9666,1227.90163 374.653184,1227.11334 374.603852,1226.28735 C374.566726,1225.55562 374.735684,1224.82816 375.091511,1224.1877 C375.450042,1223.53849 375.979396,1222.99977 376.62222,1222.6299 L393.121364,1211.96912 L409.620507,1201.2948 C410.040696,1201.02852 410.439278,1200.72958 410.812564,1200.40076 C411.138554,1200.10736 411.437752,1199.7855 411.706606,1199.43899 C411.946194,1199.10877 412.15909,1198.75998 412.343272,1198.39594 C412.52788,1198.03466 412.68194,1197.65858 412.80384,1197.27161 C412.969436,1196.6673 413.046995,1196.04226 413.034123,1195.4158 C413.022271,1194.74531 412.917417,1194.07972 412.722563,1193.43807 L405.949516,1170.40971 L399.176468,1147.38134 C392.322144,1130.0288 386.781791,1114.2205 382.839877,1101.582 C378.897964,1088.94349 376.513851,1079.48832 376.06683,1074.842 C375.618689,1070.84488 375.618689,1066.81019 376.06683,1062.81307 C376.523609,1058.43026 377.95368,1054.20484 380.252573,1050.44549 C382.269443,1047.43091 384.757501,1044.7599 387.621649,1042.53457 C390.470073,1040.31669 393.436494,1038.25466 396.507887,1036.35755 L397.117462,1035.95117 L397.740582,1035.54478 C403.15902,1032.07698 408.740011,1028.77174 414.998307,1025.35812 C421.256603,1021.9445 428.138019,1018.58507 435.967662,1014.88699 C430.840403,1010.16705 426.472301,1004.68408 423.017595,998.631674 C420.932474,995.145332 419.147012,991.488308 417.680434,987.699975 C415.694811,982.461954 414.662584,976.910866 414.632563,971.3092 C414.611504,965.628903 415.607026,959.990668 417.572065,954.661049 C419.092327,950.499507 421.136153,946.548414 423.654262,942.903039 C423.909184,942.535258 424.298348,942.282301 424.737949,942.198642 C425.181571,942.112535 425.641141,942.210316 426.011282,942.469564 C426.379064,942.724486 426.63202,943.11365 426.715679,943.553251 C426.794187,943.996773 426.697024,944.45344 426.444757,944.826584 C424.097466,948.227209 422.186087,951.908888 420.755397,955.785375 C418.936719,960.753104 418.019261,966.005551 418.046178,971.295654 C418.085093,976.533881 419.062308,981.722754 420.931497,986.616288 C422.330538,990.193761 424.020425,993.650555 425.98419,996.951958 C427.824822,1000.16933 429.936643,1003.22376 432.29667,1006.08203 C434.680958,1008.95423 437.304775,1011.61883 440.13986,1014.04713 L441.142271,1014.90053 L442.158228,1015.75394 L440.952625,1016.30933 L439.747023,1016.86472 C431.416174,1020.71181 424.155467,1024.28798 417.585611,1027.80996 C411.015755,1031.33195 405.163842,1034.7862 399.609943,1038.37592 L398.986823,1038.7823 L398.363702,1039.18868 C395.462948,1040.98676 392.655296,1042.93087 389.951577,1045.0135 C387.318202,1047.05384 385.031151,1049.50556 383.17853,1052.27421 C381.115992,1055.66659 379.851449,1059.48338 379.480446,1063.43619 C379.07191,1067.10035 379.07191,1070.79856 379.480446,1074.46271 C379.873283,1078.07952 381.796828,1086.35619 385.53555,1098.54767 C389.274273,1110.73916 394.814625,1126.87256 402.441077,1146.18929 L402.441077,1146.27056 L402.441077,1146.27056 L409.214125,1169.29893 L415.987172,1192.32729 C416.270238,1193.28239 416.425117,1194.27088 416.447739,1195.26679 C416.452927,1196.18345 416.325168,1197.09602 416.068449,1197.97601 L416.068449,1198.04374 L416.068449,1198.04374 C415.897467,1198.59207 415.684618,1199.12645 415.431782,1199.64218 C415.154939,1200.17863 414.833201,1200.69069 414.470009,1201.17289 C414.085643,1201.66479 413.654684,1202.11843 413.18313,1202.5275 C412.666538,1202.99641 412.108912,1203.41803 411.516961,1203.78728 L394.977179,1214.4887 L378.42385,1225.19011 C378.302065,1225.24583 378.198687,1225.33511 378.125836,1225.44749 C378.064286,1225.52956 378.031014,1225.62937 378.031014,1225.73196 C378.047468,1225.84199 378.094392,1225.94522 378.166475,1226.02997 C378.251811,1226.11666 378.359754,1226.17767 378.478035,1226.20607 C378.913063,1226.32052 379.28467,1226.60337 379.510853,1226.99221 C379.737036,1227.38104 379.799204,1227.84389 379.683637,1228.27862 C379.591093,1228.64605 379.37608,1228.97096 379.074063,1229.19976 C378.815642,1229.56139 378.427286,1229.80896 377.990375,1229.89061 L377.990375,1229.89061 Z" id="Path" fill="#2B3D0A"></path>
            <path d="M957.681967,674.622626 L881.986388,661.293269 L806.304355,647.963911 C805.106353,647.72084 804.156432,646.80786 803.866058,645.620437 C803.528466,644.373765 803.827495,643.040808 804.665278,642.057814 L828.005199,615.195907 L851.345121,588.361093 C856.727338,582.088377 863.577303,577.244074 871.284973,574.259608 C878.674934,571.411143 886.699017,570.619971 894.50298,571.970318 L894.50298,571.970318 C901.694494,573.254186 908.448378,576.32371 914.144818,580.897194 C920.05036,585.658062 924.778527,591.716606 927.961835,598.601941 L944.542255,634.024979 L961.136222,669.448018 C961.686742,670.667151 961.574265,672.083336 960.838208,673.200286 C960.165623,674.26337 958.923896,674.822946 957.681967,674.622626 Z" id="Path" fill="#F98638"></path>
            <path d="M603.343213,1160.2095 C603.105226,1160.20702 602.87021,1160.15633 602.652362,1160.06049 C602.427611,1159.95626 602.228699,1159.80361 602.06988,1159.61347 C600.945554,1158.25886 599.875412,1156.98553 598.845909,1155.54964 C597.816406,1154.11375 596.841087,1152.75914 595.906407,1151.30971 C594.971726,1149.86028 594.131868,1148.42439 593.319102,1146.93432 C592.506337,1145.44425 591.747755,1143.92709 591.043358,1142.38283 C590.874002,1141.97059 590.874002,1141.5082 591.043358,1141.09596 C591.198413,1140.6733 591.516645,1140.33057 591.926669,1140.14466 C592.336694,1139.95875 592.804186,1139.94521 593.22428,1140.10709 C593.647735,1140.25812 593.990563,1140.57646 594.172506,1140.98759 C594.836265,1142.45057 595.527116,1143.9 596.339882,1145.32234 C597.152647,1146.74468 597.938321,1148.12638 598.805271,1149.48099 C599.672221,1150.8356 600.620448,1152.19021 601.595767,1153.54482 C602.571085,1154.89943 603.600589,1156.13212 604.67073,1157.36482 C604.959429,1157.7083 605.104937,1158.14968 605.077113,1158.59751 C605.042537,1159.04315 604.833155,1159.45705 604.494631,1159.74893 C604.338277,1159.88312 604.159423,1159.98859 603.966333,1160.06049 C603.769894,1160.14905 603.558463,1160.19961 603.343213,1160.2095 Z" id="Path" fill="#AD4D4D"></path>
            <path d="M642.599796,1172.82091 C642.429483,1172.82047 642.260317,1172.79303 642.098591,1172.73963 C641.929582,1172.68788 641.769638,1172.6102 641.624477,1172.50935 C639.014596,1170.63999 636.431808,1168.70741 633.876111,1166.71162 C631.342991,1164.72035 628.836964,1162.64779 626.398667,1160.56169 C623.269519,1157.85248 620.181009,1155.04843 617.187322,1152.13602 C614.193635,1149.22361 611.267678,1146.22993 608.463637,1143.15496 C608.153146,1142.82745 607.991431,1142.38641 608.016616,1141.93581 C608.035107,1141.48698 608.229796,1141.06353 608.558459,1140.7573 C609.255051,1140.13789 610.318245,1140.18594 610.956118,1140.86567 C613.719522,1143.89097 616.582263,1146.83498 619.544342,1149.69773 C622.506422,1152.56047 625.531717,1155.32839 628.620226,1158.00148 C631.017885,1160.06049 633.469728,1162.06531 635.975756,1164.05659 C638.481783,1166.04786 641.014903,1167.91722 643.588661,1169.74595 C644.068749,1170.09337 644.334264,1170.66496 644.29008,1171.25592 C644.245896,1171.84689 643.898337,1172.37264 643.371924,1172.64481 C643.129809,1172.7572 642.866697,1172.8172 642.599796,1172.82091 L642.599796,1172.82091 Z" id="Path" fill="#AD4D4D"></path>
            <path d="M658.110075,1166.25105 C657.949899,1166.2475 657.790725,1166.22476 657.635962,1166.18332 C657.478779,1166.13525 657.328513,1166.06695 657.188941,1165.98013 L654.710005,1164.32751 L652.285254,1162.63425 C652.285254,1162.63425 650.930645,1161.72666 649.14256,1160.37205 C647.354476,1159.01744 644.87554,1157.16162 642.51852,1155.25162 C638.156677,1151.71609 633.876111,1147.73354 630.327034,1144.30638 C626.777957,1140.87922 624.122923,1138.03454 622.930866,1136.76121 C622.620289,1136.43837 622.454076,1136.00328 622.470299,1135.5556 C622.489965,1134.86677 622.925125,1134.25856 623.570731,1134.01758 C624.216338,1133.77659 624.943588,1133.9509 625.409802,1134.45837 C626.574766,1135.70461 629.243347,1138.5222 632.684055,1141.88163 C636.124763,1145.24106 640.324052,1149.15588 644.591072,1152.62368 C646.907455,1154.49304 649.291567,1156.29467 651.093198,1157.63574 C652.894829,1158.9768 654.154615,1159.8573 654.168161,1159.87084 L656.56582,1161.52347 L658.990571,1163.13545 C659.364604,1163.38315 659.627086,1163.76715 659.72206,1164.20559 C659.812928,1164.64558 659.725214,1165.10364 659.478231,1165.47893 C659.326818,1165.72228 659.111201,1165.91915 658.85511,1166.04786 C658.626693,1166.17446 658.371137,1166.24415 658.110075,1166.25105 Z" id="Path" fill="#AD4D4D"></path>
            <path d="M649.088376,1143.08723 C648.89466,1143.08894 648.702131,1143.05685 648.51944,1142.99241 C648.332637,1142.92205 648.158719,1142.82136 648.004688,1142.69439 C647.273199,1142.08482 646.54171,1141.44815 645.837313,1140.79794 C645.132916,1140.14773 644.482703,1139.44333 643.751214,1138.79312 C642.244479,1137.28604 640.820073,1135.69885 639.484194,1134.03844 C638.144222,1132.37067 636.891779,1130.63444 635.731926,1128.83674 C635.486338,1128.46089 635.398734,1128.0034 635.488096,1127.56341 C635.589064,1127.12393 635.856013,1126.74049 636.233132,1126.49327 C636.610898,1126.25235 637.068247,1126.16964 637.506465,1126.26298 C637.944908,1126.35796 638.328911,1126.62044 638.576606,1126.99447 C639.668704,1128.6973 640.853514,1130.33885 642.125683,1131.9117 C643.40059,1133.48095 644.757069,1134.98212 646.189511,1136.40901 C646.826178,1137.05922 647.544121,1137.68234 648.153695,1138.30546 C648.76327,1138.92858 649.508305,1139.51106 650.212702,1140.09354 C650.560665,1140.37894 650.779551,1140.79203 650.820295,1141.24022 C650.861039,1141.6884 650.720233,1142.13419 650.429439,1142.47766 C650.268865,1142.67501 650.064891,1142.83263 649.833411,1142.93822 C649.598736,1143.0411 649.344566,1143.09193 649.088376,1143.08723 Z" id="Path" fill="#AD4D4D"></path>
            <path d="M551.204293,1010.06458 C550.784841,1010.06363 550.380184,1009.90948 550.066421,1009.6311 C549.756214,1009.35067 549.5628,1008.96384 549.524577,1008.54742 L546.666351,981.387495 L543.821671,954.295305 C543.753662,953.624891 544.092882,952.978727 544.683324,952.653984 C545.273766,952.329241 546.001125,952.388786 546.53089,952.805234 C546.882597,953.085773 547.107067,953.495673 547.15401,953.943106 L549.99869,981.035296 L552.84337,1008.12749 C552.891955,1008.575 552.760347,1009.02344 552.477626,1009.37373 C552.197683,1009.72401 551.786458,1009.94431 551.339754,1009.9833 L551.163655,1009.9833 L551.204293,1010.06458 Z" id="Path" fill="#2B3D0A"></path>
            <path d="M445.58539,308.810329 L230.96106,298.393382 L16.3231834,287.989981 C15.0376252,287.930405 13.8288361,287.360874 12.9644142,286.407467 C12.0999924,285.454061 11.6512438,284.195426 11.7175111,282.910195 L11.7175111,282.910195 C17.5974505,161.755849 120.575525,68.3053694 241.730205,74.1784165 L241.960489,74.1784165 C300.144712,76.99506 354.826461,102.811792 393.974554,145.948367 C433.122646,189.084942 453.529735,246.007241 450.705814,304.191111 L450.705814,304.191111 C450.567088,306.86198 448.297677,308.91958 445.626028,308.796783 L445.58539,308.810329 Z" id="Path" fill="#F98638"></path>
            <path d="M213.662696,217.021989 L213.40532,217.021989 C212.507171,216.963825 211.671159,216.543374 211.088938,215.857025 C210.501298,215.17581 210.208866,214.288767 210.276172,213.391635 L215.193405,148.018181 L220.110637,82.6311799 L170.166185,116.049396 L120.262371,149.467613 C119.516275,149.972375 118.599273,150.157726 117.715705,149.982364 C116.839339,149.79968 116.067571,149.285169 115.561876,148.546478 C115.061809,147.798424 114.881365,146.881573 115.06067,145.999813 C115.230944,145.1183 115.748342,144.342202 116.496556,143.845983 L166.454555,110.387129 L216.412554,76.9282738 C218.285605,75.1387268 221.069041,74.6914185 223.408476,75.8040033 C225.747911,76.9165881 227.157524,79.3580198 226.951415,81.940329 L221.993545,147.909812 L217.035674,213.879295 C216.901227,215.643228 215.431745,217.006483 213.662696,217.008443 L213.662696,217.021989 Z" id="Path" fill="#AD4D4D"></path>
            <path d="M317.913444,186.285899 C317.447097,186.285899 316.98585,186.188878 316.558834,186.001431 C316.116756,185.804801 315.720127,185.518859 315.39387,185.161573 L267.982537,132.250526 L220.571205,79.3259327 L221.600708,76.8334512 L222.616665,74.3409697 L224.188012,74.8421752 L225.745813,75.3298346 L279.198704,95.18841 L332.719326,115.046985 C334.473691,115.697859 335.368248,117.64769 334.717375,119.402055 C334.066501,121.15642 332.11667,122.050977 330.362305,121.400104 L283.194802,103.871457 L236.040845,86.3428099 L278.236931,133.496767 L320.433017,180.623632 C321.036317,181.290317 321.348463,182.170283 321.300138,183.068116 C321.251813,183.965949 320.847016,184.807327 320.175642,185.405403 C319.862448,185.686778 319.499531,185.907285 319.1055,186.055616 C318.726043,186.206238 318.3217,186.28435 317.913444,186.285899 L317.913444,186.285899 Z" id="Path" fill="#AD4D4D"></path>
            <path d="M649.101922,1142.15255 L647.747312,1141.09596 L646.866816,1140.37801 C647.181107,1140.75805 647.535341,1141.1032 647.923412,1141.40752 C648.290331,1141.69467 648.685147,1141.94426 649.101922,1142.15255 L649.101922,1142.15255 Z" id="Path" fill="#AD4D4D"></path>
            <path d="M509.672034,840.792574 C509.704097,856.695727 498.494191,870.405366 482.901519,873.532648 C467.308847,876.65993 451.679312,868.333237 445.576528,853.64762 C439.473745,838.962004 444.598646,822.010557 457.815338,813.165763 C471.03203,804.32097 488.656829,806.048002 499.905231,817.290099 C506.150932,823.517592 509.664548,831.972688 509.672034,840.792574 L509.672034,840.792574 Z" id="Path" fill="#FFAA9F"></path>
            <path d="M463.073398,839.099312 C462.942714,839.749357 462.563657,840.322803 462.016803,840.697752 C461.463868,841.067837 460.786992,841.204186 460.133896,841.077042 C459.479224,840.957722 458.901764,840.576011 458.535457,840.020447 C457.769306,838.874915 458.071885,837.325712 459.212761,836.552646 C460.356359,835.791557 461.898855,836.0868 462.680562,837.216405 C463.053971,837.767982 463.195102,838.444439 463.073398,839.099312 L463.073398,839.099312 Z" id="Path" fill="#353519"></path>
            <path d="M481.374173,840.792574 C481.243489,841.442619 480.864431,842.016064 480.317577,842.391013 C479.478706,842.95519 478.382998,842.960083 477.539122,842.40342 C476.695246,841.846758 476.268478,840.837565 476.45694,839.844348 C476.59387,838.934708 477.21816,838.173204 478.083284,837.860547 C478.948408,837.547889 479.915291,837.73434 480.602119,838.346272 C481.288948,838.958204 481.585309,839.897244 481.374173,840.792574 Z" id="Path" fill="#353519"></path>
            <path d="M469.372333,856.38413 L469.372333,856.38413 C466.896598,856.374242 464.46881,855.700636 462.341909,854.433492 C461.072104,853.710424 459.920823,852.796709 458.928293,851.724273 C458.631903,851.389047 458.476586,850.952216 458.494818,850.505124 C458.520923,850.056313 458.725852,849.636698 459.063754,849.34016 C459.39433,849.035974 459.834495,848.879471 460.282903,848.906685 C460.731623,848.921506 461.153832,849.122792 461.447867,849.462075 C462.208205,850.284598 463.084363,850.991914 464.048717,851.56172 C465.66538,852.518424 467.507375,853.028012 469.385879,853.038244 L469.385879,853.038244 C471.184608,853.031071 472.951728,852.564813 474.519849,851.683635 C475.455935,851.172382 476.313608,850.529128 477.066515,849.773635 C477.731178,849.117769 478.79951,849.117769 479.464173,849.773635 C479.786101,850.087656 479.971086,850.516042 479.97907,850.965692 C479.984847,851.416737 479.809106,851.851209 479.491266,852.171294 C478.503589,853.168428 477.376573,854.017112 476.14538,854.690868 C474.068325,855.821818 471.73724,856.404589 469.372333,856.38413 L469.372333,856.38413 Z" id="Path" fill="#AD4D4D"></path>
            <path d="M466.920489,824.306977 C468.886658,827.150239 471.627656,829.369366 474.817863,830.700733 C478.027319,832.053321 481.551359,832.480336 484.99098,831.933428 C486.293645,835.889012 489.142625,839.148481 492.888354,840.968673 C496.211256,842.672001 500.1085,842.854761 503.576223,841.469879 C504.782226,840.947177 505.890703,840.22346 506.854378,839.329596 C507.833743,838.39875 508.673268,837.331094 509.346859,836.15981 C507.929801,826.04638 501.953673,817.141104 493.131707,811.996939 C484.309741,806.852774 473.616108,806.037767 464.116448,809.785563 C463.548254,812.254049 463.492927,814.812907 463.953895,817.303645 C464.428679,819.823944 465.440464,822.212496 466.920489,824.306977 L466.920489,824.306977 Z" id="Path" fill="#AD4D4D"></path>
            <path d="M531.725019,789.764434 C531.736784,802.959719 522.426611,814.326116 509.487446,816.913334 C496.548281,819.500552 483.583217,812.588144 478.520091,800.402888 C473.456966,788.217633 477.705678,774.152686 488.668238,766.808439 C499.630798,759.464192 514.254527,760.885754 523.597351,770.203873 C528.802206,775.382296 531.727426,782.422324 531.725019,789.764434 L531.725019,789.764434 Z" id="Path" fill="#AD4D4D"></path>
            <path d="M542.683799,753.311892 C542.677709,762.159593 536.422139,769.770727 527.743121,771.490172 C519.064103,773.209617 510.379179,768.558421 507.000224,760.381349 C503.621269,752.204278 506.48949,742.779054 513.850627,737.870336 C521.211763,732.961618 531.015369,733.93673 537.265361,740.199272 C540.735712,743.680794 542.684214,748.39617 542.683799,753.311892 L542.683799,753.311892 Z" id="Path" fill="#AD4D4D"></path>
            <path d="M141.516194,1056.74442 C141.516194,1058.35641 139.944847,1059.81939 137.452365,1060.87598 C131.042456,1063.15215 124.044338,1063.15215 117.634428,1060.87598 C115.101309,1059.81939 113.5706,1058.35641 113.5706,1056.74442 C113.5706,1055.13244 115.141947,1053.66946 117.634428,1052.68059 C124.041255,1050.38661 131.045539,1050.38661 137.452365,1052.68059 C139.944847,1053.66946 141.516194,1055.13244 141.516194,1056.74442 Z" id="Path" fill="#353519"></path>
            <path d="M837.988671,1055.11889 C837.988671,1056.74442 836.417324,1058.2074 833.924843,1059.264 C827.510266,1061.54005 820.507937,1061.54005 814.09336,1059.264 C811.56024,1058.2074 810.029531,1056.74442 810.029531,1055.11889 C810.029531,1053.49336 811.600878,1052.04393 814.09336,1050.98733 C820.507937,1048.71127 827.510266,1048.71127 833.924843,1050.98733 C836.444417,1052.04393 837.988671,1053.5069 837.988671,1055.11889 Z" id="Path" fill="#353519"></path>
            <path d="M248.909674,541.329051 C248.898488,551.362852 241.802726,559.99222 231.960148,561.941827 C222.117571,563.891433 212.268069,558.618565 208.432865,549.346644 C204.597662,540.074724 207.844367,529.384787 216.188197,523.811835 C224.532027,518.238882 235.650299,519.334263 242.746162,526.428346 C246.702057,530.3769 248.920335,535.739769 248.909674,541.329051 Z" id="Path" fill="#DEB8FC"></path>
            <path d="M331.215754,607.325626 C331.216367,617.373941 324.119449,626.023676 314.264551,627.985724 C304.409653,629.947771 294.541006,624.675772 290.693053,615.393429 C286.845099,606.111086 290.089355,595.403193 298.442034,589.817372 C306.794713,584.231551 317.929899,585.32325 325.03869,592.424921 C329.003376,596.368687 331.227334,601.733499 331.215754,607.325626 L331.215754,607.325626 Z" id="Path" fill="#DEB8FC"></path>
            <path d="M353.038507,486.535096 C353.027321,496.568898 345.931558,505.198265 336.088981,507.147872 C326.246403,509.097479 316.396902,503.82461 312.561698,494.55269 C308.726495,485.280769 311.9732,474.590833 320.31703,469.01788 C328.660859,463.444928 339.779131,464.540308 346.874995,471.634392 C350.83089,475.582945 353.049168,480.945815 353.038507,486.535096 Z" id="Path" fill="#DEB8FC"></path>
            <path d="M925.645453,638.928666 C924.823598,641.550217 922.816549,643.632532 920.227015,644.550295 C914.125636,646.743707 907.304213,644.855199 903.199573,639.836254 C901.390529,637.763998 900.741776,634.92238 901.472245,632.270343 C902.202714,629.618305 904.214961,627.509625 906.829926,626.655904 C912.950382,624.417367 919.816984,626.310852 923.925098,631.369945 C925.651897,633.480453 926.288779,636.27872 925.645453,638.928666 L925.645453,638.928666 Z" id="Path" fill="#AD4D4D"></path>
            <path d="M940.058498,656.823057 C939.564959,658.41706 938.350847,659.686359 936.780343,660.250219 C933.039934,661.614552 928.845868,660.45588 926.336303,657.364901 C925.198492,656.097288 924.782363,654.338566 925.231475,652.695473 C925.680587,651.05238 926.933458,649.749851 928.557863,649.237244 C932.298779,647.885797 936.485288,649.042381 939.001902,652.122562 C940.085521,653.430272 940.47825,655.177414 940.058498,656.823057 L940.058498,656.823057 Z" id="Path" fill="#AD4D4D"></path>
            <path d="M981.71274,804.123295 C980.917259,805.723033 979.408728,806.849403 977.648911,807.15762 C973.505165,807.947556 969.316545,806.021879 967.218418,802.362303 C966.248954,800.842513 966.114455,798.935356 966.861024,797.294546 C967.607593,795.653735 969.133797,794.502198 970.916502,794.234646 C972.938712,793.820269 975.040907,794.077098 976.903876,794.966135 C978.787097,795.802044 980.346805,797.228607 981.346995,799.029963 C982.27963,800.570537 982.415688,802.465272 981.71274,804.123295 Z" id="Path" fill="#AD4D4D"></path>
            <path d="M959.564875,808.160031 C959.037755,809.233303 958.032253,809.992456 956.855656,810.205492 C954.060375,810.745752 951.231868,809.443222 949.825232,806.967975 C949.192982,805.948157 949.114316,804.67923 949.615762,803.589129 C950.117209,802.499028 951.131928,801.733058 952.317714,801.549537 C955.112994,801.009276 957.941501,802.311806 959.348137,804.787054 C959.949221,805.813993 960.029581,807.064607 959.564875,808.160031 L959.564875,808.160031 Z" id="Path" fill="#AD4D4D"></path>
        </g>
    </g>
</svg>