<?xml version="1.0" encoding="UTF-8"?>
<svg width="1001px" height="1113px" viewBox="0 0 1001 1113" version="1.1" xmlns="http://www.w3.org/2000/svg" xmlns:xlink="http://www.w3.org/1999/xlink">
    <title>environment</title>
    <g id="Page-1" stroke="none" stroke-width="1" fill="none" fill-rule="evenodd">
        <g id="environment" transform="translate(0.51, 0.1781)">
            <path d="M153.88299,136.73389 C154.923267,142.96255 157.849046,160.036097 163.089442,181.140719 C168.329838,202.24534 175.858843,227.381035 186.092569,249.759996 C188.693262,255.312475 191.423989,261.463113 194.947928,268.09488 C198.933373,275.67003 203.375751,282.99583 208.250471,290.031723 C212.320555,295.922292 215.025275,299.303192 218.15911,303.178225 C221.292945,307.053257 224.816883,311.38341 230.564414,319.159481 C236.311945,326.935552 240.967185,333.98343 244.972252,340.29011 C248.977319,346.596789 252.05914,351.993227 254.399763,356.271366 C257.798002,363.813375 261.087878,371.615453 264.269392,379.677601 C267.450906,387.739748 270.485048,396.126982 273.371817,404.839303 C286.318374,444.247537 294.333191,485.107817 297.233172,526.486705 C299.598386,560.359595 298.823543,594.378697 294.918556,628.108773 L285.413024,632.738006 L275.985513,637.302222 C275.621416,617.302895 274.867215,592.479283 273.267789,564.638867 C271.668363,536.798451 269.249719,505.967239 265.543731,473.939708 C264.087344,461.391366 262.344879,447.77674 259.185038,433.17385 C255.757826,417.125339 250.780142,401.447596 244.322079,386.361381 C240.017932,376.348714 235.284672,367.168269 231.227591,359.847319 C227.17051,352.526369 223.78961,347.064914 222.125166,344.490228 C216.237752,335.149016 209.879531,326.112965 203.075092,317.417017 C197.704662,310.590199 193.712599,306.091 192.17819,304.309526 C184.311094,295.142084 175.065632,280.279125 164.870916,255.013395 C154.676201,229.747666 143.727284,194.105172 132.362257,143.37866 L143.077111,140.03677 L153.88299,136.73389 Z" id="Path" fill="#F4ECE5"></path>
            <path d="M289.600139,155.549902 L301.147215,149.945409 L312.681287,144.340917 C310.860802,150.114455 308.884276,156.980283 307.037784,164.834375 C305.191292,172.688467 303.448828,181.504816 302.109471,191.192396 C301.134211,198.188259 299.937893,207.043618 299.36574,217.316354 C298.676788,228.878079 298.998763,240.477882 300.327997,251.983588 C302.057679,266.522687 305.550968,280.797136 310.730767,294.491911 C315.049894,305.662357 320.012527,316.573204 325.593726,327.169615 C332.002063,339.929381 339.548662,352.084888 348.141732,363.488289 C356.252064,374.091016 363.348453,385.432178 369.337378,397.362311 C375.361954,409.365655 380.414806,421.832545 384.447403,434.643241 C387.498281,444.350657 389.977525,454.228557 391.87238,464.226121 L380.858447,469.570545 L369.844513,474.914968 C368.477258,464.090838 366.334851,453.378803 363.433805,442.86143 C359.612192,429.053482 354.428714,415.6592 347.959684,402.87578 C340.482692,388.077838 334.215023,379.989684 327.609263,371.251356 C318.969602,360.202148 311.438939,348.32905 305.126275,335.803915 C299.751926,325.654273 294.975833,315.198973 290.822465,304.491574 C285.341441,290.043097 281.541109,275.011936 279.496448,259.694642 C278.016426,248.402295 277.446773,237.009227 277.792994,225.625568 C278.066067,215.937987 278.924295,208.161916 279.509451,203.012544 C280.527675,194.140759 282.016503,185.329331 283.969639,176.615513 C285.73811,168.60538 287.701633,161.570506 289.600139,155.549902 Z" id="Path" fill="#F4ECE5"></path>
            <path d="M353.61619,180.516552 L298.611539,169.385588 L243.606888,158.254623 C242.732375,158.057269 242.055228,157.364849 241.877428,156.486152 C241.654095,155.565085 241.8971,154.593067 242.527601,153.885459 L260.121287,134.380264 L277.714973,114.875068 C281.760177,110.338842 286.860365,106.86875 292.564929,104.771377 C298.007878,102.786206 303.891989,102.33635 309.573459,103.471031 L309.573459,103.471031 C314.80443,104.545003 319.676977,106.929822 323.734231,110.401877 C327.989685,114.028511 331.342092,118.596333 333.525839,123.74343 L344.916873,150.231486 L356.307907,176.706538 C356.693543,177.617796 356.58558,178.663075 356.021831,179.476275 C355.509923,180.284447 354.555655,180.697104 353.61619,180.516552 L353.61619,180.516552 Z" id="Path" fill="#F98638"></path>
            <path d="M226.325285,119.699353 L146.588046,142.403401 L66.8638112,165.107448 C65.5874258,165.44449 64.2316116,165.007786 63.3918864,163.98915 C62.4681134,162.942018 62.1311441,161.501352 62.4946474,160.153128 L72.4943109,123.080254 L82.4939744,86.0203825 C84.7557952,77.3909696 89.1206578,69.4564804 95.1983583,62.9262311 C101.032274,56.6874444 108.446479,52.1445589 116.654073,49.7797294 L116.654073,49.7797294 C124.237712,47.6435938 132.235825,47.4424116 139.91727,49.1945736 C147.895524,51.0267818 155.341433,54.6807516 161.672064,59.8704172 L194.388779,86.4364933 L227.17051,113.002569 C228.286771,113.921954 228.847627,115.353612 228.652905,116.786577 C228.527598,118.134911 227.61277,119.279724 226.325285,119.699353 Z" id="Path" fill="#F98638"></path>
            <path d="M353.928273,328.495968 L347.738625,330.173415 L341.548976,331.837858 C341.47745,331.858632 341.401213,331.825959 341.366928,331.759837 C341.336648,331.687714 341.364447,331.604317 341.431945,331.564786 C345.659921,328.884984 349.271897,325.339486 352.029768,321.162015 C354.461413,317.544079 355.814354,313.309376 355.930807,308.951762 C355.871236,304.802047 354.660252,300.750427 352.432875,297.248645 C347.830888,289.692098 339.764431,284.927328 330.925146,284.544261 C323.717172,284.016407 316.506353,285.530679 310.119605,288.913425 C316.223192,285.88496 321.122437,280.880305 324.020307,274.713643 C329.413012,263.593087 326.569187,250.230857 317.115468,242.270001 C308.392647,234.625762 295.662231,233.681589 285.907155,239.955385 C280.790408,243.166091 276.757958,247.84192 274.334073,253.374959 C275.880755,246.846632 275.381369,240.000508 272.903692,233.765736 C270.534527,227.706654 266.23978,222.594078 260.680436,219.21486 C254.980979,215.884763 248.359987,214.48031 241.799407,215.209793 C235.432267,215.80654 229.474746,218.612785 224.959922,223.141906 C219.641505,228.720392 217.157843,236.808546 217.808017,245.15677 C218.607515,254.266634 222.848263,262.729531 229.667175,268.823074 C229.767901,268.928596 229.767901,269.094652 229.667175,269.200174 C229.588745,269.328405 229.427324,269.378502 229.290075,269.317205 C223.027462,266.708566 215.982475,266.708566 209.719862,269.317205 C203.650455,271.533548 198.922445,276.395829 196.876888,282.524905 C194.831331,288.653981 195.69137,295.381253 199.213064,300.798591 C202.833701,307.063383 208.954769,311.486256 216.039546,312.956829 L216.039546,312.956829 L216.039546,312.956829 C207.635569,313.234624 199.685198,316.835674 193.933657,322.969496 C188.732272,328.612999 185.87151,335.868932 186.573697,342.669743 C187.369485,348.919986 190.506209,354.635795 195.351035,358.664004 C200.630913,363.221553 207.279314,365.889149 214.245068,366.245023 L207.87337,367.974484 L201.514677,369.690941 C193.091246,371.956599 185.914296,377.478484 181.565311,385.039814 C177.216327,392.601145 176.052217,401.581384 178.329501,410.001678 L178.329501,410.001678 C183.066325,427.529637 201.107585,437.906271 218.640238,433.186854 L244.829214,426.112969 L271.01819,419.052089 L297.415221,518.736641 L323.812252,618.421192 L347.920673,612.595641 L372.042098,606.770089 L345.358991,506.422361 L318.675884,406.126646 L344.864859,399.065765 L371.053835,391.991881 C379.475344,389.723163 386.650068,384.200729 390.998524,376.640317 C395.34698,369.079906 396.512684,360.101316 394.239011,351.681144 L394.239011,351.681144 C391.970293,343.259635 386.447859,336.084911 378.887447,331.736455 C371.327036,327.387999 362.348446,326.222295 353.928273,328.495968 L353.928273,328.495968 Z" id="Path" fill="#666538"></path>
            <polygon id="Path" fill="#353519" points="318.675884 406.126646 305.841465 409.22147 292.994043 412.329298 310.444691 426.854167 327.895339 441.379036 323.292113 423.759342"></polygon>
            <path d="M216.065552,314.621272 C215.704546,314.616682 215.354179,314.498377 215.064286,314.283182 C214.778128,314.051414 214.576908,313.731292 214.492133,313.37294 C214.390467,312.955833 214.460754,312.515366 214.687185,312.150614 C214.907407,311.781255 215.269209,311.518126 215.688452,311.42242 L221.214924,310.122074 L226.741396,308.821728 C227.158503,308.720062 227.59897,308.790349 227.963722,309.01678 C228.336003,309.238021 228.603641,309.599714 228.70637,310.020414 C228.809099,310.441113 228.738282,310.885452 228.509867,311.253375 C228.283168,311.616762 227.924157,311.877861 227.5086,311.981569 L221.982128,313.281916 L216.455656,314.582262 C216.391221,314.594562 216.32504,314.594562 216.260604,314.582262 L216.065552,314.621272 Z" id="Path" fill="#2B3D0A"></path>
            <path d="M308.325127,341.86354 C307.960967,341.864886 307.607426,341.740918 307.32386,341.512435 C307.028209,341.292558 306.820716,340.974403 306.738704,340.615196 C306.637038,340.198089 306.707325,339.757622 306.933756,339.392871 C307.15474,339.021646 307.515449,338.754627 307.935023,338.651673 L325.164612,334.490565 L342.394201,330.34246 C342.809501,330.235428 343.250442,330.3011 343.616527,330.524508 C343.983617,330.753231 344.245378,331.117827 344.344721,331.538779 C344.451753,331.954078 344.386081,332.395019 344.162672,332.761104 C343.935422,333.132135 343.570931,333.398494 343.148402,333.502302 L325.931816,337.650406 L308.702227,341.759501 L308.507175,341.759501 L308.325127,341.86354 Z" id="Path" fill="#2B3D0A"></path>
            <path d="M271.980446,260.851951 L271.681366,260.851951 L271.382287,260.760926 C270.980443,260.604531 270.657983,260.293698 270.486944,259.897865 C270.315906,259.502032 270.310539,259.054183 270.472044,258.654365 L271.629352,255.728586 L272.799664,252.802807 C272.950985,252.401955 273.261736,252.081788 273.657893,251.918571 C274.071783,251.734422 274.544349,251.734422 274.958239,251.918571 C275.36075,252.078923 275.683359,252.392181 275.855478,252.789803 C276.033308,253.205012 276.033308,253.67494 275.855478,254.090149 L274.69817,257.002925 L273.527858,259.928705 C273.282871,260.547717 272.685184,260.954762 272.019456,260.955978 L271.980446,260.851951 Z" id="Path" fill="#2B3D0A"></path>
            <path d="M122.583653,410.677858 L122.427611,410.677858 L122.284573,410.677858 C124.134105,424.676018 125.262562,438.760029 125.665474,452.874097 C126.28964,466.995859 126.835785,481.11762 128.578249,495.135354 C130.186595,509.287943 133.644681,523.168375 138.863989,536.421351 C144.221416,549.502835 151.763425,561.440015 162.270224,570.932543 C167.299243,575.483053 172.898673,579.360254 178.92766,582.466616 C184.949005,585.589577 191.334901,587.952621 197.938724,589.501489 C203.946324,590.918867 210.682119,590.801836 217.235864,591.321974 C223.78961,591.842113 230.148304,592.84338 235.440713,596.52336 C251.929105,607.992415 251.79907,624.363775 247.14383,641.46333 C242.48859,658.562885 233.243128,676.37763 231.539674,690.746457 C230.239328,701.578342 231.851757,712.735314 234.972589,723.528189 C238.191676,734.132438 242.446996,744.393988 247.676972,754.164349 C252.130601,762.709141 257.089372,770.980996 262.526928,778.935947 C267.988383,786.90707 273.865948,794.540103 279.977576,802.056105 C281.121881,803.460479 284.00865,807.010425 288.286789,811.925734 C292.564929,816.841043 298.234439,823.13472 304.944226,830.013552 C311.654013,836.892384 319.00097,843.979272 324.826522,849.518747 C330.652074,855.058223 334.826185,858.894245 334.826185,858.894245 L334.826185,858.894245 L349.871193,852.613572 L364.9162,846.293888 L364.9162,846.293888 C364.9162,846.293888 349.546106,833.771553 330.613063,814.747486 C311.68002,795.723419 289.145018,770.223626 274.815201,744.25571 C269.330322,734.338151 265.952574,723.39478 264.893558,712.111148 C263.821477,701.098165 265.116075,689.983242 268.69057,679.511464 C273.566868,665.389703 278.404157,649.876571 279.886552,634.48047 C281.368947,619.084369 279.470441,603.792296 270.849145,590.151663 C262.076008,576.397051 248.398983,566.494922 232.592955,562.454285 C226.102112,561.05953 219.538018,560.030635 212.931718,559.372464 C206.364969,558.488229 199.928254,557.356927 193.82963,554.691217 C188.797333,552.414679 184.209509,549.262201 180.280021,545.380737 C176.314868,541.486716 172.878551,537.08858 170.059298,532.299253 C164.705012,523.069273 160.91737,513.015766 158.850313,502.547328 C156.757565,491.996991 155.518226,481.295196 155.144326,470.545804 C154.650194,459.856957 154.585177,449.103093 154.039031,438.414246 C153.646571,427.733254 152.341471,417.105384 150.137992,406.646784 L136.341317,408.636314 L122.583653,410.677858 Z" id="Path" fill="#BAB653"></path>
            <path d="M124.352124,432.445656 L139.61819,447.85476 L154.871253,463.263865 C154.871253,463.263865 154.676201,454.538541 154.338111,445.202054 C154.000021,435.865567 153.505889,425.956928 152.90773,423.603301 L142.752025,415.398115 L132.583316,407.19293 L128.474222,419.780283 L124.352124,432.445656 Z" id="Path" fill="#353519"></path>
            <path d="M68.4112233,331.187685 C62.8441961,329.740226 56.9796942,329.91165 51.5067207,331.681817 C46.1695473,333.38899 41.4793584,336.682102 38.0611393,341.122331 C34.4792343,345.874635 32.4006247,351.589679 32.0925495,357.532702 C31.6632585,363.650658 33.6523711,369.692705 37.632025,374.359184 C40.6126615,377.712784 44.4802267,380.155931 48.7889968,381.407061 C53.3123294,382.72957 58.093254,382.908297 62.7027028,381.9272 C56.2952031,383.300637 50.5979311,386.938765 46.6564287,392.173929 C42.7866267,397.298292 40.9354486,403.666345 41.4550433,410.066695 C42.0151753,416.495026 44.8891202,422.501663 49.5431977,426.971198 C54.0222635,431.348328 59.9800738,433.88643 66.2396449,434.084093 C71.9895989,434.106627 77.5658239,432.114461 81.9998428,428.453593 C84.3837836,426.59534 86.4899589,424.405968 88.2545088,421.951861 C88.5610126,425.375369 89.3671071,428.735556 90.6471461,431.925518 C92.950053,438.023115 97.2189254,443.17962 102.779378,446.580421 C108.281204,449.78838 114.637865,451.223169 120.984227,450.689516 C127.395335,450.252568 133.429886,447.50329 137.96675,442.952455 C141.151915,439.623779 143.395672,435.508728 144.468482,431.028279 C145.133973,428.349611 145.44869,425.595844 145.404731,422.836097 C148.681231,428.879027 153.4598,433.975569 159.279427,437.634038 C164.616751,441.038881 170.890655,442.676739 177.211203,442.315285 C180.251137,442.125937 183.247329,441.49516 186.105572,440.442786 C191.109312,438.670665 195.378794,435.27979 198.237804,430.80722 C201.181901,425.980249 202.362827,420.282394 201.579694,414.682925 C201.242087,411.786931 200.479702,408.956467 199.317091,406.282687 C205.375578,409.662448 212.460168,410.712188 219.238398,409.234474 C225.655022,407.890551 231.310647,404.134098 235.037606,398.740678 C238.448253,393.563483 239.76803,387.285248 238.730589,381.172999 C237.852283,375.357226 235.27865,369.929529 231.331619,365.568843 C228.568104,362.617744 225.183772,360.317109 221.422979,358.833049 C219.053291,357.886974 216.577533,357.232011 214.050016,356.882529 C216.848902,355.657363 219.472561,354.065677 221.852094,352.149268 C225.523412,349.265647 228.34534,345.441665 230.018269,341.083321 C232.814014,333.541312 231.604691,324.802984 227.651639,317.39101 C223.800271,309.812453 217.030794,304.127406 208.900644,301.643816 C202.771748,300.064695 196.295582,300.521084 190.448729,302.944162 C187.138286,304.24441 184.022824,305.99467 181.190263,308.145548 C182.166124,304.738829 182.699314,301.220646 182.776686,297.677759 C182.968612,292.302256 181.658231,286.979677 178.992678,282.307665 C173.973341,273.816404 164.181733,268.523994 153.804969,267.067606 C143.428205,265.611218 132.440278,268.016859 125.0153,274.934702 C120.617782,279.183793 117.588701,284.648817 116.315983,290.629882 C115.465845,294.324829 115.098684,298.11446 115.223692,301.903885 C112.587879,296.369655 108.554046,291.618696 103.520575,288.120214 C98.7456985,284.778043 93.0807459,282.939538 87.2532421,282.840807 C79.3302333,282.930306 71.722144,285.955935 65.9015549,291.332069 C60.1670274,296.533455 56.4610403,303.620342 56.7991303,311.032317 C57.0338468,316.065997 58.8391254,320.899778 61.9615054,324.854998 C63.8285897,327.235857 65.9965782,329.364507 68.4112233,331.187685 L68.4112233,331.187685 Z" id="Path" fill="#DEB8FC"></path>
            <path d="M119.94395,340.238096 C115.763395,337.891335 111.112532,336.505405 106.329323,336.181015 C101.477595,335.85955 96.7276084,337.674045 93.3258596,341.148338 C88.6642694,345.848709 87.4759022,352.978912 90.3610699,358.937076 C92.98571,364.957283 98.5408667,369.188847 105.04198,370.120055 C104.70389,370.120055 104.02771,370.692207 103.377537,371.420401 C102.727364,372.148595 102.077191,372.863786 101.934152,373.071841 C98.7974359,376.434399 97.2456391,380.976243 97.6690164,385.555166 C98.1456032,390.134114 100.65127,394.257726 104.495835,396.790159 C108.318853,399.390852 113.325187,399.663924 118.045444,398.480609 C122.634679,397.38107 126.777548,394.903516 129.917606,391.380718 C131.312608,389.580779 132.581312,387.686412 133.714618,385.711208 C134.858922,383.786695 135.691144,382.22628 135.691144,382.22628 C138.733954,387.726745 140.619457,390.834573 141.763761,392.629051 C142.201312,393.371674 142.706239,394.072478 143.272163,394.722608 C144.805809,396.142911 146.530243,397.342137 148.395528,398.285557 C151.923693,400.193668 155.972799,400.914117 159.942604,400.340104 C160.977648,400.169089 161.995784,399.908029 162.985414,399.559897 C168.178906,397.683113 172.26471,393.587774 174.129382,388.389921 C175.773958,384.318614 175.511612,379.725176 173.414192,375.867586 C172.444152,374.320057 171.343514,372.858341 170.124316,371.498422 C168.967007,370.198076 168.004751,369.196809 168.004751,369.196809 L169.773222,368.741688 L171.333638,368.325577 C175.976223,366.988954 179.885104,363.839352 182.178526,359.58725 C184.591255,355.347078 185.15096,350.300327 183.725938,345.634533 C181.912964,340.007287 177.150337,335.834366 171.333638,334.776641 C165.563653,333.565913 159.551704,334.897164 154.832242,338.430614 C155.122056,337.495936 155.335153,336.539177 155.469412,335.569852 C155.649549,334.277747 155.697476,332.970641 155.61245,331.668813 C155.320973,328.001431 153.965163,324.498921 151.711411,321.591129 C150.555723,320.044583 149.195253,318.66224 147.667334,317.482034 C144.630848,315.254948 141.077964,313.836479 137.342584,313.359937 C133.345186,312.778788 129.272378,313.660767 125.873529,315.843598 C122.987778,317.809535 120.769683,320.608235 119.514835,323.866735 C118.82063,325.528797 118.361101,327.279382 118.149472,329.068121 C118.052537,330.119171 118.052537,331.176912 118.149472,332.227962 C118.219578,333.045362 118.341185,333.857524 118.513569,334.65961 C118.591589,335.127735 118.734627,336.441084 118.96869,337.676413 C119.202752,338.911742 119.527839,340.017037 119.94395,340.238096 Z" id="Path" fill="#F98638"></path>
            <path d="M220.252668,567.603657 C220.252668,567.603657 219.992598,544.015374 222.151173,514.861608 C224.309748,485.707843 228.899971,450.988595 238.600555,428.674652 C243.100166,417.813779 254.582502,411.579272 266.141891,413.720669 C277.74625,415.465343 286.498318,425.170499 287.038457,436.892841 C287.404083,444.325184 286.690135,451.771274 284.918892,458.998729 C282.392165,469.476994 278.819977,479.675156 274.256052,489.439837 L257.195508,532.910416 L240.108957,576.472019 C238.509189,575.294069 236.817668,574.246109 235.050609,573.338184 C230.350888,570.872792 225.386447,568.948963 220.252668,567.603657 L220.252668,567.603657 Z" id="Path" fill="#BAB653"></path>
            <path d="M232.931045,564.001697 L232.735993,564.001697 L232.540941,564.001697 C232.121367,563.898743 231.760658,563.631724 231.539674,563.2605 C231.313243,562.895749 231.242956,562.455281 231.344622,562.038174 L247.10482,497.202905 L262.865018,432.380639 C262.960723,431.961396 263.223852,431.599594 263.593212,431.379372 C264.154352,431.033807 264.868611,431.061255 265.401575,431.448866 C265.93454,431.836476 266.180722,432.50753 266.02486,433.147843 L250.303672,497.931099 L234.504464,562.818382 C234.416395,563.174988 234.210137,563.49125 233.919308,563.715621 C233.631252,563.91903 233.283216,564.019778 232.931045,564.001697 L232.931045,564.001697 Z" id="Path" fill="#666538"></path>
            <path d="M711.406491,142.715484 C709.97611,147.578779 706.101078,160.920333 702.486115,178.045894 C698.871152,195.171456 695.490252,215.963994 695.035131,235.729259 C694.931103,240.631565 694.801068,246.014999 695.035131,252.087616 C695.259527,258.964475 695.902219,265.821306 696.959643,272.620085 C697.830875,278.302599 698.59808,281.72251 699.560336,285.623549 C700.522592,289.524588 701.497852,293.893752 702.915229,301.526785 C704.332607,309.159818 705.268856,315.908615 705.91903,321.851198 C706.569203,327.793781 706.920296,332.826122 707.128352,336.727161 C706.946303,343.358927 706.582206,350.164073 706.036061,357.142598 C705.476912,364.112455 704.735714,371.238353 703.747451,378.507289 C699.283313,411.539423 690.744366,443.891329 678.32568,474.823944 C668.154001,500.140373 655.660725,524.460907 641.005739,547.474295 L624.101237,547.474295 C630.850034,532.884409 639.016209,514.67956 647.624502,493.991049 C656.232795,473.302539 665.296209,450.169377 673.852488,425.709862 C677.207382,416.126309 680.718317,405.671525 683.566076,394.007418 C686.709958,381.217724 688.604352,368.152941 689.222582,354.997027 C689.62569,346.245696 689.430638,337.949486 689.066541,331.226695 C688.702444,324.503905 688.169302,319.38054 687.909232,316.922886 C686.929402,308.100356 685.501511,299.333367 683.631093,290.655889 C682.148698,283.842074 680.835348,279.186834 680.35422,277.353346 C677.883562,267.977849 676.453181,253.947111 677.961583,232.16631 C679.469985,210.385508 684.0342,180.711604 693.565739,140.023767 L702.486115,141.324113 L711.406491,142.715484 Z" id="Path" fill="#F4ECE5"></path>
            <path d="M774.629331,298.548991 L795.252824,298.548991 C791.910934,302.07293 788.074913,306.35107 783.978822,311.370407 C779.88273,316.389744 775.52657,322.176285 771.17041,328.704024 C768.010568,333.424281 764.031508,339.405874 760.013438,346.622796 C755.466834,354.744995 751.633767,363.246486 748.557387,372.031564 C744.698254,383.143559 742.209208,394.68487 741.145412,406.399719 C740.356417,415.992066 740.117629,425.621738 740.430222,435.241401 C740.583702,446.716643 741.776224,458.154401 743.993171,469.414503 C746.133253,479.920783 747.286907,490.604056 747.439089,501.325003 C747.578435,512.119617 746.85225,522.908033 745.26751,533.586596 C744.07915,541.689347 742.40739,549.713798 740.261177,557.616997 L720.586936,557.616997 C723.385341,549.305937 725.588496,540.806192 727.179693,532.182222 C729.272636,520.845124 730.235276,509.328299 730.053458,497.801064 C729.876929,487.733433 728.661158,477.710947 726.425492,467.893098 C724.065324,456.874166 722.789237,445.650695 722.615477,434.383172 C722.299366,425.15866 722.5208,415.923566 723.278653,406.724805 C724.380368,394.339171 726.906724,382.121902 730.807659,370.315107 C733.698404,361.628804 737.281521,353.188476 741.522513,345.075384 C745.124472,338.170545 748.466362,332.852128 750.624937,329.32819 C754.478727,323.256739 758.64996,317.392706 763.121266,311.76051 C767.256367,306.650149 771.144403,302.241975 774.629331,298.548991 Z" id="Path" fill="#F4ECE5"></path>
            <path d="M815.109113,337.754434 L777.633131,312.670753 L740.157149,287.587072 C739.560234,287.177437 739.267929,286.449239 739.415952,285.74058 C739.530462,284.978735 740.018545,284.324705 740.716298,283.998116 L759.740365,274.895691 L778.777436,265.793267 C783.167019,263.65107 788.018385,262.628084 792.899198,262.815474 C797.539548,263.014108 802.036806,264.480214 805.902661,267.054603 L805.902661,267.054603 C809.46378,269.446392 812.35877,272.703815 814.315902,276.521124 C816.3474,280.515986 817.428783,284.926072 817.475744,289.407557 L817.839841,312.566725 L818.217029,335.725894 C818.22388,336.523971 817.821441,337.269956 817.150657,337.70242 C816.542528,338.128747 815.738163,338.149241 815.109113,337.754434 L815.109113,337.754434 Z" id="Path" fill="#F98638"></path>
            <path d="M769.753032,155.809972 L704.124552,144.262896 L638.509074,132.702817 C637.473472,132.491314 636.652931,131.701164 636.402513,130.674276 C636.106636,129.592167 636.364601,128.433757 637.091697,127.579452 L657.312083,104.290249 L677.545472,81.014049 C682.208994,75.5727893 688.145755,71.3692582 694.827075,68.7777897 C701.234743,66.3110887 708.191357,65.6280103 714.956437,66.8012633 L714.956437,66.8012633 C721.188591,67.9066627 727.042258,70.5629487 731.977971,74.5253206 C737.105685,78.6475835 741.205531,83.9048246 743.954161,89.8824112 L758.335991,120.583589 L772.717822,151.284766 C773.201641,152.340008 773.103184,153.57073 772.457753,154.535632 C771.889469,155.460092 770.827724,155.960337 769.753032,155.809972 L769.753032,155.809972 Z" id="Path" fill="#F98638"></path>
            <path d="M501.517585,259.031466 L534.221296,258.745389 L566.938011,258.459313 C576.931289,256.751332 585.952251,251.44053 592.294765,243.531337 C598.638561,235.715874 601.879238,225.836439 601.397189,215.781946 C600.864047,205.21013 596.273825,197.577097 589.134923,192.492742 C581.996021,187.408388 572.23042,184.885716 561.541573,184.534623 C567.850941,185.987573 574.446515,185.576479 580.52663,183.351307 C586.276979,181.278768 591.212322,177.418901 594.609381,172.337374 C598.226528,166.697185 599.711342,159.950968 598.796496,153.313307 C598.153784,147.6416 595.98799,142.249583 592.528827,137.70915 C586.937338,130.752297 578.849183,126.786241 570.097852,124.705687 C561.417388,122.813034 552.512417,122.160703 543.648807,122.768171 C543.479762,122.768171 542.205423,122.768171 540.970094,122.898205 C540.135859,122.87445 539.303953,122.997695 538.512439,123.262302 L538.25237,123.262302 C538.122335,123.262302 537.992301,123.262302 537.979297,123.262302 C537.966294,123.262302 542.881603,121.961956 549.240297,119.270239 C555.59899,116.578522 563.388065,112.482431 569.044572,106.409813 C572.739484,102.387176 575.540358,97.6274625 577.262761,92.4440935 C579.2195,87.005927 579.2195,81.055778 577.262761,75.6176116 C575.83904,72.1140373 573.574859,69.0147434 570.670005,66.5932079 C568.889997,65.0784787 566.944463,63.7698236 564.87046,62.6921688 C553.57045,56.6715651 540.163879,57.7638561 529.384008,60.5205904 C522.464182,62.2264556 515.803677,64.8504235 509.579733,68.3226685 C511.97237,51.2751277 510.502979,36.0350684 506.26385,24.3059442 C502.02472,12.5768201 495.015854,4.35863109 486.355547,1.32882407 C482.522254,0.0277542622 478.430706,-0.324734589 474.431371,0.301550444 C472.352725,0.587035567 470.31739,1.12862671 468.371757,1.91397993 C459.906502,5.46392549 453.378763,13.9811941 449.802811,25.7493287 C446.226858,37.5174633 445.576685,52.5234602 448.866561,69.0768694 C440.886724,66.9567788 432.696635,65.7269572 424.446057,65.4098927 C412.547887,65.0718026 399.336368,67.1653603 392.184463,76.4108229 C391.538445,77.2350451 390.951811,78.1041313 390.428996,79.0115156 C389.860263,80.0101965 389.364827,81.0488724 388.946601,82.1193434 C387.989491,84.9701651 387.446479,87.9435943 387.334171,90.9486952 C387.2617,93.0715106 387.458316,95.1949596 387.919327,97.2683785 C389.375715,103.77011 393.445799,109.634672 399.49241,114.471961 C406.414344,119.75197 414.400507,123.465536 422.898644,125.35586 L422.898644,125.35586 C414.589431,124.614662 403.978605,124.497631 394.291024,126.916275 C384.603444,129.33492 375.891124,134.250229 371.365918,143.612723 C368.867851,148.808008 367.997613,154.636793 368.869253,160.335177 C369.726274,166.060193 372.203383,171.420494 376.008155,175.783292 C379.981568,180.281633 384.854439,183.896418 390.311965,186.394118 C398.295078,189.940924 406.897201,191.884907 415.629708,192.115642 L423.613835,191.907587 L431.597962,191.699531 C428.672182,191.972604 425.889441,192.128645 423.236734,192.193663 C420.584028,192.25868 418.035349,192.193663 415.629708,192.115642 L404.225671,192.427725 L392.821633,192.726805 C383.940551,192.97765 375.465511,196.50197 369.025295,202.622441 C362.572153,208.699384 358.730601,217.044503 358.310441,225.89864 C357.836541,235.586102 361.421265,245.03282 368.2026,251.967154 C374.983935,258.901489 384.348336,262.696053 394.043959,262.438373 L420.271945,261.48912 L446.486927,260.552871 L446.838021,372.382658 L447.176111,484.212445 L501.790658,484.212445 C501.790658,464.707249 501.712637,418.115839 501.673627,371.589446 C501.634616,325.063054 501.556596,278.601678 501.517585,259.031466 Z" id="Path" fill="#BAB653"></path>
            <polygon id="Path" fill="#353519" points="501.296526 258.82341 485.913429 258.82341 470.530332 258.82341 485.913429 282.580738 501.296526 306.35107 501.296526 282.580738"></polygon>
            <path d="M538.538446,125.160808 L524.234636,125.160808 C523.716045,125.167779 523.217481,124.960827 522.856269,124.588655 C522.489153,124.22403 522.283133,123.72771 522.284113,123.210288 C522.285988,122.693437 522.491572,122.198166 522.856269,121.831921 C523.220895,121.464805 523.717214,121.258786 524.234636,121.259765 L538.538446,121.259765 C539.055868,121.258786 539.552187,121.464805 539.916813,121.831921 C540.28151,122.198166 540.487094,122.693437 540.488969,123.210288 C540.489949,123.72771 540.28393,124.22403 539.916813,124.588655 C539.555602,124.960827 539.057038,125.167779 538.538446,125.160808 L538.538446,125.160808 Z" id="Path" fill="#666538"></path>
            <path d="M453.729857,75.6827049 C453.485391,75.6847935 453.242724,75.6406722 453.014666,75.5525943 C452.777631,75.4558932 452.561336,75.3146395 452.377496,75.1364834 L449.958852,72.8088635 L447.540208,70.46824 C447.1691,70.1094382 446.954211,69.6189303 446.942049,69.1028763 C446.927703,68.5841828 447.124843,68.0819444 447.488194,67.7115057 C447.846996,67.3403981 448.337504,67.1255089 448.853558,67.1133464 C449.372251,67.0990006 449.87449,67.2961409 450.244928,67.6594919 L452.663573,70.0001153 L455.082217,72.3277353 C455.461395,72.6862785 455.677499,73.1842587 455.680376,73.7061024 C455.694186,74.2208595 455.496862,74.7188682 455.134231,75.0844696 C454.950506,75.2785747 454.729324,75.4334024 454.484057,75.5395908 C454.243222,75.6319485 453.987784,75.6803938 453.729857,75.6827049 Z" id="Path" fill="#666538"></path>
            <path d="M429.374369,191.725538 L421.390243,191.933593 L413.406116,192.141649 C415.811757,192.25868 418.347432,192.29769 421.013142,192.21967 C423.678852,192.141649 426.44859,191.998611 429.374369,191.725538 Z" id="Path" fill="#BAB653"></path>
            <path d="M426.396576,193.87111 L402.444196,193.87111 C401.925605,193.87808 401.427041,193.671129 401.065829,193.298957 C400.698713,192.934331 400.492693,192.438012 400.493673,191.92059 C400.495548,191.403738 400.701132,190.908468 401.065829,190.542223 C401.430455,190.175107 401.926774,189.969087 402.444196,189.970067 L426.40958,189.970067 C426.93038,189.971326 427.429923,190.176746 427.80095,190.542223 C428.162084,190.909784 428.3631,191.405314 428.360143,191.92059 C428.36359,192.438962 428.159211,192.937115 427.792658,193.303668 C427.426105,193.670221 426.927952,193.8746 426.40958,193.87111 L426.396576,193.87111 Z" id="Path" fill="#666538"></path>
            <path d="M385.279624,382.642391 C385.376878,391.724463 386.737966,400.748784 389.323701,409.455532 C391.884113,418.210877 395.935572,426.458962 401.299891,433.837027 C404.900238,438.710721 409.13318,443.083594 413.887244,446.84049 C418.619706,450.615269 423.876133,453.681517 429.4914,455.942915 C435.454279,458.398842 441.927459,459.358658 448.346423,458.738659 C454.736303,457.966484 460.989181,456.316844 466.928372,453.836354 C471.155635,452.090075 475.650097,451.078602 480.217912,450.845557 C484.790783,450.652053 489.297719,451.98812 493.026324,454.642568 C496.699731,457.399725 499.696965,460.957273 501.790658,465.045339 C503.913893,469.097534 505.559029,473.382743 506.692964,477.814741 L509.68376,488.334543 L512.687561,498.841341 L523.207363,496.032593 L533.727165,493.223845 C534.325324,493.067803 532.868936,487.528328 531.126472,481.767794 C529.384008,476.007259 527.498506,470.064676 527.121405,469.06341 C525.092113,463.720659 522.576203,458.575667 519.605403,453.693316 C516.681301,448.812729 513.141295,444.328721 509.072598,440.351762 C506.051278,437.43834 502.647877,434.94922 498.955903,432.952791 C495.267775,430.938968 491.253134,429.59195 487.096744,428.973731 C482.384514,428.430736 477.611784,428.801605 473.04,430.066022 C468.42377,431.197324 463.937576,432.83576 459.41237,434.162113 C454.824872,435.545086 450.0394,436.155904 445.251598,435.969595 C440.463039,435.798072 435.767066,434.600798 431.48093,432.45866 C418.074359,425.644845 411.975735,412.693395 409.310025,398.298561 C406.644315,383.903727 407.476537,368.052504 407.905651,355.387131 C408.12671,349.184479 408.412786,342.383667 408.80289,335.049714 C409.192994,327.71576 409.661118,319.861668 410.272281,311.526448 L399.284355,310.447161 L388.283424,309.367873 C387.529223,317.308655 386.900723,325.47483 386.397922,333.866399 C385.895121,342.257967 385.552697,350.857591 385.370648,359.66527 C385.279624,363.566309 385.240614,367.467349 385.22761,371.277363 C385.214607,375.087378 385.22761,378.897393 385.279624,382.642391 Z" id="Path" fill="#BAB653"></path>
            <path d="M407.645582,382.60338 L407.580564,376.751822 L407.580564,370.913266 L407.580564,370.016027 C407.580564,369.768962 407.580564,369.560906 407.580564,369.339847 C407.580564,368.832712 407.580564,368.156532 407.580564,367.181272 C407.580564,366.206013 407.580564,364.95768 407.671589,363.280233 C407.892647,356.609456 408.178724,352.578383 408.386779,349.184479 C408.594834,345.790575 408.750876,343.03384 408.685859,338.885736 C408.685859,336.285043 408.542821,335.153741 408.425789,333.749367 C408.308758,332.344993 408.16572,330.667547 408.022682,327.00057 C407.86664,322.943489 407.814627,319.198492 407.82763,316.051653 C407.840634,312.904815 407.905651,310.083064 407.983672,307.898482 L395.266284,308.990773 L382.535893,310.096067 C382.535893,313.815058 382.678932,318.691357 382.769956,323.840728 C382.86098,328.9901 382.965008,334.386537 383.056032,339.210822 C383.264087,350.601856 383.420129,359.223153 383.758219,366.856186 C384.096309,374.489219 384.577437,381.159996 385.448669,388.61098 C385.682732,390.574503 385.916794,392.355978 386.124849,393.916393 C386.332905,395.476809 386.514953,396.803162 386.670995,397.817433 L402.275151,386.439402 L407.632578,382.538363 L407.645582,382.60338 Z" id="Path" fill="#353519"></path>
            <path d="M418.997605,429.545884 C414.5416,424.407755 408.453206,420.959502 401.755013,419.780283 C396.911358,418.834055 391.910904,419.070473 387.17813,420.469466 C387.048095,419.754276 386.892054,419.052089 386.710005,418.349902 C384.992453,411.894091 380.671817,406.441073 374.779755,403.292887 C368.887693,400.144702 361.953081,399.583933 355.631727,401.744479 C353.968716,402.30281 352.36566,403.025928 350.846453,403.903054 C347.498662,393.735381 337.426017,387.356221 326.803048,388.675998 C321.681974,389.292881 317.077949,392.094436 314.176614,396.359199 C311.275279,400.623962 310.360195,405.935118 311.667017,410.924924 C314.486737,421.827347 324.949023,428.95238 336.126532,427.582361 C336.490629,427.582361 336.841722,427.439323 337.192816,427.374305 C337.175365,429.789933 337.490403,432.196474 338.129065,434.52621 C339.839265,440.999314 344.165632,446.469004 350.070917,449.623916 C355.976202,452.778828 362.927908,453.334475 369.259357,451.15764 C370.851655,450.604767 372.384956,449.894745 373.836576,449.038076 C374.585343,450.348159 375.456103,451.584638 376.437269,452.731059 C385.729961,463.122242 400.839109,465.985197 413.289085,459.713919 C418.758484,457.097931 422.656077,452.03473 423.785784,446.078096 C424.91549,440.121463 423.142391,433.982786 419.010609,429.545884 L418.997605,429.545884 Z" id="Path" fill="#BAB653"></path>
            <path d="M409.023949,443.537756 L408.828897,443.537756 L408.633845,443.537756 C403.627511,442.237264 398.621178,440.936918 393.653855,439.44152 C388.686532,437.946121 383.771222,436.307685 378.933934,434.565221 C367.290899,430.346948 355.921293,425.409116 344.890866,419.780283 C333.790721,414.165964 323.046863,407.873381 312.720297,400.938264 C312.361313,400.69701 312.113286,400.322629 312.031114,399.897987 C311.951957,399.473923 312.040536,399.035691 312.27818,398.675661 C312.522891,398.322613 312.896465,398.079789 313.318457,397.999481 C313.740789,397.909284 314.181648,397.993704 314.540782,398.233543 C324.759265,405.107683 335.390083,411.348077 346.373261,416.919521 C357.27873,422.465866 368.518001,427.329847 380.026225,431.4834 C384.820169,433.217195 389.679129,434.820955 394.603108,436.294681 C399.505413,437.777076 404.459733,439.14244 409.414053,440.351762 C409.828852,440.464721 410.186161,440.729223 410.415319,441.092959 C410.632712,441.465965 410.697917,441.908428 410.597368,442.328288 C410.509299,442.684894 410.303041,443.001157 410.012212,443.225527 C409.724812,443.432903 409.378323,443.54232 409.023949,443.537756 L409.023949,443.537756 Z" id="Path" fill="#666538"></path>
            <path d="M424.316022,230.930981 C440.895438,202.492406 441.285542,183.988477 434.133637,179.853376 C426.981732,175.718274 412.300822,185.965004 398.699199,215.040748 C399.310361,181.829902 389.986878,166.212742 381.50862,167.96821 C373.030362,169.723678 365.397328,188.838769 369.350381,225.105429 C351.847719,192.59677 334.514102,181.29676 326.673014,185.054761 C318.831925,188.812762 320.457358,207.628774 340.8858,235.378165 C312.447225,218.811753 293.930292,218.408645 289.808195,225.56055 C285.686097,232.712455 295.919822,247.393366 324.995567,260.994989 C291.784721,260.396829 276.167561,269.707309 277.923029,278.185567 C279.678496,286.663826 298.728571,294.296859 335.060248,290.343806 C302.551589,307.846468 291.251579,325.180085 295.00958,333.034177 C298.767581,340.888269 317.583593,339.249833 345.332984,318.821391 C328.766571,347.259966 328.363464,365.763895 335.515369,369.898996 C342.667274,374.034098 357.348184,363.787368 370.949807,334.711624 C370.351648,367.909466 379.662128,383.526626 388.140386,381.784162 C396.618644,380.041698 404.251678,360.97862 400.298625,324.646943 C417.801287,357.155602 435.134904,368.455612 442.988996,364.697611 C450.843088,360.93961 449.204651,342.110595 428.77621,314.361203 C457.214785,330.940619 475.718714,331.330723 479.853815,324.191822 C483.988916,317.05292 473.729184,302.346003 444.666442,288.74438 C477.864285,289.355543 493.481445,280.032059 491.738981,271.566805 C489.996517,263.10155 470.868422,255.44251 434.601762,259.408566 C467.110421,241.892901 478.41043,224.559284 474.65243,216.718195 C470.894429,208.877107 452.065413,210.502539 424.316022,230.930981 Z" id="Path" fill="#F4ECE5"></path>
            <path d="M403.80956,270.50052 C406.652184,280.523824 402.021091,291.159665 392.746963,295.907052 C383.472835,300.654439 372.136832,298.192087 365.667908,290.025071 C359.198985,281.858055 359.39756,270.259404 366.142258,262.318612 C372.886956,254.37782 384.300604,252.304954 393.406789,257.367022 C398.484889,260.184968 402.229164,264.912116 403.80956,270.50052 L403.80956,270.50052 Z" id="Path" fill="#DEB8FC"></path>
            <path d="M685.022464,273.46531 L678.611756,273.634355 L672.201048,273.8034 C672.110024,273.8034 672.05801,273.8034 672.05801,273.686369 C672.041587,273.611215 672.087547,273.536531 672.162038,273.517324 C676.897401,271.912028 681.240072,269.32415 684.905432,265.923301 C688.103073,262.96807 690.397953,259.167315 691.524195,254.961381 C692.445741,250.918615 692.220568,246.698873 690.874022,242.777136 C690.166337,240.581345 689.183246,238.484085 687.948243,236.535474 C684.378569,231.173355 679.069752,227.20552 672.916239,225.300481 C666.053461,223.128398 658.718885,222.925661 651.7466,224.715325 C658.387564,223.197603 664.32133,219.481553 668.586086,214.169516 C676.450096,204.630312 676.825169,190.966947 669.496328,181.010684 C662.818359,171.451447 650.578428,167.529347 639.588362,171.427131 C633.880003,173.378999 628.888319,176.998196 625.258545,181.816899 C628.316758,175.802488 629.443024,168.990396 628.483404,162.311703 C627.580265,155.901869 624.602354,149.964317 620.005146,145.407201 C615.25711,140.826149 609.152902,137.906348 602.606511,137.084984 C596.285478,136.170141 589.843738,137.4999 584.401662,140.842985 C577.89993,145.004093 573.582781,152.286033 572.282434,160.569239 C570.913569,169.606946 573.048604,178.826204 578.251024,186.342104 C578.358535,186.461672 578.352265,186.644847 578.23683,186.756784 C578.121395,186.868721 577.938114,186.869353 577.82191,186.758215 C572.346535,182.75216 565.497601,181.099615 558.797842,182.167992 C552.612025,183.013087 547.062075,186.408128 543.492766,191.530486 C540.01641,197.146437 539.170737,204.002088 541.178149,210.294484 C543.237422,217.218768 548.145346,222.939952 554.675744,226.028675 L554.675744,226.028675 C546.432451,224.307725 537.843156,225.935761 530.801385,230.55388 C524.299654,234.806013 519.93049,241.203717 519.007244,247.978522 C518.344994,254.212819 520.068725,260.46657 523.831529,265.481184 C527.888986,271.1561 533.7233,275.315623 540.410945,277.301332 L533.818189,277.470377 L527.225433,277.652425 C518.497869,277.8871 510.221832,281.58266 504.221388,287.924593 C498.220943,294.266526 494.988649,302.734243 495.236912,311.461431 L495.236912,311.461431 C495.718878,329.616197 510.826091,343.943308 528.9809,343.462955 L556.093122,342.734761 L583.205344,342.01957 L585.467946,445.11103 L587.717545,548.202489 L637.338763,548.202489 L634.946125,444.460856 L632.605502,340.654207 L659.717723,339.926013 L686.829945,339.210822 C695.559792,338.97954 703.83916,335.285461 709.842397,328.943154 C715.845635,322.600847 719.079703,314.131198 718.831469,305.401817 L718.831469,305.401817 C718.600186,296.67197 714.906108,288.392602 708.563801,282.389364 C702.221494,276.386127 693.751845,273.152059 685.022464,273.400293 L685.022464,273.46531 Z" id="Path" fill="#666538"></path>
            <polygon id="Path" fill="#353519" points="632.540484 340.654207 619.328965 340.654207 606.117446 340.654207 619.667056 358.872059 633.229668 377.089912 632.878575 358.872059"></polygon>
            <path d="M566.027768,227.667111 L554.662741,227.667111 C554.228165,227.667893 553.811374,227.49462 553.505433,227.185983 C553.043141,226.719622 552.90687,226.020907 553.160039,225.41501 C553.413207,224.809112 554.006079,224.415062 554.662741,224.416246 L566.027768,224.416246 C566.688321,224.407353 567.287478,224.802281 567.539727,225.412838 C567.791976,226.023394 567.646282,226.726054 567.172073,227.185983 C566.872694,227.496406 566.459021,227.670336 566.027768,227.667111 Z" id="Path" fill="#2B3D0A"></path>
            <path d="M673.384364,275.79293 L637.936922,275.79293 C637.03922,275.79293 636.311489,275.065199 636.311489,274.167497 C636.318562,273.272742 637.042166,272.549138 637.936922,272.542064 L673.384364,272.542064 C673.814721,272.543306 674.226725,272.716535 674.528668,273.023192 C674.837814,273.323444 675.011504,273.736546 675.009809,274.167497 C675.010578,274.602073 674.837305,275.018865 674.528668,275.324805 C674.222236,275.623128 673.812024,275.790942 673.384364,275.79293 L673.384364,275.79293 Z" id="Path" fill="#2B3D0A"></path>
            <path d="M621.630579,188.513683 C621.468121,188.512132 621.306493,188.49029 621.14945,188.448665 C620.986664,188.394382 620.833171,188.315443 620.694329,188.214603 C620.340124,187.967452 620.10093,187.587557 620.031153,187.161322 C619.952834,186.737831 620.051531,186.300747 620.304225,185.952 L622.12471,183.351307 L623.932192,180.750615 C624.449881,180.019061 625.462017,179.844555 626.194794,180.360511 C626.926348,180.8782 627.100854,181.890336 626.584898,182.623114 L624.777417,185.223806 L622.956932,187.824499 C622.808397,188.044041 622.607219,188.222866 622.371776,188.344637 C622.141546,188.458783 621.887533,188.516716 621.630579,188.513683 L621.630579,188.513683 Z" id="Path" fill="#2B3D0A"></path>
            <path d="M557.185413,358.768031 C557.601524,358.637997 558.004631,358.481955 558.485759,358.325914 C558.966887,358.169872 559.317981,357.97482 559.786106,357.779768 C561.949865,356.760659 563.962701,355.44794 565.767699,353.878729 C568.649415,351.445628 570.582858,348.075913 571.229154,344.360194 C571.782591,340.637439 571.043704,336.837447 569.135596,333.593326 C567.260255,330.305974 564.455476,327.645958 561.073449,325.947289 C558.043542,324.45344 554.65774,323.83211 551.294844,324.152811 C547.882705,324.465486 544.610986,325.662129 541.802316,327.624736 C543.646863,325.888477 545.20878,323.874656 546.431549,321.656146 C548.030758,318.770301 548.842475,315.514464 548.785175,312.215632 C548.658133,307.710551 547.013151,303.380446 544.116932,299.927359 C541.090515,296.284267 536.99718,293.682725 532.413815,292.489377 C530.135113,292.08557 527.811597,291.998055 525.508976,292.229308 C521.343254,292.556094 517.39615,294.226198 514.26098,296.988576 C510.649675,300.397642 508.449973,305.038364 508.097338,309.992039 C507.62264,315.468689 508.956414,320.949954 511.894349,325.596196 C507.712,323.398392 502.90951,322.678935 498.266719,323.554652 C490.201184,325.158167 484.18327,331.925589 483.533142,340.123238 C482.883015,348.320888 487.759011,355.952268 495.470975,358.807042 L493.637486,358.807042 C488.779415,358.78977 484.113647,360.703972 480.667493,364.128176 C477.221338,367.55238 475.277363,372.205822 475.263592,377.063905 L475.263592,377.063905 C475.263592,381.921975 477.194341,386.580881 480.630735,390.014835 C484.067128,393.44879 488.727404,395.376232 493.585473,395.372781 L511.93336,395.372781 L511.93336,474.524864 L538.356398,474.524864 L538.356398,395.372781 L556.704285,395.372781 C561.561159,395.376235 566.2201,393.448378 569.654429,390.014049 C573.088758,386.57972 575.016615,381.920778 575.013166,377.063905 L575.013166,377.063905 C575.016411,367.139399 567.10667,359.021963 557.185413,358.768031 L557.185413,358.768031 Z" id="Path" fill="#E9CF81"></path>
            <path d="M504.677427,360.380463 L493.637486,360.380463 C493.202911,360.381242 492.786119,360.207969 492.480178,359.899333 C492.017886,359.432972 491.881615,358.734257 492.134784,358.128359 C492.387953,357.522461 492.980824,357.128412 493.637486,357.129592 L504.677427,357.129592 C505.334089,357.128412 505.926961,357.522461 506.180129,358.128359 C506.433298,358.734257 506.297027,359.432972 505.834735,359.899333 C505.528794,360.207969 505.112003,360.381242 504.677427,360.380463 L504.677427,360.380463 Z" id="Path" fill="#666538"></path>
            <path d="M538.343394,332.03291 C538.099096,332.034257 537.858127,331.976245 537.641207,331.863865 C537.413108,331.754331 537.212984,331.594232 537.056051,331.395741 C536.791189,331.055352 536.673734,330.623041 536.729935,330.195423 C536.786137,329.767804 537.011309,329.380524 537.355131,329.120134 L539.682751,327.325656 L542.010371,325.531178 C542.349889,325.267724 542.780529,325.150703 543.20669,325.206092 C544.093489,325.327453 544.718781,326.138017 544.611064,327.026577 C544.560503,327.456939 544.334695,327.847399 543.986897,328.105864 L541.659277,329.900342 L539.344661,331.69482 C539.200179,331.805014 539.037273,331.888668 538.863533,331.941886 C538.697386,332.004541 538.520945,332.035418 538.343394,332.03291 Z" id="Path" fill="#666538"></path>
            <path d="M894.235189,362.265963 C894.99248,375.893134 893.859084,389.559532 890.867292,402.87578 C887.899438,416.2635 882.65196,429.041306 875.35416,440.650842 C870.439427,448.328944 864.532496,455.32457 857.786481,461.456383 C851.051135,467.612317 843.455483,472.754933 835.238475,476.72245 C826.536381,481.001471 816.922391,483.094768 807.229014,482.821074 C798.048569,482.574008 788.81611,480.415433 778.86846,477.333612 C772.256168,475.199949 765.284284,474.408594 758.361998,475.005992 C751.780303,475.603238 745.425492,477.712608 739.793052,481.169634 C734.650534,484.445931 730.365964,488.904381 727.296724,494.173098 C724.201899,499.427621 721.814626,505.067881 720.196833,510.947566 C719.650687,512.859075 717.59614,522.585666 715.697634,531.831128 C713.799128,541.076591 712.108678,549.866932 712.316734,549.905943 L697.245719,547.214226 L682.161702,544.444488 C682.161702,544.444488 682.876892,539.048051 684.216249,531.571059 C685.689523,523.020162 687.625549,514.555475 690.015794,506.214305 C692.087079,499.072291 694.744477,492.113474 697.96091,485.408763 C702.231171,476.623716 707.74494,468.499776 714.332271,461.287338 C718.589147,456.604483 723.467449,452.526835 728.831132,449.16811 C734.159143,445.78358 740.038893,443.358623 746.20376,442.003202 C753.223005,440.721598 760.423158,440.80106 767.412409,442.237264 C774.434279,443.537611 781.417139,445.462123 788.217951,446.996532 C795.235227,448.615458 802.473058,449.054914 809.634655,448.296878 C816.802747,447.552922 823.728457,445.282779 829.946065,441.639105 C849.360236,430.066022 857.253339,410.040688 859.750004,388.168863 C862.246669,366.297037 859.463928,342.65674 857.539415,323.684687 C856.590162,314.38721 855.484868,304.179491 854.158515,293.269585 C852.832161,282.359679 851.336763,270.565538 849.581295,258.160234 L865.965659,255.44251 L882.350024,252.724786 C884.291874,264.557938 886.060345,276.742183 887.655437,289.277522 C889.250528,301.812861 890.628895,314.681955 891.790538,327.884805 C892.310677,333.745033 892.770132,339.544578 893.168905,345.28344 C893.567678,351.022302 893.923106,356.683143 894.235189,362.265963 Z" id="Path" fill="#BAB653"></path>
            <path d="M860.660246,377.857116 C860.504205,372.65573 860.343829,367.49769 860.179118,362.382994 C860.014408,357.268299 859.849697,352.110258 859.684987,346.908873 C859.684987,346.375731 859.684987,345.946616 859.593962,345.608526 C859.502938,345.270436 859.593962,344.906339 859.593962,344.594256 C859.593962,343.840055 859.476931,342.812782 859.346897,341.356394 C859.216862,339.900006 859.06082,338.014503 858.813755,335.517838 C857.773477,325.115068 856.785214,315.934622 856.05702,309.43289 C855.328826,302.931159 854.847698,299.03012 854.847698,299.03012 C854.171518,293.477641 853.404314,287.248982 852.546085,280.422163 C851.687856,273.595345 850.712597,266.118353 849.646313,258.14723 L866.030677,255.429506 L882.415041,252.711782 C883.94945,261.385093 885.262799,269.421233 886.381097,276.690169 C887.499395,283.959105 888.435645,290.473841 889.215852,296.117344 C889.371894,297.300659 890.893299,308.587665 892.297673,323.333593 C893.951064,339.264986 894.749755,355.273518 894.690311,371.290367 C894.690311,374.814305 894.456248,378.533296 894.118158,382.499352 C893.780068,386.465409 893.25993,390.652524 892.479722,395.138719 C891.972587,398.025488 891.439445,400.665191 890.893299,403.005815 C890.347154,405.346438 889.840019,407.400985 889.371894,409.104439 L875.068084,393.500283 L860.660246,377.857116 Z" id="Path" fill="#666538"></path>
            <path d="M998.249895,443.186517 C995.383635,435.487473 989.379537,429.369912 981.735496,426.360035 C965.802291,420.172829 947.718611,426.135321 938.590004,440.585824 C936.601187,438.640058 934.42315,436.897628 932.088272,435.384439 C923.153108,429.551663 912.195438,427.69553 901.837808,430.260277 C891.480177,432.825024 882.65474,439.57983 877.473725,448.908041 C876.914576,449.896304 876.394437,450.923578 875.913309,451.963855 C869.140172,447.964 861.505391,445.649484 853.651379,445.215057 C842.835203,444.409276 832.070398,447.342629 823.158257,453.524271 C815.13512,459.323815 809.881721,467.685042 809.296565,477.229585 C808.711409,486.774127 812.924531,495.707507 820.180464,502.430297 C836.997351,517.041309 861.5315,518.534692 879.996397,506.071267 C881.929778,504.673544 883.727797,503.097557 885.366827,501.364013 C887.331094,503.258094 889.478525,504.952517 891.777535,506.422361 C900.713252,512.258033 911.673491,514.114458 922.032533,511.546895 C932.391575,508.979333 941.216116,502.219109 946.392082,492.885755 C948.283173,489.540658 949.70935,485.95334 950.631211,482.222915 C951.151349,482.469981 951.671488,482.704043 952.217634,482.925102 C968.94963,489.449797 987.924821,482.542137 996.546441,466.787803 C1000.45733,459.524585 1001.07722,450.936075 998.249895,443.186517 Z" id="Path" fill="#BAB653"></path>
            <path d="M836.75988,478.126824 L833.652052,478.126824 C833.221695,478.125582 832.809692,477.952353 832.507748,477.645696 C832.209425,477.339263 832.041611,476.929051 832.039623,476.501391 C832.047772,476.072466 832.219949,475.662964 832.520751,475.357086 C832.822695,475.050428 833.234698,474.877199 833.665056,474.875958 L833.665056,474.875958 C841.831231,474.940975 850.036417,474.77193 858.228599,474.407833 C866.420781,474.043736 874.573952,473.445577 882.688114,472.665369 C902.158799,470.758755 921.492873,467.649322 940.579534,463.354889 C959.787988,459.030988 978.713205,453.533208 997.248628,446.892504 C997.672203,446.732051 998.143517,446.755617 998.548974,446.957521 C998.940414,447.13926 999.240917,447.472631 999.381196,447.880767 C999.559026,448.295977 999.559026,448.765904 999.381196,449.181114 C999.188224,449.56412 998.858861,449.861011 998.45795,450.013335 C979.796609,456.688785 960.745924,462.22117 941.411755,466.579748 C922.191812,470.902159 902.723236,474.033286 883.117228,475.955245 C875.471191,476.696443 867.760137,477.255592 860.03608,477.632692 C852.312023,478.009793 844.431924,478.126824 836.75988,478.126824 Z" id="Path" fill="#666538"></path>
            <path d="M786.137396,289.290525 L786.137396,289.290525 L786.137396,289.290525 L786.137396,289.290525 C777.323731,302.079275 777.315349,318.980221 786.116326,331.777707 C794.917303,344.575193 810.702232,350.614899 825.79796,346.960886 L825.901988,346.960886 C828.735931,362.226074 840.692217,374.161339 855.962368,376.968416 C871.232518,379.775492 886.651777,372.87261 894.729321,359.613257 L894.729321,359.613257 L894.729321,359.613257 L894.729321,359.613257 C907.527893,368.397588 924.418177,368.37888 937.197257,359.566218 C949.976338,350.753556 955.996765,334.972665 952.334665,319.887675 L952.334665,319.796651 L952.334665,319.796651 C967.599852,316.962708 979.535117,305.006422 982.342194,289.736272 C985.14927,274.466121 978.246389,259.046862 964.987035,250.969318 L964.987035,250.969318 L964.987035,250.969318 L964.987035,250.969318 C973.771366,238.170747 973.752658,221.280462 964.939996,208.501382 C956.127334,195.722301 940.346444,189.701874 925.261453,193.363974 L925.170429,193.363974 C922.345163,178.091232 910.385813,166.147473 895.109398,163.342131 C879.832984,160.536789 864.410367,167.452158 856.343096,180.724608 L856.343096,180.724608 L856.343096,180.724608 L856.343096,180.724608 C843.544525,171.940277 826.654241,171.958985 813.87516,180.771646 C801.096079,189.584308 795.075652,205.365199 798.737753,220.450189 L798.737753,220.541213 L798.737753,220.541213 C783.474514,223.379066 771.543019,235.336995 768.738951,250.606476 C765.934882,265.875957 772.839292,281.292887 786.098386,289.368546 L786.137396,289.290525 Z" id="Path" fill="#DEB8FC"></path>
            <path d="M834.289222,271.072673 C833.830368,290.601414 847.229667,307.735068 866.293357,311.99629 C885.357046,316.257511 904.776232,306.459627 912.675951,288.59411 C920.575669,270.728593 914.755991,249.770667 898.775689,238.536246 C882.795387,227.301825 861.104687,228.919494 846.967599,242.400036 C839.09324,249.888872 834.530137,260.208505 834.289222,271.072673 L834.289222,271.072673 Z" id="Path" fill="#F4ECE5"></path>
            <path d="M679.71705,482.39196 C677.166375,476.099329 677.013685,469.08944 679.287936,462.691712 C681.390584,456.612743 685.760573,451.581198 691.485185,448.647972 C696.287113,446.313253 701.716173,445.596982 706.959307,446.606428 C712.448406,447.64142 717.49468,450.316445 721.432162,454.278471 C724.014952,446.684718 728.29285,439.778715 733.941494,434.084093 C739.611004,428.388575 746.528846,424.227467 753.784779,423.213197 C762.067347,422.119524 770.478614,423.807266 777.698149,428.011475 C781.428198,430.09424 784.825134,432.724127 787.775833,435.813553 C793.754397,442.168436 798.073379,449.899727 800.350182,458.322549 C802.493822,466.088173 802.235415,474.320935 799.608985,481.936839 C797.884819,486.546817 795.647135,490.948032 792.938208,495.057333 C790.961972,498.299638 788.53167,501.242273 785.721286,503.795661 C795.260599,505.995322 803.659585,511.622411 809.322572,519.607873 C814.719644,527.0821 817.008295,536.357893 815.707273,545.484765 C814.479227,552.943998 810.876385,559.807641 805.434536,565.054978 C799.761301,570.580971 792.565839,574.285117 784.772033,575.691811 L732.264047,529.009377 L679.71705,482.39196 Z" id="Path" fill="#666538"></path>
            <path d="M850.07573,774.020638 C850.057566,935.564418 735.927646,1074.59904 577.484014,1106.0952 C419.040382,1137.59137 260.412671,1052.77679 198.612707,903.521443 C136.812743,754.2661 189.053018,582.140513 323.384988,492.411393 C457.716958,402.682273 636.726555,420.340926 750.937021,534.587863 C814.518085,598.03313 850.19572,684.199487 850.07573,774.020638 Z" id="Path" fill="#353519"></path>
            <path d="M295.256646,547.30525 C294.941899,547.300359 294.635106,547.205614 294.37241,547.032177 C294.093355,546.858321 293.878746,546.59805 293.761247,546.29098 L276.063533,503.613612 L258.36582,460.923241 C258.203247,460.527511 258.203247,460.083642 258.36582,459.687912 C258.528355,459.285384 258.847527,458.966212 259.250055,458.803677 C259.645785,458.641104 260.089654,458.641104 260.485384,458.803677 C260.887912,458.966212 261.207084,459.285384 261.36962,459.687912 L279.067334,502.36528 L296.765048,545.055651 C296.94598,545.470218 296.94598,545.94143 296.765048,546.355997 C296.602512,546.758526 296.28334,547.077697 295.880812,547.240233 C295.78062,547.282443 295.675903,547.312985 295.568729,547.331257 L295.256646,547.30525 Z" id="Path" fill="#666538"></path>
            <path d="M273.397823,403.760015 C284.912324,415.267668 286.693853,433.306794 277.652812,446.844495 C268.61177,460.382196 251.266481,465.647635 236.225484,459.420419 C221.184488,453.193203 212.637356,437.207884 215.811594,421.241231 C218.985833,405.274578 232.997277,393.773326 249.276398,393.773326 C258.325099,393.761537 267.005624,397.355414 273.397823,403.760015 Z" id="Path" fill="#F4ECE5"></path>
            <path d="M223.256468,443.186517 C221.970066,443.19006 220.696222,442.933522 219.51147,442.432316 C218.291771,441.913902 217.19018,441.152964 216.273608,440.19572 C215.9769,439.883989 215.813602,439.468747 215.81838,439.038412 C215.831432,438.609121 216.013754,438.202402 216.325622,437.907111 C216.96366,437.277517 217.989197,437.277517 218.627235,437.907111 C219.536087,438.869283 220.722529,439.523872 222.021139,439.77961 C223.300658,440.034407 224.627768,439.884426 225.81815,439.350495 C226.957058,438.82168 227.909093,437.960315 228.548878,436.879837 C229.203593,435.78204 229.5202,434.515613 229.45912,433.238867 C229.436779,432.872885 229.503717,432.506957 229.654172,432.172583 C229.806518,431.832198 230.03842,431.533401 230.330352,431.301351 C230.91847,430.840187 231.690657,430.68575 232.410906,430.88524 C233.902454,431.308232 235.493457,431.211947 236.923108,430.612168 C239.52138,429.60904 240.921595,426.786026 240.147967,424.110436 C239.783195,422.826952 239.056353,421.675744 238.054409,420.794553 C237.728362,420.516706 237.530878,420.117037 237.508264,419.689258 C237.481554,419.259364 237.621234,418.835669 237.898368,418.505943 C238.183027,418.181576 238.585833,417.984857 239.016666,417.959798 C239.44656,417.933088 239.870255,418.072768 240.199981,418.349902 C241.716899,419.683272 242.799408,421.44065 243.307809,423.395245 C244.418967,427.363548 242.529746,431.558164 238.821614,433.355899 C236.929559,434.319438 234.781511,434.660759 232.683979,434.331158 C232.560413,436.045026 231.986222,437.695824 231.019536,439.116433 C230.040009,440.535556 228.690991,441.659737 227.118497,442.367299 C226.503712,442.653198 225.857914,442.867009 225.193984,443.004469 C224.556181,443.13201 223.906865,443.19302 223.256468,443.186517 L223.256468,443.186517 Z" id="Path" fill="#E2B2FF"></path>
            <path d="M662.084354,519.673106 L661.941316,519.673106 C661.512737,519.642529 661.114396,519.441016 660.836021,519.113741 C660.562359,518.782728 660.427243,518.358744 660.458921,517.930426 L667.935912,426.633108 L675.425907,335.33579 C675.461016,334.905634 675.667105,334.507508 675.99806,334.230496 C676.324103,333.947856 676.751915,333.811521 677.181375,333.853395 C677.608022,333.890638 678.003894,334.090903 678.286669,334.412544 C678.562345,334.747547 678.697505,335.176329 678.66377,335.608863 L671.186778,426.893177 L663.696783,518.190495 C663.662691,518.598419 663.477137,518.978806 663.176645,519.256779 C662.879487,519.530595 662.488375,519.67959 662.084354,519.673106 Z" id="Path" fill="#666538"></path>
            <path d="M662.07135,519.673182 L661.759267,519.673182 C661.655708,519.650527 661.555271,519.615592 661.460188,519.568862 C661.060986,519.40809 660.74262,519.094406 660.575952,518.69763 C660.399632,518.282112 660.399632,517.812801 660.575952,517.397284 L678.247659,474.706913 L695.919366,432.003538 C696.080535,431.607608 696.394668,431.293475 696.790598,431.132306 C697.203015,430.941348 697.678528,430.941348 698.090944,431.132306 C698.491321,431.293617 698.810304,431.608723 698.976497,432.007098 C699.14269,432.405472 699.142215,432.853849 698.97518,433.251871 L681.303473,475.942242 L663.631766,518.645616 C663.505857,518.944253 663.292877,519.198016 663.020603,519.37381 C662.745313,519.574444 662.411931,519.679482 662.07135,519.673182 Z" id="Path" fill="#666538"></path>
            <path d="M747.036227,402.23861 C747.097401,418.519452 735.647787,432.575688 719.691088,435.80885 C703.734389,439.042011 687.716293,430.551309 681.435376,415.530667 C675.154459,400.510025 680.360646,383.144339 693.869211,374.056531 C707.377776,364.968723 725.425105,366.690743 736.971301,378.169199 C743.394188,384.534217 747.016185,393.196125 747.036227,402.23861 Z" id="Path" fill="#DEB8FC"></path>
            <path d="M228.197784,615.352375 C213.750936,612.920727 202.268878,605.950871 194.804889,596.705408 C187.342823,587.670336 184.008319,575.921751 185.611441,564.31378 C187.033862,555.582683 190.485647,547.307307 195.689125,540.153345 C201.306621,532.429288 209.108699,525.849535 218.926314,522.923756 C226.778849,520.571641 235.19535,520.938173 242.813677,523.964033 C246.818044,525.505672 250.549627,527.67877 253.866621,530.400747 C257.044887,523.869997 262.318621,518.591685 268.846611,515.407754 C274.828204,512.559995 281.225909,512.000846 286.401287,514.107407 C290.339774,515.839821 293.495256,518.972135 295.256646,522.897749 C297.252866,527.337566 297.916921,532.261512 297.168155,537.071524 L262.643959,576.185943 L228.197784,615.352375 Z" id="Path" fill="#666538"></path>
            <path d="M704.423631,399.1958 C702.907237,399.181007 701.415369,398.81138 700.067471,398.116512 C698.674962,397.391744 697.468901,396.354799 696.543532,395.086705 C695.241573,396.207433 693.667343,396.965395 691.979317,397.284291 C688.274594,397.995774 684.505243,396.411108 682.421771,393.26622 C681.30427,391.60925 680.727361,389.646852 680.770331,387.648724 C680.782601,387.221925 680.959698,386.816465 681.264463,386.517423 C681.565869,386.221056 681.973089,386.057231 682.395764,386.062187 L682.395764,386.062187 C682.823173,386.071828 683.229621,386.249357 683.527065,386.556433 C683.831254,386.86334 683.995834,387.281843 683.982186,387.713741 C683.953198,389.038662 684.329776,390.340804 685.061474,391.445735 C686.498485,393.659542 689.189892,394.706782 691.745254,394.046428 C693.00952,393.734816 694.151096,393.050776 695.022127,392.082905 C695.267758,391.806957 695.575219,391.59307 695.919366,391.458739 C696.268196,391.330205 696.6424,391.285657 697.011657,391.328704 C697.758783,391.401301 698.421267,391.839709 698.780128,392.499016 C699.538736,393.850785 700.729358,394.908607 702.161029,395.502816 C703.503784,396.066486 705.011446,396.094406 706.374151,395.580837 C707.52673,395.090884 708.48306,394.230644 709.091875,393.136186 C709.741801,391.971718 710.039927,390.643701 709.950103,389.313167 C709.890603,388.419576 710.565119,387.646209 711.458505,387.583707 C711.890717,387.556408 712.316158,387.701338 712.64182,387.986814 C712.967378,388.270562 713.164357,388.673901 713.187966,389.105112 C713.3427,391.112294 712.88959,393.119571 711.887619,394.865646 C710.920596,396.536601 709.4311,397.843337 707.64849,398.584637 C707.150539,398.791507 706.631738,398.944095 706.101078,399.039758 C705.548872,399.149928 704.986684,399.202225 704.423631,399.1958 L704.423631,399.1958 Z" id="Path" fill="#666538"></path>
            <path d="M736.633397,282.762787 C736.686135,262.741269 725.463305,244.395172 707.614102,235.324897 C689.764899,226.254621 668.329724,228.005181 652.188718,239.851357 C648.322722,242.981393 644.870751,246.59067 641.915982,250.592218 C636.914024,257.289456 633.563639,265.072864 632.137377,273.309269 C629.601702,288.289259 634.256942,301.045656 639.7314,310.213098 C643.095869,315.920089 647.294726,321.091959 652.188718,325.557185 C654.309713,327.112876 656.543843,328.508121 658.872498,329.731297 C664.20873,332.531779 669.982121,334.404943 675.946046,335.270773 C678.461725,335.626605 680.999349,335.803918 683.540069,335.803918 C712.842301,335.803918 736.604504,312.065005 736.633397,282.762787 Z" id="Path" fill="#DEB8FC"></path>
            <path d="M721.380148,288.770387 C717.866048,288.726959 714.456179,287.570608 711.640554,285.467507 C708.67602,283.299084 706.436728,280.284652 705.216843,276.820204 C701.710321,278.561009 697.789555,279.294746 693.890826,278.939768 C690.206485,278.609169 686.72273,277.115481 683.943176,274.674632 C681.577488,272.529016 679.861039,269.762875 678.988856,266.690506 C678.421016,264.787034 678.12765,262.812284 678.117624,260.825944 C678.125774,260.397019 678.29795,259.987517 678.598753,259.681639 C678.900696,259.374981 679.3127,259.201752 679.743057,259.200498 L679.743057,259.200498 C680.174009,259.198803 680.58711,259.372494 680.887362,259.681639 C681.197645,259.985462 681.367282,260.404845 681.355487,260.838947 C681.365984,262.485461 681.606713,264.122415 682.070677,265.702242 C682.775559,268.202642 684.167641,270.455202 686.088748,272.203974 C688.46991,274.274772 691.469026,275.500021 694.61902,275.688902 C697.997636,275.911992 701.370262,275.172539 704.34561,273.556334 C705.033762,273.190173 705.849871,273.151992 706.569203,273.452307 C706.925723,273.602788 707.245205,273.829088 707.505452,274.115483 C707.769577,274.396562 707.965363,274.734736 708.077605,275.103747 C709.110017,278.50032 711.318101,281.41831 714.306264,283.334939 C717.100925,285.207155 720.529216,285.881572 723.824799,285.207438 C726.525785,284.564178 728.933677,283.035212 730.664621,280.864281 C732.520872,278.579587 733.660863,275.797465 733.941494,272.867151 C733.978925,272.438341 734.1904,272.043589 734.526649,271.77486 C735.036084,271.39004 735.723623,271.339089 736.284216,271.644613 C736.844809,271.950136 737.17463,272.555548 737.127342,273.192237 C736.768227,276.796824 735.347176,280.213684 733.044255,283.009852 C730.858691,285.690339 727.852078,287.577468 724.487976,288.380283 C723.954834,288.497314 723.434695,288.575335 722.901553,288.640352 C722.368411,288.70537 721.91329,288.770387 721.380148,288.770387 Z" id="Path" fill="#666538"></path>
            <path d="M275.010253,834.13565 C274.678654,830.689873 273.800777,827.318825 272.40956,824.14899 C271.109214,820.924131 269.496784,817.777293 268.131421,814.578441 C265.146629,807.733973 263.356596,800.428703 262.839011,792.979688 C262.291761,785.636945 263.546093,778.271653 266.492984,771.523973 C270.015966,764.251101 275.612813,758.183703 282.578269,754.086328 C289.509115,750.042251 297.259179,748.637877 303.591866,752.447892 C310.587729,756.661014 318.883939,757.376204 326.842059,755.581726 C334.931418,753.703029 342.313622,749.547155 348.115725,743.605536 C353.692974,737.684357 358.084864,730.750026 361.054172,723.177095 C364.081288,715.527272 366.39279,707.613319 367.959011,699.536798 C368.667538,695.540122 369.836986,691.639052 371.443939,687.911702 C373.147393,684.335749 375.57904,681.40997 379.246017,680.031603 C380.993219,679.434407 382.836825,679.169775 384.681465,679.251395 C386.5514,679.329145 388.414583,679.524584 390.259951,679.836551 L400.155587,681.305942 L410.038219,682.788337 C416.570797,683.79511 423.135848,681.18203 427.189787,675.961519 C431.312127,670.814796 432.294617,663.827649 429.75147,657.743666 C426.863318,651.019982 423.234614,644.639221 418.932588,638.719599 C414.61276,632.732 409.958804,626.992701 404.992875,621.52902 C396.813696,612.426596 388.088372,603.051098 381.222544,592.9214 C374.356715,582.791702 369.168333,571.868793 368.076042,559.671544 C367.438872,552.441618 368.25809,544.964627 368.466146,537.65668 C368.674201,530.348734 368.284097,523.183825 365.189273,516.617076 C363.157403,512.592974 360.502281,508.915301 357.322177,505.720173 C354.21435,502.417294 350.820446,499.309466 347.764632,495.967576 C345.928852,493.984354 344.271027,491.84354 342.810312,489.569872 C341.34333,487.324003 340.172031,484.898367 339.325384,482.352949 C195.516834,567.281238 135.042454,744.333133 196.846433,899.491058 C206.688489,895.329451 216.287362,890.614673 225.597091,885.369297 C234.921973,880.12845 243.939434,874.358492 252.605285,868.087693 C258.595816,863.957318 263.953082,858.976769 268.508521,853.302755 C272.812668,847.594235 275.530391,841.209534 275.010253,834.13565 Z" id="Path" fill="#BAB653"></path>
            <path d="M542.881603,593.038432 C546.639604,593.909664 550.436615,594.663864 554.24663,595.288031 C558.056645,595.912197 561.892667,596.432336 565.741692,596.822439 C564.493359,608.75095 563.249361,620.675126 562.009698,632.594968 C560.770034,644.514809 559.530371,656.44332 558.290707,668.3805 C558.173633,669.391391 558.173633,670.412418 558.290707,671.42331 C558.405025,672.428861 558.658865,673.413584 559.044908,674.349089 C561.086452,679.212385 565.468619,680.226655 570.370925,680.616759 C575.273231,681.006863 580.695675,680.785804 584.80477,683.152434 C587.50949,696.155898 590.864384,709.016323 594.167263,721.902756 C597.470143,734.789188 600.747016,747.675621 603.269688,760.692088 C603.595845,762.378311 604.207096,763.996586 605.077169,765.477362 C605.949824,766.949485 607.1135,768.228201 608.49708,769.235363 C612.801227,772.356194 617.13138,771.654007 621.045423,769.235363 C624.959465,766.816719 628.418387,762.551583 630.993072,758.63754 C635.882375,751.173552 640.776011,743.70523 645.673983,736.232573 L660.367897,713.840608 C661.668243,711.903092 662.968589,709.939569 664.35996,708.145091 C665.759055,706.318866 667.404472,704.69533 669.249262,703.320806 C673.358357,700.317006 678.351687,699.133691 683.410034,698.00239 C688.468381,696.871088 693.513725,695.75279 697.713844,692.918035 C701.777183,690.052933 704.881575,686.028553 706.621217,681.37096 C708.458693,676.604809 709.601678,671.599325 710.015121,666.508001 C710.509252,661.514671 710.704304,656.40431 711.315467,651.397976 C711.772828,646.401221 713.055914,641.514946 715.112478,636.938125 C716.740095,633.702511 718.767118,630.68382 721.146085,627.952731 C723.473705,625.16999 726.035388,622.54329 728.519049,619.890584 C741.242002,606.24577 752.230776,591.081612 761.235764,574.742558 C762.887204,571.751762 764.48663,568.695948 766.099059,565.640134 C767.711489,562.58432 769.323918,559.528506 771.001365,556.537709 C745.069598,525.627293 713.847707,499.574561 678.793804,479.596215 C642.976763,459.178669 603.71346,445.514969 562.958951,439.285478 C553.093656,453.632633 543.887204,468.413236 535.339594,483.627289 C526.791984,498.841341 518.989906,514.406487 511.93336,530.322727 L511.829332,530.556789 L511.725304,530.777848 C506.282178,543.101028 506.626564,557.211119 512.664398,569.254082 C518.702232,581.297045 529.802628,590.014527 542.933617,593.025428 L542.881603,593.038432 Z" id="Path" fill="#BAB653"></path>
            <path d="M502.895952,1057.93826 C501.445418,1053.05087 499.511345,1048.32024 497.122415,1043.8165 C494.754598,1039.33999 491.681081,1035.27417 488.01999,1031.77529 C486.134488,1030.01983 484.04093,1028.39439 482.155428,1026.57391 C480.231141,1024.88442 478.680968,1022.81162 477.604216,1020.48829 C476.836523,1018.59537 476.430732,1016.57524 476.407897,1014.5327 C476.371228,1012.46403 476.484219,1010.39542 476.745987,1008.34305 C477.439505,1002.1274 478.380089,995.942082 479.567739,989.787109 C480.751054,983.649474 482.168431,977.55085 483.858882,971.58226 C484.840578,968.359861 485.647963,965.086914 486.277526,961.777649 C486.939557,958.525456 486.939557,955.173216 486.277526,951.921023 C485.732018,949.687907 484.855414,947.548993 483.676833,945.575333 C482.468643,943.5955 481.107819,941.712954 479.606749,939.944833 C470.835102,929.358528 459.632567,921.051431 446.955052,915.732384 C445.10856,914.952176 443.210055,914.223982 441.402573,913.365754 C439.578525,912.551311 437.876203,911.487907 436.344226,910.205912 C433.183757,907.253272 431.06272,903.357862 430.297615,899.100954 C429.463626,894.69176 429.101821,890.206252 429.218328,885.72039 C429.218328,873.341093 429.218328,860.957461 429.218328,848.569495 C429.218328,836.181528 429.218328,823.802231 429.218328,811.431603 C429.29637,806.995774 429.127063,802.559044 428.711193,798.142063 C428.31953,793.769366 427.212512,789.490654 425.43432,785.476689 C423.551748,781.40264 420.604743,777.912056 416.904048,775.372998 C413.345101,772.831022 408.948474,771.746986 404.615775,772.343191 C399.323365,773.20142 395.292291,776.530306 392.13245,780.89947 C389.043073,785.487394 386.572756,790.463008 384.785493,795.697412 L369.610451,836.489277 L354.435409,877.281142 C353.746225,879.114631 353.057041,880.974126 352.211816,882.7556 C351.404871,884.539479 350.373604,886.213102 349.142999,887.735927 C344.357724,893.483458 337.24483,895.160905 329.637803,896.201182 C322.030777,897.241459 313.942623,897.65757 307.193825,900.869425 C302.141307,903.429151 297.819723,907.227313 294.632479,911.909366 C291.354951,916.672801 288.579101,921.762585 286.349273,927.097411 C280.778783,939.551543 276.119963,952.393721 272.40956,965.522646 C268.75784,978.64946 266.050535,992.020856 264.308402,1005.5343 C327.484146,1073.14523 415.645182,1111.8573 508.175359,1112.61783 C508.676785,1103.39714 508.572533,1094.15349 507.863276,1084.94646 C507.176586,1075.79219 505.511312,1066.73781 502.895952,1057.93826 L502.895952,1057.93826 Z" id="Path" fill="#BAB653"></path>
            <path d="M610.161524,913.183705 C606.395802,916.703147 603.692731,921.208265 602.359445,926.187169 C600.959665,931.293197 600.02823,936.516192 599.576704,941.791325 L595.480613,979.50137 L591.384522,1017.21141 C590.795538,1022.61109 593.037938,1027.93187 597.314102,1031.28116 C601.5164,1034.66965 607.224588,1035.51567 612.229074,1033.49175 C612.798473,1033.2591 613.354184,1032.99427 613.893518,1032.69854 C614.439034,1032.39427 614.964575,1032.05549 615.466937,1031.68427 C617.371816,1030.19971 619.019281,1028.41167 620.343236,1026.39186 C621.74761,1024.40233 623.034953,1022.29577 624.543354,1020.39726 C630.12184,1013.37539 638.053953,1009.70842 646.75327,1007.21175 C655.452587,1004.71509 664.958119,1003.31071 673.540405,1000.94408 C690.024251,996.322784 704.827486,987.049883 716.178762,974.234967 C720.16818,969.796507 723.548477,964.846318 726.23044,959.515046 C728.907004,954.2489 730.507254,948.502149 730.937694,942.610543 C731.360212,935.880545 729.771446,929.176949 726.373478,923.352414 C723.081582,917.498279 717.592216,913.197574 711.120415,911.402231 C709.589014,910.996661 708.173203,910.239781 706.985314,909.191642 C705.784643,908.147717 704.886448,906.800423 704.384621,905.290603 C703.671101,903.392763 703.96983,901.262482 705.177832,899.634096 C706.38772,898.128963 707.816683,896.813967 709.416961,895.733057 C718.675592,888.83434 726.269511,879.947366 731.639881,869.72613 C732.272805,868.575826 732.799461,867.370176 733.2133,866.12417 C734.354401,863.024361 733.541533,859.542829 731.145749,857.268812 C729.760934,855.835093 728.20128,854.581254 726.503512,853.536818 C714.25019,845.657633 700.436102,840.525038 686.010727,838.49181 C684.440393,838.245166 682.853994,838.114777 681.264463,838.101706 C676.314696,837.969054 671.807968,840.938925 669.977456,845.539688 C668.54597,848.620462 667.497864,851.865225 666.856625,855.201261 C665.868362,859.700459 664.385967,873.055017 662.227392,885.785407 C660.068817,898.515798 657.234062,910.622023 653.515071,912.585546 C651.551548,913.638826 647.39044,912.585546 643.1123,911.090148 C638.834161,909.594749 634.425987,907.917302 631.968332,907.68324 C628.122907,907.24645 624.233312,907.399929 620.43426,908.138361 C616.629423,908.897886 613.088574,910.636936 610.161524,913.183705 Z" id="Path" fill="#BAB653"></path>
            <path d="M738.336664,731.200232 C737.574599,733.243613 737.135878,735.393344 737.036318,737.571929 C736.908444,739.765485 736.956276,741.965756 737.179356,744.151682 C737.471156,748.018997 738.316323,751.824439 739.689025,755.451692 C742.157351,762.735344 749.047042,767.591236 756.736565,767.466892 C760.511389,767.535832 764.275593,767.04504 767.906541,766.010504 C770.87684,765.265292 773.739285,764.142164 776.423809,762.668614 C779.046283,761.230373 781.243846,759.126992 782.795506,756.56999 C783.741308,754.923772 784.388448,753.123227 784.707015,751.251573 C785.031785,749.36722 785.149516,747.453002 785.058109,745.543053 C784.990699,743.213121 784.645843,740.899526 784.030835,738.651217 C783.428113,736.4109 782.461673,734.284732 781.170073,732.35754 C776.995962,726.219906 767.971558,721.720707 759.142206,720.862479 C750.312854,720.00425 741.691558,722.760984 738.336664,731.200232 Z" id="Path" fill="#BAB653"></path>
            <path d="M169.604177,97.2943854 C169.527985,99.9157842 168.222523,102.348471 166.080238,103.861135 C160.989411,107.483757 154.162535,107.483757 149.071708,103.861135 C146.870563,102.40422 145.546772,99.940516 145.546772,97.3008871 C145.546772,94.6612582 146.870563,92.1975546 149.071708,90.7406397 C154.156183,87.0981886 160.995763,87.0981886 166.080238,90.7406397 C168.222076,92.2477936 169.528002,94.6765277 169.604177,97.2943854 L169.604177,97.2943854 Z" id="Path" fill="#AD4D4D"></path>
            <path d="M187.509946,110.206825 C187.465261,111.811891 186.665003,113.301527 185.351371,114.224895 C182.235097,116.432355 178.064875,116.432355 174.948601,114.224895 C173.602867,113.333816 172.793585,111.827334 172.793585,110.213326 C172.793585,108.599318 173.602867,107.092837 174.948601,106.201758 C178.058563,103.974557 182.241409,103.974557 185.351371,106.201758 C186.664566,107.119596 187.465298,108.60529 187.509946,110.206825 L187.509946,110.206825 Z" id="Path" fill="#AD4D4D"></path>
            <path d="M301.511312,122.456087 C301.333784,124.150029 300.370666,125.662125 298.910619,126.539175 C297.231444,127.577065 295.257564,128.033982 293.293123,127.839521 C291.312817,127.729931 289.422494,126.976542 287.909689,125.69395 C286.549645,124.650562 285.805104,122.99345 285.928164,121.283703 C286.051224,119.573957 287.025404,118.04055 288.520852,117.202688 C290.197087,116.153622 292.167599,115.674678 294.138348,115.837324 C296.120193,115.950584 298.010684,116.708607 299.521782,117.995899 C300.856542,119.08162 301.595198,120.73756 301.511312,122.456087 L301.511312,122.456087 Z" id="Path" fill="#AD4D4D"></path>
            <path d="M282.968373,133.587052 C282.84868,134.72383 282.203914,135.739095 281.225909,136.330783 C278.896419,137.752836 275.921985,137.544104 273.813934,135.810645 C272.895904,135.109451 272.39209,133.993555 272.473277,132.841227 C272.554464,131.688898 273.209764,130.654668 274.217042,130.089121 C276.546532,128.667068 279.520965,128.8758 281.629016,130.609259 C282.515486,131.338622 283.010813,132.439883 282.968373,133.587052 L282.968373,133.587052 Z" id="Path" fill="#AD4D4D"></path>
            <path d="M738.102602,117.189685 C737.376186,119.709828 735.507661,121.74209 733.057258,122.677146 C727.224923,124.930592 720.605261,123.239133 716.568866,118.464024 C714.801167,116.504674 714.13157,113.790558 714.785122,111.233864 C715.438674,108.67717 717.328606,106.61733 719.819732,105.746637 C725.651572,103.484895 732.276143,105.177609 736.308124,109.959759 C738.007966,111.954468 738.672443,114.631638 738.102602,117.189685 L738.102602,117.189685 Z" id="Path" fill="#AD4D4D"></path>
            <path d="M744.045185,136.746894 C743.580749,138.355481 742.385946,139.651457 740.820326,140.244826 C737.09691,141.681352 732.872253,140.606933 730.28752,137.566112 C729.204365,136.286267 728.781104,134.573982 729.143216,132.936879 C729.603962,131.326218 730.800088,130.028808 732.368075,129.438947 C734.176848,128.699044 736.179987,128.580136 738.063592,129.100857 C739.961111,129.553839 741.659295,130.612922 742.90088,132.117661 C743.984035,133.397507 744.407297,135.109791 744.045185,136.746894 Z" id="Path" fill="#AD4D4D"></path>
            <polygon id="Path" fill="#666538" points="327.713291 949.268317 320.366334 972.817589 313.019377 996.379865 327.713291 996.379865 342.394201 996.379865 335.047244 972.817589"></polygon>
            <polygon id="Path" fill="#666538" points="354.006294 981.776976 346.659337 1005.33925 339.325384 1028.88852 354.006294 1028.88852 368.687205 1028.88852 361.353251 1005.33925"></polygon>
            <polygon id="Path" fill="#666538" points="380.585374 949.268317 373.238417 972.817589 365.89146 996.379865 380.585374 996.379865 395.266284 996.379865 387.919327 972.817589"></polygon>
            <polygon id="Path" fill="#666538" points="635.648312 545.042647 628.301355 568.604923 620.954398 592.154196 635.648312 592.154196 650.329223 592.154196 642.982266 568.604923"></polygon>
            <polygon id="Path" fill="#666538" points="661.941316 579.202746 654.594359 602.752019 647.260405 626.314295 661.941316 626.314295 676.622226 626.314295 669.288273 602.752019"></polygon>
            <polygon id="Path" fill="#666538" points="688.507392 545.731831 681.173438 569.294107 673.826481 592.84338 688.507392 592.84338 703.201306 592.84338 695.854349 569.294107"></polygon>
            <polygon id="Path" fill="#666538" points="382.392855 849.063626 376.736349 867.190454 371.092845 885.317283 382.392855 885.317283 393.692865 885.317283 388.036359 867.190454"></polygon>
            <polygon id="Path" fill="#666538" points="404.433726 825.319302 398.790223 843.44613 393.133716 861.572958 404.433726 861.572958 415.733736 861.572958 410.090233 843.44613"></polygon>
            <polygon id="Path" fill="#666538" points="637.637842 950.178559 631.994339 968.305387 626.337832 986.432216 637.637842 986.432216 648.937852 986.432216 643.294349 968.305387"></polygon>
            <polygon id="Path" fill="#666538" points="660.771004 930.439301 655.127501 948.56613 649.470994 966.692958 660.771004 966.692958 672.071014 966.692958 666.414507 948.56613"></polygon>
            <polygon id="Path" fill="#666538" points="293.163088 559.398471 287.064464 578.942677 280.965839 598.499886 293.163088 598.499886 305.347333 598.499886 299.261713 578.942677"></polygon>
            <polygon id="Path" fill="#666538" points="220.343692 813.330108 214.245068 832.874314 208.146443 852.431523 220.343692 852.431523 232.527937 852.431523 226.429313 832.874314"></polygon>
            <polygon id="Path" fill="#666538" points="316.738368 532.468298 310.639743 552.025507 304.554122 571.582717 316.738368 571.582717 328.922613 571.582717 322.836992 552.025507"></polygon>
            <path d="M345.528036,675.467387 C343.78476,642.204004 316.303412,616.12844 282.99438,616.132583 L125.0153,616.132583 C92.2479859,616.150787 65.0344467,641.425362 62.5986751,674.102024 C45.9942213,674.102023 30.0700328,680.699007 18.3301303,692.441348 C6.59022791,704.183689 3.69580664e-14,720.109247 3.69580664e-14,736.713701 L3.69580664e-14,736.713701 C3.69580664e-14,753.318155 6.59698444,769.242343 18.3393256,780.982246 C30.0816667,792.722148 46.0072252,799.315824 62.6116786,799.312376 L332.355527,799.312376 C348.959981,799.315824 364.885539,792.722148 376.62788,780.982246 C388.370222,769.242343 394.967207,753.318155 394.967207,736.713701 L394.967207,736.713701 C394.974534,707.214607 374.390273,681.71179 345.554043,675.493394 L345.528036,675.467387 Z" id="Path" fill="#F4ECE5"></path>
            <path d="M928.135219,863.705526 C928.200236,862.912315 928.239247,862.119104 928.278257,861.312889 C928.317267,860.506674 928.278257,859.700459 928.278257,858.881241 L928.278257,858.881241 C928.278257,824.308948 900.251876,796.282568 865.679583,796.282568 L650.979396,796.282568 C616.418128,796.304094 588.408072,824.319969 588.393726,858.881241 L588.393726,858.881241 C588.400904,893.457742 616.428902,921.48574 651.005403,921.492918 L714.956437,921.492918 C714.956437,921.68797 714.956437,921.896026 714.956437,922.091078 C714.956437,922.28613 714.956437,922.481182 714.956437,922.689237 L714.956437,922.689237 C714.956437,957.26153 742.982818,985.287912 777.555111,985.287912 L907.147629,985.287912 C923.752082,985.29136 939.677641,978.697684 951.419982,966.957782 C963.162323,955.217879 969.759306,939.293691 969.759306,922.689237 L969.759306,922.689237 C969.74725,896.210163 953.089521,872.597833 928.148222,863.705526 L928.135219,863.705526 Z" id="Path" fill="#F4ECE5"></path>
        </g>
    </g>
</svg>