<svg xmlns="http://www.w3.org/2000/svg" xmlns:vectornator="http://vectornator.io" xml:space="preserve" stroke-miterlimit="10" style="fill-rule:nonzero;clip-rule:evenodd;stroke-linecap:round;stroke-linejoin:round" viewBox="0 0 183.628 45.786"><clipPath id="a"><path d="M0 0h183.628v45.786H0z"/></clipPath><g vectornator:layerName="Untitled" clip-path="url(#a)"><path vectornator:layerName="path" fill-rule="evenodd" d="M22.893 0C10.249 0 0 10.25 0 22.893s10.25 22.893 22.893 22.893 22.893-10.25 22.893-22.893C45.768 10.257 35.529.018 22.893 0m19.942 22.893a20.5 20.5 0 0 1-.3 3.376L24.369 8.1V3.009c10.403.79 18.446 9.451 18.466 19.884M21.418 42.761a19.83 19.83 0 0 1-11.179-4.483L21.417 27.1zm2.952-15.662 11.179 11.179a19.83 19.83 0 0 1-11.179 4.483zM21.418 3.007V8.1L3.247 26.271a20.5 20.5 0 0 1-.3-3.376c.018-10.436 8.064-19.1 18.47-19.888zm-17.3 26.564 17.3-17.3v10.644L8.1 36.231a19.7 19.7 0 0 1-3.986-6.66zm33.574 6.678L24.369 22.93V12.286l17.3 17.3a20 20 0 0 1-3.981 6.663zM56.467 6.518h4.44v32.75h-4.44zm12.536 0h6.614l10.408 24.794h.185L96.526 6.518h6.614v32.75H98.7V12.346h-.093L87.552 39.268h-2.96L73.535 12.346h-.093v26.922h-4.44zm38.069 0h4.626l7.216 26.182h.093l7.724-26.182h5.089l7.725 26.182h.092l7.216-26.182h4.626l-9.529 32.75h-4.672l-7.956-26.737h-.093l-7.91 26.737h-4.672zm47.923 0h11.425q3.469 0 6.083.786 2.613.787 4.533 2.105t3.192 3.03a16.2 16.2 0 0 1 2.012 3.515 17.8 17.8 0 0 1 1.064 3.608q.324 1.804.324 3.331a16.5 16.5 0 0 1-1.157 6.083 15.4 15.4 0 0 1-3.423 5.227q-2.266 2.29-5.62 3.677t-7.748 1.388h-10.685zm4.44 28.587h5.597q2.821 0 5.343-.763 2.521-.764 4.418-2.29 1.896-1.527 3.006-3.816 1.11-2.29 1.11-5.343 0-1.573-.508-3.677-.51-2.105-1.92-4.002-1.411-1.896-3.909-3.215-2.498-1.317-6.476-1.318h-6.661z"/></g></svg>