<?xml version="1.0" encoding="UTF-8"?>
<svg width="1201px" height="1165px" viewBox="0 0 1201 1165" version="1.1" xmlns="http://www.w3.org/2000/svg" xmlns:xlink="http://www.w3.org/1999/xlink">
    <title>Earth</title>
    <g id="Page-1" stroke="none" stroke-width="1" fill="none" fill-rule="evenodd">
        <g id="Earth" transform="translate(0.4357, 0.0745)">
            <path d="M131.569186,540.144362 C131.30643,540.149288 131.046816,540.086622 130.81524,539.962375 C130.572929,539.839797 130.366814,539.656086 130.217283,539.429413 C115.94373,517.767428 104.867283,494.161023 97.3296481,469.338453 C73.0808898,390.71005 87.3467176,305.249985 135.81988,238.761034 C150.861014,217.910729 168.808291,199.319977 189.116048,183.554004 C189.460729,183.291172 189.894953,183.174445 190.324961,183.229027 C190.751638,183.283937 191.138663,183.507129 191.399895,183.848928 C191.661127,184.190727 191.774889,184.622769 191.715861,185.048896 C191.665317,185.479113 191.439586,185.869441 191.091906,186.127819 C171.021745,201.722652 153.28481,220.107431 138.419693,240.723893 C90.5281834,306.389649 76.4347735,390.80556 100.397428,468.467516 C107.851303,492.981117 118.796167,516.293677 132.895091,537.687538 C133.133947,538.046911 133.222602,538.485521 133.142073,538.90945 C133.060843,539.330882 132.81227,539.701396 132.453122,539.936377 C132.320266,540.03301 132.170296,540.103584 132.011154,540.144362 C131.86469,540.166853 131.71565,540.166853 131.569186,540.144362 Z" id="Path" fill="#666538"></path>
            <path d="M160.921075,1160.83673 C252.720474,1160.09145 344.519873,1159.72314 436.319271,1159.73181 C528.11867,1159.74047 619.918069,1160.10878 711.717468,1160.83673 C761.65121,1161.2267 811.571954,1161.72933 861.479698,1162.34462 C911.387443,1162.95991 961.303853,1163.68352 1011.22893,1164.51546 C1008.58711,1099.78992 1002.55159,1035.24753 993.14723,971.154368 C981.524521,891.999561 964.679977,813.700007 942.723856,736.768222 C929.45181,690.335561 889.258701,549.581683 832.504782,419.344048 C775.750863,289.106414 702.51413,169.476016 623.050844,165.290317 C578.685034,162.963485 518.265379,195.903116 441.375908,337.41094 C364.486437,478.918764 271.114151,728.968783 160.921075,1160.83673 Z" id="Path" fill="#193311"></path>
            <path d="M139.654605,612.445162 L139.498616,612.445162 L139.342627,612.445162 C135.520902,627.589073 130.243281,642.343013 124.861668,657.005958 C119.480055,671.668904 114.033447,686.253855 109.925742,701.358769 C105.5436,716.507552 103.174752,732.167299 102.880249,747.934419 C102.789256,763.533298 105.415067,778.989186 112.070588,793.132169 C115.274245,799.921989 119.346726,806.266669 124.185717,812.006812 C129.016744,817.759985 134.539822,822.894483 140.629534,827.293713 C146.167136,831.284426 153.082639,834.079225 159.582172,837.354989 C166.081704,840.630754 172.12627,844.400483 175.947995,850.354055 C187.920134,869.085708 180.822644,885.763508 168.772511,901.245395 C156.722377,916.727282 139.7196,931.013254 131.868164,944.987249 C125.95359,955.516492 122.768819,967.592624 121.468912,979.954735 C120.273254,992.161981 120.273254,1004.45685 121.468912,1016.6641 C122.42784,1027.31343 124.020886,1037.89612 126.239569,1048.35582 C128.436411,1058.83306 131.166215,1069.15432 134.233994,1079.41058 C134.805953,1081.33444 136.261849,1086.1831 138.536685,1093.0336 C140.811521,1099.88411 143.944296,1108.72348 147.870014,1118.60276 C151.795731,1128.48205 156.293408,1138.85531 159.894149,1146.97972 C163.49489,1155.10414 166.1467,1160.82373 166.1467,1160.82373 L166.1467,1160.82373 L184.189402,1160.82373 L202.232105,1160.82373 L202.232105,1160.82373 C202.232105,1160.82373 191.832852,1141.49412 180.588661,1114.02709 C169.34447,1086.56007 157.190344,1050.87763 153.524607,1018.24998 C152.141424,1005.78055 153.345082,993.159834 157.060353,981.176647 C160.646474,969.460166 166.696278,958.645864 174.804077,949.458928 C185.788287,937.109816 197.344456,923.304809 205.403877,908.199895 C213.463297,893.094981 218.01297,876.651164 215.010186,859.050429 C211.899861,841.265627 202.140513,825.330005 187.712149,814.476634 C181.84957,810.108949 175.298041,806.677195 168.941499,802.959463 C162.584956,799.24173 156.449397,795.34201 151.40576,790.051391 C147.152417,785.561398 143.740147,780.343927 141.331484,774.647499 C138.945688,768.977781 137.307074,763.021966 136.456835,756.929773 C134.917556,745.2447 135.321648,733.385489 137.652749,721.832296 C139.994213,710.158694 143.280802,698.694759 147.480042,687.553761 C151.522751,676.413563 156.007429,665.390355 160.011141,654.237157 C164.160091,643.159692 167.356451,631.748468 169.565454,620.12761 L154.616529,616.22789 L139.654605,612.445162 Z" id="Path" fill="#BAB653"></path>
            <path d="M132.219139,635.479506 L141.25349,657.720907 L150.352835,679.949308 C150.352835,679.949308 153.875582,670.940956 157.489322,661.269652 C161.103062,651.598347 164.833794,641.251091 165.288761,638.573284 L158.386258,625.873197 L151.483754,613.160111 L141.916442,624.326308 L132.219139,635.479506 Z" id="Path" fill="#353519"></path>
            <path d="M108.534842,541.964231 C102.181439,541.64071 95.8677404,543.137959 90.336151,546.27992 C84.9356203,549.325512 80.5881678,553.94043 77.8700475,559.512969 C75.0486213,565.464353 74.070824,572.123334 75.0622494,578.634594 C75.9619837,585.362668 79.4676537,591.468415 84.8245474,595.637371 C88.7963171,598.625669 93.5329877,600.428398 98.4865649,600.836997 C103.697531,601.244191 108.928052,600.350848 113.70847,598.237184 C107.063483,601.157893 101.695481,606.378193 98.5905575,612.939127 C95.5073926,619.353857 94.8965057,626.679872 96.8746808,633.516647 C98.9250396,640.340395 103.382376,646.188051 109.418779,649.973464 C115.263282,653.767279 122.324249,655.215683 129.190357,654.029172 C135.432631,652.769176 141.037965,649.36643 145.036218,644.409864 C147.201485,641.85853 148.987722,639.008432 150.339836,635.947472 C151.448119,639.585821 153.076867,643.044722 155.175488,646.216734 C159.033754,652.310574 164.809626,656.947734 171.593308,659.397786 C178.282239,661.659402 185.507913,661.791108 192.274821,659.774759 C199.126702,657.870871 205.056418,653.548274 208.96562,647.607634 C211.663228,643.284036 213.170018,638.324186 213.333306,633.230668 C213.451934,630.174977 213.176692,627.116727 212.514365,624.131322 C217.405631,629.967102 223.718132,634.444054 230.843047,637.130387 C237.390826,639.624532 244.556035,640.001887 251.329574,638.20931 C254.582118,637.312146 257.689918,635.955219 260.55891,634.1796 C265.594055,631.149453 269.466553,626.517103 271.55612,621.024546 C273.657896,615.140367 273.657896,608.710033 271.55612,602.825854 C270.54089,599.755058 269.077889,596.850958 267.214432,594.207474 C274.534975,596.523255 282.449452,596.084075 289.468831,592.972563 C296.133235,590.084704 301.433624,584.747088 304.274767,578.062635 C306.808977,571.684862 306.83684,564.58453 304.352761,558.187064 C302.096879,552.093013 298.095579,546.798637 292.848588,542.965159 C289.199204,540.381145 285.021072,538.640627 280.616468,537.869525 C277.838689,537.366685 275.008854,537.213839 272.193074,537.414558 C274.921009,535.445465 277.384959,533.134419 279.524547,530.538052 C282.858799,526.590088 285.068037,521.816876 285.920087,516.720046 C287.219993,507.90668 283.996225,498.716341 278.120648,491.553856 C272.24507,484.391371 263.587693,479.295737 254.254364,478.671782 C247.258022,478.324889 240.339398,480.269041 234.547781,484.209384 C231.249381,486.355183 228.261912,488.944614 225.669419,491.90483 C225.965456,487.995013 225.760138,484.063386 225.058463,480.205672 C224.064486,474.330276 221.453792,468.84782 217.519005,464.37281 C210.174533,456.300391 198.384381,452.673652 186.802214,453.479594 C175.220047,454.285536 163.845865,459.277177 157.346332,468.441518 C153.505665,474.011431 151.41871,480.602771 151.353763,487.368157 C151.236406,491.566922 151.673479,495.762822 152.65367,499.847259 C148.557159,494.431379 143.11743,490.17907 136.872805,487.511146 C130.951044,484.956686 124.401581,484.227962 118.063157,485.418297 C109.494913,487.281047 101.922058,492.255509 96.8096855,499.379293 C91.7530491,506.320794 89.3222239,514.822183 91.2720837,522.77761 C92.7008905,528.1524 95.7786489,532.944065 100.072451,536.478625 C102.639732,538.671356 105.485078,540.515805 108.534842,541.964231 Z" id="Path" fill="#DEB8FC"></path>
            <path d="M166.432679,540.313349 C161.369501,538.715774 156.012964,538.271617 150.755806,539.013443 C145.4208,539.740987 140.671243,542.766455 137.756741,547.293847 C133.402054,554.07936 134.532973,561.592819 138.588681,567.234414 C142.778157,573.171189 149.742655,576.515722 156.995358,576.073778 C156.618385,576.073778 156.020428,576.931716 155.487466,577.828652 C154.954504,578.725587 154.447541,579.66152 154.291552,579.9345 C151.636697,584.280842 150.960559,589.552827 152.432686,594.428458 C153.976635,599.284029 157.616724,603.191281 162.350972,605.074692 C167.082632,607.037551 172.568238,606.21861 177.416889,603.891778 C182.153915,601.662266 186.092373,598.032351 188.700078,593.492525 C189.816876,591.231629 190.772521,588.894643 191.559872,586.499028 C192.365814,584.159197 192.937773,582.274332 192.937773,582.274332 C197.448449,587.551953 200.191251,590.50274 201.816135,592.127624 C202.461488,592.832193 203.166013,593.480182 203.921983,594.064484 C205.902091,595.256341 208.036564,596.170491 210.265527,596.781289 C214.523703,598.06407 219.08184,597.941 223.264592,596.430314 C224.348329,596.018643 225.392526,595.509597 226.384368,594.909423 C227.421711,594.284873 228.39677,593.562284 229.296158,592.751579 C232.892955,589.500777 235.253754,585.105281 235.977678,580.311473 C236.856322,575.530054 235.54436,570.606617 232.402935,566.896438 C231.011354,565.431091 229.493248,564.09133 227.866261,562.892726 C226.306373,561.72281 225.058463,560.864872 225.058463,560.864872 L226.865333,559.980935 L228.464218,559.174993 C233.201135,556.690298 236.738434,552.403372 238.278513,547.280848 C239.955508,542.142323 239.433293,536.539092 236.835616,531.798962 C233.607671,526.110382 227.515676,522.654922 220.976757,522.803609 C214.453073,522.778541 208.234413,525.563439 203.908984,530.447059 C203.99072,529.365345 203.99072,528.279006 203.908984,527.197293 C203.820852,525.776262 203.581176,524.368711 203.194035,522.998595 C202.058721,519.084752 199.798639,515.590665 196.694503,512.950317 C195.095897,511.52861 193.311744,510.330428 191.390884,509.388573 C187.60164,507.650985 183.431911,506.908308 179.275755,507.230728 C174.818201,507.475609 170.599034,509.322071 167.39461,512.430355 C164.711827,515.209841 162.931185,518.734877 162.285977,522.543627 C161.909373,524.491223 161.80004,526.48107 161.961001,528.458202 C162.078228,529.616519 162.304549,530.761183 162.636952,531.876956 C162.896618,532.763199 163.213596,533.631633 163.585884,534.476769 C163.767871,534.970734 164.222838,536.348635 164.7558,537.648541 C165.288761,538.948448 165.912716,540.17036 166.432679,540.313349 Z" id="Path" fill="#F98638"></path>
            <path d="M161.532031,1160.83673 C160.544102,1152.28334 156.254411,1109.68541 167.056634,1055.12833 C177.858857,1000.57125 203.713998,934.081034 263.015734,877.756084 C303.089471,839.795354 351.784925,812.137621 404.91353,797.16188 C457.780728,782.316947 514.261667,780.575072 568.493767,795.225019 C641.288532,814.892605 704.204008,862.52118 747.776875,927.113535 C791.349741,991.70589 815.657993,1073.27502 811.368302,1160.79773 L161.532031,1160.79773 L161.532031,1160.83673 Z" id="Path" fill="#353519"></path>
            <path d="M161.233053,1160.83673 L1011.22893,1160.83673 C1018.91343,1134.05299 1023.27913,1106.4268 1024.228,1078.57864 C1025.38491,1041.88228 1020.40627,998.049434 1000.4527,953.618629 C970.983824,887.999347 915.776794,836.497051 849.975526,806.014243 C784.174257,775.531435 707.765752,766.055116 635.919918,784.474792 C560.200363,803.895395 507.138179,849.782096 472.131696,892.990989 C437.125214,936.199881 420.135435,976.756965 416.625688,985.505336 C391.260178,900.725432 367.35923,837.463315 344.922844,795.718983 C322.486457,753.974652 301.488634,733.769771 281.929374,735.104342 C257.144489,736.776888 234.695104,773.087611 214.581217,844.036509 C194.46733,914.985407 176.684608,1020.58548 161.233053,1160.83673 Z" id="Path" fill="#666538"></path>
            <path d="M586.016507,927.906478 L554.81875,1044.02713 L523.620994,1160.13478 L665.66178,1160.13478 L634.464023,1044.02713 L603.266266,927.906478 C602.207268,923.996862 598.659392,921.282148 594.608889,921.282148 C590.558386,921.282148 587.01051,923.996862 585.951511,927.906478 L586.016507,927.906478 Z" id="Path" fill="#F98638"></path>
            <path d="M283.996225,1057.85813 L270.178219,1109.34743 L256.360212,1160.83673 L321.680515,1160.83673 L307.862509,1109.34743 L294.044502,1057.85813 C293.437632,1055.58183 291.376171,1053.99796 289.020364,1053.99796 C286.664556,1053.99796 284.603095,1055.58183 283.996225,1057.85813 L283.996225,1057.85813 Z" id="Path" fill="#F98638"></path>
            <polygon id="Path" fill="#F4ECE5" points="387.494782 1160.83673 348.575581 1160.83673 309.65638 1160.83673 325.50224 798.55278 341.348101 436.268831 348.575581 436.268831 355.803061 436.268831 371.648922 798.55278"></polygon>
            <polygon id="Path" fill="#F4ECE5" points="711.717468 1160.83673 675.866046 1160.83673 640.027623 1160.83673 654.2486 908.758855 668.456579 656.693981 675.684059 656.693981 682.911539 656.693981 697.314503 908.758855"></polygon>
            <path d="M839.056311,555.795236 C838.347467,555.788851 837.72318,555.327194 837.509422,554.651318 C832.223939,538.085061 824.528309,522.387201 814.670064,508.062669 C781.903955,459.957677 726.564033,432.250827 668.417581,434.838934 C650.50783,435.484333 632.796417,438.814534 615.87536,444.718224 C615.255568,444.945934 614.55961,444.775936 614.114594,444.28813 C613.669578,443.800324 613.564009,443.091725 613.847505,442.495384 C614.032782,442.106748 614.364726,441.807532 614.770439,441.663443 C632.009954,435.650409 650.054324,432.258874 668.30059,431.602167 C727.558121,428.955502 783.958546,457.190148 817.347872,506.216801 C827.390264,520.804812 835.23042,536.791724 840.616199,553.663389 C840.8789,554.517442 840.402715,555.423355 839.550275,555.691244 L839.303293,555.756239 L839.056311,555.795236 Z" id="Path" fill="#666538"></path>
            <path d="M380.982251,1160.83673 C367.64521,1139.40127 363.537505,1116.63991 366.982258,1096.43936 C370.42701,1076.23881 381.424219,1058.74207 398.336003,1047.61487 C411.271482,1039.51608 425.930502,1034.57334 441.128926,1033.18591 C457.520747,1031.63902 474.926495,1034.21283 489.888419,1043.58516 C501.89845,1051.04162 511.02995,1062.34489 515.795556,1075.65385 C518.375646,1082.57395 519.824099,1089.86449 520.085248,1097.2453 C532.150106,1093.90809 544.984296,1094.69965 556.547626,1099.49414 C567.037872,1103.97882 575.058295,1111.62227 578.152072,1120.76061 C580.406398,1127.8267 579.94286,1135.47972 576.852166,1142.22207 C573.395436,1149.87139 567.791081,1156.35184 560.720326,1160.87573 L380.982251,1160.87573 L380.982251,1160.83673 Z" id="Path" fill="#E9CF81"></path>
            <path d="M904.272621,1162.29262 C904.155978,1162.3022 904.038289,1162.3022 903.921646,1162.29262 C903.804678,1162.26741 903.691193,1162.22813 903.583671,1162.17563 C903.190112,1161.99312 902.88588,1161.6608 902.738731,1161.2527 C902.582998,1160.82854 902.60646,1160.35929 902.803727,1159.95279 L1005.95131,942.06246 L1109.08589,724.14613 C1109.27345,723.759205 1109.60458,723.460727 1110.00883,723.31419 C1110.42292,723.131726 1110.89464,723.131726 1111.30873,723.31419 C1111.69566,723.501751 1111.99414,723.832875 1112.14067,724.237124 C1112.30771,724.659486 1112.28401,725.133436 1112.07568,725.53703 L1008.8891,943.45336 L905.741515,1161.36969 C905.606496,1161.64866 905.394509,1161.8832 905.130559,1162.04564 C904.871891,1162.20339 904.57557,1162.28869 904.272621,1162.29262 L904.272621,1162.29262 Z" id="Path" fill="#666538"></path>
            <path d="M904.272621,1162.29262 L903.960644,1162.29262 C903.533657,1162.21391 903.15593,1161.96759 902.911719,1161.6086 C902.667508,1161.24961 902.577127,1160.80782 902.660737,1160.38176 L964.094319,848.404195 L1025.5149,536.426629 C1025.59705,536.00213 1025.84499,535.627876 1026.20385,535.386704 C1026.56453,535.151033 1027.00354,535.066967 1027.42577,535.152721 C1027.8502,535.226561 1028.22341,535.476941 1028.45269,535.841671 C1028.69624,536.194182 1028.78544,536.630793 1028.69967,537.050584 L967.27909,849.02815 L905.858507,1161.00572 C905.703573,1161.76477 905.034318,1162.30564 904.259622,1162.30564 L904.272621,1162.29262 Z" id="Path" fill="#666538"></path>
            <path d="M1168.7906,437.867716 C1170.17841,490.96729 1133.86683,537.653962 1082.05956,549.379904 C1030.2523,561.105845 977.375801,534.605802 955.762844,486.083943 C934.149886,437.562084 949.818899,380.530004 993.18864,349.861514 C1036.55838,319.193023 1095.55193,323.428194 1134.09609,359.977317 C1155.57221,380.284467 1168.05998,408.319958 1168.7906,437.867716 L1168.7906,437.867716 Z" id="Path" fill="#F4ECE5"></path>
            <path d="M1199.97536,702.528685 C1200.84567,735.112473 1178.57765,763.773465 1146.78968,770.98356 C1115.0017,778.193655 1082.54729,761.944714 1069.27446,732.174043 C1056.00164,702.403372 1065.60712,667.402632 1092.21652,648.5771 C1118.82592,629.751568 1155.02804,632.344489 1178.68289,654.770119 C1191.84558,667.227119 1199.50721,684.412002 1199.97536,702.528685 L1199.97536,702.528685 Z" id="Path" fill="#F4ECE5"></path>
            <path d="M1139.6077,437.54274 C1133.65842,437.467691 1127.90054,435.429585 1123.22888,431.745157 C1118.3008,427.929175 1114.66938,422.686313 1112.82962,416.731236 C1106.97503,419.889088 1100.34358,421.318163 1093.708,420.85194 C1087.43719,420.443678 1081.47543,417.981313 1076.74422,413.845444 C1072.88113,410.326709 1070.08029,405.796738 1068.6588,400.768384 C1067.72966,397.641256 1067.24825,394.398262 1067.2289,391.136077 C1067.23014,390.705865 1067.40331,390.294001 1067.70987,389.992159 C1068.0162,389.693937 1068.42627,389.52618 1068.85379,389.524193 L1068.85379,389.524193 C1069.284,389.525434 1069.69586,389.698604 1069.9977,390.005158 C1070.30324,390.306637 1070.4723,390.71989 1070.46567,391.149076 C1070.49795,394.072454 1070.93542,396.977239 1071.76558,399.780455 C1073.0122,404.273175 1075.49363,408.32632 1078.92806,411.479614 C1083.40458,415.359091 1089.08652,417.568481 1095.00791,417.732164 C1101.36037,417.955461 1107.6359,416.285908 1113.03761,412.935509 L1113.99954,412.337552 L1114.97447,411.752594 L1115.22145,412.857515 L1115.46843,413.962435 C1116.95779,420.473298 1120.81202,426.199053 1126.28366,430.02928 C1131.42997,433.746976 1137.90058,435.133536 1144.11837,433.851005 C1148.95325,432.692318 1153.2601,429.946185 1156.35049,426.051566 C1159.65975,421.986618 1161.69473,417.034832 1162.20007,411.81759 C1162.24254,411.360683 1162.47926,410.944044 1162.85003,410.673672 C1163.54838,410.113134 1164.56744,410.217357 1165.13786,410.907655 C1165.40923,411.239182 1165.53989,411.663837 1165.50184,412.09057 C1164.92436,417.98735 1162.60783,423.579588 1158.84631,428.157415 C1155.29128,432.543319 1150.38081,435.624939 1144.88532,436.918785 C1143.17795,437.297223 1141.4345,437.489001 1139.68569,437.490743 L1139.6077,437.54274 Z" id="Path" fill="#E2B2FF"></path>
            <path d="M997.904888,489.240022 C995.111581,489.211892 992.380585,488.41104 990.014455,486.926189 C988.530553,486.020344 987.182569,484.908695 986.010743,483.624426 C985.724101,483.299605 985.579036,482.873769 985.607772,482.441511 C985.621995,482.010912 985.815152,481.605752 986.140734,481.323591 C986.460818,481.037697 986.8824,480.892486 987.31065,480.92062 C987.745068,480.93439 988.154424,481.127305 988.441569,481.453582 C989.379691,482.489981 990.460833,483.387285 991.652338,484.11839 C993.52033,485.315069 995.686618,485.963605 997.904888,485.990256 L997.904888,485.990256 C1000.77128,485.944732 1003.53106,484.896016 1005.70433,483.026469 C1008.05371,481.040146 1009.76327,478.403447 1010.61797,475.448014 L1010.94295,474.369091 L1011.25493,473.27717 L1012.17786,473.927123 L1013.11379,474.590076 C1015.73209,476.424524 1018.93458,477.229774 1022.10915,476.851913 C1025.12232,476.532136 1027.86266,474.961516 1029.6616,472.523224 C1031.00493,470.574061 1031.65495,468.23033 1031.50747,465.867703 C1031.37425,463.363164 1030.50618,460.953362 1029.01165,458.939201 C1028.75132,458.593853 1028.64333,458.157168 1028.71267,457.730288 C1028.77818,457.305628 1029.00668,456.923241 1029.34963,456.664365 C1029.7004,456.415646 1030.13227,456.308837 1030.55854,456.365386 C1030.98572,456.432816 1031.3689,456.66646 1031.62446,457.015339 C1033.5217,459.580311 1034.6082,462.654218 1034.74424,465.841705 C1034.90843,468.883904 1034.053,471.893934 1032.31341,474.39509 C1030.22305,477.266332 1027.11004,479.225346 1023.61704,479.867696 C1020.0182,480.576194 1016.28532,480.035064 1013.0358,478.333806 C1011.73567,481.470692 1009.6,484.190858 1006.86124,486.198241 C1004.28171,488.132331 1001.15469,489.19743 997.930886,489.240022 L997.852892,489.240022 L997.904888,489.240022 Z" id="Path" fill="#E2B2FF"></path>
            <path d="M1166.95773,755.941844 C1166.35977,755.941844 1165.77482,755.941844 1165.17686,755.85085 C1164.58287,755.787254 1163.99273,755.69179 1163.40899,755.564871 C1158.76024,754.504386 1154.71339,751.661785 1152.1388,747.64844 C1149.4096,743.519687 1148.20101,738.570407 1148.72004,733.648447 C1144.1193,733.822069 1139.56068,732.715041 1135.55199,730.450677 C1131.75994,728.322956 1128.75222,725.032696 1126.97261,721.065352 C1125.53855,717.652215 1125.08827,713.905872 1125.6727,710.250129 C1125.99946,707.967712 1126.65172,705.74392 1127.60956,703.646604 C1127.78416,703.252084 1128.11314,702.946599 1128.5195,702.801665 C1128.93487,702.625404 1129.40402,702.625404 1129.8194,702.801665 C1130.21083,702.982517 1130.51433,703.311535 1130.66305,703.716263 C1130.81178,704.120991 1130.79354,704.568237 1130.61235,704.95951 C1129.79444,706.747624 1129.23424,708.642687 1128.94846,710.588105 C1128.45698,713.663702 1128.83519,716.815455 1130.04039,719.687451 C1131.68566,723.323071 1134.54406,726.273373 1138.1258,728.032851 C1141.95741,729.955172 1146.27332,730.697111 1150.52691,730.164697 L1151.64483,730.034707 L1152.77575,729.904716 L1152.54177,731.009637 L1152.30778,732.114557 C1151.38089,736.503779 1152.11748,741.080824 1154.37464,744.957634 C1156.46879,748.665112 1160.0178,751.328048 1164.16293,752.302105 C1167.42038,752.95292 1170.80191,752.495337 1173.76924,751.002199 C1176.92912,749.44891 1179.56072,746.99818 1181.3347,743.956706 C1181.54772,743.581454 1181.90446,743.309207 1182.32263,743.20276 C1182.7608,743.078842 1183.23061,743.139918 1183.62253,743.371748 C1183.99194,743.597432 1184.26152,743.955331 1184.37648,744.372676 C1184.485,744.787754 1184.41926,745.22915 1184.19449,745.594588 C1182.39284,748.688765 1179.83424,751.274203 1176.75903,753.108047 C1173.81103,754.927753 1170.42196,755.907616 1166.95773,755.941844 L1166.95773,755.941844 Z" id="Path" fill="#E2B2FF"></path>
            <path d="M899.748946,833.546263 L892.092497,833.754248 L884.436048,833.949234 C884.347143,833.957109 884.267444,833.894488 884.254061,833.806244 C884.242655,833.721887 884.291252,833.640893 884.371052,833.611258 C890.032969,831.68375 895.224381,828.583077 899.605957,824.511913 C903.430976,820.980899 906.176016,816.437385 907.522387,811.408855 C908.622648,806.573527 908.352548,801.527163 906.742444,796.836903 C903.548774,786.721969 895.500931,778.879105 885.306985,775.947405 C877.103367,773.344519 868.333083,773.101276 859.997805,775.245456 C867.934376,773.428646 875.027595,768.991377 880.133357,762.649361 C889.509759,751.232594 889.953893,734.912028 881.212279,723.002212 C873.233937,711.620583 858.655543,706.939983 845.542844,711.550036 C838.699339,713.851241 832.703859,718.153134 828.332082,723.899148 C831.979138,716.751778 833.340548,708.655928 832.231802,700.708815 C831.173057,693.003421 827.61039,685.859817 822.092531,680.378277 C816.415988,674.903745 809.119078,671.41491 801.294026,670.433993 C793.729134,669.331422 786.017397,670.923463 779.507593,674.931669 C771.708154,679.897312 766.586522,688.593687 765.026634,698.498974 C763.39529,709.302336 765.947728,720.321059 772.163121,729.306759 C772.282286,729.439989 772.282286,729.641495 772.163121,729.774725 C772.027803,729.888292 771.830473,729.888292 771.695155,729.774725 C765.15246,724.985345 756.966633,723.010263 748.95979,724.28912 C741.288253,725.160284 734.432,729.48036 730.334959,736.024491 C726.237918,742.568621 725.346815,750.62326 727.914303,757.904703 C730.367065,766.199555 736.239524,773.055484 744.059142,776.753347 C744.059142,776.753347 744.059142,776.753347 744.059142,776.753347 C734.184936,774.686742 723.89424,776.637297 715.461198,782.173957 C707.765752,787.256592 702.462133,794.900042 701.370212,802.972462 C700.584395,810.426977 702.646095,817.902959 707.141797,823.900957 C711.990491,830.679932 718.961958,835.647789 726.952372,838.017942 L719.074939,838.225927 L711.197505,838.433912 C689.515398,839.015015 672.401353,857.048169 672.954255,878.731014 L672.954255,878.731014 C673.535359,900.413121 691.568513,917.527166 713.251357,916.974264 L745.658027,916.103327 L778.064697,915.245388 C778.879305,956.140447 779.693913,997.035507 780.508521,1037.93057 C781.323129,1078.82563 782.137737,1119.72502 782.952345,1160.62874 L812.850195,1161.10971 L842.748045,1161.59067 L839.90125,1037.63159 L837.041456,913.672501 L869.448125,912.814563 L901.854795,911.956625 C923.28651,911.024705 940.013499,893.082351 939.442358,871.637989 C938.871218,850.193626 921.212882,833.167076 899.761945,833.377275 L899.748946,833.546263 Z" id="Path" fill="#BAB653"></path>
            <path d="M756.226267,777.598299 L742.642244,777.598299 C742.211438,777.599993 741.798477,777.426362 741.498326,777.117321 C741.189475,776.814211 741.015473,776.399645 741.015473,775.966904 C741.015473,775.534163 741.189475,775.119596 741.498326,774.816486 C741.803888,774.517097 742.214457,774.349137 742.642244,774.348517 L756.226267,774.348517 C756.882707,774.347337 757.475378,774.741254 757.728461,775.346946 C757.981544,775.952639 757.845319,776.651118 757.383184,777.117321 C757.077346,777.425853 756.660696,777.599068 756.226267,777.598299 L756.226267,777.598299 Z" id="Path" fill="#666538"></path>
            <path d="M885.839947,835.184158 L843.475993,835.184158 C843.045187,835.185852 842.632226,835.012221 842.332075,834.70318 C842.023224,834.40007 841.849222,833.985504 841.849222,833.552763 C841.849222,833.120022 842.023224,832.705455 842.332075,832.402345 C842.637637,832.102956 843.048206,831.934996 843.475993,831.934379 L885.839947,831.934379 C886.267462,831.936366 886.677536,832.104124 886.983864,832.402345 C887.440568,832.870159 887.575324,833.564762 887.326681,834.169415 C887.078039,834.774068 886.49363,835.17294 885.839947,835.184158 L885.839947,835.184158 Z" id="Path" fill="#666538"></path>
            <path d="M783.277322,1161.52568 C773.134918,1156.65793 765.139126,1148.22718 760.814937,1137.84138 C756.6485,1128.10869 756.420164,1117.13922 760.177983,1107.24158 C763.416399,1099.21173 769.154998,1092.43845 776.543806,1087.92497 C784.289447,1083.16989 793.27963,1080.8386 802.35995,1081.23045 C799.085932,1072.96127 796.977238,1064.27712 796.0944,1055.42731 C794.651504,1041.31032 796.0944,1023.68359 807.36459,1008.48768 C819.59671,991.913875 839.992244,982.736535 860.660757,981.475626 C881.329271,980.214716 902.426754,986.909235 915.958781,1002.07914 C928.125906,1015.70216 931.115691,1032.66594 930.972701,1046.50995 C930.91737,1055.2465 929.657595,1063.9337 927.22897,1072.32609 C941.78567,1063.12657 959.273518,1059.74781 976.209448,1062.86277 C992.196243,1065.62726 1006.44247,1074.59832 1015.8436,1087.82098 C1023.44115,1098.98628 1027.10041,1112.36544 1026.24285,1125.84324 C1025.39149,1139.99212 1020.16806,1153.52762 1011.29393,1164.58046 L897.292123,1163.08557 L783.277322,1161.52568 Z" id="Path" fill="#E9CF81"></path>
            <path d="M262.222791,121.327479 C262.315616,120.538536 262.871896,119.8819 263.634853,119.66067 C264.397811,119.439441 265.21907,119.696643 265.719539,120.313552 C279.237545,137.182359 291.292358,155.173254 301.752948,174.090684 C316.248448,200.265447 327.593301,228.064699 335.550518,256.907729 C343.212296,284.729152 347.669562,313.335027 348.835562,342.168598 C349.687232,363.199655 348.795917,384.265122 346.170754,405.149069 C346.074201,405.940099 345.511906,406.595697 344.744815,406.811619 C343.977725,407.027541 343.15601,406.761515 342.661006,406.136998 C332.159891,393.017536 322.532814,379.221765 313.842079,364.838968 C283.731134,315.059916 265.589079,258.969504 260.84489,200.98575 C258.63596,174.453832 259.097577,147.767129 262.222791,121.327479 L262.222791,121.327479 Z" id="Path" fill="#F4ECE5"></path>
            <path d="M646.04619,376.993094 C646.808386,377.214146 647.364364,377.869775 647.457912,378.657846 C647.55146,379.445917 647.164423,380.213486 646.475159,380.606834 C627.646865,391.236819 607.947015,400.243086 587.589394,407.527898 C511.885438,434.616135 429.535106,436.96484 352.410305,414.235416 C351.649792,414.011114 351.097026,413.35391 351.006355,412.566211 C350.915685,411.778511 351.304675,411.012904 351.994335,410.621676 C366.63347,402.365126 381.796715,395.074436 397.387071,388.796245 C451.375186,367.077341 509.665496,358.178058 567.674826,362.798115 C594.208284,364.891598 620.464079,369.647168 646.04619,376.993094 L646.04619,376.993094 Z" id="Path" fill="#F4ECE5"></path>
            <path d="M341.127117,415.457328 C341.867894,415.172274 342.707615,415.368037 343.245964,415.951292 C343.79418,416.529947 343.938014,417.382675 343.609938,418.109137 C334.717326,437.821424 324.158427,456.738727 312.048208,474.655071 C279.063782,523.541829 235.116423,564.048358 183.708437,592.946565 C165.362119,603.272334 146.187126,612.051089 126.382559,619.191677 C125.622288,619.477611 124.764437,619.265733 124.224714,618.658716 C123.687438,618.073997 123.549466,617.225721 123.873739,616.500871 C130.80849,601.182236 138.742,586.335673 147.623032,572.057067 C178.30314,522.625253 220.037537,480.98875 269.541264,450.424813 C292.173844,436.404442 316.155873,424.689959 341.127117,415.457328 L341.127117,415.457328 Z" id="Path" fill="#F4ECE5"></path>
            <path d="M631.188259,328.025629 C630.799319,328.025629 630.423797,327.883538 630.135334,327.622644 C629.836531,327.367428 629.642177,327.011113 629.589374,326.621716 C625.842451,302.43986 618.567831,278.938591 607.997926,256.868732 C592.516039,224.21508 566.400917,186.881765 522.724058,159.063765 C489.198704,137.853358 450.803684,125.574111 411.192078,123.39433 C387.591266,121.894482 363.897475,123.803294 340.841137,129.061922 C340.424171,129.163554 339.983853,129.093291 339.619225,128.866936 C339.252259,128.638291 338.990587,128.273819 338.891278,127.853009 C338.687444,126.985026 339.22111,126.114918 340.087192,125.90315 C363.458874,120.57318 387.476532,118.638108 411.400063,120.157563 C451.566833,122.357673 490.500949,134.80764 524.491931,156.320962 C543.4665,168.358433 560.580671,183.103421 575.292278,200.088815 C590.218112,217.478494 602.623754,236.88118 612.144628,257.72667 C618.418775,271.323155 623.519956,285.430767 627.392531,299.895638 C629.731926,308.529911 631.542161,317.298917 632.813142,326.15375 C632.929426,327.037947 632.316936,327.852674 631.435241,327.986618 L631.188259,327.986618 L631.188259,328.025629 Z" id="Path" fill="#666538"></path>
            <path d="M439.244061,910.07176 C435.536009,925.380339 433.969857,941.129362 434.590396,956.868395 C435.165891,972.664354 438.454973,988.243522 444.313697,1002.92408 C448.287566,1012.67111 453.532636,1021.84999 459.912575,1030.22212 C466.268874,1038.60768 473.814059,1046.0215 482.309964,1052.22954 C491.284702,1058.88994 501.74759,1063.26249 512.792772,1064.96862 C523.192025,1066.6195 534.176235,1066.08654 546.096377,1064.65664 C554.039137,1063.63431 562.105611,1064.19092 569.832671,1066.29453 C577.166277,1068.33742 583.92846,1072.04772 589.59125,1077.13575 C594.745587,1081.93068 598.676908,1087.89006 601.056425,1094.5155 C603.470035,1101.11823 604.999855,1108.01116 605.606098,1115.01502 C605.827082,1117.28986 606.152059,1128.74204 606.360044,1139.63525 C606.568029,1150.52847 606.659022,1160.83673 606.425039,1160.83673 L641.769498,1160.83673 C641.769498,1160.83673 642.081475,1154.55818 642.120472,1145.80981 C642.22446,1135.82774 641.790529,1125.84733 640.820566,1115.91196 C639.962895,1107.38734 638.402025,1098.94821 636.153901,1090.68077 C633.139785,1079.82731 628.577929,1069.46463 622.608875,1059.91199 C618.767958,1053.72643 614.106545,1048.08988 608.751872,1043.15619 C603.41629,1038.22247 597.25675,1034.26277 590.553181,1031.45703 C582.831736,1028.29826 574.694321,1027.37532 566.465913,1027.31033 C558.237504,1027.24533 549.905104,1028.05128 541.767689,1028.36325 C533.47344,1028.73545 525.175061,1027.72506 517.212454,1025.37347 C509.24576,1023.03323 501.871006,1019.01789 495.58201,1013.59632 C475.96642,996.424551 471.221762,971.999307 472.91164,946.742123 C474.601519,921.48494 482.725934,895.135834 488.861493,874.077349 C491.864277,863.743092 495.244034,852.446904 499.026762,840.279779 C502.80949,828.112654 506.956192,815.126588 511.544862,801.373577 L493.528158,794.874044 L475.511453,788.374511 C470.857788,801.373577 466.316781,814.805944 461.888433,828.671614 C457.460085,842.537283 453.213723,856.836255 449.149349,871.568529 C447.346812,878.102726 445.613603,884.602258 443.949723,891.067127 C442.285842,897.531995 440.717289,903.866873 439.244061,910.07176 Z" id="Path" fill="#BAB653"></path>
            <path d="M474.068557,934.743986 C475.333799,928.920405 476.590376,923.10549 477.838286,917.299241 L481.621014,899.854495 C481.764004,899.256538 481.893994,898.775573 481.997987,898.359602 C482.101979,897.943632 482.205972,897.579659 482.296965,897.215685 C482.50495,896.370745 482.803929,895.226828 483.245897,893.601945 C483.687865,891.977061 484.272823,889.871213 485.065766,887.102412 C488.419525,875.403253 491.448307,865.315979 493.63215,858.088498 C495.815993,850.861018 497.167896,846.545328 497.167896,846.545328 C499.091758,840.396771 501.249602,833.546263 503.667429,825.928811 C506.085255,818.311359 508.724065,810.121948 511.596858,801.230587 L493.580154,794.731054 L475.563449,788.231522 C472.027704,797.759837 468.868931,806.586202 466.074132,814.606625 C463.279333,822.627048 460.874506,829.802532 458.820653,836.029085 C458.378685,837.328991 454.309978,849.834092 449.643313,866.251911 C444.976649,882.669731 439.738026,903.052265 436.943227,920.133037 C436.280274,924.149748 435.64332,928.400442 435.253348,932.963114 C434.863376,937.525786 434.5254,942.400436 434.473404,947.652058 C434.473404,951.031815 434.473404,954.15159 434.629393,956.907392 C434.785382,959.663194 434.928372,962.107018 435.097359,964.134873 L454.595957,949.419931 L474.068557,934.743986 Z" id="Path" fill="#666538"></path>
            <path d="M500.976622,1028.32426 C492.159572,1019.4522 480.563462,1013.87671 468.127984,1012.53039 C459.132962,1011.38723 449.994958,1012.41692 441.4799,1015.53318 C441.141925,1014.23327 440.777951,1012.93336 440.335983,1011.75045 C436.412324,1000.07633 427.806012,990.562468 416.582366,985.491974 C405.358719,980.421481 392.530879,980.25206 381.177237,985.02437 C378.196302,986.246572 375.344165,987.761906 372.662849,989.548045 C365.248046,971.31436 345.991997,960.851127 326.659157,964.550843 C317.334497,966.302772 309.224781,972.005485 304.422006,980.187898 C299.619231,988.370312 298.593699,998.231179 301.609958,1007.22677 C308.108742,1026.88811 328.189291,1038.6727 348.523585,1034.75879 C349.173538,1034.6288 349.823491,1034.47281 350.460446,1034.29083 C350.727833,1038.72244 351.602611,1043.09633 353.060259,1047.28989 C356.987203,1058.96158 365.593882,1068.47283 376.816386,1073.54281 C388.038891,1078.61279 400.865011,1078.78421 412.219005,1074.01597 C415.135813,1072.83245 417.927131,1071.36058 420.551405,1069.62229 C422.045175,1071.94878 423.760364,1074.12542 425.673037,1076.12182 C443.994447,1094.06437 472.076172,1097.48065 494.165112,1084.45422 C503.810418,1078.34466 510.439942,1069.08933 511.765846,1058.14411 C513.091751,1047.1989 508.867055,1036.56566 500.976622,1028.32426 Z" id="Path" fill="#BAB653"></path>
            <path d="M484.168831,1053.85442 L484.025841,1053.85442 L483.882851,1053.85442 C474.562521,1052.20354 465.229193,1050.30568 455.960859,1048.16083 C446.692526,1046.01598 437.502186,1043.62416 428.402841,1041.02434 C406.582623,1034.76397 385.171159,1027.15795 364.291451,1018.24998 C343.279193,1009.29505 322.836539,999.058533 303.078853,987.598185 C302.703601,987.385159 302.431354,987.028423 302.324907,986.610256 C302.206562,986.192832 302.264276,985.745236 302.4811,985.370196 C302.69926,984.995157 303.060469,984.724881 303.481824,984.621399 C303.895147,984.509002 304.336432,984.57003 304.703736,984.790387 C324.347189,996.184939 344.672756,1006.36075 365.565359,1015.2602 C386.306735,1024.11903 407.579721,1031.67745 429.260779,1037.89157 C438.295129,1040.49138 447.45947,1042.84421 456.64981,1044.97606 C465.840149,1047.10791 475.13448,1048.99277 484.415813,1050.63065 C485.285197,1050.80758 485.859285,1051.64001 485.715719,1052.51552 C485.560786,1053.27457 484.891531,1053.81868 484.116834,1053.81542 L484.168831,1053.85442 Z" id="Path" fill="#666538"></path>
            <path d="M568.337778,859.011432 L568.337778,859.011432 L568.337778,859.011432 L568.337778,859.011432 C575.011328,873.908475 571.794064,891.378999 560.251574,902.921489 C548.709085,914.463979 531.23856,917.681243 516.341517,911.007693 L516.341517,911.007693 L516.341517,911.007693 C510.513276,926.23496 495.897701,936.290418 479.59316,936.290418 C463.288619,936.290418 448.673043,926.23496 442.844802,911.007693 L442.844802,911.007693 L442.844802,911.007693 C427.94709,917.697072 410.465606,914.485632 398.918104,902.93813 C387.370602,891.390628 384.159163,873.909144 390.848541,859.011432 L390.848541,859.011432 L390.848541,859.011432 L390.848541,859.011432 C375.618577,853.189166 365.559422,838.5745 365.559422,822.269574 C365.559422,805.964648 375.618577,791.349982 390.848541,785.527716 L390.848541,785.527716 L390.848541,785.527716 L390.848541,785.527716 C384.159163,770.630004 387.370602,753.14852 398.918104,741.601018 C410.465606,730.053516 427.94709,726.842077 442.844802,733.531455 L442.844802,733.531455 L442.844802,733.531455 C448.673043,718.304188 463.288619,708.24873 479.59316,708.24873 C495.897701,708.24873 510.513276,718.304188 516.341517,733.531455 L516.341517,733.531455 L516.341517,733.531455 C531.23856,726.857906 548.709085,730.075169 560.251574,741.617659 C571.794064,753.160149 575.011328,770.630674 568.337778,785.527716 L568.337778,785.527716 L568.337778,785.527716 L568.337778,785.527716 C583.567743,791.349982 593.626897,805.964648 593.626897,822.269574 C593.626897,838.5745 583.567743,853.189166 568.337778,859.011432 L568.337778,859.011432 Z" id="Path" fill="#DEB8FC"></path>
            <path d="M522.061106,831.050443 C518.833405,851.316044 501.739568,866.479414 481.233661,867.267101 C460.727755,868.054788 442.521073,854.247406 437.748265,834.289125 C432.975456,814.330845 442.965841,793.780437 461.609606,785.2059 C480.253372,776.631364 502.357865,782.420874 514.404656,799.033745 C521.121183,808.259349 523.87726,819.78434 522.061106,831.050443 Z" id="Path" fill="#F4ECE5"></path>
            <path d="M365.370391,423.672737 C365.382239,432.09955 359.44051,439.361557 351.178191,441.018484 C342.915872,442.67541 334.633535,438.265899 331.395324,430.486098 C328.157114,422.706296 330.864681,413.722423 337.862514,409.02757 C344.860347,404.332716 354.19996,405.234123 360.170747,411.180635 C363.500486,414.48466 365.372396,418.981923 365.370391,423.672737 Z" id="Path" fill="#F98638"></path>
            <polygon id="Path" fill="#353519" points="837.028457 913.854488 817.282877 913.854488 797.537296 913.854488 817.893833 940.047605 838.23737 966.25372 837.626414 940.047605"></polygon>
            <path d="M506.072256,1160.79773 C505.962548,1156.69945 506.364285,1152.60348 507.26817,1148.60461 C508.721079,1142.05291 511.631246,1135.91268 515.782557,1130.6399 C520.494811,1124.74892 526.671828,1120.19908 533.695269,1117.44585 C538.446451,1115.58146 543.397326,1114.27286 548.449208,1113.54613 C556.419435,1112.22859 564.574163,1112.54258 572.419485,1114.46906 C580.242232,1116.39483 587.540802,1120.0308 593.789948,1125.1153 C597.276488,1127.98691 600.370733,1131.30404 602.993286,1134.98159 C604.359205,1136.87774 605.576096,1138.87692 606.633024,1140.96116 C608.431513,1144.57038 609.767948,1148.39189 610.610738,1152.33534 C611.205413,1155.11097 611.549107,1157.93449 611.637664,1160.77173 L558.86146,1160.77173 L506.072256,1160.79773 Z" id="Path" fill="#F4ECE5"></path>
            <path d="M579.347986,1128.50805 C579.287177,1130.45253 578.326581,1132.25845 576.748173,1133.3957 C573.104688,1136.09972 568.120541,1136.09972 564.477056,1133.3957 C562.882298,1132.27625 561.932973,1130.45 561.932973,1128.50155 C561.932973,1126.55311 562.882298,1124.72686 564.477056,1123.6074 C568.120541,1120.90338 573.104688,1120.90338 576.748173,1123.6074 C578.328598,1124.74875 579.289194,1126.55947 579.347986,1128.50805 Z" id="Path" fill="#F98638"></path>
            <path d="M574.915305,454.870494 C574.893193,454.324101 575.193297,453.815451 575.68225,453.570587 C576.182641,453.298689 576.799256,453.36605 577.229139,453.739575 C633.189566,501.086034 667.571973,569.091068 672.525286,642.226021 C672.548438,642.776252 672.241735,643.287424 671.745342,643.525927 C671.239486,643.792526 670.622482,643.725684 670.185454,643.35694 C661.038791,635.60715 652.410539,627.265493 644.356312,618.385735 C634.486903,607.511349 625.53056,595.842016 617.578237,583.496244 C603.138857,561.042735 592.108377,536.572418 584.846591,510.883466 C579.671323,492.591576 576.344234,473.826622 574.915305,454.870494 L574.915305,454.870494 Z" id="Path" fill="#F4ECE5"></path>
            <path d="M878.677462,581.377397 C879.242528,581.430803 879.721196,581.816262 879.893874,582.356941 C880.066551,582.897621 879.899913,583.489173 879.470405,583.860218 C823.764732,631.486453 751.136224,654.504709 678.16688,647.65963 C677.601006,647.613059 677.118896,647.230221 676.945332,646.689612 C676.771768,646.149003 676.940927,645.557073 677.373937,645.189808 C686.495465,637.400841 696.118099,630.218604 706.179866,623.689354 C718.495891,615.6989 731.452588,608.742283 744.91708,602.89085 C769.394052,592.247772 795.314806,585.29556 821.832549,582.261333 C840.703822,580.069611 859.747167,579.773487 878.677462,581.377397 L878.677462,581.377397 Z" id="Path" fill="#F4ECE5"></path>
            <path d="M673.084246,652.885254 C673.622439,652.710236 674.213094,652.875482 674.582335,653.304369 C674.951576,653.733257 675.027193,654.341912 674.774124,654.848113 C642.003214,720.398204 584.069251,769.871642 514.196671,791.975253 C513.657459,792.146543 513.068119,791.977428 512.701779,791.546283 C512.331029,791.11615 512.258991,790.503828 512.519792,789.999395 C517.897487,779.271919 523.976913,768.910839 530.718483,758.983625 C554.011829,724.635402 584.954427,696.157888 621.113983,675.789607 C637.627527,666.435412 655.038196,658.762176 673.084246,652.885254 L673.084246,652.885254 Z" id="Path" fill="#F4ECE5"></path>
            <path d="M688.826124,653.964177 C688.820476,660.897148 683.918436,666.860768 677.117661,668.2082 C670.316885,669.555631 663.511296,665.911633 660.862608,659.504561 C658.213919,653.097489 660.459755,645.711625 666.226754,641.863529 C671.993753,638.015433 679.675885,638.776747 684.575419,643.681916 C687.301372,646.40898 688.83068,650.108315 688.826124,653.964177 L688.826124,653.964177 Z" id="Path" fill="#F98638"></path>
            <path d="M773.255068,816.855463 C773.253642,825.221233 767.342964,832.421045 759.137688,834.051852 C750.932411,835.68266 742.717771,831.290269 739.517434,823.560848 C736.317098,815.831427 739.022384,806.917684 745.978874,802.27082 C752.935365,797.623956 762.20562,798.538162 768.120412,804.454355 C771.414901,807.73948 773.262994,812.202976 773.255068,816.855463 Z" id="Path" fill="#DEB8FC"></path>
            <path d="M835.416683,868.552746 C835.446067,876.915919 829.565532,884.136059 821.36947,885.799824 C813.173408,887.463589 804.943031,883.107902 801.709193,875.395197 C798.475354,867.682491 801.138128,858.759445 808.069884,854.08031 C815.001639,849.401174 824.273058,850.268294 830.216946,856.151638 C833.535289,859.426046 835.407334,863.890873 835.416683,868.552746 L835.416683,868.552746 Z" id="Path" fill="#DEB8FC"></path>
            <path d="M859.971832,776.85734 C859.970406,785.223109 854.059729,792.422921 845.854452,794.053729 C837.649175,795.684536 829.434535,791.292145 826.234199,783.562724 C823.033862,775.833304 825.739148,766.91956 832.695639,762.272696 C839.652129,757.625833 848.922384,758.540039 854.837176,764.456231 C858.131665,767.741357 859.979758,772.204852 859.971832,776.85734 L859.971832,776.85734 Z" id="Path" fill="#DEB8FC"></path>
            <path d="M520.696204,738.874137 C520.481293,738.874137 520.268471,738.83176 520.072249,738.74408 C519.869392,738.664553 519.687181,738.540116 519.539287,738.380107 C508.631159,727.125995 499.299474,714.4447 491.799282,700.682817 C480.052132,679.390292 473.26673,655.719149 471.949709,631.436797 C469.99985,593.960492 481.699008,562.918724 495.153041,540.183359 C504.280747,524.670739 515.672023,510.606895 528.95061,498.456359 C529.626951,497.864865 530.653545,497.928665 531.251445,498.599349 C531.539963,498.917889 531.685569,499.340616 531.654416,499.769265 C531.629366,500.199952 531.432713,500.602622 531.108455,500.887185 C518.105163,512.807859 506.9508,526.599663 498.012835,541.808242 C484.818784,564.101639 473.314611,594.467455 475.238473,631.228812 C476.5374,655.036479 483.203163,678.242223 494.737071,699.10993 C502.089237,712.61334 511.237129,725.058321 521.931115,736.10527 C522.231296,736.415589 522.3991,736.830439 522.399082,737.262187 C522.38499,738.151559 521.663655,738.867123 520.774198,738.874137 L520.696204,738.874137 Z" id="Path" fill="#666538"></path>
            <path d="M52.2878871,895.343819 C41.4206685,914.777422 35.2201144,935.640922 34.2191864,955.55549 C33.2182584,975.470057 37.4169564,994.448693 47.3222441,1010.07357 C55.7196403,1023.31962 67.82177,1033.56288 78.5200007,1040.82936 C85.8485369,1045.77616 93.589991,1050.0818 101.658337,1053.69843 C107.11139,1056.10287 112.717567,1058.14385 118.44013,1059.80799 C122.912047,1061.09602 127.445749,1062.15894 132.024153,1062.99276 L129.762316,1043.32518 L127.487479,1023.64459 C127.487479,1023.64459 100.098449,1020.44682 81.0158213,1002.84609 C61.9331935,985.245355 51.1179712,953.124664 84.4085773,895.382817 L52.2878871,895.382817 L52.2878871,895.343819 Z" id="Path" fill="#BAB653"></path>
            <path d="M19.3222576,859.999361 C15.6913417,859.815204 12.0833758,860.672096 8.92300543,862.469183 C5.84229218,864.202065 3.36216911,866.831811 1.81251674,870.008641 C0.207005588,873.404203 -0.349666722,877.201341 0.213631715,880.914857 C0.725020662,884.755303 2.7226656,888.241847 5.77723164,890.625159 C8.05076676,892.315243 10.7531044,893.333123 13.5766708,893.562947 C16.546828,893.79945 19.5294517,893.299369 22.2600464,892.107052 C18.4684592,893.773229 15.4041881,896.749818 13.628667,900.491449 C11.8895265,904.142238 11.5428533,908.302317 12.6537372,912.190608 C13.8256541,916.083319 16.3707655,919.418292 19.8162221,921.575933 C23.147925,923.737972 27.1723625,924.564212 31.0864117,923.889767 C34.6680019,923.182381 37.8880242,921.241168 40.1857573,918.404161 C41.4304115,916.952015 42.4512608,915.322161 43.2145395,913.568509 C43.848098,915.644417 44.7761492,917.618714 45.9703414,919.431087 C48.1572453,922.924827 51.4527623,925.584127 55.3296683,926.983544 C59.1416728,928.278288 63.2619755,928.355515 67.1198205,927.204528 C71.0103356,926.104296 74.3687131,923.628243 76.5701409,920.237029 C78.1139086,917.772217 78.975219,914.941556 79.0659615,912.034619 C79.1412586,910.288327 78.9838893,908.539778 78.5979951,906.834993 C81.3796576,910.140955 84.9590234,912.682305 88.9972473,914.218462 C92.736447,915.643733 96.8290889,915.85746 100.696406,914.829418 C102.53034,914.320044 104.281477,913.549544 105.896032,912.541583 C108.773673,910.813728 110.98543,908.166947 112.174581,905.028123 C113.381138,901.666697 113.381138,897.990296 112.174581,894.628871 C111.598239,892.878106 110.765947,891.222283 109.704758,889.715224 C113.882216,891.036676 118.398464,890.787057 122.404845,889.013275 C126.200777,887.356162 129.219127,884.309907 130.841238,880.498887 C132.278053,876.857087 132.278053,872.805502 130.841238,869.163702 C129.574875,865.697103 127.314009,862.681108 124.341706,860.493325 C122.258512,859.019038 119.874552,858.024612 117.361208,857.581535 C115.774472,857.300085 114.159382,857.212783 112.551554,857.321553 C114.109863,856.2085 115.516884,854.897611 116.737253,853.421834 C118.641629,851.174178 119.899668,848.451421 120.376991,845.5444 C120.961487,840.361519 119.338539,835.171858 115.905312,831.245429 C112.55439,827.048418 107.642125,824.392886 102.295291,823.887958 C98.3026761,823.699921 94.3568991,824.812949 91.0510996,827.05973 C89.1708971,828.278844 87.4690986,829.753153 85.9944632,831.440415 C86.1617476,829.211696 86.0438025,826.970739 85.6434885,824.771894 C85.0816301,821.417552 83.5910462,818.287776 81.3407979,815.737544 C77.1550989,811.135875 70.4345821,809.095021 63.831057,809.523991 C57.2275319,809.95296 50.7279992,812.838752 47.0232656,818.064376 C44.8448021,821.24758 43.6678147,825.009412 43.6435087,828.8666 C43.5851131,831.259441 43.8385592,833.6497 44.3974545,835.977088 C42.0629195,832.889241 38.9620464,830.465004 35.4021013,828.944594 C32.0264837,827.485881 28.2919065,827.06942 24.6778725,827.74868 C19.8242322,828.846809 15.5443026,831.692384 12.6537372,835.743105 C9.694884,839.514988 8.54015911,844.395245 9.4949643,849.093145 C10.3187297,852.150166 12.0721243,854.87565 14.5126035,856.892584 C15.9682509,858.14051 17.5861656,859.185596 19.3222576,859.999361 Z" id="Path" fill="#DEB8FC"></path>
            <path d="M52.3398833,859.03743 C49.4570507,858.12146 46.4063212,857.859461 43.4095255,858.270485 C40.3515088,858.693769 37.6333209,860.437781 35.9740602,863.041142 C33.7102632,866.55203 33.9029191,871.108081 36.4550256,874.415324 C38.8391593,877.803562 42.8100758,879.712751 46.9452713,879.458962 C46.7372862,879.458962 46.3993105,879.952926 46.087333,880.45989 C45.7753554,880.966853 45.502375,881.499815 45.3983825,881.668803 C43.8873255,884.144565 43.5042869,887.147399 44.3454582,889.923209 C45.2258285,892.694574 47.3003396,894.926462 50.0000516,896.006772 C52.8323667,897.005363 55.9554185,896.754952 58.5924337,895.317821 C61.3099063,894.06544 63.5782731,892.0103 65.0919663,889.429245 C65.717571,888.134765 66.2602921,886.801842 66.7168495,885.438532 C67.1718168,884.138625 67.4967934,883.033705 67.4967934,883.033705 C70.0966065,886.036489 71.6434952,887.713368 72.5664288,888.649301 C72.9371492,889.04672 73.3368877,889.416044 73.7623429,889.754221 C74.8949357,890.424003 76.1096592,890.943975 77.376083,891.30111 C79.8044052,892.027376 82.4017924,891.954467 84.7855502,891.093125 C85.4070836,890.863747 86.0037588,890.571942 86.5664221,890.222188 C87.1577145,889.867323 87.7147378,889.458259 88.2303025,889.000275 C90.2823832,887.146032 91.6283474,884.637853 92.0390286,881.902786 C92.5427557,879.173667 91.7934675,876.362643 89.9981753,874.246336 C89.2005819,873.412632 88.3305639,872.651366 87.3983623,871.9715 C86.5144259,871.295549 85.7994773,870.814583 85.7994773,870.814583 L86.8264034,870.30762 L87.7493371,869.852652 C90.4494968,868.43486 92.4644306,865.988825 93.3389351,863.06714 C94.2954692,860.138047 93.9991033,856.943881 92.519994,854.240775 C90.691535,850.948595 87.185283,848.945022 83.4206483,849.041149 C79.7017124,849.033136 76.157438,850.618359 73.6843485,853.395836 C73.7317486,852.78146 73.7317486,852.164345 73.6843485,851.549969 C73.6391572,850.735948 73.5040108,849.929429 73.2813774,849.145141 C72.6368949,846.928041 71.3690276,844.942768 69.6286401,843.425553 C68.7083173,842.624952 67.6906929,841.943624 66.5998579,841.397699 C64.4417133,840.386542 62.0623596,839.939295 59.6843552,840.097792 C57.1398852,840.254512 54.7364022,841.320163 52.9118422,843.100576 C51.3796036,844.685487 50.3642881,846.697988 50.0000516,848.872161 C49.7873549,849.980965 49.7217945,851.112974 49.8050656,852.238919 C49.8759079,852.899315 50.006432,853.551935 50.1950376,854.188779 C50.3433106,854.690289 50.5257235,855.181066 50.7409983,855.657673 C50.8449908,855.930654 51.1049721,856.723596 51.4039506,857.464543 C51.7029291,858.20549 52.0539039,858.959436 52.3398833,859.03743 Z" id="Path" fill="#F98638"></path>
            <path d="M260.42892,975.236074 L253.929387,975.405062 L247.364859,975.57405 C247.330348,975.577675 247.29582,975.567352 247.268963,975.545378 C247.242106,975.523404 247.22515,975.491604 247.221869,975.457058 C247.205452,975.38193 247.251396,975.307271 247.325862,975.288071 C252.162588,973.638719 256.59351,970.980165 260.324927,967.488631 C263.602732,964.474148 265.95223,960.586878 267.09744,956.283437 C268.034575,952.151159 267.805054,947.839758 266.434488,943.830333 C265.712663,941.584611 264.707999,939.439871 263.444703,937.447792 C259.796932,931.96991 254.376673,927.912747 248.092807,925.956618 C241.076547,923.735167 233.577574,923.527988 226.449363,925.358661 C233.237275,923.810005 239.302434,920.012409 243.660126,914.582436 C251.684446,904.824263 252.069772,890.866906 244.596058,880.680874 C237.771859,870.938067 225.294952,866.931428 214.074253,870.879579 C208.221898,872.849985 203.092734,876.525961 199.346312,881.43482 C202.458672,875.323528 203.611603,868.401406 202.648075,861.611245 C201.74878,855.018085 198.701448,848.905145 193.977698,844.218496 C189.12793,839.552002 182.89913,836.578959 176.220975,835.743105 C169.742308,834.815022 163.143625,836.1955 157.580316,839.642825 C150.950792,843.893519 146.53111,851.341983 145.192206,859.804375 C143.796793,869.045045 145.982116,878.46983 151.301767,886.15348 C151.400153,886.269788 151.400153,886.440143 151.301767,886.556451 C151.189665,886.652894 151.023897,886.652894 150.911795,886.556451 C145.301459,882.447373 138.27876,880.757244 131.413197,881.863789 C124.845253,882.603933 118.973563,886.299435 115.465295,891.90102 C111.957027,897.502606 111.195337,904.398496 113.396493,910.63072 C115.487243,917.707918 120.487114,923.563154 127.149504,926.736562 L127.149504,926.736562 C118.718636,924.988376 109.938589,926.657426 102.737259,931.377228 C96.1597323,935.718916 91.6360576,942.257446 90.6871258,949.185948 C90.0264035,955.545039 91.7905489,961.919175 95.6267706,967.033664 C99.7590807,972.827222 105.705841,977.076868 112.525555,979.109796 L105.79204,979.291783 L99.0585238,979.47377 C80.4986139,979.969749 65.8524011,995.413154 66.3398766,1013.97329 L66.3398766,1013.97329 C66.5645359,1022.89311 70.3248678,1031.35799 76.7929903,1037.50429 C83.2611128,1043.65059 91.9067267,1046.9744 100.826397,1046.74393 L128.553403,1046.00299 L156.280409,1045.26204 L158.581244,1103.04288 L160.882078,1160.83673 L208.718638,1160.83673 L207.769706,1102.34093 L206.833774,1043.84514 L234.547781,1043.10419 L262.274787,1042.37625 C280.839909,1041.88032 295.48822,1026.42888 294.993434,1007.86373 L294.993434,1007.86373 C294.758701,998.950711 290.991271,990.496388 284.520649,984.36222 C278.050027,978.228051 269.406763,974.916997 260.493915,975.15808 L260.42892,975.236074 Z" id="Path" fill="#E9CF81"></path>
            <polygon id="Path" fill="#353519" points="206.768778 1043.92314 193.26275 1043.92314 179.756721 1043.92314 193.613724 1062.5508 207.470728 1081.17846 207.119753 1062.5508"></polygon>
            <path d="M138.757669,928.361445 L127.136505,928.361445 C126.244187,928.354306 125.524621,927.628908 125.524621,926.736562 C125.531692,925.842109 126.255051,925.11875 127.149504,925.111679 L138.770668,925.111679 C139.668066,925.111679 140.395551,925.839164 140.395551,926.736562 C140.402652,927.169646 140.233741,927.58708 139.927464,927.893357 C139.621186,928.199635 139.203752,928.368546 138.770668,928.361445 L138.757669,928.361445 Z" id="Path" fill="#666538"></path>
            <path d="M248.521776,977.575906 L212.280382,977.575906 C211.852867,977.573919 211.442793,977.406161 211.136464,977.10794 C210.827932,976.802102 210.654718,976.385451 210.655486,975.951023 C210.653792,975.520217 210.827424,975.107256 211.136464,974.807105 C211.438306,974.500551 211.85017,974.327381 212.280382,974.32614 L248.521776,974.32614 C249.416229,974.333211 250.139588,975.05657 250.146659,975.951023 C250.146659,976.848421 249.419174,977.575906 248.521776,977.575906 Z" id="Path" fill="#666538"></path>
            <path d="M195.61558,888.337323 C195.452776,888.342237 195.290275,888.320278 195.134615,888.272328 C194.551887,888.076676 194.122915,887.577871 194.016695,886.972421 C193.937802,886.544944 194.036362,886.10377 194.289676,885.750509 L196.148542,883.150696 L197.994409,880.550883 C198.286298,879.980611 198.886018,879.635071 199.525774,879.668559 C200.16553,879.702048 200.725897,880.108314 200.95665,880.705944 C201.187403,881.303575 201.045467,881.981009 200.594222,882.435748 L198.748355,885.035561 L196.889489,887.635374 C196.735328,887.851364 196.529832,888.025588 196.291532,888.142337 C196.083826,888.257534 195.852729,888.324197 195.61558,888.337323 Z" id="Path" fill="#666538"></path>
            <path d="M747.724878,1086.95004 L745.840014,1124.17936 L743.94215,1161.42169 L778.220685,1161.75966 L812.499221,1162.11064 L808.599501,1123.77639 C807.290928,1110.99398 805.991022,1098.21156 804.699781,1085.42915 C802.866913,1067.90641 789.100903,1059.43102 775.542878,1059.84699 C761.984853,1060.26296 748.608815,1069.34931 747.724878,1086.95004 Z" id="Path" fill="#F4ECE5"></path>
            <path d="M787.761999,1077.23974 C787.711929,1078.19771 787.191176,1079.06888 786.371099,1079.56657 C784.300237,1080.8484 781.682448,1080.8484 779.611585,1079.56657 C778.729171,1079.12678 778.171461,1078.22568 778.171461,1077.23974 C778.171461,1076.2538 778.729171,1075.3527 779.611585,1074.91291 C781.677119,1073.61248 784.305566,1073.61248 786.371099,1074.91291 C787.194536,1075.40725 787.716467,1076.28039 787.761999,1077.23974 L787.761999,1077.23974 Z" id="Path" fill="#F98638"></path>
            <path d="M798.083257,1090.84976 C798.045251,1092.19908 797.394481,1093.45755 796.315384,1094.26851 C793.762122,1096.14107 790.289263,1096.14107 787.736001,1094.26851 C786.62024,1093.48772 785.955694,1092.21158 785.955694,1090.84976 C785.955694,1089.48794 786.62024,1088.2118 787.736001,1087.43101 C790.283734,1085.54163 793.767652,1085.54163 796.315384,1087.43101 C797.399008,1088.23813 798.050997,1089.49896 798.083257,1090.84976 Z" id="Path" fill="#F98638"></path>
            <path d="M172.763224,814.39864 C172.763224,814.39864 182.525522,790.181382 197.123472,761.297459 C211.721422,732.413536 231.194022,698.901945 250.588627,680.20929 C259.804662,671.016098 274.196546,669.525413 285.101146,676.634547 C296.185136,683.345617 300.998352,696.942273 296.605318,709.13221 C293.819331,716.875258 289.926894,724.174124 285.049149,730.801652 C278.009368,740.436024 270.022786,749.341456 261.208864,757.38474 L225.24045,794.614063 L189.285036,831.843386 C188.126092,829.963777 186.822227,828.177482 185.385316,826.50077 C181.643379,822.007761 177.40958,817.948372 172.763224,814.39864 L172.763224,814.39864 Z" id="Path" fill="#BAB653"></path>
            <path d="M187.920134,816.075519 C187.575026,816.072992 187.239103,815.964044 186.958203,815.763542 C186.611413,815.506062 186.378338,815.123819 186.30825,814.697619 C186.244851,814.271001 186.352285,813.836594 186.607228,813.488706 L230.284087,753.926989 L273.947948,694.365272 C274.203514,694.016392 274.586689,693.782749 275.013871,693.715318 C275.440137,693.65877 275.872014,693.765578 276.222784,694.014297 C276.571663,694.269863 276.805307,694.653039 276.872737,695.08022 C276.929286,695.506486 276.822477,695.938364 276.573759,696.289133 L232.8969,755.85085 L189.22004,815.412567 C189.058531,815.618276 188.854581,815.786756 188.622083,815.906532 C188.402869,816.012387 188.163506,816.070011 187.920134,816.075519 L187.920134,816.075519 Z" id="Path" fill="#666538"></path>
            <path d="M963.509361,1163.80051 L950.653286,1164.13849 L937.79721,1164.47647 C932.852036,1164.60633 928.084255,1162.63054 924.680484,1159.04084 C921.276713,1155.45114 919.557052,1150.58511 919.949494,1145.65382 L923.47224,1101.76898 L926.981988,1057.88413 L947.338524,1057.33817 L967.69506,1056.79221 L973.999607,1100.33908 L980.304154,1143.82095 C981.014571,1148.74875 979.585594,1153.74528 976.37708,1157.55229 C973.168567,1161.35929 968.486282,1163.61397 963.509361,1163.74852 L963.509361,1163.80051 Z" id="Path" fill="#F4ECE5"></path>
            <polygon id="Path" fill="#AD4D4D" points="926.994987 1057.88413 950.016332 1075.66685 973.024677 1093.43657 970.372868 1075.12089 967.721059 1056.79221 947.364522 1057.33817"></polygon>
            <path d="M1034.57525,1055.10233 L950.445301,1057.33817 L866.315351,1059.57401 C863.752597,1059.63232 861.622575,1057.61257 861.544694,1055.05033 L861.4537,1051.69658 L861.375706,1048.35582 C860.211537,1004.53142 894.791881,968.059687 938.616151,966.890674 L948.027475,966.643692 L957.451797,966.39671 C1001.2762,965.232541 1037.74793,999.812886 1038.91694,1043.63716 L1039.00793,1046.97792 L1039.10016,1050.33167 C1039.15723,1052.89443 1037.13748,1055.02445 1034.57525,1055.10233 L1034.57525,1055.10233 Z" id="Path" fill="#F98638"></path>
            <path d="M940.903987,1025.32147 C940.006589,1025.32147 939.279104,1024.59399 939.279104,1023.69659 L939.279104,971.232362 L920.378463,986.051297 L901.477822,1000.83123 C901.138419,1001.0946 900.707925,1001.21158 900.281908,1001.15621 C899.851812,1001.11506 899.459519,1000.89291 899.202986,1000.54525 C898.929539,1000.21064 898.807154,999.777584 898.86501,999.34934 C898.916662,998.922625 899.136605,998.534214 899.475966,998.270418 L918.584592,983.282496 L937.693218,968.333571 C938.442652,967.52295 939.600523,967.232207 940.644006,967.592624 C941.759548,967.972506 942.514683,969.014072 942.52887,970.192437 L942.52887,1023.65759 C942.52887,1024.55499 941.801385,1025.28248 940.903987,1025.28248 L940.903987,1025.32147 Z" id="Path" fill="#AD4D4D"></path>
            <path d="M981.994032,1009.77459 C981.789025,1009.77459 981.585959,1009.73488 981.396075,1009.6576 C981.194667,1009.58769 981.012228,1009.472 980.863114,1009.31962 L960.064609,989.379057 L939.266105,969.425492 L939.682075,968.20358 L940.085046,966.968669 L940.851991,967.163655 L941.605936,967.345642 L963.704347,973.728183 L985.802758,980.110724 C986.216013,980.235523 986.565219,980.514888 986.777688,980.890668 C987.104992,981.46461 987.048897,982.180176 986.636155,982.696103 C986.223413,983.212031 985.537613,983.423833 984.905823,983.230499 L965.862192,977.744894 L946.98755,972.23329 L965.05625,989.587042 L983.111952,1006.95379 C983.420803,1007.2569 983.594805,1007.67147 983.594805,1008.10421 C983.594805,1008.53695 983.420803,1008.95152 983.111952,1009.25463 C982.809686,1009.57776 982.384416,1009.75731 981.942036,1009.74859 L981.994032,1009.77459 Z" id="Path" fill="#AD4D4D"></path>
            <path d="M1025.17693,125.994143 L1008.16115,134.729515 L991.171372,143.41289 C990.268227,143.869538 989.601983,144.688825 989.339061,145.666102 C989.076139,146.643378 989.241367,147.686361 989.793471,148.534522 L1000.19272,164.549371 L1010.59198,180.577218 C1011.31364,181.703874 1011.34574,183.139212 1010.67515,184.296999 C1010.00457,185.454785 1008.74357,186.141174 1007.4072,186.075823 L988.350575,185.087894 L969.280946,184.086966 C968.270354,184.033662 967.284798,184.412772 966.570449,185.129601 C965.856101,185.84643 965.48041,186.833294 965.537216,187.843695 L966.525145,206.900325 L967.513074,225.969954 C967.588185,227.310084 966.903527,228.57864 965.742048,229.251364 C964.580569,229.924089 963.13953,229.886729 962.014469,229.154725 L945.999621,218.755473 L929.971773,208.35622 C929.124163,207.807341 928.083948,207.642558 927.108195,207.902593 C926.132443,208.162629 925.312189,208.823223 924.850141,209.721122 L916.166766,226.7239 L907.470391,243.726677 C906.861672,244.918142 905.636576,245.667963 904.298619,245.667963 C902.960663,245.667963 901.735567,244.918142 901.126847,243.726677 L892.46947,226.762897 L883.773095,209.760119 C883.313758,208.862996 882.49584,208.20248 881.522115,207.942325 C880.54839,207.682169 879.510031,207.846733 878.664463,208.395218 L862.636615,218.79447 L846.621767,229.193722 C845.496706,229.925726 844.055667,229.963086 842.894187,229.290362 C841.732708,228.617637 841.04805,227.349082 841.123162,226.008951 L842.111091,206.939322 L843.09902,187.882693 C843.15994,186.869568 842.780926,185.879395 842.059095,185.165888 C841.346784,184.45042 840.363452,184.072216 839.355289,184.125963 L820.285661,185.126891 L801.229031,186.11482 C799.888399,186.183634 798.622223,185.49557 797.950606,184.333262 C797.27899,183.170954 797.31516,181.730355 798.04426,180.603216 L808.443512,164.588368 L818.842764,148.573519 C819.394869,147.725358 819.560097,146.682375 819.297175,145.705099 C819.034253,144.727822 818.368008,143.908535 817.464863,143.451888 L800.475085,134.768512 L783.368315,125.994143 C782.169803,125.387897 781.414244,124.15899 781.414244,122.815872 C781.414244,121.472753 782.169803,120.243846 783.368315,119.6376 L800.371093,110.954225 L817.360871,102.25785 C818.263269,101.802297 818.929589,100.984755 819.193739,100.009012 C819.451161,99.0299583 819.286116,97.9878199 818.738772,97.1362182 L808.33952,81.1213698 L797.940267,65.1065214 C797.264584,63.9779777 797.263252,62.5695371 797.936799,61.439717 C798.610345,60.3098968 799.849945,59.641243 801.164036,59.6989103 L820.220665,60.6998383 L839.290294,61.6877673 C840.319513,61.7546712 841.327198,61.3721436 842.052752,60.6391096 C842.778306,59.9060757 843.150478,58.8945205 843.073022,57.8660421 L842.085093,38.8094124 L841.097164,19.7397837 C841.017315,18.3981414 841.702249,17.1265127 842.866463,16.4549569 C844.030676,15.7834012 845.474373,15.8271672 846.595769,16.5680118 L862.610617,26.967264 L878.638464,37.3665162 C879.48245,37.9210731 880.523847,38.08675 881.498259,37.8214835 C882.474178,37.5591358 883.294933,36.898758 883.760096,36.0016144 L892.46947,18.9468408 L901.165845,1.95706248 C901.767892,0.757352949 902.995318,-3.69455655e-14 904.337616,-3.69455655e-14 C905.679914,-3.69455655e-14 906.907341,0.757352949 907.509388,1.95706248 L916.205763,18.9468408 L924.902138,35.9496181 C925.373187,36.8358318 926.196265,37.4821841 927.168896,37.7296729 C928.141527,37.9771618 929.173435,37.802816 930.01077,37.2495246 L946.038618,26.8502724 L962.053466,16.4510202 C963.174862,15.7101756 964.618559,15.6664096 965.782772,16.3379653 C966.946986,17.0095211 967.63192,18.2811498 967.552071,19.6227921 L966.564142,38.8094124 L965.576213,57.8790412 C965.51739,58.8880006 965.896369,59.8733459 966.616138,60.5828467 C967.328449,61.2983143 968.311781,61.676519 969.319944,61.6227719 L988.389572,60.634843 L1007.38121,59.6989103 C1008.72184,59.6300958 1009.98801,60.3181597 1010.65963,61.4804678 C1011.33125,62.6427759 1011.29508,64.0833749 1010.56598,65.2105139 L1000.16673,81.2253623 L989.767473,97.2402107 C989.220129,98.0918124 989.055085,99.1339509 989.312506,100.113004 C989.576656,101.088748 990.242976,101.906289 991.145374,102.361842 L1008.16115,110.993222 L1025.16393,119.676597 C1026.36244,120.282844 1027.118,121.51175 1027.118,122.854869 C1027.118,124.197987 1026.36244,125.426894 1025.16393,126.03314 L1025.17693,125.994143 Z" id="Path" fill="#E9CF81"></path>
            <path d="M975.663556,122.861368 C975.663556,156.92093 951.601876,186.236614 918.19639,192.879445 C884.790903,199.522276 851.345035,181.64204 838.313711,150.173988 C825.282388,118.705935 836.295196,82.4147925 864.616887,63.4956089 C892.938579,44.5764253 930.680776,48.2987189 954.760991,72.385998 C968.167152,85.759608 975.689762,103.925214 975.663556,122.861368 L975.663556,122.861368 Z" id="Path" fill="#F98638"></path>
        </g>
    </g>
</svg>