<?xml version="1.0" encoding="UTF-8"?>
<svg width="1201px" height="1070px" viewBox="0 0 1201 1070" version="1.1" xmlns="http://www.w3.org/2000/svg" xmlns:xlink="http://www.w3.org/1999/xlink">
    <title>Group</title>
    <g id="Page-1" stroke="none" stroke-width="1" fill="none" fill-rule="evenodd">
        <g id="Group" transform="translate(0.7886, 0.6148)">
            <path d="M125.119607,893.463522 L1128.93838,893.463522 C1125.44957,760.728717 1068.42201,640.771691 979.021172,553.493214 C889.620334,466.214737 767.83168,411.614811 634.820677,409.57967 C498.916867,407.588139 373.305055,460.690783 280.749749,548.259994 C188.194442,635.829205 128.710177,757.821373 125.119607,893.463522 Z" id="Path" fill="#E9CC79"></path>
            <path d="M126.456985,892.082534 C112.497126,885.395017 101.486151,873.804517 95.5228417,859.520278 C89.7586003,846.061124 89.4148815,830.895834 94.563418,817.189344 C99.0693484,805.897514 107.119075,796.373534 117.502365,790.049285 C128.332206,783.388039 140.928233,780.169336 153.626118,780.818467 C146.390114,764.111468 143.049603,745.977266 143.857441,727.788506 C144.686034,709.472237 149.948327,691.882804 160.632818,679.061415 C172.909278,664.538784 189.659219,654.502113 208.255118,650.525831 C217.716218,648.300879 227.458964,647.516754 237.15412,648.199955 C256.944994,649.697943 276.062015,656.048649 292.815228,666.690665 C308.54396,676.86637 320.812953,690.894307 327.703359,707.597 C331.841796,718.001582 334.806248,728.835487 336.541686,739.897595 C338.257019,750.553012 338.722194,760.118175 337.791844,765.671203 C357.065217,754.853614 379.638668,751.486217 401.230097,756.207797 C421.865629,760.569062 440.061348,772.635423 452.108623,789.947528 C462.156911,804.934384 466.975711,822.819645 465.816752,840.826053 C464.709387,859.55136 457.776794,877.462253 445.988663,892.05346 L126.456985,892.05346 L126.456985,892.082534 Z" id="Path" fill="#353519"></path>
            <path d="M431.481015,409.361619 L483.173597,408.910981 L534.851643,408.460342 C550.654682,405.761826 564.92217,397.368882 574.958457,384.867243 C584.977236,372.516399 590.099952,356.910226 589.349812,341.024491 C588.506682,324.307261 581.252858,312.241782 569.972362,304.217512 C558.691866,296.193241 543.355625,292.195643 526.362197,291.643247 C536.327432,293.955389 546.749248,293.329272 556.365991,289.840694 C565.460992,286.558993 573.262299,280.444318 578.621711,272.396628 C584.331329,263.481423 586.676377,252.823048 585.23592,242.334688 C584.232507,233.350812 580.805625,224.808731 575.321876,217.622261 C566.483549,206.632499 553.720307,200.367172 539.881348,197.023726 C526.042389,193.68028 511.156786,193.258715 498.10281,193.956478 C497.826613,193.956478 495.806008,194.043698 493.858088,194.159992 C492.539817,194.117764 491.224804,194.314769 489.976783,194.741461 L489.569755,194.741461 C489.366241,194.741461 489.162726,194.741461 489.14819,194.741461 C489.133653,194.741461 496.896262,192.6191 506.941137,188.417987 C516.986012,184.216875 529.284078,177.704423 538.224162,168.066577 C544.070807,161.732132 548.509809,154.231409 551.249065,146.05798 C554.025578,137.481315 554.636121,128.148739 551.249065,119.484853 C548.992164,113.943412 545.401951,109.044943 540.797162,105.224329 C537.985047,102.845456 534.912793,100.79241 531.639027,99.1043695 C513.773396,89.5973535 492.593393,91.3272234 475.556355,95.6737032 C458.519317,100.020183 445.596172,107.026883 444.27333,108.01538 C448.052878,81.0642979 445.727002,56.9914869 439.025574,38.4571669 C432.324145,19.9228468 421.2617,6.92701767 407.568108,2.11536281 C401.494021,0.049392819 395.009826,-0.51423334 388.67037,0.47271327 C385.383918,0.935334366 382.166647,1.7994574 379.09067,3.045713 C365.716886,8.64235082 355.410351,22.103355 349.741029,40.695822 C344.071708,59.288289 343.068674,83.0122186 348.287357,109.149244 C335.679786,105.799975 322.741575,103.849981 309.706898,103.334555 C290.910917,102.796697 270.036185,106.111069 258.741152,120.778621 C257.714581,122.094229 256.786553,123.483841 255.964638,124.936124 C255.064582,126.516246 254.277628,128.158162 253.609689,129.849536 C252.100778,134.351228 251.244112,139.045756 251.065763,143.790252 C250.954622,147.149849 251.2672,150.510064 251.996113,153.791516 C254.292915,163.967221 260.718146,173.32887 270.268772,180.975186 C279.819398,188.621501 292.49542,194.596094 307.308339,198.259348 L307.308339,198.259348 C294.22529,197.09641 277.406303,196.907433 262.113671,200.716054 C246.82104,204.524675 233.040228,212.345431 225.873624,227.100203 C221.935368,235.303299 220.562447,244.503391 221.934173,253.49889 C223.2908,262.543598 227.204727,271.012006 233.214669,277.906045 C239.505983,285.024765 247.228396,290.736082 255.877418,294.666885 C266.053123,299.43493 279.136172,302.909207 295.882476,303.708726 L308.50035,303.374382 L321.103688,303.040037 C316.490701,303.476139 312.086075,303.742645 307.889808,303.839557 C303.693541,303.936468 299.691097,303.892858 295.882476,303.708726 L277.856941,304.188438 L259.831406,304.66815 C245.765805,305.045605 232.338076,310.617621 222.137687,320.309662 C211.979001,329.919846 205.935722,343.090027 205.27509,357.058495 C204.541974,372.359938 210.214436,387.275465 220.930137,398.222857 C231.645837,409.170248 246.436631,415.160425 261.750253,414.754743 L303.17991,413.301071 L344.624103,411.847398 L345.089278,651.805062 L345.627137,891.908093 L431.829896,891.908093 C431.829896,860.988486 431.713603,755.800769 431.655456,650.598514 C431.597309,545.39626 431.539162,440.281226 431.481015,409.361619 Z" id="Path" fill="#BAB653"></path>
            <polygon id="Path" fill="#353519" points="431.132134 409.027274 406.826735 409.027274 382.521337 409.027274 406.826735 446.575626 431.132134 484.123978 431.132134 446.575626"></polygon>
            <path d="M489.976783,196.936506 L467.401254,196.936506 C466.196993,196.936506 465.220746,195.960259 465.220746,194.755998 C465.222838,194.178203 465.452663,193.624535 465.860362,193.215105 C466.267981,192.804702 466.822822,192.57439 467.401254,192.575486 L489.976783,192.575486 C490.558991,192.576894 491.117437,192.806535 491.532212,193.215105 C491.935927,193.626006 492.160646,194.179964 492.157431,194.755998 C492.163868,195.332645 491.938666,195.887793 491.532212,196.29689 C491.117437,196.705461 490.558991,196.935102 489.976783,196.936506 L489.976783,196.936506 Z" id="Path" fill="#666538"></path>
            <path d="M355.977283,118.758017 C355.704081,118.759407 355.432991,118.710118 355.177763,118.61265 C354.914509,118.501274 354.673282,118.343738 354.465464,118.147475 L350.642306,114.455148 L346.819148,110.76282 C346.42129,110.379657 346.182514,109.860581 346.150459,109.309148 C346.134422,108.729295 346.354807,108.167837 346.761001,107.753719 C347.612323,106.903456 348.991465,106.903456 349.842786,107.753719 L353.665944,111.446046 L357.503639,115.138373 C357.897342,115.523004 358.131023,116.042294 358.157791,116.592046 C358.177253,117.172493 357.956358,117.735251 357.547249,118.147475 C357.347333,118.370722 357.098603,118.544833 356.820413,118.65626 C356.547858,118.740993 356.262171,118.775472 355.977283,118.758017 Z" id="Path" fill="#666538"></path>
            <path d="M317.498581,302.996427 L304.880706,303.330772 L292.262832,303.665116 C296.071453,303.849248 300.078743,303.892858 304.284701,303.795947 C308.490659,303.699035 312.895286,303.432529 317.498581,302.996427 Z" id="Path" fill="#BAB653"></path>
            <path d="M312.84683,305.51128 L274.920523,305.51128 C273.716262,305.51128 272.740011,304.535033 272.740011,303.330772 C272.738916,302.75234 272.969227,302.197499 273.379631,301.789879 C273.784413,301.375268 274.341115,301.144185 274.920523,301.150263 L312.84683,301.150263 C313.426238,301.144185 313.98294,301.375268 314.387722,301.789879 C314.798126,302.197499 315.028437,302.75234 315.027342,303.330772 C315.027342,304.535033 314.051091,305.51128 312.84683,305.51128 L312.84683,305.51128 Z" id="Path" fill="#666538"></path>
            <path d="M902.412649,451.401818 L893.123684,451.648942 L883.820182,451.896067 C883.712778,451.904818 883.617169,451.828331 883.602131,451.721626 C883.591297,451.615403 883.658977,451.51696 883.762035,451.489038 C890.626441,449.164168 896.919045,445.408425 902.223671,440.470203 C906.875209,436.203714 910.209274,430.695697 911.832444,424.596103 C913.167378,418.730661 912.84016,412.60916 910.887557,406.91945 C906.994931,394.663121 897.236958,385.161506 884.881362,381.596481 C874.933418,378.448961 864.30256,378.151841 854.194343,380.738814 C863.82604,378.531317 872.430892,373.137918 878.616035,365.431646 C889.993112,351.591595 890.53182,331.797068 879.92434,317.358708 C870.251972,303.549155 852.568266,297.868502 836.663057,303.461602 C828.368864,306.269233 821.107448,311.500085 815.817398,318.478035 C820.214224,309.805365 821.843007,299.992076 820.483686,290.364016 C819.215567,281.000676 814.898633,272.315721 808.200156,265.651589 C801.307499,259.016446 792.456372,254.784628 782.964407,253.58611 C773.793331,252.255299 764.44603,254.184434 756.551184,259.037381 C747.145925,265.07012 740.880598,275.62378 738.976288,287.631112 C737.027408,300.740257 740.146287,314.099454 747.698321,324.990487 C747.837911,325.153686 747.837911,325.394219 747.698321,325.557419 C747.530423,325.699192 747.284749,325.699192 747.116852,325.557419 C739.169531,319.73717 729.223422,317.339634 719.497081,318.8996 C710.532979,320.134102 702.491634,325.05587 697.314043,332.476898 C692.211654,340.210434 691.179547,350.298919 693.970597,359.675105 C696.944593,369.737244 704.066872,378.054501 713.551561,382.541368 C713.551561,382.541368 713.551561,382.541368 713.551561,382.541368 C713.551561,382.541368 713.551561,382.541368 713.551561,382.541368 C701.5994,380.057546 689.150059,382.420881 678.939627,389.111966 C669.607052,395.275536 663.196358,404.549964 661.858979,414.362251 C660.696042,422.909844 663.312651,432.009831 668.851142,439.743367 C674.682969,448.002164 683.103232,454.079487 692.778586,457.012993 L683.22796,457.260117 L673.677334,457.521778 C647.366731,458.234883 626.607143,480.126458 627.290655,506.437846 L627.290655,506.437846 C627.636704,519.078668 632.991609,531.063929 642.176699,539.755549 C651.361789,548.447169 663.624208,553.132738 676.26487,552.780915 L715.514019,551.734271 L754.763167,550.702163 C755.751664,600.301458 756.740161,661.181248 757.670512,722.235479 C758.600862,783.289709 759.647506,844.125889 760.577856,893.768794 L796.846976,894.350263 L833.10156,894.946268 C831.953159,844.823652 830.790221,783.37693 829.64182,721.959281 C828.493419,660.541632 827.330482,599.051299 826.167544,548.972293 L865.416692,547.92565 L904.665841,546.879006 C930.982967,546.180533 951.75099,524.280064 951.052518,497.962937 C950.354046,471.645811 928.453577,450.877788 902.136451,451.576259 L902.412649,451.401818 Z" id="Path" fill="#666538"></path>
            <path d="M729.934447,384.474752 L713.449804,384.474752 C712.446253,384.474752 711.6327,383.661213 711.6327,382.657661 C711.630805,382.175896 711.824976,381.714085 712.170573,381.37843 C712.505252,381.031405 712.967702,380.836966 713.449804,380.840571 L729.934447,380.840571 C730.415548,380.841959 730.876132,381.035614 731.213678,381.37843 C731.559275,381.714085 731.753446,382.175896 731.751551,382.657661 C731.752411,383.143478 731.558707,383.609415 731.213678,383.95143 C730.871114,384.284928 730.412533,384.472529 729.934447,384.474752 Z" id="Path" fill="#2B3D0A"></path>
            <path d="M885.593662,454.251015 L834.162741,454.251015 C833.15919,454.251015 832.34541,453.437476 832.34541,452.433925 C832.337709,451.949612 832.526601,451.4828 832.869108,451.140293 C833.211615,450.797786 833.678428,450.608894 834.162741,450.616835 L885.593662,450.616835 C886.071748,450.619057 886.530329,450.806659 886.872893,451.140157 C887.217922,451.482172 887.411626,451.948108 887.410766,452.433925 C887.412661,452.915691 887.21849,453.377502 886.872893,453.713157 C886.535347,454.055973 886.074763,454.249627 885.593662,454.251015 L885.593662,454.251015 Z" id="Path" fill="#2B3D0A"></path>
            <path d="M1064.11914,461.025128 C1063.74119,466.272884 1062.75269,480.693312 1062.83991,498.820604 C1062.92713,516.947896 1064.09007,538.825662 1067.98591,558.959021 C1068.95987,563.97419 1070.02105,569.454534 1071.56194,575.574494 C1073.30117,582.48387 1075.46149,589.28037 1078.03078,595.925904 C1080.16768,601.493469 1081.69404,604.778768 1083.46752,608.514705 C1085.241,612.250643 1087.2616,616.480829 1090.387,623.92363 C1093.51239,631.366432 1095.94002,637.995177 1097.90248,643.882549 C1099.86494,649.769921 1101.33315,654.799627 1102.39433,658.695468 C1104.23511,665.500568 1105.59044,672.427771 1106.45007,679.424833 C1107.35135,686.475143 1107.90375,693.845261 1108.16541,701.971289 C1108.73927,718.642878 1108.20022,735.334181 1106.55183,751.934001 C1104.95279,768.752988 1102.45247,786.16798 1099.47245,805.58904 C1097.69897,817.218418 1095.63475,830.11249 1093.2798,844.329403 C1090.92485,858.546317 1088.26463,874.013389 1085.28461,890.570715 L1074.97807,890.701545 L1064.68607,890.832376 C1068.32025,874.551248 1072.59405,854.272521 1076.78062,831.391721 C1080.9672,808.510921 1085.06656,783.042585 1088.41,756.338627 C1089.95418,744.963974 1090.92453,733.518769 1091.31735,722.046501 C1091.69226,708.375704 1090.74295,694.700714 1088.48269,681.21285 C1086.95633,672.25823 1084.93573,663.885078 1083.08956,657.140039 C1081.2434,650.395 1079.57168,645.321684 1078.72855,642.923125 C1075.7872,634.184544 1072.39066,625.605843 1068.55284,617.222202 C1065.55828,610.637067 1063.20333,606.203367 1062.31659,604.444423 C1057.73752,595.475266 1053.17299,581.592697 1049.9313,559.133462 C1046.68961,536.674227 1044.77076,505.594716 1045.57028,462.231676 L1054.90286,461.621133 L1064.11914,461.025128 Z" id="Path" fill="#F4ECE5"></path>
            <path d="M1126.20548,461.475766 L1057.12698,464.179596 L988.033939,466.897963 C986.934591,466.925673 985.921443,466.305262 985.446403,465.313461 C984.893302,464.288199 984.893302,463.053423 985.446403,462.028161 L1000.85533,433.943215 L1016.24972,405.872806 C1019.78164,399.32261 1024.88075,393.749046 1031.09171,389.649825 C1037.04636,385.74005 1043.94819,383.51479 1051.06516,383.210057 L1051.06516,383.210057 C1057.60688,382.988311 1064.10105,384.397045 1069.9629,387.309412 C1076.06934,390.368776 1081.38727,394.796241 1085.50266,400.247095 L1106.84256,428.24482 L1128.18247,456.22801 C1128.91091,457.185401 1129.08208,458.45537 1128.63311,459.571456 C1128.27692,460.634147 1127.32242,461.382884 1126.20548,461.475766 L1126.20548,461.475766 Z" id="Path" fill="#F98638"></path>
            <path d="M1084.63045,432.184272 C1084.04561,434.291543 1082.50663,436.00272 1080.47295,436.806949 C1078.12278,437.795697 1075.51279,437.984679 1073.04469,437.344808 C1070.55668,436.777959 1068.32135,435.415324 1066.6776,433.463503 C1065.18198,431.846972 1064.59567,429.58866 1065.11604,427.448734 C1065.6364,425.308808 1067.19423,423.571883 1069.26514,422.822623 C1074.10729,420.898431 1079.63657,422.238509 1083.06049,426.166069 C1084.49428,427.817228 1085.07495,430.043126 1084.63045,432.184272 L1084.63045,432.184272 Z" id="Path" fill="#AD4D4D"></path>
            <path d="M1096.60871,446.139525 C1096.25964,447.451856 1095.31917,448.526683 1094.06479,449.046869 C1091.10425,450.223409 1087.7235,449.401536 1085.63349,446.997191 C1084.76817,445.982443 1084.41471,444.627541 1084.67406,443.319401 C1085.0428,442.034579 1085.9804,440.989827 1087.21799,440.48474 C1090.17853,439.3082 1093.55928,440.130073 1095.64929,442.534418 C1096.49289,443.531779 1096.84498,444.854779 1096.60871,446.139525 Z" id="Path" fill="#AD4D4D"></path>
            <path d="M662.280544,279.664989 C661.699075,287.500282 660.245403,308.985556 660.376234,336.023858 C660.507064,363.062161 662.236934,395.624417 668.037086,425.686357 C669.490758,433.143696 671.060724,441.32787 673.372063,450.398784 C675.964798,460.72185 679.183363,470.877562 683.009909,480.809606 C686.193451,489.124611 688.475717,494.008949 691.106863,499.59105 C693.73801,505.173151 696.761648,511.467552 701.427936,522.55907 C706.094223,533.650589 709.69933,543.506486 712.606675,552.272129 C715.514019,561.037772 717.709064,568.538721 719.308103,574.367946 C719.308103,574.367946 721.09612,581.316499 723.058577,592.829583 C725.669397,608.006454 727.300881,623.335603 727.942916,638.722013 C728.786046,660.396265 727.027102,694.208679 722.128227,737.368206 C717.229352,780.527732 709.161471,833.048907 697.4158,892.140681 L669.156414,892.140681 C670.610086,884.87232 672.49986,876.150287 674.520464,865.974582 C676.541068,855.798877 678.75065,844.329403 681.061989,831.755139 C685.423005,807.696865 688.679231,788.770053 691.339451,771.325987 C693.999671,753.881921 696.092959,737.891528 698.331614,719.865993 C700.610144,702.911157 702.036536,685.852674 702.60541,668.75488 C703.174679,648.376669 701.753028,627.991556 698.360687,607.889626 C696.107495,594.515842 693.083857,582.043335 690.336417,571.998461 C687.588977,561.953586 685.08866,554.365417 683.896649,550.789384 C679.525214,537.771688 674.488891,524.986802 668.807532,512.485122 C664.330222,502.672835 660.826872,496.058627 659.489494,493.442017 C652.671771,480.068233 645.868586,459.382478 641.042394,425.889872 C636.216202,392.397265 633.352468,346.097807 634.413649,281.438469 L648.354365,280.551729 L662.280544,279.664989 Z" id="Path" fill="#F4ECE5"></path>
            <path d="M754.763167,280.260994 L651.755958,284.302203 L548.806895,288.387667 C547.166634,288.415734 545.660745,287.483787 544.954664,286.002999 C544.132817,284.473447 544.132817,282.633676 544.954664,281.104124 L567.908147,239.252903 L590.861631,197.401681 C596.1347,187.645466 603.734437,179.341679 612.986521,173.227113 C621.865928,167.396682 632.159212,164.081129 642.772264,163.632877 L642.772264,163.632877 C652.558476,163.279538 662.277764,165.378304 671.046187,169.7383 C680.154468,174.295449 688.081281,180.903614 694.203185,189.043066 L726.024069,230.74892 L757.859489,272.396628 C758.939714,273.831945 759.198328,275.724779 758.542715,277.39726 C757.990033,279.037086 756.491367,280.172614 754.763167,280.260994 L754.763167,280.260994 Z" id="Path" fill="#F98638"></path>
            <path d="M692.836733,236.607219 C691.976071,239.748076 689.687334,242.300691 686.658626,243.497625 C679.44053,246.39376 671.17994,244.391369 666.089165,238.51153 C663.862231,236.101874 662.989296,232.737467 663.763747,229.549066 C664.538199,226.360665 666.857217,223.771572 669.941397,222.651967 C673.446353,221.17687 677.340426,220.900912 681.018378,221.866984 C684.732656,222.716509 688.066644,224.758768 690.510858,227.681672 C692.636099,230.1311 693.496297,233.432109 692.836733,236.607219 L692.836733,236.607219 Z" id="Path" fill="#AD4D4D"></path>
            <path d="M710.687827,257.409268 C710.16259,259.331512 708.761991,260.893719 706.90828,261.624917 C702.498765,263.385337 697.458111,262.160178 694.348552,258.572206 C692.98663,257.099221 692.452636,255.04219 692.926114,253.092746 C693.399592,251.143302 694.817652,249.560383 696.703501,248.876212 C701.112688,247.111173 706.156082,248.336998 709.263229,251.928924 C710.575175,253.429143 711.103106,255.460062 710.687827,257.409268 Z" id="Path" fill="#AD4D4D"></path>
            <path d="M627.072604,892.082534 C614.16127,885.896329 603.978046,875.174967 598.464336,861.962447 C593.130518,849.516141 592.81281,835.490108 597.577596,822.815055 C601.732664,812.365133 609.177716,803.552518 618.786673,797.710137 C628.809738,791.543201 640.468128,788.562708 652.221133,789.162545 C645.526154,773.716458 642.438904,756.947865 643.193829,740.130183 C643.964275,723.194902 648.81954,706.928311 658.689974,695.066346 C670.0441,681.632542 685.536185,672.347517 702.736241,668.667659 C711.491123,666.627942 720.500872,665.90285 729.469272,666.516225 C747.766693,667.910452 765.439761,673.786498 780.929266,683.625946 C795.274349,692.667672 806.541501,705.845628 813.244398,721.421422 C817.075699,731.042391 819.816034,741.062655 821.414036,751.294385 C823.013075,761.135746 823.43464,769.988609 822.562437,775.120072 C840.394433,765.135572 861.267352,762.032561 881.232645,766.398039 C918.031461,773.709197 943.645649,807.253068 941.007645,844.678285 C939.98089,862.000744 933.566886,878.569409 922.662302,892.067997 L627.072604,892.067997 L627.072604,892.082534 Z" id="Path" fill="#353519"></path>
            <path d="M582.924581,661.370225 C579.519228,675.402419 578.080866,689.839851 578.650785,704.268091 C579.185394,718.753215 582.209582,733.038203 587.590869,746.497267 C591.233443,755.428477 596.038073,763.840246 601.880466,771.514965 C607.709325,779.203232 614.623367,786.004652 622.406317,791.706471 C630.641409,797.796012 640.236102,801.787564 650.360433,803.335848 C659.954669,804.789521 669.97047,804.353419 680.887548,803.059651 C688.083037,802.018793 695.403497,802.215448 702.532726,803.64112 C709.662493,805.165539 716.078516,809.028456 720.761775,814.616344 C725.347936,820.264899 728.580119,826.888389 730.210644,833.979258 C731.891102,841.052546 732.749603,848.296147 732.769107,855.566289 L733.161599,873.853485 L733.55409,892.140681 L768.558516,892.140681 C768.558516,892.140681 768.863787,886.325992 768.921934,878.141818 C769.048931,868.775276 768.655834,859.408907 767.74446,850.085945 C766.927989,842.227001 765.469445,834.448098 763.383443,826.827191 C760.624157,816.898995 756.447925,807.420465 750.98362,798.684098 C747.463963,793.010597 743.189847,787.841559 738.278525,783.318783 C733.385684,778.776554 727.731969,775.130424 721.575832,772.547072 C714.535996,769.881465 707.049532,768.593418 699.523625,768.752988 C691.979067,768.752988 684.347288,769.436214 676.919023,769.726948 C669.332301,770.056586 661.743332,769.128227 654.459788,766.979508 C647.151716,764.844364 640.389087,761.160615 634.6317,756.178723 C616.664312,740.479064 612.303295,718.10705 613.756967,694.891905 C615.21064,671.676761 622.755198,647.574876 628.380909,628.27011 C631.142887,618.792167 634.195598,608.427485 637.698948,597.292356 C641.202298,586.157227 644.967309,574.237116 649.182958,561.619241 L632.669242,555.659185 L616.14099,549.69913 C611.867194,561.638624 607.704846,573.970609 603.653946,586.695086 C599.603046,599.419563 595.726587,612.536532 592.024569,626.045992 C590.367382,632.035121 588.778034,637.975794 587.256524,643.868012 C585.735014,649.76023 584.291033,655.594301 582.924581,661.370225 Z" id="Path" fill="#BAB653"></path>
            <path d="M617.362074,670.048648 L619.557119,661.03588 L621.766701,652.008576 C621.897532,651.456181 622.013825,651.020079 622.115582,650.642125 C622.217339,650.26417 622.30456,649.915288 622.377243,649.595481 C622.580758,648.810498 622.842418,647.763854 623.249447,646.266571 C623.656475,644.769289 624.194334,642.850442 624.935706,640.306515 C627.843051,630.13081 629.878192,624.039924 631.535378,618.893925 C633.192564,613.747925 634.442722,609.546812 636.027225,603.121582 C636.972112,599.123983 637.277383,597.306893 637.640801,595.111848 C638.004219,592.916803 638.440321,590.27112 639.661405,584.558188 C640.998784,578.263788 642.365236,572.565393 643.62993,567.622907 C644.894625,562.680422 646.101173,558.464773 647.075133,555.121327 L627.043531,551.836028 L607.011929,548.594339 C605.645477,554.409027 603.871997,561.895439 601.99676,569.861562 C600.121523,577.827686 598.159065,586.200838 596.414659,593.643639 C592.271693,611.276682 589.146298,624.621393 586.675055,636.512431 C584.203812,648.403469 582.314039,658.855372 580.787683,670.688264 C580.380655,673.799122 580.031773,676.633783 579.741039,679.105025 C579.450304,681.576268 579.217717,683.713166 579.043276,685.399426 L607.578861,674.002636 L617.362074,670.092258 L617.362074,670.048648 Z" id="Path" fill="#353519"></path>
            <path d="M616.504408,746.817075 C611.650618,737.15148 603.617121,729.451643 593.754439,725.011992 C586.675984,721.653854 578.891793,720.053134 571.062616,720.345705 C571.062616,719.197304 571.164373,718.063439 571.1353,716.929575 C571.038498,706.288244 566.515809,696.167602 558.652778,688.996827 C550.789746,681.826051 540.296303,678.25257 529.691106,679.134099 C526.910953,679.337343 524.158881,679.824435 521.477859,680.587771 C520.280942,663.625181 507.268499,649.870213 490.398348,647.73478 C482.273522,646.684184 474.091493,649.200114 467.960684,654.63424 C461.829874,660.068367 458.349917,667.889197 458.416592,676.081387 C458.490151,693.973556 471.831257,709.032081 489.584291,711.260254 C490.151224,711.260254 490.732692,711.332937 491.314161,711.362011 C490.335259,715.074792 489.875404,718.905283 489.947709,722.744264 C490.044511,733.385594 494.5672,743.506237 502.430231,750.677012 C510.293263,757.847788 520.786706,761.421269 531.391903,760.53974 C534.108141,760.321663 536.796054,759.834722 539.416173,759.086068 C540.02568,761.38377 540.853183,763.618027 541.887416,765.758423 C552.124943,785.412041 574.286992,795.738829 595.92041,790.936025 C605.485573,788.493856 613.364476,782.679167 617.420221,774.029818 C621.475967,765.380468 620.792741,755.699012 616.504408,746.817075 Z" id="Path" fill="#BAB653"></path>
            <path d="M596.312902,763.737819 C596.172788,763.752956 596.031451,763.752956 595.891337,763.737819 C595.743354,763.706767 595.601122,763.652817 595.469772,763.577915 C588.201411,759.725684 581.078417,755.655402 574.028107,751.410679 C566.977797,747.165956 560.058318,742.688646 553.284206,738.182262 C537.022837,727.187442 521.458125,715.195914 506.679476,702.27656 C491.790953,689.28236 477.712422,675.388307 464.522983,660.672462 C464.196808,660.316786 464.028257,659.844363 464.055633,659.362547 C464.083009,658.880731 464.303986,658.430441 464.668351,658.113999 C465.023102,657.787568 465.495456,657.61962 465.976655,657.648824 C466.454928,657.677735 466.903226,657.891458 467.226814,658.24483 C480.326661,672.847568 494.308056,686.634777 509.092572,699.529119 C523.75794,712.348231 539.206376,724.242847 555.34842,735.144087 C562.064385,739.679544 568.925718,744.040561 575.932418,748.227137 C582.924581,752.442786 590.033038,756.469458 597.199642,760.292616 C597.625746,760.51807 597.944799,760.903606 598.086569,761.364362 C598.22834,761.825117 598.18121,762.323325 597.955551,762.749322 C597.794929,763.043086 597.559145,763.288903 597.272325,763.461621 C596.986613,763.64598 596.652904,763.742047 596.312902,763.737819 Z" id="Path" fill="#666538"></path>
            <path d="M702.430969,442.941446 C739.078045,405.625682 746.927874,377.264538 737.537152,368.106403 C728.14643,358.948268 701.515156,368.993143 669.21456,408.445806 C683.14074,357.56728 674.898419,329.831215 661.161217,329.220673 C647.424015,328.61013 628.162859,355.052427 620.080441,412.472477 C605.819917,355.561212 583.54966,331.372108 569.986899,334.090474 C556.424137,336.808841 551.583409,366.43468 572.19648,417.167839 C534.866179,380.520763 506.519572,372.670934 497.361437,382.061656 C488.203303,391.452378 498.233641,418.083652 537.70084,450.384247 C486.822314,436.458068 459.086249,444.700389 458.46117,458.452128 C457.836091,472.203867 484.307461,491.435949 541.727512,499.532903 C484.80171,513.77889 460.612605,536.063685 463.330972,549.611909 C466.049339,563.160134 495.675178,568.015399 546.422873,547.416864 C509.761261,584.732629 501.911431,613.079236 511.302153,622.23737 C520.692876,631.395505 547.338686,621.365167 579.624745,581.912505 C565.713103,632.79103 573.940887,660.527095 587.692626,661.137638 C601.444364,661.74818 620.676447,635.291346 628.773401,577.871296 C643.019388,634.797098 665.304182,658.986203 678.866944,656.267836 C692.429705,653.549469 697.270433,623.92363 676.657362,573.175935 C713.973126,609.837547 742.33427,617.687377 751.492405,608.296654 C760.650539,598.905932 750.620202,572.260122 711.153002,539.974063 C762.031528,553.900242 789.767593,545.657921 790.392672,531.906182 C791.017751,518.154444 764.546381,498.922361 707.12633,490.825407 C764.037596,476.57942 788.241237,454.294626 785.52287,440.746401 C782.804503,427.198176 753.135054,422.328375 702.430969,442.941446 Z" id="Path" fill="#F4ECE5"></path>
            <path d="M655.331991,495.898723 C655.747605,512.470571 644.402333,527.029572 628.231317,530.676093 C612.060301,534.322614 595.564679,526.041661 588.827903,510.895218 C582.091127,495.748775 586.988351,477.952795 600.525998,468.385612 C614.063645,458.818429 632.473565,460.143031 644.502134,471.549714 C651.215796,477.896302 655.114852,486.662636 655.331991,495.898723 Z" id="Path" fill="#DEB8FC"></path>
            <path d="M972.029009,380.317249 C972.232523,391.859406 971.796421,402.253162 971.098658,411.30954 C970.400896,420.365917 969.412399,428.07038 968.511122,434.263023 C965.099201,457.012571 960.224134,479.518482 953.916253,501.640728 C947.752683,524.012742 940.498859,547.445938 932.678103,575.472737 C925.758624,600.286921 920.234669,620.115009 915.626529,639.085431 C911.018388,658.055853 907.355134,676.212218 904.142519,697.682956 C902.616163,707.858661 900.784536,721.217908 899.156423,737.179228 C897.52831,753.140549 896.132785,771.718479 895.464096,792.28794 C894.853553,810.982164 894.926237,828.702428 895.464096,845.332437 C896.001954,861.962447 897.063135,877.487665 898.37144,891.849946 C892.876559,891.719116 887.265385,891.660969 881.508843,891.690042 C875.752301,891.719116 869.879466,891.806336 863.83219,892.00985 C858.531132,892.184291 853.331831,892.416879 848.234287,892.707613 C843.136744,892.998347 838.155494,893.352074 833.290537,893.770489 C830.383193,894.001381 830.499487,870.262915 831.502521,845.579561 C832.505554,820.896208 834.322645,795.282505 834.584306,791.793691 C836.459543,766.557943 838.945322,742.00542 842.405062,717.656411 C845.864802,693.307402 850.283965,668.92932 856.011433,644.18782 C859.471173,629.273144 863.090817,614.37785 866.870364,599.501938 C870.649912,584.626026 874.710503,569.847026 879.052137,555.164937 C891.117616,514.258602 900.0577,489.473492 906.293953,468.627833 C912.733247,448.254661 916.448131,427.118927 917.341862,405.771049 C918.112308,390.580175 917.937867,374.691538 917.443619,360.561845 C916.94937,346.432151 916.10624,334.061401 915.553845,325.86269 C914.100173,305.336839 912.239473,286.540858 910.102574,269.823628 C907.965676,253.106398 905.625264,238.453383 903.459293,226.213463 L928.360697,222.070498 L953.262101,217.942069 C956.04346,242.819245 958.664916,264.798768 961.126467,283.880638 C963.5541,302.93828 965.763682,319.059504 967.609845,332.171627 C968.278534,336.910598 969.296105,343.393976 970.197382,351.476394 C971.098658,359.558811 971.825494,369.123974 972.029009,380.317249 Z" id="Path" fill="#BAB653"></path>
            <path d="M914.856082,431.181238 C915.190427,428.055843 915.466625,425.206646 915.713749,422.706329 C915.960873,420.206013 916.178924,418.040042 916.338828,416.281099 C916.338828,416.281099 917.225568,406.803156 917.981478,395.159242 C918.737387,383.515328 919.347929,369.690906 918.780997,361.012483 C918.780997,360.18389 918.664703,359.282613 918.621093,358.599387 C918.577483,357.916161 918.533873,357.436449 918.533873,357.436449 C918.533873,356.288048 918.344896,354.732619 918.170455,352.523038 C917.996014,350.313456 917.719817,347.435185 917.341862,343.655637 C915.771896,327.752464 914.260077,313.884431 913.155286,303.999461 C912.050495,294.11449 911.323659,288.183508 911.323659,288.183508 C910.291552,279.752209 909.128614,270.288803 907.820309,259.909584 C906.512004,249.530365 905.029259,238.206259 903.459293,226.068096 L928.360697,221.92513 L953.262101,217.796702 C955.587976,230.981508 957.623117,243.192354 959.29484,254.254799 C960.966563,265.317244 962.420236,275.202215 963.655857,283.764344 C968.641952,320.106148 970.924218,345.589021 971.781884,363.541872 C972.46629,375.013963 972.534226,386.514527 971.985398,397.993903 C971.520223,407.035744 970.822461,415.176308 970.124698,421.805053 C969.426935,428.433798 968.671026,433.594334 968.278534,436.661582 C966.650422,448.160129 964.658891,458.728326 962.551066,468.264415 C960.443241,477.800504 958.19005,486.28995 956.140372,493.616458 C949.279039,483.208165 942.412861,472.799872 935.541837,462.39158 L914.856082,431.181238 Z" id="Path" fill="#666538"></path>
            <path d="M1177.78177,531.571838 C1173.41375,519.871834 1164.28281,510.577082 1152.66231,506.001744 C1128.48288,496.610388 1101.03568,505.583045 1087.07262,527.443409 C1084.02705,524.484376 1080.69097,521.839863 1077.11497,519.549969 C1063.52966,510.663377 1046.85878,507.831553 1031.10108,511.733748 C1015.34338,515.635944 1001.92052,525.920102 994.052142,540.11943 C993.194475,541.573102 992.409492,543.172142 991.682656,544.756644 C981.383955,538.671519 969.771173,535.156272 957.826632,534.508255 C940.106368,533.418001 923.694409,538.331413 911.4981,547.12613 C899.30179,555.920846 891.32113,568.640478 890.43439,583.148126 C889.54765,597.655774 895.943808,611.247609 906.977179,621.466924 C918.010551,631.68624 933.71021,638.533035 951.445011,639.608753 C969.179811,640.68447 985.577233,635.785595 997.773543,626.976342 C1000.7136,624.86304 1003.44444,622.472946 1005.92864,619.838811 C1008.92351,622.707439 1012.19027,625.278002 1015.68278,627.5142 C1029.26627,636.401948 1045.93576,639.235987 1061.69323,635.336604 C1077.45071,631.437221 1090.8747,621.15618 1098.74561,606.959276 C1101.59875,601.874458 1103.73644,596.42018 1105.09816,590.750831 C1105.89768,591.128786 1106.6972,591.477668 1107.51125,591.812012 C1132.93778,601.730225 1161.77518,591.232018 1174.87442,567.288563 C1180.86703,556.334684 1181.92393,543.350688 1177.78177,531.571838 Z" id="Path" fill="#BAB653"></path>
            <path d="M932.256538,583.962217 L927.532104,583.962217 C927.074253,583.965009 926.632484,583.793499 926.296482,583.482471 C925.960793,583.135444 925.773154,582.671522 925.773154,582.188702 C925.773154,581.711298 925.966227,581.254211 926.311019,580.924008 C926.648566,580.581191 927.109149,580.387537 927.590251,580.386149 L927.590251,580.386149 C940.004611,580.473369 952.477118,580.226245 964.935088,579.659313 C977.393059,579.092381 989.821956,578.205641 1002.1491,577.01363 C1031.76794,574.118214 1061.17883,569.389558 1090.21256,562.854863 C1119.40194,556.247063 1148.16063,547.863157 1176.32809,537.749944 C1176.79079,537.544082 1177.31907,537.544082 1177.78177,537.749944 C1178.2225,537.948834 1178.55988,538.32311 1178.71212,538.782052 C1178.87942,539.232859 1178.85809,539.732051 1178.65295,540.166947 C1178.44781,540.601843 1178.07615,540.935784 1177.62186,541.09339 C1149.28916,551.241707 1120.35993,559.640359 1090.99754,566.241919 C1061.82093,572.817488 1032.26422,577.575302 1002.49798,580.487906 C990.8686,581.62177 979.185921,582.469746 967.449941,583.031832 C955.713961,583.593919 943.982827,583.904036 932.256538,583.962217 Z" id="Path" fill="#666538"></path>
            <path d="M806.993608,297.646913 L806.993608,297.646913 L806.993608,297.646913 L806.993608,297.646913 C793.644754,317.098287 793.673115,342.766864 807.064921,362.188691 C820.456727,381.610519 844.438207,390.762859 867.364613,385.201588 L867.437297,385.201588 L867.437297,385.201588 L867.437297,385.201588 C871.711501,408.443461 889.900816,426.627675 913.143887,430.895361 C936.386959,435.163047 959.849703,424.626614 972.101692,404.419134 L972.101692,404.419134 L972.101692,404.419134 L972.101692,404.419134 C991.548362,417.781273 1017.22246,417.761758 1036.6488,404.37007 C1056.07513,390.978382 1065.22657,366.990653 1059.65637,344.062666 L1059.65637,343.989982 L1059.65637,343.917298 L1059.65637,343.917298 C1082.89824,339.643094 1101.08245,321.453779 1105.35014,298.210708 C1109.61783,274.967636 1099.08139,251.504892 1078.87391,239.252903 L1078.87391,239.252903 L1078.87391,239.252903 L1078.87391,239.180219 C1092.12621,219.747999 1092.06269,194.166291 1078.71404,174.800127 C1065.36539,155.433962 1041.48067,146.271652 1018.60466,151.741838 L1018.4593,151.741838 C1014.17095,128.510632 995.983229,110.340204 972.747954,106.073949 C949.512679,101.807695 926.056325,112.331808 913.794902,132.524292 L913.794902,132.524292 L913.794902,132.524292 L913.794902,132.524292 C894.346039,119.168704 868.674316,119.194272 849.252094,132.588574 C829.829873,145.982876 820.682748,169.969708 826.254764,192.895297 L826.254764,193.040665 L826.254764,193.040665 C803.023557,197.329016 784.85313,215.516733 780.586875,238.752008 C776.32062,261.987283 786.844734,285.443637 807.037218,297.70506 L806.993608,297.646913 Z" id="Path" fill="#DEB8FC"></path>
            <path d="M880.171465,269.954459 C879.481289,299.646623 899.859653,325.692269 928.845862,332.165344 C957.83207,338.638419 987.354681,323.736445 999.361593,296.571485 C1011.3685,269.406525 1002.5163,237.542881 978.217804,220.464117 C953.919309,203.385354 920.940638,205.84719 899.447158,226.344294 C887.473691,237.736102 880.536271,253.431622 880.171465,269.954459 L880.171465,269.954459 Z" id="Path" fill="#F4ECE5"></path>
            <path d="M1156.51454,789.482353 C1169.7042,788.146755 1181.77876,781.49 1189.949,771.04979 C1197.56705,761.805036 1201.08964,749.855478 1199.70446,737.956681 C1198.31928,726.057884 1192.14593,715.237061 1182.60796,707.989491 C1173.35,700.700409 1161.77148,696.999204 1150.00209,697.566662 C1164.49592,692.619238 1176.25016,681.819471 1182.40444,667.795456 C1188.41253,655.201173 1188.78397,640.646702 1183.42612,627.76235 C1178.06827,614.877999 1167.48624,604.878438 1154.3195,600.257847 C1141.24999,595.327367 1126.79217,595.566511 1113.89287,600.926537 C1117.13047,596.710726 1119.79907,592.087103 1121.82992,587.174798 C1130.43366,567.045022 1126.63919,543.757142 1112.09032,527.399799 C1108.00023,522.589037 1103.22467,518.406137 1097.91702,514.985438 C1087.15936,510.043309 1075.14429,508.521129 1063.49406,510.624422 C1038.157,514.9361 1019.87661,537.267087 1020.65434,562.95662 C1020.82286,576.985696 1026.07584,590.477139 1035.43819,600.926537 C1021.20918,595.964967 1005.55954,597.128294 992.220515,604.139152 C979.748008,610.66614 970.299139,621.786732 967.115597,634.855245 C964.121032,647.211458 966.912083,660.541632 974.020539,671.662224 C981.525092,683.423364 993.259613,691.853485 1006.80085,695.211713 C994.606806,693.9057 982.306739,696.393125 971.57837,702.334707 C961.750176,707.679039 954.144436,716.346284 950.122169,726.785472 C947.57807,733.82498 946.726518,741.36445 947.63639,748.794069 C948.598413,757.163994 951.983469,765.070878 957.375993,771.544038 C962.98389,778.16086 970.423913,782.970827 978.759511,785.368461 C983.205452,786.719151 987.821295,787.428905 992.467639,787.476285 C968.495836,793.058517 951.532878,814.424856 951.532231,839.038037 L951.532231,839.038037 C951.53223,868.279857 975.233152,891.987287 1004.47497,891.995314 L1137.92208,891.995314 C1167.15255,891.987294 1190.84877,868.297577 1190.86482,839.06711 L1190.86482,839.06711 C1190.88939,828.136888 1187.51637,817.469201 1181.21243,808.539995 C1175.06505,799.866109 1166.46382,793.22914 1156.51454,789.482353 L1156.51454,789.482353 Z" id="Path" fill="#666538"></path>
            <path d="M1018.72096,789.322449 L992.467639,789.322449 C991.464088,789.322449 990.650535,788.50891 990.650535,787.505359 C990.64864,787.023593 990.842811,786.561782 991.188408,786.226127 C991.523086,785.879102 991.985537,785.684663 992.467639,785.688268 L1018.72096,785.688268 C1019.72122,785.696176 1020.53014,786.505101 1020.53805,787.505359 C1020.53805,788.50891 1019.72451,789.322449 1018.72096,789.322449 L1018.72096,789.322449 Z" id="Path" fill="#2B3D0A"></path>
            <path d="M1092.65472,614.387541 C1092.33314,614.386336 1092.01745,614.301149 1091.73891,614.140417 C1091.45375,613.976726 1091.22164,613.734524 1091.07022,613.442654 C1090.8312,613.023269 1090.77346,612.524573 1090.91032,612.061665 C1091.04712,611.598083 1091.36028,611.206641 1091.78252,610.971411 L1102.40886,605.156723 L1113.02067,599.342034 C1113.44059,599.104631 1113.93861,599.046965 1114.40166,599.18213 C1114.86524,599.318934 1115.25668,599.632088 1115.49191,600.054333 C1115.96763,600.938091 1115.64351,602.040095 1114.76508,602.525576 L1104.15327,608.340265 L1093.52693,614.154953 C1093.39558,614.229855 1093.25335,614.283805 1093.10536,614.314857 C1092.9594,614.360511 1092.80764,614.384988 1092.65472,614.387541 L1092.65472,614.387541 Z" id="Path" fill="#2B3D0A"></path>
            <path d="M1024.39028,697.057877 L1004.30053,697.057877 C1003.29698,697.057877 1002.48344,696.244338 1002.48344,695.240786 C1002.48344,694.237235 1003.29698,693.423696 1004.30053,693.423696 L1024.39028,693.423696 C1025.39383,693.423696 1026.20737,694.237235 1026.20737,695.240786 C1026.20737,696.244338 1025.39383,697.057877 1024.39028,697.057877 L1024.39028,697.057877 Z" id="Path" fill="#2B3D0A"></path>
            <path d="M298.804384,328.770034 C298.827159,349.407112 284.265394,367.184929 264.028013,371.226943 C243.790631,375.268956 223.516995,364.448814 215.610601,345.386327 C207.704207,326.323839 214.368257,304.330972 231.525657,292.863054 C248.683056,281.395136 271.552712,283.647826 286.142872,298.242919 C294.250524,306.332981 298.806075,317.316515 298.804384,328.770034 Z" id="Path" fill="#353519"></path>
            <path d="M261.619443,367.670301 C261.639348,388.299315 247.081567,406.068489 226.851815,410.107516 C206.622063,414.146543 186.356928,403.330034 178.453625,384.274998 C170.550322,365.219962 177.210937,343.235677 194.360833,331.77105 C211.510729,320.306423 234.371453,322.555826 248.957938,337.143186 C257.06559,345.233248 261.621141,356.216782 261.619443,367.670301 L261.619443,367.670301 Z" id="Path" fill="#353519"></path>
            <path d="M228.679212,347.580552 C226.231357,347.515459 223.846201,346.79238 221.774269,345.487264 C219.656798,344.212361 217.793754,342.556322 216.279388,340.602926 C214.781633,338.63811 213.581578,336.463317 212.717891,334.148621 C211.858522,331.810803 211.330089,329.364355 211.147925,326.880261 L210.944411,326.880261 L210.726361,326.880261 C210.252934,326.967813 209.764313,326.85748 209.374445,326.574989 C208.763894,326.161923 208.46638,325.418723 208.623239,324.698451 C208.780098,323.978178 209.359717,323.425998 210.086745,323.304227 L210.63914,323.20247 L211.206072,323.11525 C211.206072,322.751832 211.206072,322.40295 211.322366,322.039532 C211.43866,321.676114 211.43866,321.34177 211.511343,320.992888 C211.609053,320.520589 211.88498,320.104095 212.28179,319.829951 C212.68327,319.561831 213.176111,319.467457 213.648242,319.56829 C214.125509,319.653839 214.546295,319.932609 214.811179,320.338736 C215.074728,320.742076 215.168738,321.233017 215.07284,321.705188 L214.98562,322.170363 C214.98562,322.330267 214.98562,322.490171 214.912936,322.650075 C218.61933,322.277826 222.361728,322.518479 225.989918,323.362374 C229.698386,324.222197 233.052845,326.201379 235.598691,329.031695 C236.920261,330.541867 237.884218,332.330653 238.418815,334.264915 C238.938661,336.084946 238.97374,338.009248 238.520572,339.847016 C237.699127,342.933449 235.507931,345.472879 232.575053,346.737422 C231.952778,347.001983 231.304894,347.201706 230.641669,347.333428 C229.996078,347.473477 229.339369,347.556174 228.679212,347.580552 L228.679212,347.580552 Z M214.767569,326.371475 C214.888459,328.546591 215.329298,330.692009 216.075874,332.738559 C216.811057,334.764095 217.850215,336.665951 219.157659,338.378807 C220.622936,340.29771 222.500864,341.86265 224.65254,342.957875 C226.648516,344.06075 229.025434,344.241141 231.164991,343.452123 C233.054083,342.630095 234.466425,340.993062 235.002686,339.003886 C235.305058,337.73699 235.26492,336.412455 234.886392,335.166192 C234.498893,333.803542 233.808114,332.546224 232.865788,331.488401 C230.671308,329.087372 227.769018,327.447833 224.579856,326.807577 C221.352341,326.147418 218.040924,326.000244 214.767569,326.371475 L214.767569,326.371475 Z" id="Shape" fill="#666538" fill-rule="nonzero"></path>
            <path d="M375.354733,609.357835 L375.689077,633.721381 L376.008885,658.099463 C376.069781,662.689622 375.890249,667.279821 375.471027,671.851201 C375.040884,676.41812 374.346806,680.956318 373.392275,685.443036 C372.566831,689.736235 371.280139,693.927732 369.554581,697.944617 C367.955542,701.331673 366.022158,703.570328 363.739892,703.526718 C362.894159,706.075544 361.448359,708.383838 359.524243,710.25722 C357.876264,711.896978 355.716488,712.923 353.404283,713.164564 C352.790858,713.234071 352.171545,713.234071 351.55812,713.164564 C350.708212,713.037264 349.877855,712.80281 349.086877,712.466802 C348.440312,713.467988 347.684622,714.394318 346.833685,715.228779 C345.746202,716.309004 344.47017,717.181041 343.068674,717.801778 C342.378192,718.129445 341.643633,718.35471 340.888166,718.470468 C340.492582,718.52325 340.091739,718.52325 339.696155,718.470468 C338.838944,718.343085 338.025668,718.008794 337.326669,717.496507 C336.869997,717.17605 336.454939,716.800057 336.091048,716.37718 C334.869963,715.054338 334.390251,713.150027 334.506545,709.632141 C334.622839,706.114254 335.306065,700.910108 336.439929,693.118425 C336.541686,692.464273 336.70159,691.330408 336.934178,689.833126 C337.166765,688.335844 337.472036,686.460607 337.835454,684.309172 C337.951748,683.611409 338.038968,683.117161 338.111652,682.739206 C338.184336,682.361251 338.227946,682.114127 338.257019,681.867003 C338.631703,679.383089 338.845354,676.877544 338.896635,674.366054 C338.949586,672.358819 338.901069,670.35019 338.751268,668.347851 C338.591364,666.123733 338.402387,663.899615 338.097115,661.690033 C337.804161,659.478711 337.347421,657.292192 336.730664,655.148508 C336.386344,653.867034 335.89871,652.628443 335.276991,651.456181 C334.674839,650.256534 333.633597,649.335035 332.369647,648.883181 C331.090739,648.515329 329.715617,648.711019 328.590099,649.42104 C327.447584,650.088402 326.52343,651.073156 325.929879,652.255701 C325.326729,653.541416 324.934078,654.915692 324.766942,656.325983 C324.563428,657.779655 324.476207,659.233327 324.345377,660.570705 C324.141863,662.605846 323.909275,664.640987 323.560394,666.647055 C323.200308,668.666827 322.714812,670.662218 322.106722,672.621648 C321.371117,675.557207 320.001671,678.296098 318.094586,680.645918 C317.431298,681.478364 316.50259,682.058165 315.46344,682.288567 C315.153884,682.314938 314.842646,682.314938 314.53309,682.288567 C314.03523,682.277677 313.543169,682.179265 313.079417,681.997833 C311.456686,681.189917 310.259878,679.723032 309.794118,677.971161 C308.987814,675.525445 308.618753,672.956786 308.703864,670.382992 C308.703864,669.161908 308.703864,667.940823 308.703864,666.734275 C308.703864,665.527727 308.703864,664.292106 308.703864,663.071022 L308.267763,636.134476 L307.846198,609.183394 L341.571392,609.256078 L375.354733,609.357835 Z" id="Path" fill="#FFAA9F"></path>
            <path d="M349.086877,714.196671 C348.966154,714.210872 348.844182,714.210872 348.723459,714.196671 C348.592155,714.177965 348.464612,714.138721 348.345504,714.080378 C347.907288,713.880984 347.567049,713.514572 347.400617,713.062807 C347.212353,712.621727 347.212353,712.122899 347.400617,711.681819 C349.930007,706.056107 351.965148,696.520018 353.389747,688.35038 C354.814345,680.180743 355.613865,673.36302 355.628402,673.23219 C355.682503,672.757253 355.923033,672.323253 356.297091,672.025642 C356.677268,671.730511 357.155095,671.590279 357.634469,671.633151 C358.11638,671.688765 358.556044,671.934768 358.855554,672.316376 C359.156722,672.692966 359.293015,673.175235 359.233509,673.653755 C359.233509,674.220687 358.361305,681.154703 356.907633,689.426098 C355.453961,697.697492 353.360673,707.291729 350.71499,713.164564 C350.574031,713.490663 350.335299,713.76495 350.031764,713.949547 C349.746139,714.118734 349.418761,714.204356 349.086877,714.196671 L349.086877,714.196671 Z" id="Path" fill="#AD4D4D"></path>
            <path d="M363.725356,705.343808 L363.492768,705.343808 L363.26018,705.343808 C362.794745,705.22026 362.397384,704.917011 362.15539,704.500678 C361.912363,704.083691 361.83947,703.589056 361.951876,703.11969 C362.533344,700.895571 363.071203,698.642379 363.565452,696.374651 C364.0597,694.106922 364.524875,691.85373 364.931903,689.600538 C365.455225,686.790106 365.910709,683.96029 366.298355,681.111093 C366.690847,678.203749 367.010655,675.412698 367.286852,672.563501 C367.323375,672.085922 367.554664,671.644371 367.926468,671.342416 C368.300971,671.034235 368.780312,670.883139 369.263847,670.920851 C370.255569,671.027876 370.982942,671.903298 370.906496,672.897845 C370.625453,675.80519 370.291108,678.712534 369.903462,681.619878 C369.496434,684.527223 369.031259,687.434567 368.44979,690.341911 C368.028225,692.638713 367.56305,694.950052 366.996118,697.246854 C366.429186,699.543656 365.949474,701.840458 365.353468,704.122723 C365.254156,704.517017 365.02342,704.865686 364.699316,705.11122 C364.402569,705.277711 364.065311,705.35825 363.725356,705.343808 L363.725356,705.343808 Z" id="Path" fill="#AD4D4D"></path>
            <path d="M212.3254,516.729845 L174.936952,656.820231 L137.548504,796.910617 L301.028475,796.910617 C308.354983,750.218668 315.686336,703.521872 323.022535,656.820231 C330.358734,610.11859 337.694933,563.421795 345.031132,516.729845 L212.3254,516.729845 L212.3254,516.729845 Z" id="Path" fill="#666538"></path>
            <path d="M293.614747,344.469694 C288.876243,343.540014 284.065826,343.024439 279.23793,342.928801 C273.06145,342.810035 266.892907,343.429818 260.863513,344.774965 C246.400284,348.148433 233.143743,355.435507 222.544715,365.838675 C216.307693,371.820841 210.900375,378.611768 206.467101,386.030181 L189.575431,414.216884 L172.669223,442.476271 C168.624732,449.207038 165.255225,456.320983 162.609812,463.714421 C159.972903,471.100266 158.130868,478.746172 157.114931,486.522537 C155.87931,496.073164 155.806626,506.525066 158.481383,516.133839 C161.072522,526.295864 167.454553,535.080909 176.31794,540.686362 C180.225129,543.145289 184.499224,544.965827 188.979425,546.079486 C193.4755,547.181641 198.107435,547.627208 202.731164,547.402328 L263.945298,544.378689 L325.159433,541.325978 L323.705761,499.954468 L322.252089,458.568422 L350.540549,456.533281 L360.222006,455.835518 C360.222006,455.835518 358.274085,464.906432 355.468498,478.323826 C352.66291,491.74122 349.014193,509.519631 345.598064,526.94916 C341.498708,547.838429 337.67555,568.480574 334.899037,583.904036 C332.122523,599.327497 330.349043,609.517739 330.349043,609.532276 L352.808278,609.953841 L375.282049,610.389942 C382.899291,554.481711 388.263342,506.030818 391.548641,470.532144 C394.83394,435.033469 396.055024,412.487014 395.357262,408.358585 C394.476027,403.264098 393.296524,398.225728 391.824838,393.269468 C390.661901,389.300943 389.746087,386.757017 389.746087,386.757017 L389.746087,386.757017 C387.716919,382.588736 385.344076,378.596719 382.652167,374.822368 C378.92587,369.697748 374.359991,365.239995 369.147553,361.637562 C364.902618,358.720205 360.281375,356.392468 355.410351,354.718082 C351.599537,353.416589 347.670398,352.491513 343.679216,351.956105 L318.661519,348.205631 L293.614747,344.469694 Z" id="Path" fill="#F4ECE5"></path>
            <path d="M575.961491,146.276031 C506.406276,129.107145 434.007612,160.909791 399.597126,223.747814 C365.18664,286.585837 377.386029,364.714895 429.315044,414.071517 L315.55066,576.592065 L201.77174,739.112612 L213.401117,747.28225 L225.030495,755.466424 L338.43146,593.658176 L451.716132,431.835391 C504.297476,466.189508 572.237569,466.122683 624.751232,431.665196 C677.264894,397.207709 704.370747,334.908965 693.78652,272.997922 C683.202292,211.086878 636.939752,161.331095 575.961491,146.276031 L575.961491,146.276031 Z M506.548646,427.35808 C445.584234,412.296406 403.749055,356.267242 406.627889,293.535864 C409.506723,230.804485 456.297773,178.842508 518.385438,169.427872 C580.473103,160.013237 640.565051,195.768057 661.911366,254.826066 C683.25768,313.884075 659.913097,379.796743 606.154262,412.254427 C576.282769,430.336564 540.43784,435.771894 506.548646,427.35808 Z" id="Shape" fill="#353519" fill-rule="nonzero"></path>
            <path d="M360.905232,457.580044 L360.629034,457.580044 C360.150193,457.507604 359.720593,457.245653 359.437023,456.853089 C359.149439,456.46542 359.033805,455.976604 359.117215,455.501173 L360.890695,444.11892 L362.664175,432.722131 C362.740157,432.248573 363.001732,431.824821 363.391011,431.544656 C363.780051,431.259555 364.265844,431.139413 364.742926,431.210312 C365.221767,431.282632 365.651367,431.544584 365.934937,431.937148 C366.210687,432.330224 366.325152,432.8141 366.254745,433.289063 L364.481265,444.671316 L362.707785,456.068106 C362.633039,456.497425 362.412215,456.887719 362.082706,457.172896 C361.749232,457.440906 361.333029,457.584779 360.905232,457.580044 L360.905232,457.580044 Z" id="Path" fill="#2B3D0A"></path>
            <path d="M325.159433,541.325978 C344.754934,539.130933 361.675678,536.892278 374.48253,535.017041 C387.289381,533.141804 395.982341,531.644521 399.194956,530.903149 C400.081696,530.699634 401.186487,530.394363 402.8146,529.972798 C404.442713,529.551233 406.594148,529.013375 409.603249,528.301075 C411.623853,527.821364 412.917622,527.545166 413.964266,527.283505 C414.894564,527.042951 415.803698,526.726941 416.682632,526.338618 C418.249195,525.672166 419.744385,524.849081 421.145406,523.881912 C422.681627,522.865188 423.829124,521.359098 424.401632,519.608116 C424.763877,518.260741 424.763877,516.841598 424.401632,515.494224 C424.153197,514.479456 423.771952,513.501905 423.267767,512.586879 L426.785654,510.769789 C428.064885,510.115637 429.445874,509.316117 430.914083,508.589281 C434.033105,507.015936 437.031058,505.213277 439.88324,503.196157 C441.191352,502.354889 442.159486,501.077776 442.616144,499.59105 C442.933994,498.43026 442.983703,497.212386 442.761511,496.029553 C442.673516,495.457376 442.522381,494.896713 442.310873,494.35783 C441.956123,493.449406 441.433372,492.615963 440.76998,491.901124 C440.334543,491.447401 439.846538,491.047237 439.316308,490.709113 C442.167194,489.362504 444.393731,486.9747 445.538025,484.036758 C446.559951,481.582374 446.453674,478.803224 445.24729,476.434053 C444.35321,474.914132 442.999072,473.717807 441.380522,473.017923 C439.6108,472.227218 437.674101,471.882805 435.740275,472.014889 C435.703093,471.14954 435.546556,470.293474 435.275099,469.470963 C434.797901,467.960702 433.918468,466.608887 432.731173,465.560585 C431.965106,464.888893 431.08345,464.36187 430.1291,464.005156 C429.306955,463.704784 428.444694,463.528412 427.570637,463.481834 C426.694571,463.416342 425.813646,463.47507 424.954027,463.656274 C424.337978,463.773316 423.734422,463.948542 423.151474,464.179596 L422.817129,464.310427 L422.642688,464.38311 C421.189016,465.037263 410.170181,468.904031 399.383934,472.363771 C388.597686,475.82351 378.0731,478.847148 377.695145,477.800504 C377.593388,477.538843 378.102173,477.030058 379.817506,476.027024 C381.53284,475.023991 384.483794,473.541245 389.266375,471.3462 L395.76429,462.057235 L402.262205,452.782807 L362.344367,455.690151 L322.426529,458.597495 L323.880202,499.983542 L325.159433,541.325978 Z" id="Path" fill="#FFAA9F"></path>
            <path d="M388.176121,494.445051 C387.794537,494.443066 387.42326,494.321003 387.114941,494.096169 C386.794459,493.869373 386.55907,493.541874 386.446251,493.165819 C386.292648,492.709182 386.334739,492.20935 386.562545,491.784831 C386.788501,491.354518 387.175032,491.030668 387.638263,490.883554 C392.566211,489.342661 397.479623,487.627328 402.320351,485.766628 C407.16108,483.905928 411.958198,481.885323 416.639022,479.733888 C419.720807,478.280216 422.788056,476.826544 425.811694,475.285652 C428.835332,473.744759 431.844433,472.116646 434.795388,470.444923 C435.209731,470.206673 435.703684,470.14887 436.161839,470.285019 C436.630527,470.410563 437.028809,470.719756 437.26663,471.142686 C437.749517,472.015083 437.445844,473.113475 436.583404,473.613929 C433.58884,475.300188 430.550665,476.942838 427.46888,478.512804 C424.387095,480.08277 421.276236,481.594589 418.165378,483.033724 C413.397333,485.233615 408.551759,487.273601 403.628656,489.153684 C398.715245,491.057995 393.729149,492.787864 388.71398,494.35783 L388.452319,494.35783 L388.176121,494.445051 Z" id="Path" fill="#AD4D4D"></path>
            <path d="M392.798799,510.130173 C392.418961,510.131454 392.04812,510.014614 391.737618,509.795829 C391.424865,509.567567 391.191111,509.247425 391.068929,508.880015 C390.770791,507.925826 391.286307,506.907682 392.231867,506.583213 C395.691606,505.463886 399.151346,504.286411 402.582012,503.036253 C406.012679,501.786095 409.443345,500.506864 412.830401,499.169485 C417.191418,497.468689 421.465214,495.666135 425.73901,493.776362 C430.012806,491.886588 434.242992,489.938667 438.415031,487.961673 C438.844112,487.745148 439.343107,487.713633 439.79602,487.874453 C440.253361,488.027426 440.630335,488.357278 440.842664,488.790266 C441.068025,489.24285 441.099514,489.767655 440.929884,490.243938 C440.766013,490.696005 440.432228,491.066297 439.999534,491.276045 C435.803267,493.34026 431.539162,495.3221 427.207219,497.221565 C422.846202,499.125875 418.485186,500.942965 414.124169,502.672835 C410.70804,504.02475 407.2483,505.333055 403.774024,506.583213 C400.299747,507.833371 396.810934,509.025382 393.322121,510.159247 L393.045923,510.159247 L392.798799,510.130173 Z" id="Path" fill="#AD4D4D"></path>
            <path d="M397.247036,523.881912 C396.458242,523.876821 395.761305,523.367296 395.517166,522.617217 C395.363563,522.16058 395.405654,521.660748 395.63346,521.236229 C395.849544,520.803712 396.232847,520.478167 396.69464,520.334952 L401.17195,518.88128 C402.625623,518.387031 404.151978,517.878246 405.620187,517.427608 C408.454848,516.424574 411.318582,515.392467 414.153243,514.302212 C416.987904,513.211958 419.822564,512.107167 422.628152,510.94423 C423.308895,510.662562 424.092339,510.8198 424.611679,511.342327 C425.131019,511.864853 425.283463,512.649244 424.997637,513.328252 C424.811317,513.771812 424.455412,514.122483 424.00914,514.302212 C421.189016,515.479687 418.325282,516.613551 415.447011,517.703805 C412.56874,518.794059 409.632322,519.85524 406.812198,520.858274 C405.358526,521.367059 403.832171,521.890381 402.320351,522.38463 C400.808532,522.878878 399.296713,523.373127 397.799431,523.838302 L397.523233,523.910985 L397.247036,523.881912 Z" id="Path" fill="#AD4D4D"></path>
            <path d="M237.968177,797.827906 L237.793736,797.827906 L237.633832,797.827906 C237.158515,797.735813 236.736624,797.46497 236.456358,797.070521 C236.183204,796.671168 236.083554,796.178162 236.18016,795.70407 L256.153616,690.051177 L276.054387,584.412821 C276.144165,583.941071 276.41562,583.523448 276.810297,583.249883 C277.642577,582.690363 278.770064,582.904196 279.339687,583.729595 C279.610402,584.130027 279.71467,584.62009 279.630421,585.096047 L259.729649,690.719866 L239.828877,796.343685 C239.746273,796.765354 239.520277,797.145438 239.189261,797.419403 C238.84553,797.699522 238.411234,797.844288 237.968177,797.827906 L237.968177,797.827906 Z" id="Path" fill="#2B3D0A"></path>
            <path d="M252.504898,464.543014 L262.244502,445.543519 L271.984105,426.558561 C272.206654,426.131157 272.587492,425.807705 273.045286,425.657284 C274.004362,425.352073 275.030028,425.877889 275.342088,426.834758 C275.48413,427.292723 275.442424,427.787986 275.225794,428.215747 L266.939863,444.380581 L258.653932,460.530879 L290.445742,458.626569 L322.252089,456.722258 C322.735931,456.704877 323.208459,456.871041 323.57493,457.187433 C324.122453,457.676644 324.321753,458.447294 324.080047,459.14061 C323.83834,459.833926 323.203132,460.313645 322.47014,460.356438 L287.494787,462.449726 L252.504898,464.543014 Z" id="Path" fill="#2B3D0A"></path>
            <path d="M363.725391,322.344803 C363.70631,340.711864 350.718235,356.508904 332.701362,360.078437 C314.684489,363.64797 296.654471,353.996286 289.63392,337.023922 C282.613368,320.051559 288.55671,300.48339 303.830496,290.282373 C319.104282,280.081356 339.456497,282.087316 352.44486,295.073914 C359.680104,302.303641 363.739168,312.116532 363.725391,322.344803 Z" id="Path" fill="#FFAA9F"></path>
            <path d="M320.347778,321.356306 C320.346401,322.103722 320.048378,322.820023 319.519185,323.347837 C318.396083,324.418479 316.630152,324.418479 315.50705,323.347837 C314.975311,322.818586 314.676373,322.099273 314.676373,321.349038 C314.676373,320.598803 314.975311,319.87949 315.50705,319.350239 C316.339919,318.605554 317.525841,318.404004 318.557963,318.83173 C319.590085,319.259457 320.285805,320.240786 320.347778,321.356306 L320.347778,321.356306 Z" id="Path" fill="#2B3D0A"></path>
            <path d="M345.598064,317.954713 C345.607856,319.102796 344.920662,320.142206 343.860477,320.582885 C342.800292,321.023565 341.578787,320.77753 340.771872,319.960781 C339.70123,318.837679 339.70123,317.071748 340.771872,315.948646 C341.301123,315.416907 342.020436,315.117969 342.770671,315.117969 C343.520906,315.117969 344.24022,315.416907 344.769471,315.948646 C345.294273,316.485301 345.591183,317.204134 345.598064,317.954713 L345.598064,317.954713 Z" id="Path" fill="#2B3D0A"></path>
            <path d="M331.264856,340.71922 C328.738982,340.683768 326.263316,340.008586 324.069179,338.756762 C323.020865,338.170431 322.045063,337.462974 321.161835,336.648937 C320.810886,336.31575 320.611331,335.853623 320.609439,335.369706 C320.598511,334.890384 320.77596,334.425885 321.103688,334.075938 C321.436875,333.724989 321.899003,333.525434 322.382919,333.523542 C322.862241,333.512614 323.32674,333.690063 323.676688,334.017791 C324.57144,334.832297 325.586389,335.504027 326.685789,336.009322 C330.650743,338.008704 335.457213,337.176134 338.51868,333.959644 C339.306989,333.149594 339.97299,332.228944 340.495674,331.22674 C340.817615,330.560783 341.513732,330.159103 342.251413,330.213627 C342.989093,330.268151 343.618589,330.767811 343.83912,331.473865 C343.99374,331.928964 343.957019,332.427332 343.737363,332.854853 C343.040004,334.207208 342.143236,335.447001 341.077143,336.532644 C339.323751,338.345936 337.106313,339.643212 334.666449,340.283118 C334.107914,340.433691 333.539623,340.545406 332.965653,340.617462 C332.401616,340.689184 331.833421,340.723179 331.264856,340.71922 L331.264856,340.71922 Z" id="Path" fill="#AD4D4D"></path>
            <path d="M339.085612,286.395491 C336.902081,285.543272 334.644007,284.896022 332.340574,284.462107 C329.972709,284.017478 327.568681,283.793622 325.159433,283.793325 C317.765622,283.777148 310.525359,285.902776 304.313774,289.913377 C298.263236,293.816108 293.420518,299.328349 290.329448,305.831088 C295.141103,307.982522 303.97943,311.020697 313.297468,309.581562 C322.615507,308.142426 332.39872,302.167834 339.085612,286.395491 Z" id="Path" fill="#353519"></path>
            <path d="M401.956933,892.067997 C390.109505,873.010355 386.446251,852.818849 389.5135,834.822387 C392.318811,817.091386 402.433227,801.350233 417.394932,791.430273 C428.885865,784.222137 441.914281,779.824548 455.422996,778.594348 C469.959717,777.140676 485.455862,779.510162 498.771499,787.81063 C509.447498,794.437969 517.563884,804.486095 521.797667,816.317141 C524.093033,822.466242 525.379167,828.945997 525.606288,835.505613 C536.332493,832.533075 547.745309,833.239339 558.023177,837.511681 C567.355752,841.480206 574.478746,848.283392 577.226186,856.409419 C579.243359,862.682882 578.849449,869.483011 576.121395,875.481598 C573.044723,882.282385 568.060587,888.044187 561.773651,892.067997 L401.956933,892.067997 L401.956933,892.067997 Z" id="Path" fill="#666538"></path>
            <path d="M126.965771,892.329658 C126.495307,892.329658 126.043887,892.143116 125.701076,891.820873 C125.36379,891.490168 125.166097,891.042757 125.14868,890.570715 L114.972975,628.415477 L104.79727,366.260239 C104.777603,365.778214 104.950426,365.308154 105.277646,364.953665 C105.604865,364.599177 106.059621,364.389362 106.541677,364.365628 C107.02385,364.334194 107.498937,364.503114 107.849982,364.835641 C108.20228,365.17057 108.410754,365.629215 108.43145,366.114872 L118.607156,628.27011 L128.782861,890.439884 C128.796187,890.916933 128.624263,891.38061 128.303149,891.733653 C127.977432,892.090348 127.521255,892.300085 127.038454,892.315121 L126.965771,892.315121 L126.965771,892.329658 Z" id="Path" fill="#666538"></path>
            <path d="M213.561021,244.471586 C208.460775,204.064668 181.07611,169.957034 142.725809,156.246241 C104.375507,142.535448 61.5738683,151.550453 32.0119049,179.565124 C25.0127285,186.877992 18.9704323,195.04999 14.0299803,203.885059 C5.64206604,218.689937 0.865756502,235.265075 0.0892642235,252.263268 C-1.18996728,283.182875 11.486054,307.749935 24.8889113,324.859656 C33.1501194,335.517252 42.9481199,344.889039 53.9623546,352.668405 C58.6372986,355.259288 63.4958939,357.503959 68.4990762,359.38437 C79.9915612,363.685035 92.1356176,365.986014 104.404779,366.187556 C109.574138,366.261541 114.742364,365.974957 119.87185,365.329889 C179.100159,357.809036 221.018983,303.700496 213.502874,244.471586 L213.561021,244.471586 Z" id="Path" fill="#DEB8FC"></path>
            <path d="M180.315539,259.313592 C173.848768,259.248051 167.540576,257.303572 162.159174,253.716941 C156.482907,249.99908 151.984725,244.739435 149.192418,238.55514 L149.192418,238.482456 L149.192418,238.482456 C142.648888,243.136133 134.912402,245.824234 126.893087,246.230529 C119.423901,246.657251 112.02188,244.613905 105.829377,240.41584 C100.727565,236.831542 96.7296542,231.892058 94.2872203,226.155316 C92.725638,222.594327 91.6735013,218.831103 91.1618252,214.976578 C91.1062351,214.50062 91.2364132,214.021565 91.5252432,213.639199 C91.8247527,213.257591 92.2644174,213.011588 92.7463278,212.955973 C93.2232863,212.885444 93.7080387,213.01717 94.0837062,213.319391 C94.4653144,213.618901 94.7113172,214.058565 94.7669321,214.540476 C95.2244441,218.018224 96.168893,221.414325 97.5725194,224.628961 C99.7249522,229.808029 103.2979,234.272954 107.879055,237.508496 C113.467232,241.256264 120.134019,243.059617 126.849477,242.639959 C134.042306,242.214012 140.967391,239.759488 146.822932,235.560575 C147.749135,234.898847 148.926498,234.695484 150.021011,235.00818 C150.558077,235.158081 151.054777,235.426299 151.474683,235.793163 C151.903945,236.159172 152.246542,236.615967 152.477717,237.130541 C155.609837,244.057465 161.094874,249.650657 167.959326,252.917421 C174.436213,256.119271 181.9213,256.610954 188.761374,254.283873 C194.347205,252.189213 199.070781,248.284459 202.178768,243.192354 C205.510249,237.847064 207.189178,231.637049 207.00496,225.34126 C206.988564,224.856684 207.16651,224.385651 207.499208,224.032955 C207.830243,223.685621 208.284354,223.482054 208.763903,223.466023 C209.248081,223.467127 209.714495,223.648509 210.072208,223.974808 C210.418672,224.300446 210.622442,224.749784 210.63914,225.224966 C210.866443,232.25769 208.999459,239.199429 205.27509,245.169348 C201.72837,250.88755 196.38612,255.268706 190.084216,257.627319 C188.526094,258.191108 186.920655,258.61436 185.287098,258.892014 C183.64498,259.174169 181.98172,259.315205 180.315539,259.313592 Z" id="Path" fill="#666538"></path>
            <path d="M126.965771,892.330391 L126.675036,892.330391 C126.200319,892.256809 125.775445,891.994542 125.497562,891.602822 C125.212461,891.213782 125.092318,890.72799 125.163217,890.250907 L154.716372,701.273526 L184.269527,512.296145 C184.341848,511.817304 184.603799,511.387704 184.996363,511.104134 C185.4033,510.835566 185.895128,510.726847 186.377352,510.798863 C186.853967,510.877241 187.281426,511.137887 187.569363,511.525699 C187.843745,511.919388 187.958081,512.402716 187.889171,512.877614 L158.336016,701.854995 L128.782861,890.832376 C128.717905,891.261766 128.501313,891.653693 128.172318,891.937167 C127.827386,892.203134 127.401167,892.341783 126.965771,892.330391 L126.965771,892.330391 Z" id="Path" fill="#666538"></path>
            <path d="M243.303154,481.594589 C247.314784,506.229454 233.370827,530.268795 209.995047,539.017664 C186.619268,547.766533 160.318318,538.789682 147.169637,517.574547 C134.020955,496.359412 137.68448,468.811229 155.920744,451.769854 C174.157009,434.72848 201.889946,432.937384 222.16676,447.49144 C233.470355,455.592939 241.077438,467.866817 243.303154,481.594589 L243.303154,481.594589 Z" id="Path" fill="#DEB8FC"></path>
            <path d="M175.503884,487.932599 C175.082319,487.932599 174.646217,487.932599 174.210116,487.932599 C173.775627,487.887203 173.34379,487.819274 172.916348,487.729085 C170.067515,487.16891 167.468042,485.724193 165.488083,483.600656 C163.491362,481.462077 162.197701,478.763145 161.781219,475.86712 C161.722161,475.388564 161.846843,474.905422 162.1301,474.515205 C162.419599,474.131694 162.847218,473.876166 163.322111,473.802906 C164.316144,473.664233 165.236641,474.351364 165.386326,475.343798 C165.673964,477.520935 166.634511,479.55384 168.133766,481.158487 C169.587675,482.73795 171.507514,483.812449 173.61411,484.225735 C175.646225,484.621737 177.750786,484.38846 179.64685,483.557046 C181.564824,482.712326 183.196059,481.328554 184.342211,479.573984 C184.835301,478.780586 185.690936,478.284644 186.624476,478.251143 C187.079464,478.216096 187.535669,478.301321 187.947318,478.498267 C188.37306,478.687864 188.746984,478.977031 189.037572,479.341397 C190.619472,481.333262 192.835643,482.723498 195.317436,483.280848 C197.659423,483.845102 200.128928,483.480407 202.207842,482.263278 C203.954956,481.172413 205.281831,479.522784 205.972853,477.582454 C206.732046,475.520734 206.868533,473.281346 206.365344,471.142686 C206.255988,470.674457 206.339824,470.181916 206.597932,469.776234 C206.853624,469.365859 207.261209,469.073234 207.731796,468.962178 C208.2002,468.859285 208.690262,468.942699 209.098248,469.194765 C209.508622,469.450457 209.801248,469.858042 209.912304,470.32863 C210.575361,473.207088 210.367909,476.217674 209.316299,478.977979 C207.172854,484.751162 201.125046,488.084258 195.099385,486.813272 C191.907122,486.233271 188.992132,484.625177 186.798917,482.234205 C185.470322,484.001488 183.748229,485.434907 181.769211,486.42078 C179.828097,487.408733 177.681942,487.926599 175.503884,487.932599 L175.503884,487.932599 Z" id="Path" fill="#666538"></path>
            <path d="M516.840644,891.908093 C516.725595,887.329329 517.17971,882.754002 518.19256,878.287185 C519.809509,870.969362 523.05948,864.111624 527.699575,858.226509 C532.966645,851.64221 539.868672,846.554658 547.716641,843.471737 C553.02927,841.385077 558.565988,839.921627 564.21582,839.11072 C573.128868,837.637737 582.248136,837.988859 591.021535,840.142828 C599.765174,842.296578 607.922313,846.362735 614.905368,852.048403 C618.811775,855.256268 622.277268,858.966155 625.211904,863.081774 C626.737011,865.20098 628.093106,867.436836 629.267649,869.768666 C632.704947,876.659635 634.613983,884.211483 634.864287,891.908093 L575.859734,891.908093 L516.840644,891.908093 Z" id="Path" fill="#F4ECE5"></path>
            <path d="M598.784144,855.798877 C598.735541,857.9652 597.68941,859.98772 595.949483,861.279221 C591.868876,864.300797 586.292889,864.300797 582.212282,861.279221 C580.42888,860.027348 579.36726,857.985069 579.36726,855.806145 C579.36726,853.627222 580.42888,851.584943 582.212282,850.333069 C586.292889,847.311493 591.868876,847.311493 595.949483,850.333069 C597.688867,851.618534 598.735463,853.636585 598.784144,855.798877 Z" id="Path" fill="#F98638"></path>
            <path d="M301.740775,796.910617 C300.665057,806.47578 299.584494,816.036098 298.499086,825.591569 C297.413677,835.147041 296.328269,844.702513 295.24286,854.257984 C295.1192,855.090183 295.075391,855.932299 295.11203,856.772837 C295.150155,857.610812 295.291751,858.440857 295.533594,859.24408 C295.857705,860.321523 296.348178,861.341706 296.987267,862.267718 C297.618845,863.177254 298.394644,863.977604 299.284069,864.637204 L315.274462,876.266581 L331.264856,887.895958 C332.010079,888.453757 332.329104,889.416633 332.064376,890.309054 C331.920628,891.198925 331.189155,891.876437 330.290896,891.951703 L200.070944,891.951703 C198.051434,891.941574 196.134075,891.062343 194.80865,889.538608 C193.393051,887.933536 192.616985,885.864024 192.628023,883.723919 L201.350175,839.881167 L210.072208,796.038414 C226.396946,796.038414 241.166256,796.271002 255.935565,796.489053 C270.704874,796.707103 285.430573,796.910617 301.740775,796.910617 Z" id="Path" fill="#DEB8FC"></path>
            <path d="M236.892459,796.910617 L232.531443,825.591569 L228.24311,854.257984 C228.112215,855.089443 228.068368,855.932284 228.11228,856.772837 C228.13661,857.612239 228.278513,858.444084 228.533845,859.24408 C228.857955,860.321523 229.348428,861.341706 229.987517,862.267718 C230.610748,863.184086 231.387805,863.985734 232.284319,864.637204 L248.274712,876.266581 L264.265106,887.895958 C265.004976,888.4575 265.317976,889.419688 265.050089,890.309054 C264.866612,891.194673 264.093686,891.834752 263.189389,891.849946 L125.323121,891.849946 C123.303611,891.839817 121.386253,890.960586 120.060828,889.436851 C118.645229,887.831779 117.869162,885.762267 117.880201,883.622162 L127.358262,840.230048 L136.952498,796.910617 L236.950606,796.910617 L236.892459,796.910617 Z" id="Path" fill="#DEB8FC"></path>
            <path d="M265.239067,893.768794 C264.989334,893.771213 264.741823,893.721711 264.512231,893.623426 C264.271715,893.517048 264.058115,893.35809 263.887151,893.158251 C263.569086,892.79851 263.40241,892.329734 263.421976,891.849946 C263.44999,891.368314 263.669905,890.918012 264.032519,890.599788 C264.234827,890.437566 264.386211,890.220582 264.46862,889.974709 C264.556123,889.602493 264.49345,889.210788 264.29418,888.884455 C264.127498,888.604895 263.910663,888.358492 263.654564,888.157619 C263.378366,887.925032 263.044022,887.692444 262.709677,887.459856 L262.448016,887.270879 L262.171818,887.081902 L260.267508,885.62823 L258.348661,884.247241 L255.64483,882.313857 L252.955537,880.380473 L251.807136,879.566417 L250.658735,878.75236 C248.202029,876.993417 245.672639,875.176327 243.114176,873.30109 C240.555713,871.425853 237.95364,869.507005 235.38064,867.486401 C233.068343,865.892434 231.063845,863.892862 229.464195,861.584492 C227.867588,858.889334 227.227341,855.734196 227.647104,852.629871 C227.748862,851.48147 227.894229,850.333069 228.068669,849.184668 C228.24311,848.036267 228.446624,846.931477 228.635602,845.826686 L228.984483,843.835155 C229.08624,843.166466 229.202534,842.512313 229.289754,841.843624 C230.01659,836.799382 230.743426,831.667919 231.542946,826.638213 C232.342466,821.608508 233.083838,816.462508 233.854285,811.592706 C234.246776,809.077853 234.624731,806.563001 235.017222,804.062685 C235.409714,801.562368 235.787669,799.032979 236.165623,796.532663 C236.237944,796.053822 236.499895,795.624222 236.892459,795.340652 C237.274925,795.053415 237.757198,794.932847 238.229838,795.006307 C238.705806,795.076567 239.134482,795.332727 239.421849,795.718606 C239.70695,796.107646 239.827092,796.593439 239.756194,797.070521 C239.378239,799.585374 239.000284,802.100227 238.607793,804.61508 C238.215301,807.129933 237.837346,809.630249 237.444855,812.145102 C236.674409,817.087587 235.903962,822.131829 235.133516,827.190609 C234.36307,832.249388 233.679844,837.366314 232.894861,842.366946 C232.793104,843.035635 232.67681,843.718861 232.575053,844.402087 C232.473296,845.085313 232.342466,845.768539 232.211635,846.451765 C232.037194,847.512945 231.83368,848.6032 231.673776,849.693454 C231.513872,850.783708 231.368505,851.873962 231.266748,852.949679 C230.940177,855.179749 231.348387,857.45552 232.429686,859.433057 C233.806932,861.46502 235.55826,863.216347 237.590222,864.593593 C240.148685,866.556051 242.721685,868.474898 245.265611,870.335598 C247.809537,872.196299 250.338927,873.998852 252.781096,875.743259 L253.91496,876.571852 L255.063361,877.385908 L257.767192,879.319292 L260.471022,881.252676 L262.389869,882.706348 L264.308716,884.160021 L264.541304,884.319925 L264.788428,884.494365 C265.298582,884.832997 265.784333,885.207026 266.2421,885.613693 C266.758221,886.070226 267.186792,886.617023 267.506795,887.227269 C268.053991,888.224228 268.25347,889.375069 268.073727,890.498031 C267.871584,891.601459 267.296865,892.602085 266.445614,893.332692 C266.278229,893.480889 266.086409,893.598932 265.878682,893.681573 C265.671994,893.746835 265.455682,893.776332 265.239067,893.768794 Z" id="Path" fill="#2B3D0A"></path>
            <path d="M966.781252,890.207297 L952.1137,890.207297 L937.446148,890.207297 C937.446148,890.27998 937.446148,890.352664 937.518831,890.425348 C937.591515,890.498031 937.518831,890.570715 937.518831,890.643398 L966.853936,890.643398 L966.853936,890.483495 C966.853936,890.483495 966.795789,890.207297 966.781252,890.207297 Z" id="Path" fill="#F4ECE5"></path>
            <path d="M583.738637,945.853867 L568.794888,936.346851 L553.865674,926.854372 C553.430508,926.551663 552.846714,926.577062 552.439483,926.916422 C552.032251,927.255781 551.901994,927.825425 552.121268,928.308044 L573.330345,982.602699 L594.539421,1036.91189 C595.422349,1039.17921 597.179149,1040.99675 599.415153,1041.95621 C601.651157,1042.91567 604.178879,1042.93659 606.43046,1042.01428 L643.877055,1026.75072 L681.309113,1011.47263 L661.9462,965.900006 C655.511278,950.713978 649.061819,935.518258 642.597823,920.312847 L613.160962,933.090626 L583.738637,945.853867 Z" id="Path" fill="#BAB653"></path>
            <path d="M907.936603,863.852221 L772.556114,863.852221 L707.576969,892.067997 L642.597823,920.283774 C649.052128,935.469802 655.501586,950.665522 661.9462,965.870933 L681.309113,1011.44356 L758.353737,980.000626 L835.398362,948.543161 L897.804508,985.451897 L960.225191,1022.36063 L986.536657,977.660214 L1012.84812,932.959795 L960.457778,898.406008 L907.936603,863.852221 Z" id="Path" fill="#666538"></path>
            <path d="M1104.85103,959.736436 L1088.86064,966.0163 L1072.87025,972.296164 L1042.96821,952.627979 L1013.08071,932.959795 L986.769244,977.660214 L960.457778,1022.36063 L998.93648,1045.12514 L1037.42972,1067.88965 C1039.55261,1069.14035 1042.09193,1069.47675 1044.46726,1068.82196 C1046.84259,1068.16717 1048.85087,1066.57716 1050.03306,1064.41537 C1059.42378,1047.24265 1068.82419,1030.07479 1078.2343,1012.91176 L1106.31924,961.437233 C1106.56216,961.00132 1106.50392,960.459622 1106.17388,960.085318 C1105.8552,959.694529 1105.32099,959.553638 1104.85103,959.736436 L1104.85103,959.736436 Z" id="Path" fill="#BAB653"></path>
            <path d="M812.226828,704.00643 C811.1075,704.00643 809.726512,704.00643 808.127472,704.00643 C806.340618,704.087602 804.559594,704.26716 802.792495,704.544288 C797.830304,705.326508 793.022558,706.886573 788.546508,709.166966 C783.824884,711.656191 779.3431,714.575921 775.158188,717.888999 C767.693077,723.669787 760.658141,729.985683 754.109015,736.786737 C748.090812,742.993917 743.104716,748.852216 739.281559,753.62026 L711.807155,787.708873 L684.332751,821.797485 C681.784705,824.953882 679.640903,828.416196 677.95113,832.104021 C676.264653,835.801464 675.100267,839.715368 674.49139,843.733398 C673.851619,847.705399 673.851619,851.754192 674.49139,855.726193 C675.250498,860.236304 676.992459,864.524208 679.59378,868.285921 L680.277006,869.288954 C680.509593,869.623299 680.727644,869.957644 680.945695,870.306525 C685.621688,877.665443 691.643326,884.076687 698.695032,889.204263 C708.172974,895.702178 720.689092,899.205528 734.731565,890.14915 L747.6111,880.860185 L760.490636,871.585756 C762.003496,870.34911 763.334575,868.905477 764.444624,867.297424 C766.665283,864.444512 767.263759,860.650507 766.029126,857.252549 L757.016359,838.107687 L748.018128,818.977361 L922.080833,818.977361 C920.263743,828.077349 918.664703,836.174303 917.254642,843.166466 C915.84458,850.158629 914.638032,856.016928 913.576851,860.610532 C913.209831,862.072932 912.985881,863.567556 912.908162,865.073305 C912.649347,869.710976 914.797206,874.155012 918.59202,876.833513 C920.140716,877.969402 921.801732,878.943605 923.549042,879.740857 C933.191309,884.338676 943.1156,888.320045 953.262101,891.660969 C961.722473,894.45202 969.107128,896.414477 976.404562,898.696742 C977.710695,899.115315 979.040774,899.455116 980.387624,899.714313 C984.946889,900.605503 989.653688,900.386118 994.110289,899.074697 C995.597889,898.645046 997.054859,898.11568 998.471305,897.490194 C1006.49558,893.943234 1011.8887,887.314489 1015.31937,881.499801 C1017.48942,877.84851 1019.1984,873.942256 1020.40722,869.870423 C1020.93452,867.934772 1021.31357,865.961759 1021.54108,863.968514 C1022.02826,860.021911 1022.06728,856.032853 1021.65738,852.077476 C1021.03427,846.110794 1019.42293,840.28933 1016.88933,834.851461 C1014.94716,830.740906 1012.67693,826.793527 1010.10068,823.047643 C999.924977,807.740475 992.031538,796.663493 986.594804,789.409669 C981.15807,782.155845 978.279799,778.739715 978.279799,778.739715 C972.8043,772.285411 967.178589,765.709967 961.402665,759.013384 C955.626741,752.316801 949.695759,745.532998 943.609718,738.661974 C939.558285,734.053057 935.149682,729.77083 930.424911,725.855122 C925.709827,721.935745 920.666381,718.429165 915.350331,715.374146 C908.967119,711.609071 902.12757,708.677836 894.998921,706.652113 C889.545377,705.116625 883.885013,704.444641 878.223544,704.660582 C876.261087,704.762339 873.688087,704.820486 871.115087,704.835023 C868.542087,704.849559 865.969088,704.835023 864.021167,704.835023 L838.174876,704.486141 L812.226828,704.00643 Z" id="Path" fill="#F4ECE5"></path>
            <polygon id="Path" fill="#F98638" points="765.593025 760.554277 765.593025 870.219305 801.716778 882.764495 837.825995 895.309686 875.970352 882.357467 914.100173 869.419785 914.478128 813.656921 914.870619 757.894057 875.897668 769.000112 836.939255 780.091631 801.280676 770.322954"></polygon>
            <path d="M809.72649,676.401195 C809.720209,694.801334 822.713421,710.64319 840.759106,714.237406 C858.804792,717.831622 876.876216,708.177006 883.920349,691.178614 C890.964483,674.180222 885.01914,654.573059 869.720672,644.349457 C854.422204,634.125856 834.032092,636.133662 821.021544,649.144842 C813.780456,656.365895 809.715599,666.174914 809.72649,676.401195 L809.72649,676.401195 Z" id="Path" fill="#FFAA9F"></path>
            <path d="M841.169441,674.424201 C841.238286,675.128288 841.583263,675.776425 842.128864,676.226755 C842.674052,676.673711 843.3758,676.883188 844.076785,676.808223 C844.780871,676.739378 845.429009,676.394401 845.879338,675.8488 C846.331494,675.305856 846.54628,674.603873 846.475344,673.900879 C846.395252,673.196923 846.04631,672.551121 845.501384,672.098326 C844.956027,671.645973 844.252014,671.431273 843.547039,671.502317 C842.842064,671.573361 842.195045,671.924211 841.750909,672.47628 C841.296377,673.017414 841.085917,673.722454 841.169441,674.424201 L841.169441,674.424201 Z" id="Path" fill="#2B3D0A"></path>
            <path d="M821.733844,673.610145 C821.802689,674.314231 822.147666,674.962369 822.693267,675.412698 C823.240523,675.866463 823.949607,676.076562 824.655725,675.994167 C825.358792,675.928103 826.006272,675.583714 826.454036,675.037661 C826.9018,674.491607 827.112684,673.78921 827.039747,673.086823 C826.970902,672.382736 826.625925,671.734599 826.080323,671.284269 C825.533068,670.830504 824.823984,670.620405 824.117866,670.7028 C822.661218,670.855733 821.598476,672.151759 821.733844,673.610145 L821.733844,673.610145 Z" id="Path" fill="#2B3D0A"></path>
            <path d="M835.790854,693.743504 L835.093091,693.743504 L834.395328,693.743504 C831.88461,693.480948 829.495151,692.530194 827.490385,690.996064 C826.270521,690.089358 825.19687,689.000998 824.306843,687.768912 C823.735317,686.951617 823.922707,685.827279 824.728408,685.239522 C825.121099,684.956421 825.610522,684.84172 826.088108,684.920863 C826.565693,685.000006 826.991955,685.266449 827.272335,685.661087 C827.939073,686.577704 828.737514,687.39084 829.64182,688.074183 C833.155515,690.789752 838.032929,690.88423 841.649152,688.30677 C842.653512,687.64245 843.550583,686.828714 844.309372,685.893674 C844.602819,685.509956 845.036978,685.258876 845.51592,685.195912 C845.996794,685.134873 846.482382,685.265408 846.867835,685.55933 C847.247339,685.85433 847.4933,686.288686 847.551061,686.765878 C847.625646,687.240782 847.499249,687.725305 847.20218,688.103256 C846.277111,689.211641 845.206198,690.189643 844.018638,691.0106 C841.630647,692.762143 838.752232,693.718224 835.790854,693.743504 Z" id="Path" fill="#AD4D4D"></path>
            <path d="M848.277897,637.849779 C844.516076,637.845048 840.77401,638.393623 837.171842,639.477922 C833.694497,640.532834 830.381912,642.069248 827.330482,644.042453 C827.95033,645.20557 828.659935,646.31858 829.452843,647.371362 C830.360717,648.554637 831.383251,649.645341 832.505554,650.627588 C836.242286,653.826931 840.858097,655.823231 845.748508,656.355056 C851.021685,656.940048 856.357839,656.221239 861.288263,654.261768 C860.402223,657.114273 859.951362,660.084075 859.950885,663.071022 C859.708286,672.859138 864.900111,681.978401 873.440963,686.765878 C876.769834,688.655547 880.450672,689.842915 884.256283,690.254691 C888.814165,678.398896 887.242077,665.059036 880.052958,654.587612 C872.863839,644.116188 860.979634,637.856075 848.277897,637.849779 L848.277897,637.849779 Z" id="Path" fill="#AD4D4D"></path>
            <path d="M836.939255,896.021985 C836.454941,896.029927 835.988129,895.841035 835.645622,895.498528 C835.303115,895.156021 835.114223,894.689208 835.122164,894.204895 L835.122164,781.181885 C835.114223,780.697572 835.303115,780.230759 835.645622,779.888252 C835.988129,779.545745 836.454941,779.356853 836.939255,779.364554 C837.942806,779.364554 838.756345,780.178333 838.756345,781.181885 L838.756345,894.306652 C838.756345,895.310204 837.942806,896.123743 836.939255,896.123743 L836.939255,896.021985 Z" id="Path" fill="#AD4D4D"></path>
            <path d="M766.203567,808.510921 L766.203567,788.450245 C766.163983,787.431534 765.796937,786.452745 765.156923,785.659195 C763.833755,783.921785 761.429471,783.430988 759.531212,784.510794 C758.520206,785.047329 757.735933,785.929636 757.32163,786.996573 L751.274354,802.696233 L745.212541,818.439502 L745.212541,818.439502 L745.212541,818.541259 C745.212541,818.541259 744.601999,819.994931 743.947846,822.320807 C743.116324,825.089641 742.55644,827.932876 742.276123,830.810252 C742.063731,836.279265 742.801501,841.743678 744.456632,846.96055 C746.59353,853.676515 750.562055,860.436091 757.655975,863.314362 C760.798526,864.559699 764.187577,865.057357 767.555482,864.768034 C769.269781,864.645665 770.965864,864.338615 772.614261,863.852221 C773.863733,863.473628 775.049499,862.910144 776.132148,862.180498 C777.309622,861.424588 778.734221,860.363407 781.161854,858.720758 C781.249074,858.720758 785.697311,855.65351 791.119508,851.888499 C796.541705,848.123488 802.966936,843.602567 806.993608,840.506246 C807.523555,840.134363 808.011037,839.705379 808.44728,839.227014 C809.078132,838.527468 809.549345,837.699126 809.828269,836.799382 C810.028614,836.130616 810.112212,835.432326 810.075393,834.735167 C810.057663,834.322412 809.994284,833.912888 809.886416,833.514083 C809.657916,832.600639 809.225539,831.750795 808.621721,831.028303 C808.264343,830.604406 807.853951,830.228214 807.400636,829.908976 C807.851275,829.589168 809.552071,828.455303 811.616285,826.856264 C813.825279,825.205288 815.945735,823.43905 817.968833,821.564897 C818.467177,821.127003 818.920106,820.639983 819.320748,820.111225 C819.831946,819.392802 820.188354,818.576032 820.367392,817.712666 C820.44109,817.363302 820.484859,817.008288 820.498222,816.651485 C820.51961,816.089667 820.440853,815.528524 820.265635,814.994299 C819.902427,813.945503 819.215172,813.039344 818.303177,812.406763 C817.784288,812.047785 817.222729,811.754798 816.631454,811.534559 C817.18849,810.8872 817.648759,810.162522 817.997906,809.383125 C819.351333,806.576119 818.714401,803.214536 816.42794,801.097193 C815.902952,800.60276 815.316697,800.177725 814.683534,799.832499 C813.388893,799.185706 811.936042,798.923385 810.496958,799.076589 C809.003859,799.234597 807.576832,799.775365 806.353992,800.646555 C805.650681,799.25151 804.617817,798.048996 803.344891,797.143205 C802.700898,796.705738 802.008163,796.344736 801.280676,796.067488 C799.680094,795.489693 797.956482,795.339378 796.280044,795.631386 C795.277793,795.79735 794.300798,796.090448 793.3727,796.503589 L779.839012,802.550865 L766.203567,808.510921 Z" id="Path" fill="#FFAA9F"></path>
            <path d="M777.731187,820.736304 C777.108879,820.730631 776.530608,820.414219 776.190295,819.893174 C775.937495,819.485557 775.84915,818.997063 775.943171,818.526723 C776.047724,818.057234 776.335579,817.649004 776.74269,817.392858 L790.988677,808.220187 L805.249201,799.047516 C805.651517,798.781224 806.145553,798.691878 806.615653,798.800391 C807.086078,798.893572 807.496711,799.177857 807.749518,799.585374 C808.0142,799.988334 808.103424,800.481686 807.996642,800.951826 C807.903895,801.426227 807.620002,801.841551 807.211659,802.100227 L792.965672,811.272898 L778.705148,820.431033 C778.559863,820.532334 778.397288,820.606231 778.225436,820.649084 C778.065176,820.699508 777.899027,820.728829 777.731187,820.736304 Z" id="Path" fill="#AD4D4D"></path>
            <path d="M785.682774,832.234851 C785.378289,832.237002 785.078222,832.161985 784.810571,832.0168 C784.531464,831.871413 784.299524,831.649558 784.141882,831.377184 C783.881214,830.968744 783.79747,830.472001 783.909821,830.000674 C784.022172,829.529348 784.320998,829.123798 784.737887,828.876868 L800.132275,819.398926 L815.5412,809.906447 C815.975892,809.638964 816.500832,809.560223 816.994872,809.688396 C817.459428,809.804332 817.860771,810.096218 818.1142,810.502452 C818.390128,810.934017 818.469415,811.462596 818.332251,811.956124 C818.226857,812.425524 817.932286,812.830559 817.518194,813.075452 L802.10927,822.553394 L786.700345,832.045874 C786.557182,832.12835 786.40624,832.196517 786.249706,832.249388 C786.061052,832.272649 785.869988,832.26775 785.682774,832.234851 L785.682774,832.234851 Z" id="Path" fill="#AD4D4D"></path>
            <path d="M791.323022,842.308799 C791.030001,842.307246 790.741356,842.237573 790.479892,842.105285 C790.208303,841.962516 789.978022,841.75226 789.811203,841.494743 C789.543474,841.098573 789.44412,840.612262 789.535005,840.142828 C789.633425,839.666982 789.915479,839.249125 790.319988,838.97989 L798.286112,833.688523 L806.266772,828.38262 C807.102045,827.830294 808.226735,828.057832 808.781625,828.891405 C809.051522,829.293709 809.149597,829.787133 809.054064,830.262072 C808.95853,830.73701 808.677298,831.154137 808.27284,831.420795 L800.306716,836.712161 L792.326056,842.003528 C792.174914,842.10718 792.008012,842.185722 791.831807,842.236115 C791.667875,842.290369 791.495588,842.314982 791.323022,842.308799 L791.323022,842.308799 Z" id="Path" fill="#AD4D4D"></path>
            <path d="M914.303687,808.510921 L914.303687,788.450245 C914.345154,787.434407 914.706365,786.45761 915.335794,785.659195 C916.658963,783.921785 919.063247,783.430988 920.961506,784.510794 C921.975813,785.043118 922.761353,785.926851 923.171087,786.996573 L929.203827,802.696233 L935.251103,818.439502 L935.251103,818.439502 L935.251103,818.541259 C935.251103,818.541259 935.847108,819.994931 936.515798,822.320807 C937.34034,825.091367 937.90009,827.933925 938.187521,830.810252 C938.392867,836.279996 937.650231,841.744027 935.992476,846.96055 C933.855578,853.676515 929.901589,860.436091 922.807669,863.314362 C919.665118,864.559699 916.276067,865.057357 912.908162,864.768034 C911.189206,864.6448 909.488397,864.337777 907.834846,863.852221 C906.586464,863.470813 905.401102,862.907522 904.316959,862.180498 C903.139485,861.424588 901.714886,860.363407 899.287254,858.720758 C899.200033,858.720758 894.766333,855.65351 889.329599,851.888499 C883.892865,848.123488 877.482171,843.602567 873.470036,840.506246 C872.933608,840.142667 872.445194,839.712863 872.016364,839.227014 C871.385512,838.527468 870.914299,837.699126 870.635375,836.799382 C870.43503,836.130616 870.351432,835.432326 870.388251,834.735167 C870.402939,834.323105 870.461415,833.913775 870.562692,833.514083 C870.801934,832.601813 871.238633,831.753226 871.841923,831.028303 C872.195266,830.60578 872.600671,830.229681 873.048471,829.908976 C872.597833,829.589168 870.897036,828.455303 868.847359,826.856264 C866.635508,825.208911 864.514862,823.442515 862.494811,821.564897 C861.994985,821.124019 861.537507,820.637341 861.128359,820.111225 C860.617161,819.392802 860.260753,818.576032 860.081715,817.712666 C860.008017,817.363302 859.964248,817.008288 859.950885,816.651485 C859.915949,814.952493 860.748724,813.35269 862.160467,812.406763 C862.675771,812.041882 863.238124,811.74848 863.83219,811.534559 C863.268687,810.889137 862.80336,810.164207 862.451201,809.383125 C861.741533,807.866593 861.577218,806.15155 861.986026,804.52786 C862.321554,803.212875 863.027981,802.022042 864.021167,801.097193 C864.546156,800.60276 865.13241,800.177725 865.765574,799.832499 C867.060214,799.185706 868.513065,798.923385 869.952149,799.076589 C871.446489,799.229366 872.874812,799.770625 874.095115,800.646555 C874.396236,800.062188 874.75152,799.507361 875.156296,798.989369 C876.205624,797.668404 877.598926,796.662411 879.182968,796.082024 C879.836927,795.845615 880.514324,795.67992 881.203572,795.587776 C882.167691,795.448617 883.146797,795.448617 884.110916,795.587776 C885.113456,795.752491 886.090608,796.045637 887.018261,796.459979 L900.551948,802.507255 L914.303687,808.510921 Z" id="Path" fill="#FFAA9F"></path>
            <path d="M902.776067,820.736305 C902.604094,820.733519 902.433155,820.709099 902.267282,820.663621 C902.097336,820.615437 901.935617,820.541929 901.78757,820.44557 L887.541583,811.272898 L873.295595,802.100227 C872.887605,801.838326 872.600093,801.425354 872.496076,800.951826 C872.389294,800.481686 872.478517,799.988334 872.7432,799.585374 C873.001876,799.177031 873.4172,798.893138 873.891601,798.800391 C874.361741,798.693609 874.855093,798.782833 875.258053,799.047516 L889.50404,808.220187 L903.764564,817.392858 C904.599309,817.937687 904.839293,819.053289 904.302423,819.893174 C904.136021,820.15477 903.90594,820.369845 903.633733,820.518253 C903.370632,820.661655 903.07571,820.736635 902.776067,820.736305 L902.776067,820.736305 Z" id="Path" fill="#AD4D4D"></path>
            <path d="M894.809943,832.234851 C894.650754,832.256224 894.489421,832.256224 894.330232,832.234851 C894.169039,832.182 894.013271,832.113851 893.865056,832.031337 L878.456131,822.538858 L863.047207,813.060915 C862.637717,812.810997 862.344743,812.408157 862.23315,811.941588 C862.119728,811.471129 862.198658,810.974862 862.45244,810.562806 C862.706223,810.150751 863.113891,809.856951 863.585065,809.746543 C864.051481,809.636166 864.542617,809.714538 864.951517,809.964593 L880.360442,819.457073 L895.769367,828.935015 C896.178856,829.184933 896.471831,829.587773 896.583423,830.054343 C896.691474,830.52557 896.613355,831.02032 896.365373,831.435331 C896.029478,831.970308 895.441626,832.294451 894.809943,832.293003 L894.809943,832.234851 Z" id="Path" fill="#AD4D4D"></path>
            <path d="M889.184232,842.308799 C889.010933,842.337018 888.83421,842.337018 888.66091,842.308799 C888.484705,842.258405 888.317804,842.179863 888.166662,842.076212 L880.200538,836.784845 L872.219878,831.493478 C871.813751,831.228593 871.534981,830.807808 871.449432,830.33054 C871.348599,829.85841 871.442973,829.365569 871.711093,828.964089 C871.980793,828.562776 872.399318,828.285503 872.87403,828.193642 C873.341539,828.098518 873.827692,828.192612 874.225946,828.455303 L882.206606,833.761207 L890.187266,839.052573 C890.593393,839.317458 890.872163,839.738243 890.957712,840.215511 C891.061336,840.682942 890.966599,841.172416 890.696051,841.567426 C890.529232,841.824944 890.298952,842.0352 890.027362,842.177969 C889.759967,842.285283 889.471574,842.329963 889.184232,842.308799 L889.184232,842.308799 Z" id="Path" fill="#AD4D4D"></path>
        </g>
    </g>
</svg>