<?xml version="1.0" encoding="UTF-8"?>
<svg width="1001px" height="1101px" viewBox="0 0 1001 1101" version="1.1" xmlns="http://www.w3.org/2000/svg" xmlns:xlink="http://www.w3.org/1999/xlink">
    <title>technology</title>
    <g id="Page-1" stroke="none" stroke-width="1" fill="none" fill-rule="evenodd">
        <g id="technology" transform="translate(0.6714, 0.4782)">
            <path d="M996.996606,327.866228 L745.163156,165.138567 L493.278731,2.41090565 C488.175255,-0.911849505 481.562481,-0.790699439 476.584139,2.71676076 L239.661126,168.388278 L2.72536928,334.059794 C0.441922904,335.653642 -0.542048935,338.545657 0.295529659,341.201394 C1.13310825,343.857131 3.59820421,345.661363 6.38288662,345.656801 C7.0179071,345.658362 7.64950902,345.563836 8.25624915,345.376433 C8.88721306,345.178983 9.48450335,344.886783 10.02766,344.509844 L36.4968708,326.00561 L62.9788256,307.501376 L62.9788256,1098.57012 L943.471962,1098.57012 L943.471962,308.444429 L966.818902,323.533281 L990.165841,338.609389 C993.121926,340.520286 997.067394,339.672995 998.978291,336.71691 C1000.88919,333.760826 1000.0419,329.815358 997.085813,327.90446 L996.996606,327.866228 Z" id="Path" fill="#F4ECE5"></path>
            <path d="M640.165956,420.578558 C640.224697,442.050417 631.839186,462.684634 616.818706,478.028343 C602.00959,493.239283 581.681446,501.819303 560.452159,501.819303 C539.222872,501.819303 518.894727,493.239283 504.085611,478.028343 C472.975277,446.051036 472.975277,395.118824 504.085611,363.141518 C518.889436,347.920806 539.219559,339.333969 560.452159,339.333969 C581.684758,339.333969 602.014881,347.920806 616.818706,363.141518 C631.837254,378.481313 640.22272,399.110842 640.165956,420.578558 Z" id="Path" fill="#AD4D4D"></path>
            <path d="M323.987928,677.369409 C323.831229,649.569155 325.435934,621.786897 328.792402,594.189564 C333.660596,554.683279 343.396984,508.703061 362.793295,471.847521 C367.521305,462.863027 373.510968,451.699315 382.151375,440.930667 C396.532201,422.415499 417.032455,409.622039 439.983478,404.839764 C445.95586,403.593551 452.021766,402.847568 458.118137,402.60957 C467.915673,401.312838 477.825574,401.090623 487.671387,401.946884 C501.730224,403.13285 515.470125,406.786758 528.260909,412.741021 C540.009209,418.266534 550.744844,425.728059 560.018864,434.813565 C566.787509,441.548083 572.985369,448.832912 578.548586,456.592997 C604.54627,491.613407 620.39976,541.88834 629.957732,585.867756 C636.443574,616.045429 640.9813,646.609096 643.542796,677.369409 L323.987928,677.369409 L323.987928,677.369409 Z" id="Path" fill="#DEB8FC"></path>
            <polygon id="Path" fill="#666538" points="863.439875 697.555846 527.776638 697.555846 192.113401 697.555846 192.113401 687.43714 192.113401 677.331177 527.776638 677.331177 863.439875 677.331177 863.439875 687.43714"></polygon>
            <polygon id="Path" fill="#E9CF81" points="837.88823 1098.57012 527.776638 1098.57012 217.665046 1098.57012 217.665046 898.056614 217.665046 697.555846 527.776638 697.555846 837.88823 697.555846 837.88823 898.056614"></polygon>
            <path d="M425.799447,783.144301 L427.201283,783.424668 C427.67281,783.501132 428.157081,783.564851 428.666839,783.615827 C431.237779,783.90488 433.83619,783.840563 436.389681,783.424668 C440.454892,782.826949 444.180778,780.819662 446.916194,777.753604 C449.532591,774.611335 450.990266,770.665714 451.045238,766.577149 C451.164437,762.47341 450.069413,758.425814 447.897479,754.941911 C445.934616,751.847352 443.150617,749.35896 439.856038,747.754316 C436.513382,746.118315 432.801089,745.384642 429.08739,745.626074 C431.773692,745.054615 434.353806,744.065572 436.733768,742.694963 C439.846168,740.923496 442.438916,738.365904 444.252706,735.277976 C446.65852,731.026205 447.556717,726.086122 446.801498,721.259617 C446.057472,716.169949 443.730007,711.44368 440.14915,707.751017 C438.266057,706.092368 436.1651,704.698876 433.904608,703.609229 C429.853183,701.562941 425.248131,700.883361 420.778326,701.672146 C415.526252,702.791992 410.881517,705.832431 407.753996,710.197857 C404.240301,714.99874 402.392044,720.816498 402.490739,726.765009 C399.858403,722.36788 395.816179,718.990377 391.021173,717.181549 C386.516442,715.447064 381.535322,715.406309 377.002814,717.066853 C373.478538,718.423634 370.417745,720.76346 368.183991,723.80841 C365.852509,726.943694 364.484208,730.689915 364.246107,734.589802 C364.098309,737.051308 364.409451,739.518839 365.163672,741.866605 C365.909619,744.176179 367.06191,746.334027 368.56631,748.238586 L367.712465,747.716084 L366.858619,747.206325 C362.358535,744.462493 356.9526,743.619201 351.830619,744.862052 C346.708637,746.104904 342.290393,749.332037 339.548307,753.833186 L339.548307,753.833186 C336.804474,758.33327 335.961182,763.739205 337.204034,768.861187 C338.446885,773.983169 341.674019,778.401413 346.175168,781.143499 L354.700879,786.330291 L363.213846,791.517084 L355.784116,803.700313 L348.328897,815.883541 L360.575846,823.351503 L372.81005,830.806722 L380.23978,818.610749 L387.669511,806.427521 L396.169734,811.614314 L404.682701,816.788363 C409.182785,819.532196 414.58872,820.375487 419.710702,819.132636 C424.832684,817.889784 429.250927,814.662651 431.993013,810.161502 L431.993013,810.161502 C437.58892,800.965054 434.842511,788.984834 425.799447,783.144301 L425.799447,783.144301 Z" id="Path" fill="#BAB653"></path>
            <path d="M463.801945,486.949117 L466.236041,455.089209 L468.657394,423.229302 C468.657394,423.053345 468.800036,422.910703 468.975993,422.910703 C469.151951,422.910703 469.294593,423.053345 469.294593,423.229302 L473.742236,455.089209 L478.202623,486.949117 L549.976621,486.949117 L549.976621,425.981998 C546.753699,423.476063 543.40169,421.140716 539.934379,418.985563 C536.16874,416.639289 532.271133,414.511774 528.260909,412.613581 C515.470125,406.659318 501.730224,403.005411 487.671387,401.819445 C477.825574,400.963184 467.915673,401.185398 458.118137,402.482131 C452.021766,402.720128 445.95586,403.466111 439.983478,404.712324 C432.178315,406.352411 424.597125,408.919406 417.401176,412.358702 C412.932839,414.498076 408.637884,416.982162 404.555261,419.788432 C400.735388,422.411728 397.106947,425.303409 393.697405,428.441583 L393.697405,486.898141 L463.789201,486.898141 L463.801945,486.949117 Z" id="Path" fill="#F4ECE5"></path>
            <path d="M513.885741,363.867923 C513.890944,387.762753 497.015513,408.333417 473.580551,412.998762 C450.145589,417.664108 426.678716,405.12464 417.532426,383.04958 C408.386136,360.97452 416.108054,335.512699 435.975405,322.236733 C455.842756,308.960768 482.321648,311.568571 499.217417,328.465195 C508.619802,337.846218 513.898254,350.586046 513.885741,363.867923 Z" id="Path" fill="#FFAA9F"></path>
            <path d="M293.759248,625.450505 L254.737234,642.96071 L215.71522,660.419939 C213.173554,661.517875 210.220203,660.386323 209.062872,657.871146 L204.84462,648.453357 L200.639112,639.022825 C200.090932,637.805071 200.051793,636.418819 200.530389,635.172075 C201.008986,633.925331 201.965679,632.921356 203.187905,632.38322 L242.197175,614.923991 L281.219189,597.464762 C282.436943,596.916583 283.823195,596.877443 285.069939,597.35604 C286.316683,597.834636 287.320658,598.791329 287.858794,600.013555 L292.077045,609.444087 L296.295297,618.861876 C296.843959,620.081467 296.883432,621.469543 296.404965,622.718343 C295.926498,623.967143 294.969626,624.973477 293.746505,625.514224 L293.759248,625.450505 Z" id="Path" fill="#F98638"></path>
            <path d="M287.858794,599.949835 L362.347256,565.439184 L436.835719,530.941276 C437.043922,530.850371 437.28683,530.900804 437.441637,531.067078 C437.596444,531.233352 437.62942,531.479238 437.523893,531.680426 C433.045325,539.288749 428.010486,546.555615 422.460529,553.421627 C415.55528,561.98199 407.853125,569.867631 399.457676,576.97247 C381.942071,591.711911 361.735575,602.916584 339.956114,609.96659 C325.790243,614.569005 311.139052,617.515494 296.295297,618.74718 C294.893461,615.612165 293.491625,612.464406 292.077045,609.329392 C290.662466,606.194377 289.273374,603.08485 287.858794,599.949835 Z" id="Path" fill="#F4ECE5"></path>
            <path d="M492.11903,1098.59561 C492.025999,1098.60821 491.931694,1098.60821 491.838663,1098.59561 C491.742001,1098.58382 491.647562,1098.55806 491.558296,1098.51915 C491.159073,1098.37153 490.837048,1098.0679 490.666218,1097.67805 C490.50689,1097.29021 490.50689,1096.8552 490.666218,1096.46737 L549.530583,942.023285 L608.305739,787.540968 C608.996215,785.687067 610.749947,784.443787 612.727894,784.403026 C614.708563,784.337453 616.53305,785.476498 617.341209,787.286089 L686.681111,941.819382 L755.98278,1096.35268 C756.155582,1096.7599 756.155582,1097.21985 755.98278,1097.62707 C755.834806,1098.02309 755.530731,1098.34098 755.141679,1098.5064 C754.735385,1098.68373 754.273577,1098.68373 753.867283,1098.5064 C753.467263,1098.36007 753.144796,1098.05603 752.975205,1097.6653 L683.775487,943.119266 L614.473817,788.598717 C614.321291,788.204204 614.012182,787.890481 613.619972,787.732127 C613.38476,787.624032 613.126439,787.57587 612.868078,787.591944 C612.615733,787.597004 612.367647,787.657937 612.141672,787.770359 C611.761515,787.959419 611.469244,788.288224 611.326058,788.687924 L552.474438,943.13201 L493.610074,1097.5761 C493.491886,1097.88201 493.282861,1098.1444 493.011107,1098.32799 C492.74773,1098.50552 492.436636,1098.59885 492.11903,1098.59561 L492.11903,1098.59561 Z" id="Path" fill="#2B3D0A"></path>
            <path d="M437.842492,382.448621 C438.023205,383.162377 437.913198,383.918678 437.536637,384.551375 C437.15797,385.186852 436.541501,385.645069 435.823845,385.824483 C435.106189,386.003897 434.346614,385.88969 433.713448,385.507172 C432.400806,384.722402 431.972881,383.022114 432.757651,381.709471 C433.542421,380.396829 435.24271,379.968904 436.555352,380.753674 C437.189571,381.128562 437.651646,381.737037 437.842492,382.448621 L437.842492,382.448621 Z" id="Path" fill="#2B3D0A"></path>
            <path d="M222.163665,619.269683 C223.438062,621.015606 229.465956,629.694244 236.780991,639.086545 C244.096025,648.478845 252.672712,658.584808 258.879022,663.210866 C261.072663,664.963589 263.62749,666.20836 266.359728,666.85564 C267.503165,667.10927 268.685355,667.135252 269.83883,666.932104 C271.454243,666.572781 272.955817,665.819805 274.21001,664.740142 C275.174263,663.931004 276.030839,663.00162 276.758802,661.974702 C277.675756,662.405496 278.650098,662.701662 279.651682,662.854035 C283.573082,663.549022 287.431878,661.346292 288.827335,657.616267 C289.506263,655.856705 289.635135,653.932513 289.19691,652.098131 C290.157245,652.350089 291.14821,652.465916 292.140765,652.442218 C295.931895,652.406744 299.332109,650.101429 300.768428,646.592739 C301.514049,644.80151 301.760665,642.841792 301.48209,640.921675 C303.531381,641.253326 305.629675,641.105006 307.611936,640.488381 C310.670487,639.45612 313.70355,636.779888 313.652574,630.29321 C313.643802,629.354345 313.567138,628.417344 313.423183,627.489539 C313.313936,626.806028 313.165004,626.129454 312.977144,625.463249 C312.469241,623.680762 311.741491,621.96841 310.810671,620.365663 C310.046033,619.014803 309.396091,618.109982 309.396091,618.109982 C308.325598,616.606194 306.605163,614.133866 304.298506,610.884155 C301.991848,607.634445 299.200921,603.607352 295.938466,599.006782 C295.438343,598.314777 295.317932,597.418323 295.617725,596.618875 C295.917518,595.819427 296.597688,595.22319 297.42951,595.030665 L313.716294,591.207476 L330.003079,587.384288 C330.600535,587.249541 331.184815,587.061889 331.749002,586.823553 C332.312591,586.593811 332.847251,586.298679 333.341997,585.94422 C334.524866,585.093969 335.489926,583.976072 336.158413,582.681765 C336.830101,581.376704 337.142394,579.916404 337.063234,578.45077 C337.010979,576.598926 336.16634,574.858598 334.743833,573.671784 C333.12535,572.320924 330.512837,571.339638 326.422025,571.122991 L325.3133,571.059271 L324.21732,570.970063 L299.838119,568.421271 L275.458918,565.872478 C269.722684,565.282668 263.947496,566.532323 258.96823,569.440788 L241.929552,579.393823 L224.839897,589.436066 C222.103826,591.033897 219.873362,593.370363 218.404196,596.177622 C216.939053,598.977232 216.331766,602.14665 216.658273,605.289555 C216.904738,607.550688 217.431276,609.772422 218.225781,611.903672 C219.212154,614.519964 220.535975,616.99624 222.163665,619.269683 L222.163665,619.269683 Z" id="Path" fill="#FFAA9F"></path>
            <path d="M301.392882,642.514671 L301.176235,642.514671 L300.9341,642.514671 C298.614698,641.775521 294.154311,636.779888 289.961548,631.503887 C285.768784,626.227886 281.818155,620.684262 280.518271,618.836388 C280.276499,618.48715 280.180487,618.05738 280.250648,617.638455 C280.323981,617.222746 280.563195,616.854724 280.913334,616.618938 C281.254485,616.369883 281.683453,616.273019 282.098522,616.351315 C282.515215,616.422422 282.886559,616.656231 283.130783,617.001257 C286.788301,622.226282 290.879113,627.65521 294.358215,631.873462 C297.837317,636.091714 300.730196,639.086545 301.889897,639.51984 C302.298076,639.645008 302.638241,639.930011 302.83295,640.309965 C303.020281,640.6857 303.056759,641.11887 302.934902,641.520642 C302.832561,641.848616 302.626928,642.134715 302.348679,642.336255 C302.056175,642.493075 301.722264,642.555405 301.392882,642.514671 Z" id="Path" fill="#AD4D4D"></path>
            <path d="M289.107702,653.691135 L289.107702,653.691135 C286.291286,653.691135 281.308397,649.167019 276.491179,643.954739 C271.673961,638.742458 267.035158,632.854747 264.906917,630.089307 C264.643367,629.759257 264.528054,629.334905 264.588318,628.916862 C264.638956,628.498521 264.854583,628.117732 265.187284,627.859114 C265.525201,627.60144 265.950903,627.487003 266.372472,627.540514 C266.792349,627.595714 267.172965,627.815829 267.430221,628.152225 C271.559265,633.517433 276.287275,639.112033 280.327112,643.355772 C284.366948,647.599512 287.731354,650.505136 289.120446,650.505136 C289.542797,650.503462 289.947655,650.673686 290.241915,650.976662 C290.542453,651.27258 290.712225,651.676362 290.713441,652.098131 C290.703606,652.521859 290.535374,652.926526 290.241915,653.232344 C289.938436,653.527786 289.531239,653.692495 289.107702,653.691135 Z" id="Path" fill="#AD4D4D"></path>
            <path d="M277.778319,664.013736 C277.642669,664.026191 277.506163,664.026191 277.370512,664.013736 C277.236608,663.974822 277.108153,663.919158 276.988193,663.848065 C276.503923,663.567697 276.006908,663.28733 275.535382,662.994219 L274.095314,662.089398 C269.82734,659.345791 265.8779,656.135802 262.319892,652.518682 C258.629883,648.773344 255.337164,644.656378 252.494297,640.233501 C252.015693,639.49448 252.226803,638.5074 252.965824,638.028796 C253.704845,637.550192 254.691925,637.761302 255.170529,638.500323 C257.890569,642.735739 261.042437,646.677709 264.575574,650.263 C267.973067,653.718596 271.742764,656.787351 275.815749,659.413166 C276.274531,659.706277 276.733314,659.999388 277.192097,660.267011 C277.650879,660.534634 278.109662,660.827745 278.568445,661.082625 C278.936401,661.294366 279.206432,661.642202 279.320339,662.051166 C279.431163,662.46052 279.371392,662.897311 279.154667,663.261842 C279.020948,663.510489 278.817091,663.714346 278.568445,663.848065 C278.323476,663.969675 278.051505,664.026702 277.778319,664.013736 L277.778319,664.013736 Z" id="Path" fill="#AD4D4D"></path>
            <path d="M460.233635,373.18376 C460.406068,373.897922 460.29652,374.651069 459.92778,375.286514 C459.548446,375.919496 458.934852,376.377403 458.220089,376.56091 C457.510466,376.740944 456.758357,376.630879 456.130079,376.255055 C455.140246,375.692469 454.596367,374.580733 454.759747,373.453976 C454.923127,372.32722 455.760371,371.415747 456.869229,371.15747 C457.578454,370.970072 458.333453,371.080559 458.959239,371.463325 C459.598794,371.841336 460.058402,372.461807 460.233635,373.18376 Z" id="Path" fill="#2B3D0A"></path>
            <path d="M175.495273,786.96749 C175.750153,786.546939 176.005032,786.1009 176.247167,785.693093 C176.489303,785.285286 176.718694,784.762784 176.948085,784.265769 C178.103807,781.743874 178.913985,779.077575 179.356694,776.339025 C180.118739,771.993878 179.329341,767.51912 177.126501,763.697013 C174.814673,759.979152 171.296724,757.167492 167.160722,755.732037 C163.020553,754.214049 158.522553,753.961203 154.238343,755.005631 C150.428037,755.964306 146.95699,757.957843 144.208845,760.765902 C141.420559,763.602947 139.417946,767.116303 138.397598,770.961072 C138.729042,768.027943 138.600046,765.061032 138.015279,762.167738 C137.254178,758.388834 135.518914,754.874374 132.981413,751.972568 C129.474087,748.06718 124.749395,745.462312 119.574764,744.581069 C114.154193,743.667329 108.583559,744.473957 103.644811,746.887726 C101.297747,748.231559 99.1525143,749.900551 97.2728295,751.845128 C93.8262381,755.292022 91.5904087,759.763681 90.9008481,764.589091 C90.2723491,770.322248 91.8036145,776.083804 95.1955636,780.748436 C98.9031514,785.944477 104.205591,789.788186 110.29716,791.6955 C104.930395,792.881575 100.123779,795.850896 96.6611193,800.119259 C93.35643,804.130798 91.6298729,809.210773 91.8056695,814.405241 C91.9945222,818.451508 93.3438566,822.357942 95.6925781,825.658161 C98.0964508,829.09073 101.448978,831.747951 105.339758,833.304538 C107.796104,834.291584 110.415462,834.810269 113.062599,834.833814 C115.667134,834.870225 118.257037,834.438574 120.708977,833.559418 L119.893364,834.247592 L119.07775,834.935766 C110.099335,842.559499 108.998313,856.017065 116.618165,864.998774 L116.618165,864.998774 C124.237352,873.97567 137.690927,875.076832 146.668429,867.458359 L154.824566,860.551131 L162.967958,853.643903 L192.776087,888.779009 L222.59696,923.926858 L234.321406,913.973823 L246.045852,904.020788 L216.237723,868.885683 L186.429594,833.737833 L194.572986,826.830605 L202.716378,819.910633 C207.035079,816.257381 209.722832,811.035981 210.186654,805.398401 C210.650475,799.760821 208.852248,794.170346 205.188707,789.860369 L205.188707,789.860369 C197.726211,780.978419 184.531813,779.692957 175.495273,786.96749 Z" id="Path" fill="#BAB653"></path>
            <path d="M452.549025,397.626681 C451.151839,397.62141 449.76519,397.38456 448.445469,396.925763 C447.771248,396.700061 447.122116,396.405389 446.508387,396.04643 C446.140179,395.840836 445.876253,395.488934 445.781981,395.077888 C445.678256,394.668107 445.737652,394.234062 445.947653,393.867212 C446.399729,393.117472 447.369067,392.868052 448.12687,393.306478 C448.922203,393.751578 449.782158,394.069761 450.675663,394.249531 C454.186506,395.088291 457.827788,393.496531 459.596437,390.349878 C460.053736,389.577633 460.38903,388.739396 460.590466,387.864805 C460.684694,387.454442 460.9305,387.094837 461.27864,386.858032 C461.635034,386.633939 462.064266,386.556312 462.476572,386.641385 C462.896182,386.721558 463.266548,386.965635 463.505719,387.319608 C463.74489,387.673582 463.83315,388.10827 463.750969,388.527492 C463.461566,389.791265 462.971047,391.00035 462.298157,392.108545 C461.112291,394.120411 459.331135,395.714546 457.200572,396.670884 C456.449248,397.007708 455.66278,397.259891 454.855683,397.422778 C454.095197,397.565154 453.322695,397.633441 452.549025,397.626681 Z" id="Path" fill="#AD4D4D"></path>
            <path d="M470.913076,521.294096 C470.913076,523.405585 469.201376,525.117285 467.089887,525.117285 C465.517206,525.148049 464.086185,524.212433 463.483592,522.759451 C462.880998,521.30647 463.229831,519.632697 464.362679,518.5414 C465.452469,517.398904 467.13248,517.04385 468.591346,517.647714 C470.050212,518.251577 470.987803,519.690125 470.951308,521.268608 L470.913076,521.294096 Z" id="Path" fill="#353519"></path>
            <path d="M690.580763,797.799858 L532.555624,797.799858 C527.828799,797.79284 523.998699,793.96274 523.991681,789.235915 L523.991681,763.747989 C523.998699,759.021164 527.828799,755.191065 532.555624,755.184046 L690.580763,755.184046 C695.307588,755.191065 699.137688,759.021164 699.144706,763.747989 L699.144706,789.235915 C699.137688,793.96274 695.307588,797.79284 690.580763,797.799858 L690.580763,797.799858 Z" id="Path" fill="#DEB8FC"></path>
            <path d="M470.913076,553.880409 C470.913076,555.991898 469.201376,557.703598 467.089887,557.703598 C465.349791,557.72231 463.816594,556.563548 463.359709,554.8844 C462.902825,553.205251 463.637537,551.429407 465.147219,550.563877 C466.656902,549.698347 468.560625,549.961527 469.778863,551.204177 C470.494525,551.912142 470.902084,552.873799 470.913076,553.880409 Z" id="Path" fill="#353519"></path>
            <path d="M744.984741,577.673401 L518.29513,577.673401 C516.583858,577.67678 514.941699,576.998481 513.731645,575.788427 C512.521591,574.578373 511.843292,572.936214 511.846672,571.224943 L511.846672,567.070411 C511.843292,565.359139 512.521591,563.71698 513.731645,562.506926 C514.941699,561.296872 516.583858,560.618574 518.29513,560.621953 L744.984741,560.621953 C746.696012,560.618574 748.338171,561.296872 749.548225,562.506926 C750.758279,563.71698 751.436578,565.359139 751.433198,567.070411 L751.433198,571.224943 C751.436578,572.936214 750.758279,574.578373 749.548225,575.788427 C748.338171,576.998481 746.696012,577.67678 744.984741,577.673401 L744.984741,577.673401 Z" id="Path" fill="#F98638"></path>
            <path d="M735.745367,1097.10457 L735.668904,1097.10457 C735.223695,1097.12165 734.790872,1096.95589 734.470971,1096.64579 C734.186073,1096.33402 734.039036,1095.92048 734.063164,1095.49883 L739.160749,978.917058 L744.258335,862.322542 C744.276761,861.901497 744.465325,861.505971 744.780837,861.226561 C745.093041,860.949517 745.497699,860.799475 745.91505,860.805805 C746.337637,860.822028 746.736513,861.005419 747.023775,861.315769 C747.308402,861.628472 747.45935,862.040149 747.444325,862.462725 L742.34674,979.057241 L737.249155,1095.63901 C737.215154,1096.48891 736.519456,1097.16216 735.668904,1097.16829 L735.745367,1097.10457 Z" id="Path" fill="#2B3D0A"></path>
            <path d="M715.444235,677.369409 L547.835635,677.369409 C536.574361,677.369409 527.445295,668.240343 527.445295,656.979069 L527.445295,577.673388 L735.809087,577.673388 L735.809087,656.979069 C735.809087,668.240343 726.680021,677.369409 715.418747,677.369409 L715.444235,677.369409 Z" id="Path" fill="#F98638"></path>
            <path d="M737.121715,742.542035 L737.74617,742.134228 L738.383368,741.662702 C739.458263,740.813151 740.414118,739.823005 741.225271,738.718846 C742.54557,736.976121 743.208933,734.823577 743.098634,732.639976 C742.930298,730.485532 742.031049,728.453232 740.549841,726.879705 C739.06625,725.280882 737.141237,724.158697 735.018962,723.655482 C733.123609,723.213358 731.142734,723.306005 729.296922,723.923105 C727.424588,724.556261 725.747645,725.662517 724.428728,727.134584 C725.234816,725.915847 725.845404,724.578575 726.238371,723.171212 C726.762822,721.34278 726.793602,719.408057 726.327579,717.563868 C725.658691,715.052465 724.163833,712.839357 722.083839,711.281094 C719.903978,709.639672 717.267142,708.71767 714.539413,708.643094 C713.207505,708.726177 711.8922,708.98324 710.627017,709.407732 C708.332643,710.140799 706.338138,711.598666 704.943209,713.562264 C703.372784,715.943142 702.74578,718.823727 703.184542,721.641936 C703.649182,724.766521 705.116114,727.655662 707.364562,729.874536 C704.734814,729.184134 701.948433,729.408842 699.463305,730.511734 C695.120185,732.336811 692.569515,736.876583 693.269739,741.535262 C693.725501,744.921498 695.77771,747.883693 698.787875,749.500239 C699.93373,750.096867 701.176453,750.485218 702.458137,750.647195 L701.935634,750.774635 L701.425876,750.889331 C698.700131,751.525493 696.339396,753.219793 694.864321,755.598562 C693.389245,757.97733 692.920998,760.845163 693.56285,763.569574 L693.56285,763.569574 C694.198449,766.309733 695.901812,768.682697 698.294652,770.161472 C700.687492,771.640247 703.571724,772.102417 706.306813,771.445343 L713.558128,769.597468 L720.822187,767.762338 L730.647782,815.004208 L740.537097,862.297054 L752.478191,862.297054 L741.913445,813.869995 L731.361444,765.442936 L736.459029,764.16854 L741.556615,762.970608 C744.290827,762.326013 746.656325,760.620252 748.131402,758.229527 C749.60648,755.838801 750.069966,752.9595 749.41964,750.226645 L749.41964,750.226645 C748.10342,744.659784 742.595581,741.151714 736.994276,742.312644 L737.121715,742.542035 Z" id="Path" fill="#BAB653"></path>
            <path d="M773.301826,773.535353 L772.664628,773.114802 C772.460724,772.974618 772.244077,772.808947 772.040174,772.643275 C770.957038,771.798755 769.996327,770.808022 769.185526,769.69942 C767.870669,767.959399 767.2118,765.811303 767.324907,763.633294 C767.487357,761.473613 768.38723,759.435402 769.8737,757.860278 C771.352401,756.2618 773.273276,755.139441 775.391836,754.636056 C777.287127,754.19326 779.268187,754.285915 781.113875,754.903679 C782.989053,755.531004 784.667393,756.638182 785.982069,758.115158 C785.179228,756.894623 784.568879,755.557873 784.172426,754.151785 C783.658741,752.321269 783.632382,750.388284 784.095962,748.544442 C784.764851,746.033039 786.259708,743.819931 788.339702,742.261668 C790.515802,740.614866 793.155797,739.696219 795.884128,739.636412 C797.212619,739.704752 798.525116,739.957815 799.783781,740.388305 C802.081986,741.120594 804.080788,742.578334 805.480332,744.542837 C807.050757,746.923715 807.677762,749.8043 807.238999,752.62251 C806.77436,755.747095 805.307427,758.636236 803.058979,760.85511 C805.688727,760.164708 808.475109,760.389416 810.960236,761.492308 C815.303357,763.317385 817.854026,767.857157 817.153802,772.515836 C816.859959,774.571834 815.974385,776.497959 814.605009,778.059459 C812.875357,780.033567 810.480734,781.303443 807.876197,781.627769 L808.385956,781.755209 L808.908458,781.869904 C811.644465,782.51143 814.012138,784.216583 815.487764,786.608197 C816.96339,788.999812 817.425357,791.880785 816.771483,794.613867 L816.771483,794.613867 C816.132794,797.352227 814.42882,799.723002 812.036875,801.201224 C809.644931,802.679445 806.762382,803.143142 804.02752,802.489636 L796.763461,800.654506 L789.512147,798.806631 L781.585402,830.666538 L773.658657,862.462725 L761.717564,862.462725 L770.306995,829.557813 L779.074841,796.538206 L773.977256,795.263809 L768.879671,794.065877 C766.14006,793.430532 763.768005,791.7266 762.291273,789.333193 C760.814541,786.939787 760.355631,784.055445 761.016646,781.321914 L761.016646,781.321914 C762.309026,775.738151 767.835467,772.218233 773.44201,773.407913 L773.301826,773.535353 Z" id="Path" fill="#BAB653"></path>
            <path d="M829.65563,1098.59561 L681.379622,1098.59561 L704.255035,979.668952 L727.117705,860.74229 L780.718812,860.74229 L805.187221,979.668952 L829.65563,1098.59561 Z M685.241043,1095.37139 L825.743233,1095.37139 L801.93751,979.63072 L778.119044,863.890049 L729.691985,863.890049 L707.428282,979.63072 L685.241043,1095.37139 Z" id="Shape" fill="#2B3D0A" fill-rule="nonzero"></path>
            <polygon id="Path" fill="#353519" points="744.334798 969.639453 700.954349 969.639453 657.573899 969.639453 657.573899 961.126486 657.573899 952.626262 700.954349 952.626262 744.334798 952.626262 744.334798 961.126486"></polygon>
            <polygon id="Path" fill="#BAB653" points="657.573899 969.639453 645.301463 1034.11116 633.016283 1098.57012 702.152281 1098.57012 771.275536 1098.57012 757.805167 1034.11116 744.334798 969.639453 700.954349 969.639453"></polygon>
            <path d="M725.320806,1100.16331 L725.104158,1100.16331 C724.685854,1100.10929 724.306425,1099.89048 724.05032,1099.55538 C723.794214,1099.22029 723.682685,1098.79673 723.740554,1098.37897 L732.431937,1033.62689 L741.12332,968.874815 C741.211161,968.238334 741.67277,967.716931 742.293912,967.552593 C742.915054,967.388255 743.574116,967.613158 743.965223,968.122921 C744.222897,968.460838 744.337334,968.886541 744.283823,969.30811 L735.59244,1034.04744 L726.901057,1098.79952 C726.846646,1099.18401 726.656855,1099.53647 726.365811,1099.79355 C726.072948,1100.03786 725.702151,1100.169 725.320806,1100.16331 Z" id="Path" fill="#353519"></path>
            <path d="M704.14034,1069.76883 L664.238992,1069.76883 C662.586857,1069.77648 661.01698,1069.04856 659.955426,1067.78258 C658.893872,1066.5166 658.450757,1064.84387 658.746344,1063.21837 L664.149784,1033.11713 L669.553224,1003.02864 C670.03307,1000.37715 672.338579,998.446955 675.033129,998.440809 L714.934476,998.440809 C716.586167,998.440809 718.152751,999.173618 719.212797,1000.44026 C720.272842,1001.70691 720.71749,1003.37798 720.427124,1005.00395 L715.023684,1035.09245 L709.632988,1065.18094 C709.15228,1067.83715 706.839697,1069.76883 704.14034,1069.76883 L704.14034,1069.76883 Z" id="Path" fill="#353519"></path>
            <path d="M581.097378,560.50727 C569.054334,546.323239 558.451357,534.127267 550.511868,525.257469 C542.572379,516.387671 537.181683,510.831303 535.639663,509.964713 C534.501348,509.276482 533.218743,508.862034 531.892938,508.754037 C531.401428,508.714345 530.906733,508.753061 530.427382,508.868733 C530.124171,508.961086 529.829875,509.08051 529.548049,509.225564 C529.257315,509.375407 528.980154,509.550232 528.719691,509.748066 C528.260909,510.104897 527.712918,510.525448 527.101208,511.022462 C526.489498,511.519477 525.826812,512.092955 524.972966,512.768385 L521.646792,509.1491 L518.651961,505.861157 L520.232212,504.586761 L521.659536,503.439804 C524.727337,500.999578 528.561028,499.726196 532.47916,499.846007 C536.397655,499.964547 540.139189,501.504646 543.005674,504.178954 C544.076166,505.185727 545.057452,506.1925 545.898553,507.097322 C546.739655,508.002143 547.427829,508.792269 547.937587,509.378491 C553.88477,516.226247 560.68155,523.893865 568.327928,532.381344 C575.974305,540.868823 584.389569,550.278116 593.573718,560.609222 L587.316432,560.545502 L581.097378,560.50727 Z" id="Path" fill="#353519"></path>
            <path d="M547.134718,564.585338 C540.878801,560.628315 533.977538,557.798797 526.744377,556.225298 C519.459895,554.644915 511.969433,554.24049 504.557138,555.027366 C493.714177,556.220781 483.31653,560.001346 474.23925,566.050894 C468.168378,570.095988 462.561249,574.797088 457.519171,580.069253 C453.849244,583.782442 450.514367,587.812441 447.553392,592.112298 C444.800696,596.050182 442.455807,599.924347 440.289333,603.671072 C436.784799,609.559306 433.66452,615.667902 430.948008,621.958659 C428.513911,627.578746 426.704269,632.625356 425.353409,636.843607 L425.124017,636.843607 C425.608288,643.075405 426.398414,649.816962 427.596346,656.685957 C428.798512,663.660091 430.502127,670.538436 432.693931,677.267457 L558.094526,677.267457 C561.268739,673.417868 564.088151,669.288986 566.518285,664.931301 C569.758693,659.198324 572.239114,653.067959 573.897039,646.694691 C577.321928,632.692923 577.409234,618.082344 574.151919,604.040647 C570.494401,588.875331 562.300033,574.245262 547.134718,564.585338 Z" id="Path" fill="#F4ECE5"></path>
            <path d="M364.360803,630.650041 C357.313391,629.044302 350.673787,627.221915 344.454733,625.259345 C338.235679,623.296775 332.462664,621.219509 327.135687,619.104011 L322.904691,632.765539 L318.673696,646.478043 L340.68252,650.912942 L362.665856,655.309609 L341.523621,655.475281 L320.381387,655.640953 L320.381387,677.305689 L432.770395,677.305689 C430.578591,670.576667 428.874976,663.698323 427.67281,656.724189 C426.398414,649.855193 425.684752,643.113637 425.200481,636.881839 C415.898268,637.045367 406.594065,636.700767 397.329434,635.849578 C386.237041,634.847046 375.223334,633.110057 364.360803,630.650041 Z" id="Path" fill="#E9CF81"></path>
            <path d="M428.768791,644.655657 C428.595981,644.656275 428.424104,644.630326 428.259032,644.579193 C428.09381,644.524305 427.938795,644.442491 427.80025,644.337057 C427.459393,644.08375 427.238091,643.701082 427.188539,643.279309 C427.123153,642.862973 427.233962,642.438204 427.494394,642.106864 C434.268792,633.373385 442.185611,625.589442 451.032494,618.963827 C477.715024,598.679972 511.725013,590.612551 544.675133,596.7511 C555.431599,598.720609 565.876471,602.119371 575.73217,606.857063 C576.110963,607.037924 576.400531,607.364264 576.53504,607.761884 C576.680582,608.160422 576.65835,608.600937 576.473424,608.982797 C576.288498,609.364658 575.956675,609.655243 575.553755,609.788174 C575.158422,609.93312 574.721011,609.910098 574.343078,609.724454 C564.746058,605.109231 554.575698,601.796257 544.101654,599.873371 C512.016259,593.917647 478.907622,601.785229 452.931344,621.538108 C444.312826,627.990144 436.59779,635.568025 429.992211,644.069434 C429.845117,644.273626 429.647505,644.436107 429.418733,644.540961 C429.212066,644.622734 428.990964,644.661752 428.768791,644.655657 Z" id="Path" fill="#666538"></path>
            <path d="M473.742236,663.516722 C458.408218,663.513409 443.142853,661.46917 428.34824,657.437851 C427.783101,657.302215 427.336681,656.869565 427.183409,656.308952 C427.030138,655.748339 427.194342,655.148745 427.611863,654.744449 C428.029383,654.340153 428.63395,654.195326 429.189342,654.366556 C441.378492,657.678132 453.897427,659.627136 466.516409,660.177803 C494.351311,661.407949 522.042733,655.549558 546.994534,643.151869 C557.08946,638.118417 566.649362,632.076764 575.528267,625.119162 C576.222104,624.582798 577.218971,624.708118 577.75846,625.399529 C578.014995,625.733482 578.133596,626.153145 578.089803,626.571973 C578.040252,626.993747 577.81895,627.376415 577.478093,627.629722 C568.433709,634.721018 558.694349,640.878036 548.409114,646.006517 C531.412749,654.437125 513.113923,659.93496 494.285504,662.267813 C487.469155,663.097533 480.608897,663.514595 473.742236,663.516722 L473.742236,663.516722 Z" id="Path" fill="#666538"></path>
            <path d="M863.567315,369.169412 C860.105758,364.661688 855.960631,360.722957 851.282134,357.495942 C846.583378,354.249776 841.518933,351.567844 836.193282,349.505477 C828.04989,346.293999 819.2693,344.688259 811.113164,345.682289 C802.603189,346.64595 794.869363,351.082409 789.741538,357.941981 C782.439247,367.563673 778.972889,378.332321 774.040976,387.966757 C769.109062,397.601193 762.724337,405.808305 749.585311,410.447108 C741.938933,413.110596 734.662131,413.161572 727.334352,412.779253 C720.006573,412.396934 712.691539,411.594064 705.083393,412.537118 C699.4044,413.250698 693.880907,414.890956 688.732889,417.392567 C683.591138,419.892213 678.883963,423.201005 674.790993,427.192675 C667.403214,434.620409 661.525956,443.410329 657.484692,453.075663 C653.389957,462.713281 650.306396,472.749804 648.283551,483.023976 C644.458392,501.431702 635.599714,518.416717 622.693673,532.088233 C609.798429,545.730313 593.333377,555.479531 575.171436,560.226903 C574.687165,560.367086 574.292102,560.456294 574.037223,560.520014 L573.64216,560.621966 L744.984741,560.621966 C752.490129,558.175478 759.660907,554.802002 766.330878,550.579723 C773.010366,546.360811 778.746106,540.807296 783.178397,534.267451 C788.505374,526.213266 788.772997,517.521883 788.505374,508.703061 C788.23775,499.884239 787.447625,490.925233 790.608127,482.374034 C793.76863,473.822835 799.375974,469.757511 805.900883,467.272438 C812.425792,464.787365 819.919242,463.74236 826.915678,460.696553 C834.564902,457.211615 841.483905,452.307772 847.306018,446.244899 C853.174691,440.258209 858.273431,433.562634 862.484078,426.313341 C867.714881,417.58806 870.871588,407.777853 871.710707,397.639425 C872.562408,387.47355 869.665943,377.347257 863.567315,369.169412 Z M718.57925,479.837985 C715.708575,486.68594 711.462067,492.871354 706.10291,498.010876 C701.566059,502.063456 697.016464,503.809379 693.524619,502.254616 C690.032773,500.699852 688.261362,496.175746 688.22313,490.096875 C688.929682,475.154252 695.192789,461.014538 705.784311,450.450407 C710.321162,446.397827 714.870756,444.651904 718.362602,446.206667 C721.854448,447.761431 723.625859,452.285538 723.664091,458.377152 C723.450348,465.802663 721.719932,473.105971 718.57925,479.837985 Z" id="Shape" fill="#E9CF81" fill-rule="nonzero"></path>
            <path d="M325.3133,712.644698 C325.772083,712.644698 326.24361,712.542747 326.72788,712.479027 L328.180692,712.211404 C330.710858,711.696473 333.159005,710.838978 335.457495,709.662611 C339.131271,707.824348 342.04113,704.752078 343.677351,700.983972 C345.191446,697.190353 345.349007,692.99025 344.12339,689.093855 C342.959552,685.152462 340.653451,681.644528 337.496529,679.01338 C334.661793,676.690766 331.238528,675.199704 327.607214,674.705921 C323.930408,674.171713 320.177795,674.611129 316.72387,675.980317 C319.104933,674.598834 321.254972,672.853002 323.095851,670.806268 C325.503647,668.151446 327.16569,664.906504 327.913069,661.401224 C328.893107,656.610908 328.223886,651.629931 326.014218,647.268169 C323.709256,642.671169 320.024115,638.910276 315.474961,636.512264 C313.163573,635.526525 310.728096,634.861914 308.23639,634.53695 C303.754185,633.848574 299.169673,634.635768 295.173828,636.779888 C290.52994,639.486854 287.06614,643.832514 285.462929,648.963116 C283.626173,654.621183 283.684336,660.72385 285.6286,666.345881 C281.757062,662.982556 276.861108,661.028666 271.737681,660.802257 C266.904109,660.564061 262.148654,662.090336 258.35652,665.096973 C255.433334,667.483608 253.257063,670.659548 252.08649,674.247138 C250.024097,680.375427 251.054495,687.122871 254.85193,692.356309 C256.281004,694.323995 258.05055,696.02017 260.076955,697.364687 L259.108414,697.135296 L258.139872,696.905904 C253.000465,695.707393 247.595412,696.601469 243.115707,699.391126 C238.636001,702.180782 235.449264,706.637089 234.257686,711.778109 L234.257686,711.778109 C231.759606,722.469196 238.400791,733.161275 249.091659,735.660295 L258.789814,737.928721 L268.48797,740.197146 L265.23826,754.088065 L261.988549,767.991729 L275.943188,771.254183 L289.961548,774.516638 L293.211258,760.612974 L296.448225,746.709311 L306.14638,748.977736 L315.844536,751.246162 C326.535623,753.744241 337.227703,747.103057 339.726722,736.412189 L339.726722,736.412189 C342.167031,725.913276 335.796328,715.382115 325.364276,712.670186 L325.3133,712.644698 Z" id="Path" fill="#BAB653"></path>
            <path d="M431.776366,342.661969 C437.151916,349.834922 444.56393,355.221844 453.04604,358.120396 C461.322932,360.972445 470.285396,361.159627 478.674149,358.655643 C484.450243,356.89384 489.77024,353.88802 494.260016,349.849564 C498.771176,345.79349 502.38674,340.84108 504.875737,335.308703 C500.327747,328.805929 494.311441,323.466348 487.314556,319.722836 C471.802459,311.48342 453.108239,311.969839 438.045618,321.004804 C422.982996,330.039768 413.752381,346.303414 413.718171,363.867923 C413.721499,366.315928 413.900373,368.760543 414.253417,371.182958 C414.60571,373.54891 415.125266,375.886914 415.808181,378.179394 C416.647509,377.801768 417.464467,377.376269 418.255021,376.904997 C418.925708,376.512816 419.576455,376.087491 420.204848,375.630601 C427.188539,370.443808 430.132395,362.657247 431.304839,355.941179 C432.076473,351.557998 432.235167,347.088841 431.776366,342.661969 L431.776366,342.661969 Z" id="Path" fill="#AD4D4D"></path>
            <path d="M235.952633,1016.43528 C234.506663,1020.39281 231.583253,1023.63597 227.796497,1025.4835 C219.815375,1029.46007 210.12104,1026.82413 205.252427,1019.35365 C202.960746,1015.83389 202.124654,1011.56206 202.920281,1007.43805 C206.921886,972.451621 210.919242,937.460947 214.91235,902.466025 L226.917163,797.494003 C228.106353,785.875786 234.335407,775.365131 243.955842,768.743623 C253.782086,761.923418 265.99448,759.478171 277.689111,761.989322 L277.689111,761.989322 C289.465583,764.371584 299.719877,771.546358 305.993453,781.793441 C312.146866,791.775329 313.596433,803.959148 309.956825,815.106159 L272.999333,915.783466 L235.952633,1016.43528 Z" id="Path" fill="#F98638"></path>
            <path d="M301.800689,837.280655 L301.596786,837.280655 L301.392882,837.280655 L282.366146,832.399717 L263.339409,827.518779 C262.931374,827.410468 262.583018,827.144618 262.370868,826.779629 C262.140704,826.39672 262.076291,825.936628 262.192453,825.505233 C262.300764,825.097198 262.566614,824.748842 262.931602,824.536692 C263.29322,824.325692 263.722124,824.261812 264.129535,824.358276 L283.169015,829.251958 L302.195752,834.120152 C302.603787,834.228463 302.952143,834.494314 303.164293,834.859302 C303.581887,835.546894 303.411179,836.438983 302.76923,836.923824 C302.494934,837.146964 302.154191,837.272501 301.800689,837.280655 L301.800689,837.280655 Z" id="Path" fill="#2B3D0A"></path>
            <path d="M288.980262,873.422533 L288.776359,873.422533 L288.5852,873.422533 L272.018048,869.178794 L255.450896,864.92231 C255.036476,864.828349 254.680489,864.564826 254.469611,864.195904 C254.256556,863.830342 254.192653,863.396709 254.291196,862.985228 C254.399507,862.577193 254.665357,862.228837 255.030345,862.016687 C255.395907,861.803632 255.82954,861.739728 256.241022,861.838271 L272.808174,866.094755 L289.375325,870.338494 C289.782425,870.441151 290.131328,870.702828 290.343866,871.0649 C290.562157,871.428609 290.626373,871.864359 290.522282,872.275577 C290.429007,872.618468 290.227954,872.922281 289.948804,873.142166 C289.665646,873.339741 289.325177,873.438298 288.980262,873.422533 L288.980262,873.422533 Z" id="Path" fill="#2B3D0A"></path>
            <path d="M452.039267,585.740316 C445.644034,583.884498 439.021581,582.928017 432.362588,582.898413 C421.950771,582.898413 409.232296,585.192326 398.744014,594.367979 C393.953181,598.588534 390.102105,603.768166 387.440119,609.571527 C385.459607,613.954992 383.8855,618.510943 382.737597,623.182079 C380.516621,631.601867 379.656163,640.32261 380.188804,649.014092 C380.800515,657.157484 383.056196,663.758857 387.478351,665.581244 C388.205581,665.871506 388.977087,666.035289 389.759521,666.065514 C390.793936,666.087548 391.825566,665.949997 392.818072,665.657707 C393.311294,667.711716 394.407512,669.571292 395.96583,670.997428 C397.432805,672.341701 399.298978,673.169619 401.280063,673.355061 C403.090034,673.464693 404.890438,673.020149 406.441368,672.080665 C407.298846,671.598672 408.083977,670.998026 408.773513,670.29651 C410.09401,672.312823 412.028969,673.850065 414.291649,674.680433 C416.433401,675.451006 418.776758,675.451006 420.91851,674.680433 C421.842778,674.32941 422.70366,673.830098 423.467302,673.202133 C424.144101,672.632356 424.743858,671.976908 425.251457,671.252307 C425.869729,670.378937 426.351048,669.416299 426.678781,668.397659 C427.006483,667.376867 427.207642,666.319709 427.277747,665.249901 L427.698298,658.227977 L428.118849,651.206053 C428.762392,640.432913 430.797075,629.788307 434.172231,619.537306 C437.556733,609.312095 442.352273,599.60949 448.419981,590.710462 C448.99346,589.86936 449.579682,589.015515 450.191392,588.161669 C450.803102,587.307824 451.414813,586.568674 452.039267,585.740316 Z" id="Path" fill="#FFAA9F"></path>
            <path d="M392.818072,667.250705 C392.429289,667.251409 392.053453,667.111037 391.760323,666.85564 C391.470326,666.599445 391.28441,666.245751 391.23782,665.861611 C390.79722,662.393932 390.533503,658.906065 390.447695,655.411561 C390.353666,651.938881 390.438738,648.463663 390.702574,644.999744 C390.962621,640.720917 391.503278,636.463776 392.321057,632.255781 C393.52026,626.161703 395.508043,620.24976 398.234256,614.669112 C398.514623,614.08289 398.807734,613.509411 399.113589,612.935933 C399.419444,612.362455 399.725299,611.788976 400.031155,611.228242 C400.470501,610.465851 401.438456,610.194144 402.210372,610.616532 C402.577537,610.823165 402.847891,611.166835 402.962266,611.572329 C403.06851,611.979224 403.018497,612.411156 402.822082,612.783006 C402.516227,613.318252 402.223116,613.866242 401.930005,614.414233 C401.636894,614.962223 401.356527,615.510214 401.088903,616.070948 C398.501445,621.426081 396.616729,627.093079 395.48156,632.931211 C394.125054,640.314707 393.52299,647.817023 393.684661,655.322353 C393.761472,658.710587 394.016705,662.092422 394.449299,665.453804 C394.498738,665.875085 394.384707,666.299283 394.1307,666.638992 C393.868128,666.973538 393.482685,667.189203 393.060207,667.237959 L392.869047,667.237959 L392.818072,667.250705 Z" id="Path" fill="#AD4D4D"></path>
            <path d="M408.773513,671.953225 C408.376996,671.950027 407.995684,671.800226 407.70302,671.532674 C407.401014,671.265898 407.217598,670.889895 407.193262,670.487669 C405.383619,648.950372 407.677532,634.804573 410.481204,626.087703 C413.284876,617.370832 416.61105,613.853498 416.853185,613.573131 C417.157414,613.278841 417.564123,613.114328 417.987398,613.114328 C418.407331,613.112191 418.810852,613.277268 419.108867,613.573131 C419.405903,613.87141 419.57504,614.273682 419.580414,614.6946 C419.582551,615.114532 419.417474,615.518054 419.121611,615.816069 C419.032403,615.905276 415.986596,619.180475 413.374084,627.604234 C410.761571,636.027994 408.607842,649.574826 410.34102,670.220046 C410.414502,671.09618 409.764274,671.866187 408.888209,671.940481 L408.748025,671.940481 L408.773513,671.953225 Z" id="Path" fill="#AD4D4D"></path>
            <path d="M256.368462,1050.62734 C253.971256,1054.10992 250.316438,1056.52667 246.173291,1057.36889 C241.954512,1058.25681 237.556599,1057.56766 233.811647,1055.43181 C230.069816,1053.30998 227.246071,1049.8779 225.884902,1045.79737 C224.530952,1041.81505 224.787058,1037.46125 226.598564,1033.66512 C239.1896,1000.76871 251.784883,967.880786 264.384414,935.001362 C276.983945,902.121938 289.579229,869.234018 302.170264,836.337602 C306.227906,825.386584 314.882292,816.764803 325.848547,812.748526 C337.083869,808.589156 349.539906,809.267318 360.257247,814.621889 L360.257247,814.621889 C371.064866,819.873095 379.206613,829.376415 382.737597,840.861708 C386.206325,852.063427 384.570311,864.224004 378.264466,874.110707 L317.33558,962.375394 L256.368462,1050.62734 Z" id="Path" fill="#F98638"></path>
            <path d="M357.835894,1098.57012 L179.675293,1098.57012 L167.912616,988.793629 L156.149938,879.029877 C156.010497,877.607299 156.474739,876.191532 157.429481,875.127746 C158.384223,874.06396 159.741738,873.449901 161.171059,873.435277 L374.186398,873.435277 C375.608211,873.447592 376.960268,874.053181 377.916116,875.105824 C378.871965,876.158468 379.34473,877.562493 379.220263,878.978901 L368.528078,988.780885 L357.835894,1098.57012 Z" id="Path" fill="#666538"></path>
            <path d="M376.645983,902.644443 L158.507571,902.644443 C158.081668,902.645206 157.673194,902.475391 157.373358,902.172914 C156.920292,901.715859 156.786741,901.031088 157.034857,900.437282 C157.282973,899.843476 157.864014,899.45729 158.507571,899.458447 L376.645983,899.458447 C377.28954,899.45729 377.870581,899.843476 378.118697,900.437282 C378.366813,901.031088 378.233262,901.715859 377.780195,902.172914 C377.48036,902.475391 377.071886,902.645206 376.645983,902.644443 Z" id="Path" fill="#2B3D0A"></path>
            <path d="M463.24121,1026.93631 C463.323694,1039.59338 458.605916,1051.81133 450.038465,1061.12836 C441.904359,1070.15072 430.326255,1075.30123 418.178558,1075.30123 C406.03086,1075.30123 394.452757,1070.15072 386.318651,1061.12836 C368.761447,1041.71444 368.761447,1012.15818 386.318651,992.744257 C394.452757,983.721903 406.03086,978.571388 418.178558,978.571388 C430.326255,978.571388 441.904359,983.721903 450.038465,992.744257 C458.603723,1002.06265 463.321154,1014.2797 463.24121,1026.93631 L463.24121,1026.93631 Z" id="Path" fill="#DEB8FC"></path>
            <path d="M522.003623,1000.82393 L424.321146,1000.82393 L424.321146,999.34563 C424.317753,986.380563 429.470093,973.946281 438.64256,964.783376 C447.815027,955.620471 460.254676,950.481103 473.219733,950.497979 L473.219733,950.497979 C500.194608,950.505055 522.060308,972.370755 522.067343,999.34563 L522.067343,1000.82393 L522.003623,1000.82393 Z" id="Path" fill="#F4ECE5"></path>
            <path d="M494.01788,928.285293 L488.079194,928.285293 C498.323042,921.451661 502.887085,908.718563 499.316926,896.933447 C495.746768,885.148332 484.883806,877.088659 472.569791,877.088659 C460.255776,877.088659 449.392814,885.148332 445.822656,896.933447 C442.252497,908.718563 446.81654,921.451661 457.060388,928.285293 L451.121702,928.285293 C445.026537,928.285293 440.08543,933.226401 440.08543,939.321565 C440.08543,945.41673 445.026537,950.357837 451.121702,950.357837 L494.01788,950.357837 C500.113045,950.357837 505.054152,945.41673 505.054152,939.321565 C505.054152,933.226401 500.113045,928.285293 494.01788,928.285293 L494.01788,928.285293 Z" id="Path" fill="#BAB653"></path>
            <polygon id="Path" fill="#2B3D0A" points="474.162786 950.498021 472.569791 950.498021 470.976796 950.498021 470.976796 913.808152 470.976796 877.131027 472.569791 877.131027 474.162786 877.131027 474.162786 913.808152"></polygon>
            <path d="M187.538318,1007.36158 C187.333199,1007.36158 187.129936,1007.32273 186.939352,1007.24689 C186.74079,1007.16136 186.559427,1007.04045 186.404106,1006.89006 C185.787076,1006.26475 185.787076,1005.25968 186.404106,1004.63437 L238.871001,952.282175 L291.337896,899.917232 C291.63591,899.621369 292.039432,899.456292 292.459364,899.458238 C292.883949,899.451488 293.293191,899.617084 293.593458,899.917351 C293.893725,900.217618 294.059321,900.62686 294.052571,901.051445 C294.054517,901.471377 293.88944,901.874899 293.593577,902.172914 L241.113938,954.537857 L188.647043,1006.89006 C188.502052,1007.04693 188.323416,1007.16892 188.124541,1007.24689 C187.937942,1007.32116 187.739149,1007.36005 187.538318,1007.36158 L187.538318,1007.36158 Z" id="Path" fill="#2B3D0A"></path>
            <path d="M179.675293,1100.16312 C179.474309,1100.16312 179.275228,1100.12419 179.089071,1100.04842 C178.891085,1099.96748 178.709657,1099.85085 178.553824,1099.70434 C178.260116,1099.40384 178.091566,1099.00296 178.082295,1098.58287 C178.082295,1098.15697 178.251347,1097.74849 178.553824,1097.44866 L276.185324,998.874103 L373.816823,900.286807 C374.442128,899.669778 375.447199,899.669778 376.072504,900.286807 C376.376732,900.580211 376.547192,900.985629 376.544074,901.408276 C376.544074,901.831551 376.379538,902.23826 376.085248,902.542488 L278.441005,1001.06607 L180.809506,1099.64062 C180.664515,1099.79749 180.485879,1099.91948 180.287003,1099.99745 C180.095891,1100.09213 179.888067,1100.14842 179.675293,1100.16312 Z" id="Path" fill="#2B3D0A"></path>
            <path d="M323.720305,1100.16356 C323.520653,1100.16125 323.322643,1100.12682 323.134083,1100.06117 C322.9384,1099.98306 322.760634,1099.866 322.61158,1099.71708 L253.220703,1032.92597 L183.817081,966.147607 C183.200052,965.522302 183.200052,964.517231 183.817081,963.891926 C184.102556,963.582394 184.50473,963.40718 184.925806,963.40718 C185.348565,963.397252 185.757593,963.558105 186.060019,963.853694 L255.46364,1030.63206 L324.867262,1097.42317 C325.170127,1097.71859 325.344158,1098.12161 325.351719,1098.54464 C325.361464,1099.19904 324.973237,1099.79398 324.370247,1100.04842 C324.163299,1100.1292 323.942401,1100.16818 323.720305,1100.16356 L323.720305,1100.16356 Z" id="Path" fill="#2B3D0A"></path>
            <path d="M363.35403,1043.54169 C363.154271,1043.54169 362.956068,1043.50654 362.767807,1043.43974 C362.572124,1043.36163 362.394358,1043.24457 362.245305,1043.09565 L296.550176,980.064014 L230.855048,917.01963 C230.54738,916.727534 230.372436,916.322399 230.369946,915.898161 C230.357025,915.475875 230.514328,915.065919 230.80703,914.761221 C231.099732,914.456523 231.503043,914.282889 231.925541,914.279203 C232.3483,914.269275 232.757328,914.430129 233.059754,914.725717 L298.754882,977.757357 L364.45001,1040.80174 C364.752801,1041.0989 364.923388,1041.50533 364.923388,1041.92958 C364.923388,1042.35383 364.752801,1042.76026 364.45001,1043.05742 C364.297337,1043.21426 364.115524,1043.3398 363.914764,1043.427 C363.7355,1043.49604 363.546006,1043.5348 363.35403,1043.54169 Z" id="Path" fill="#2B3D0A"></path>
            <path d="M263.517825,1100.1632 C263.322327,1100.16125 263.12851,1100.12679 262.944346,1100.06117 C262.345424,1099.83037 261.943517,1099.26268 261.923808,1098.6211 C261.909567,1098.19993 262.065937,1097.79061 262.358124,1097.48689 L314.990691,1041.1968 L367.636001,984.919464 C367.918836,984.603065 368.320429,984.418425 368.744726,984.408685 C369.165897,984.394443 369.57522,984.550814 369.878938,984.843 C370.195337,985.125835 370.379978,985.527429 370.389718,985.951725 C370.40396,986.372896 370.247589,986.782219 369.955402,987.085938 L317.322836,1043.37602 L264.677525,1099.66611 C264.530553,1099.82956 264.347202,1099.95616 264.142279,1100.03568 C263.945504,1100.12191 263.732653,1100.16535 263.517825,1100.1632 Z" id="Path" fill="#2B3D0A"></path>
            <path d="M384.738399,961.763684 L382.737597,963.955645 L380.724051,966.147607 C381.413362,961.679769 381.01556,957.111604 379.56435,952.830166 C374.690921,938.515415 359.315734,930.673248 344.866586,935.132452 C330.417437,939.591655 322.135781,954.734644 326.17706,969.306207 C330.218339,983.877771 345.116571,992.592047 359.798464,988.972044 L357.797662,991.164006 L355.784116,993.343224 C351.764973,997.843239 352.104596,1004.7368 356.546603,1008.81996 C360.98861,1012.90312 367.886323,1012.66224 372.032668,1008.27915 L386.535298,992.489378 L401.050672,976.699608 C405.069814,972.199593 404.730191,965.306036 400.288184,961.222874 C395.846177,957.139712 388.948465,957.380596 384.802119,961.763684 L384.738399,961.763684 Z" id="Path" fill="#BAB653"></path>
            <path d="M499.625224,1098.57013 L347.054501,1098.57013 C338.622934,1098.57689 330.534757,1095.23047 324.572737,1089.26845 C318.610717,1083.30643 315.264288,1075.21825 315.271048,1066.78668 L315.271048,1008.95458 C315.271048,1004.46415 318.911273,1000.82393 323.401706,1000.82393 L523.278019,1000.82393 C527.768452,1000.82393 531.408678,1004.46415 531.408678,1008.95458 L531.408678,1066.78668 C531.415437,1075.21825 528.069008,1083.30643 522.106988,1089.26845 C516.144968,1095.23047 508.056791,1098.57689 499.625224,1098.57013 L499.625224,1098.57013 Z" id="Path" fill="#AD4D4D"></path>
            <path d="M315.271058,1041.94877 L280.3526,1041.94877 C279.19121,1041.95553 278.075409,1041.49719 277.254169,1040.67595 C276.432928,1039.85471 275.974588,1038.73891 275.981345,1037.57752 L275.981345,1024.29831 C275.974588,1023.13692 276.432928,1022.02112 277.254169,1021.19988 C278.075409,1020.37864 279.19121,1019.9203 280.3526,1019.92705 L315.271058,1019.92705 L315.271058,1041.94877 L315.271058,1041.94877 Z" id="Path" fill="#AD4D4D"></path>
            <path d="M566.327126,1041.94873 L531.408667,1041.94873 L531.408667,1019.9271 L566.327126,1019.9271 C567.487906,1019.92259 568.60254,1020.38129 569.423909,1021.20153 C570.238243,1022.02681 570.695893,1023.1389 570.698305,1024.29831 L570.698305,1037.57752 C570.695893,1038.73693 570.238243,1039.84902 569.423909,1040.6743 C568.60254,1041.49454 567.487906,1041.95323 566.327126,1041.94873 Z" id="Path" fill="#AD4D4D"></path>
            <polygon id="Path" fill="#2B3D0A" points="531.408667 1021.52013 423.339863 1021.52013 315.271058 1021.52013 315.271058 1019.92713 315.271058 1018.33413 423.339863 1018.33413 531.408667 1018.33413 531.408667 1019.92713"></polygon>
            <polygon id="Path" fill="#2B3D0A" points="385.503037 993.763774 358.49858 968.938535 331.481378 944.113295 332.564615 942.928107 333.635108 941.768406 360.652309 966.593646 387.669511 991.418885 386.586274 992.59133"></polygon>
            <path d="M809.660352,555.855724 L761.51366,535.07032 L713.303249,514.246685 C712.819362,514.02139 712.243541,514.177453 711.939645,514.61626 C711.604762,515.028327 711.604762,515.618772 711.939645,516.03084 L782.745102,596.457989 L853.537816,676.897883 C853.887563,677.302563 854.474421,677.403929 854.939652,677.140018 C855.396234,676.89489 855.615246,676.360715 855.462154,675.865622 L839.17537,623.449702 L822.888585,571.033783 L822.888585,571.033783 L828.929224,565.732295 L834.957118,560.418062 L838.525428,564.470642 L842.080993,568.523223 C843.154352,569.74433 845.014368,569.864147 846.235525,568.790846 L849.30682,566.076382 L852.390859,563.361918 C852.975228,562.848435 853.3326,562.124527 853.384888,561.348372 C853.438219,560.570215 853.176455,559.803291 852.658482,559.22013 L838.971466,543.557799 L825.271706,527.997421 C824.198348,526.776313 822.338332,526.656496 821.117174,527.729798 L818.045879,530.444262 L814.96184,533.158726 C814.376245,533.671934 814.01892,534.397059 813.968711,535.174095 C813.918503,535.95113 814.179538,536.71621 814.694217,537.300514 L818.262527,541.353094 L821.830836,545.405674 L815.790198,550.707163 L809.762304,556.021395 L809.673096,555.906699 L809.660352,555.855724 Z" id="Path" fill="#F98638"></path>
            <path d="M524.399488,118.533895 C543.974215,98.6150811 548.166979,83.4752532 543.145857,78.5815715 C538.124736,73.6878898 523.915217,79.0530981 506.659892,100.118869 C514.089622,72.9487399 509.692955,58.1529991 502.352432,57.821656 C495.01191,57.490313 484.6893,71.6233678 480.420072,102.272598 C472.773694,71.890991 460.921809,58.9431248 453.65775,60.4214245 C446.393691,61.8997242 443.832155,77.6894941 454.842939,104.783159 C434.987845,85.2084322 419.797041,81.0156684 414.903359,86.0495337 C410.009677,91.083399 415.374886,105.280174 436.440656,122.535499 C409.257784,115.105769 394.462043,119.502436 394.1307,126.842959 C393.799357,134.183481 407.932412,144.455115 438.594386,148.775319 C408.200035,156.421696 395.264912,168.286326 396.730468,175.537641 C398.196024,182.788956 414.011282,185.363236 441.092203,174.352452 C421.53022,194.28401 417.337456,209.411094 422.345833,214.304776 C427.354211,219.198457 441.589217,213.845993 458.844543,192.767478 C451.414813,219.950351 455.81148,234.746092 463.139258,235.077435 C470.467037,235.408778 480.751415,221.250235 485.071619,190.550029 C492.717996,220.931636 504.582626,233.879503 511.83394,232.401203 C519.085255,230.922903 521.659536,215.120389 510.661496,188.039468 C530.58031,207.601451 545.720138,211.794215 550.613819,206.785838 C555.507501,201.77746 550.142293,187.542454 529.076522,170.287128 C556.259395,177.729602 571.042392,173.320191 571.373735,165.992413 C571.705078,158.664634 557.559279,148.494952 526.910049,144.111028 C557.291656,136.464651 570.239522,124.600021 568.761222,117.348706 C567.282923,110.097392 551.493153,107.535855 524.399488,118.533895 Z" id="Path" fill="#F98638"></path>
            <path d="M512.127052,145.653048 C512.505652,159.674882 502.926046,172.011299 489.247272,175.117151 C475.568498,178.223003 461.600744,171.233163 455.886908,158.422727 C450.173072,145.612292 454.30473,130.549575 465.754894,122.447173 C477.205057,114.34477 492.784313,115.459585 502.964142,125.10978 C508.629035,130.466399 511.926442,137.859195 512.127052,145.653048 L512.127052,145.653048 Z" id="Path" fill="#DEB8FC"></path>
            <path d="M782.681383,1098.59574 C782.27952,1098.6007 781.891299,1098.44998 781.598146,1098.17506 C781.305751,1097.89584 781.12462,1097.51999 781.088387,1097.11731 L772.70286,979.783647 L764.304588,862.449981 C764.274336,862.028151 764.411721,861.611417 764.686907,861.290281 C764.967139,860.972131 765.360229,860.775586 765.782888,860.74229 C766.205133,860.707237 766.623584,860.844609 766.942894,861.123105 C767.262204,861.401602 767.455175,861.797499 767.477835,862.22059 L775.88885,979.554256 L784.287122,1096.88792 C784.338645,1097.76374 783.682985,1098.52114 782.808822,1098.59574 L782.694127,1098.59574 L782.681383,1098.59574 Z" id="Path" fill="#2B3D0A"></path>
            <path d="M170.117321,794.613867 C169.878296,794.609893 169.64153,794.566845 169.416403,794.486428 C169.188469,794.396316 168.980585,794.262057 168.804693,794.091365 C168.03775,793.366316 168.003522,792.156909 168.728229,791.389645 L171.417205,788.534997 L174.106181,785.667605 C174.437727,785.310917 174.894384,785.096288 175.380578,785.068639 C175.890245,785.054887 176.384784,785.242629 176.756926,785.591142 C177.523868,786.31619 177.558097,787.525597 176.83339,788.292862 L174.144413,791.147509 L171.455437,794.014901 C171.269865,794.204441 171.049093,794.355951 170.805495,794.46094 C170.588244,794.556221 170.35448,794.608168 170.117321,794.613867 L170.117321,794.613867 Z" id="Path" fill="#666538"></path>
            <path d="M119.638484,793.568862 L110.23344,793.568862 C109.725197,793.575694 109.236583,793.372873 108.88258,793.008128 C108.52279,792.650779 108.320882,792.164364 108.321842,791.657268 C108.323679,791.150731 108.525161,790.665344 108.88258,790.306408 C109.239929,789.946618 109.726344,789.74471 110.23344,789.74567 L119.638484,789.74567 C120.694229,789.74567 121.550082,790.601523 121.550082,791.657268 C121.551042,792.164364 121.349134,792.650779 120.989344,793.008128 C120.634482,793.371606 120.146436,793.574191 119.638484,793.568862 Z" id="Path" fill="#666538"></path>
            <polygon id="Path" fill="#666538" points="162.916982 853.580183 167.86164 849.234492 172.806297 844.901545 174.526732 857.097517 176.259911 869.293489 169.582075 861.430464"></polygon>
            <polygon id="Path" fill="#666538" points="296.397249 746.683823 288.827335 744.950644 281.244677 743.217465 286.724581 753.947882 292.191741 764.678299 294.307239 755.681061"></polygon>
            <path d="M268.870289,701.965257 C268.768707,701.977536 268.666016,701.977536 268.564434,701.965257 C268.455691,701.951865 268.348812,701.926214 268.245835,701.888794 L262.256172,699.811528 L256.26651,697.734262 C255.790034,697.564691 255.397414,697.217724 255.170529,696.765721 C254.949628,696.307836 254.917588,695.781462 255.081321,695.300165 C255.250892,694.823689 255.597859,694.431069 256.049862,694.204184 C256.509424,693.989799 257.033247,693.957914 257.515418,694.114976 L263.505081,696.192242 L269.507487,698.269508 C269.986537,698.436442 270.377404,698.790522 270.590724,699.250793 C270.817967,699.702465 270.850207,700.227524 270.679932,700.703605 C270.548086,701.082161 270.303481,701.411266 269.979014,701.646658 C269.648734,701.859407 269.263128,701.970214 268.870289,701.965257 Z" id="Path" fill="#666538"></path>
            <path d="M307.815839,679.026124 C307.34742,679.031528 306.893536,678.86359 306.541443,678.554598 C305.82124,677.89316 305.7116,676.79676 306.286564,676.005805 C306.599712,675.60597 307.057361,675.34511 307.56096,675.279399 L312.008603,674.718665 L316.456246,674.157931 C316.961568,674.095996 317.470719,674.238192 317.870826,674.552993 C318.692378,675.205575 318.839763,676.395988 318.202169,677.229226 C317.88723,677.62698 317.430495,677.887319 316.927773,677.955631 L312.48013,678.516366 L308.032487,679.0771 L307.790352,679.0771 L307.815839,679.026124 Z" id="Path" fill="#666538"></path>
            <path d="M425.799447,785.030407 C425.6319,785.028014 425.465165,785.006638 425.302433,784.966687 C425.138791,784.914773 424.980813,784.846459 424.830906,784.762784 L418.102094,780.812155 L411.373281,776.848783 C410.933898,776.595813 410.613006,776.178654 410.481204,775.689082 C410.356069,775.196808 410.429295,774.675079 410.685107,774.236271 C410.940298,773.796108 411.363543,773.478674 411.857552,773.356937 C412.349584,773.227533 412.872965,773.30099 413.310364,773.560841 L420.039176,777.511469 L426.767989,781.474842 C427.207398,781.724846 427.52519,782.143964 427.647322,782.634542 C427.776727,783.126574 427.70327,783.649955 427.443419,784.087354 C427.277974,784.380468 427.035614,784.622827 426.742501,784.788272 C426.452314,784.943952 426.128739,785.027032 425.799447,785.030407 L425.799447,785.030407 Z" id="Path" fill="#666538"></path>
            <path d="M404.402334,735.698527 C403.533607,735.697908 402.774536,735.111591 402.554459,734.271203 L401.62415,730.753869 L400.706585,727.236536 C400.43561,726.215983 401.043264,725.168993 402.063817,724.898019 C403.08437,724.627044 404.131359,725.234698 404.402334,726.255251 L405.319899,729.772584 L406.250208,733.289918 C406.383436,733.780259 406.314583,734.303541 406.059049,734.74273 C405.796899,735.179265 405.377241,735.49857 404.886604,735.634807 L404.644469,735.634807 L404.402334,735.698527 Z" id="Path" fill="#666538"></path>
            <polygon id="Path" fill="#666538" points="387.707742 806.427521 381.71808 802.833723 375.715673 799.239926 375.51177 813.003406 375.307867 826.766885 381.514177 816.597203"></polygon>
            <path d="M375.715673,754.852703 C375.534561,754.852363 375.354391,754.826624 375.180427,754.776239 C374.999256,754.721731 374.827386,754.640093 374.670669,754.534104 L371.102359,752.189215 L367.546793,749.831582 C367.104303,749.543843 366.80713,749.07951 366.73118,748.557186 C366.62847,748.060637 366.724554,747.543612 366.998803,747.117118 C367.297515,746.685843 367.756463,746.392116 368.273199,746.301504 C368.767307,746.197407 369.282504,746.298606 369.700523,746.581871 L373.256089,748.92676 L376.824398,751.284394 C377.261082,751.577854 377.556435,752.039342 377.640012,752.55879 C377.744109,753.052898 377.64291,753.568095 377.359645,753.986114 C377.188181,754.258203 376.945877,754.478478 376.658727,754.623312 C376.370205,754.78186 376.044783,754.861017 375.715673,754.852703 L375.715673,754.852703 Z" id="Path" fill="#666538"></path>
            <polygon id="Path" fill="#666538" points="789.639586 798.742911 786.160484 798.054737 782.681383 797.366563 784.554745 804.515926 786.415364 811.678033 788.021103 805.216844"></polygon>
            <polygon id="Path" fill="#666538" points="731.386932 765.557632 728.277405 766.207574 725.167878 766.857516 729.373386 771.241439 733.578894 775.612619 732.482913 770.591497"></polygon>
        </g>
    </g>
</svg>